<?xml version="1.0" encoding="utf-8"?>
<!-- Generator: Adobe Illustrator 24.1.0, SVG Export Plug-In . SVG Version: 6.00 Build 0)  -->
<svg version="1.1" id="Layer_1" xmlns="http://www.w3.org/2000/svg" xmlns:xlink="http://www.w3.org/1999/xlink" x="0px" y="0px"
	 viewBox="0 0 109.9 95.5" style="enable-background:new 0 0 109.9 95.5;" xml:space="preserve">
<style type="text/css">
	.st0{fill:none;stroke:#DDDDDD;stroke-width:0.64;stroke-linecap:round;stroke-miterlimit:10;stroke-dasharray:0.81,1.28;}
	.st1{fill:#DDDDDD;}
	.st2{fill:#D8D8D8;}
	.st3{fill:none;stroke:#DDDDDD;stroke-miterlimit:10;}
</style>
<g id="Group_92">
	<path id="Path_13" class="st0" d="M53.1,63.3c0.1,0,0.2-0.1,0.2-0.2l0,0c-0.1-0.2-0.3-0.3-0.5-0.2c-0.3,0-0.5,0.2-0.5,0.5
		c-0.1,0.4,0,0.7,0.3,1c0.4,0.3,0.9,0.4,1.3,0.2c0.5-0.2,0.9-0.7,1-1.2c0.1-0.7-0.2-1.3-0.7-1.8c-0.6-0.5-1.4-0.6-2.1-0.3
		c-0.8,0.4-1.4,1.1-1.5,2c-0.1,1,0.3,1.9,1.2,2.5c0.9,0.6,2,0.7,3,0.2c1.1-0.5,1.8-1.6,1.8-2.8C56.6,62,56,60.7,55,60
		c-1.2-0.8-2.6-0.9-3.9-0.2c-1.3,0.7-2.2,2-2.3,3.5c0,1.6,0.7,3.1,2,4c1.4,0.9,3.2,1,4.8,0.2c1.6-0.8,2.6-2.4,2.8-4.2
		c0.1-1.9-0.9-3.7-2.4-4.8c-1.7-1-3.8-1.1-5.6-0.2c-1.9,1-3.1,2.9-3.2,5c-0.1,2.2,1,4.3,2.9,5.5c2,1.2,4.4,1.3,6.4,0.2
		c2.1-1.1,3.5-3.3,3.6-5.8c0.1-2.5-1.2-4.9-3.3-6.2c-2.2-1.4-5-1.5-7.3-0.2c-2.4,1.3-3.9,3.8-4,6.5c-0.1,2.8,1.3,5.4,3.6,7
		c2.5,1.5,5.6,1.6,8.2,0.2c2.6-1.5,4.3-4.2,4.5-7.2c0.1-4.9-3.8-9-8.7-9.1c-1.6,0-3.1,0.4-4.5,1.1c-2.9,1.6-4.8,4.7-4.9,8
		c-0.1,3.4,1.7,6.6,4.6,8.4c3,1.8,6.8,1.9,9.9,0.2c3.2-1.8,5.2-5.1,5.3-8.7c0.1-3.7-1.8-7.3-5-9.2c-3.3-2-7.4-2.1-10.8-0.2
		c-3.4,1.9-5.6,5.5-5.8,9.4c0,4,2,7.8,5.4,9.9c3.6,2.1,8,2.2,11.7,0.2c3.7-2.1,6-6,6.2-10.2c0-4.3-2.2-8.4-5.9-10.7
		c-3.8-2.3-8.6-2.4-12.5-0.2c-4,2.2-6.5,6.4-6.6,10.9c0,4.7,2.4,9,6.4,11.5c4.1,2.4,9.2,2.5,13.4,0.2c4.2-2.4,6.9-6.9,7-11.7"/>
</g>
<g id="dot-group">
	<circle id="Ellipse_4" class="st1" cx="7.5" cy="38.2" r="0.3"/>
	<circle id="Ellipse_5" class="st1" cx="11.7" cy="38.2" r="0.3"/>
	<circle id="Ellipse_6" class="st1" cx="16" cy="38.2" r="0.3"/>
	<circle id="Ellipse_7" class="st1" cx="20.3" cy="38.2" r="0.3"/>
	<circle id="Ellipse_8" class="st1" cx="24.5" cy="38.2" r="0.3"/>
	<circle id="Ellipse_9" class="st1" cx="7.5" cy="42.2" r="0.3"/>
	<circle id="Ellipse_10" class="st1" cx="11.7" cy="42.2" r="0.3"/>
	<circle id="Ellipse_11" class="st1" cx="16" cy="42.2" r="0.3"/>
	<circle id="Ellipse_12" class="st1" cx="20.3" cy="42.2" r="0.3"/>
	<circle id="Ellipse_13" class="st1" cx="24.5" cy="42.2" r="0.3"/>
	<circle id="Ellipse_14" class="st1" cx="7.5" cy="46.2" r="0.3"/>
	<circle id="Ellipse_15" class="st1" cx="11.7" cy="46.2" r="0.3"/>
	<circle id="Ellipse_16" class="st1" cx="16" cy="46.2" r="0.3"/>
	<circle id="Ellipse_17" class="st1" cx="20.3" cy="46.2" r="0.3"/>
	<circle id="Ellipse_18" class="st1" cx="24.5" cy="46.2" r="0.3"/>
	<circle id="Ellipse_19" class="st1" cx="7.5" cy="50.2" r="0.3"/>
	<circle id="Ellipse_20" class="st1" cx="11.7" cy="50.2" r="0.3"/>
	<circle id="Ellipse_21" class="st1" cx="16" cy="50.2" r="0.3"/>
	<circle id="Ellipse_22" class="st1" cx="20.3" cy="50.2" r="0.3"/>
	<circle id="Ellipse_23" class="st1" cx="24.5" cy="50.2" r="0.3"/>
	<circle id="Ellipse_24" class="st1" cx="7.5" cy="34.2" r="0.3"/>
	<circle id="Ellipse_25" class="st1" cx="11.7" cy="34.2" r="0.3"/>
	<circle id="Ellipse_26" class="st1" cx="16" cy="34.2" r="0.3"/>
	<circle id="Ellipse_27" class="st1" cx="20.3" cy="34.2" r="0.3"/>
	<circle id="Ellipse_28" class="st1" cx="24.5" cy="34.2" r="0.3"/>
</g>
<path id="star" class="st1" d="M31.2,69.2l0.9,2.4l2,1.6L31.6,74L30,76l-0.9-2.4l-2-1.5l2.4-0.8L31.2,69.2z"/>
<circle id="circle" class="st2" cx="108.7" cy="81.5" r="1.2"/>
<circle id="circle-2" class="st2" cx="1.2" cy="21" r="1.2"/>
<circle id="circle-3" class="st2" cx="22.8" cy="2.4" r="1.2"/>
<circle id="circle-4" class="st2" cx="89.7" cy="25.8" r="1"/>
<g id="dot-group-2">
	<circle id="Ellipse_4-2" class="st1" cx="71.3" cy="83" r="0.3"/>
	<circle id="Ellipse_5-2" class="st1" cx="75.6" cy="83" r="0.3"/>
	<path id="Ellipse_6-2" class="st1" d="M79.8,82.7c0.2,0,0.3,0.1,0.3,0.3c0,0,0,0,0,0c0,0.2-0.1,0.3-0.3,0.3c0,0,0,0,0,0
		c-0.2,0-0.3-0.2-0.3-0.4C79.5,82.8,79.6,82.7,79.8,82.7z"/>
	<circle id="Ellipse_7-2" class="st1" cx="84.1" cy="83" r="0.3"/>
	<circle id="Ellipse_8-2" class="st1" cx="88.3" cy="83" r="0.3"/>
	<circle id="Ellipse_9-2" class="st1" cx="71.3" cy="87.1" r="0.3"/>
	<circle id="Ellipse_10-2" class="st1" cx="75.6" cy="87.1" r="0.3"/>
	<path id="Ellipse_11-2" class="st1" d="M79.8,86.7c0.2,0,0.3,0.1,0.3,0.3c0,0,0,0,0,0c0,0.2-0.1,0.3-0.3,0.3c0,0,0,0,0,0
		c-0.2,0-0.3-0.1-0.3-0.3c0,0,0,0,0,0C79.5,86.8,79.7,86.7,79.8,86.7z"/>
	<circle id="Ellipse_12-2" class="st1" cx="84.1" cy="87.1" r="0.3"/>
	<circle id="Ellipse_13-2" class="st1" cx="88.3" cy="87.1" r="0.3"/>
	<circle id="Ellipse_14-2" class="st1" cx="71.3" cy="91.1" r="0.3"/>
	<circle id="Ellipse_15-2" class="st1" cx="75.6" cy="91.1" r="0.3"/>
	<path id="Ellipse_16-2" class="st1" d="M79.8,90.7c0.2,0,0.3,0.2,0.3,0.4c0,0.2-0.1,0.3-0.3,0.3c-0.2,0-0.3-0.1-0.4-0.3
		c0,0,0,0,0,0C79.5,90.9,79.6,90.7,79.8,90.7z"/>
	<circle id="Ellipse_17-2" class="st1" cx="84.1" cy="91.1" r="0.3"/>
	<circle id="Ellipse_18-2" class="st1" cx="88.3" cy="91.1" r="0.3"/>
	<circle id="Ellipse_19-2" class="st1" cx="71.3" cy="95.1" r="0.3"/>
	<circle id="Ellipse_20-2" class="st1" cx="75.6" cy="95.1" r="0.3"/>
	<path id="Ellipse_21-2" class="st1" d="M79.8,94.7c0.2,0,0.3,0.2,0.3,0.4c0,0.2-0.1,0.3-0.3,0.3c-0.2,0-0.3-0.1-0.4-0.3
		c0,0,0,0,0,0C79.5,94.9,79.6,94.7,79.8,94.7z"/>
	<circle id="Ellipse_22-2" class="st1" cx="84.1" cy="95.1" r="0.3"/>
	<circle id="Ellipse_23-2" class="st1" cx="88.3" cy="95.1" r="0.3"/>
	<circle id="Ellipse_24-2" class="st1" cx="71.3" cy="79.1" r="0.3"/>
	<circle id="Ellipse_25-2" class="st1" cx="75.6" cy="79" r="0.3"/>
	<path id="Ellipse_26-2" class="st1" d="M79.8,78.7c0.2,0,0.3,0.1,0.3,0.3c0,0,0,0,0,0c0,0.2-0.1,0.3-0.3,0.3c0,0,0,0,0,0
		c-0.2,0-0.3-0.2-0.3-0.4C79.5,78.8,79.6,78.7,79.8,78.7z"/>
	<circle id="Ellipse_27-2" class="st1" cx="84.1" cy="79" r="0.3"/>
	<circle id="Ellipse_28-2" class="st1" cx="88.3" cy="79" r="0.3"/>
</g>
<path id="star-2" class="st1" d="M103.8,9.7l0.7,1.7l1.5,1.1l-1.8,0.6l-1.1,1.4l-0.7-1.7l-1.5-1.1l1.8-0.6L103.8,9.7z"/>
<circle id="circle-4-2" class="st2" cx="44.7" cy="86.1" r="1"/>
<path id="star-3" class="st1" d="M53.5,9.9L53,11.4l0.3,1.5l-1.4-0.6l-1.5,0.3l0.5-1.5l-0.3-1.5l1.4,0.6L53.5,9.9z"/>
<circle id="circle-4-3" class="st2" cx="72.2" cy="42.1" r="1"/>
<path class="st3" d="M76,26.4c-2.5,2.5-6.6,2.5-9.1,0c-2-2-2-5.3,0-7.3c1.6-1.6,4.2-1.6,5.8,0c1.3,1.3,1.3,3.4,0,4.7
	c-1,1-2.7,1-3.7,0c-0.8-0.8-0.8-2.2,0-3c0.7-0.7,1.7-0.7,2.4,0c0.5,0.5,0.5,1.4,0,1.9c-0.4,0.4-1.1,0.4-1.5,0
	c-0.3-0.3-0.3-0.9,0-1.2"/>
<path id="star_1_" class="st1" d="M33,69.7l0.9,2.4l2,1.6l-2.5,0.8l-1.6,2L31,74l-2-1.5l2.4-0.8L33,69.7z"/>
</svg>
