<?xml version="1.0" encoding="utf-8"?>
<!-- Generator: Adobe Illustrator 24.2.1, SVG Export Plug-In . SVG Version: 6.00 Build 0)  -->
<svg version="1.1" id="Layer_1" xmlns="http://www.w3.org/2000/svg" xmlns:xlink="http://www.w3.org/1999/xlink" x="0px" y="0px"
	 viewBox="0 0 24 24" style="enable-background:new 0 0 24 24;" xml:space="preserve">
<style type="text/css">
	.st0{fill:#B7B7B7;}
	.st1{opacity:0.21;fill:#B2B2B2;}
</style>
<path class="st0" d="M15.1,20.8h1v-2.2c0.1,0,0.3,0,0.5,0c0.7,0,1.4-0.2,1.8-0.6c0.3-0.3,0.5-0.8,0.5-1.3s-0.2-1-0.6-1.3
	C18,15.2,17.4,15,16.7,15c-0.7,0-1.2,0.1-1.6,0.1V20.8z M16.1,15.8c0.1,0,0.3-0.1,0.6-0.1c0.7,0,1.2,0.3,1.2,1s-0.5,1.1-1.3,1.1
	c-0.2,0-0.4,0-0.5,0C16.1,17.8,16.1,15.8,16.1,15.8z M14,17.6h-2v0.8h1v1.4c-0.1,0.1-0.4,0.1-0.8,0.1c-1.2,0-2-0.8-2-2.1
	c0-1.3,0.9-2.1,2.1-2.1c0.6,0,1,0.1,1.3,0.2l0.2-0.8c-0.2,0-0.8-0.1-1.5-0.1c-1.9,0-3.2,1.2-3.2,3c0,0.9,0.3,1.6,0.8,2.1
	s1.3,0.8,2.2,0.8c0.6,0,1.3-0.1,1.8-0.3C14,20.5,14,17.6,14,17.6z M4.7,20.8h1v-2.2c0.1,0,0.3,0,0.5,0c0.7,0,1.4-0.2,1.8-0.6
	c0.3-0.3,0.5-0.8,0.5-1.3s-0.2-1-0.6-1.3C7.6,15.2,7,15,6.3,15c-0.8,0-1.3,0-1.6,0.1V20.8L4.7,20.8z M5.7,15.8
	c0.1,0,0.3-0.1,0.6-0.1c0.7,0,1.2,0.3,1.2,1S7,17.8,6.2,17.8c-0.2,0-0.4,0-0.5,0C5.7,17.8,5.7,15.8,5.7,15.8z M11.7,3.4
	c-1.9,0-3.4,0.5-3.4,2.4V9h6.8V5.8C15.1,3.9,13.6,3.4,11.7,3.4z M18.5,9c1.2,0,2.3,0,2.3,1.3v11.3c0,1.2-1,2.3-2.3,2.3H4.9
	c-1.2,0-2.3-1-2.3-2.3V10.3C2.6,9,3.6,9,4.9,9H5V5.8c0-3.1,3.5-5.7,6.7-5.7s6.7,2.5,6.7,5.7V9H18.5"/>
<line class="st1" x1="18" y1="9" x2="18.1" y2="9"/>
<path class="st1" d="M7.1,9c1.2,0,13.3,0,13.3,1.3v11.3c0,1.2-1,2.3-2.3,2.3H4.5c-1.2,0-2.3-1-2.3-2.3V10.3C2.2,9,3.2,9,4.5,9h0.1
	V5.8c0-3.1,2.3-5.5,5.5-5.5"/>
</svg>
