<svg id="Layer_1" data-name="Layer 1" xmlns="http://www.w3.org/2000/svg" viewBox="0 0 200 200"><defs><style>.cls-1{fill:#395db0;}.cls-2{fill:#fff;}</style></defs><title>myanimelist</title><rect class="cls-1" width="200" height="200" rx="22.64"/><g id="_52g2ce.tif" data-name="52g2ce.tif"><path class="cls-2" d="M73.05,64.08v62.69H56.64V88.31L41.37,106,27.24,88.64v38.43H10.51v-63H27.07l14.17,20,15.25-20Z"/><path class="cls-2" d="M135.58,64.08c1.36,4.42,2.71,8.84,4.21,13.7H118.85c-9.81,0-15.14,4.91-16.22,15.22H119V79.84H137.1v47H119.26V106.38H98.12l7.17,21.15-12.1,8.39A107.57,107.57,0,0,1,83.07,106a38.65,38.65,0,0,1,1.56-20.91C89.35,72.54,99,64.88,112.13,65"/><path class="cls-2" d="M166.85,64.08v49.11h22.64l-3.58,13.72H150.3V64.08Z"/></g></svg>