<?xml version="1.0" encoding="utf-8"?>
<!-- Generator: Adobe Illustrator 24.0.1, SVG Export Plug-In . SVG Version: 6.00 Build 0)  -->
<svg version="1.1" id="Layer_1" xmlns="http://www.w3.org/2000/svg" xmlns:xlink="http://www.w3.org/1999/xlink" x="0px" y="0px"
	 viewBox="0 0 233 233" style="enable-background:new 0 0 233 233;" xml:space="preserve">
<style type="text/css">
	.st0{fill:url(#SVGID_1_);}
	.st1{fill:#FFFFFF;}
</style>
<linearGradient id="SVGID_1_" gradientUnits="userSpaceOnUse" x1="279.8067" y1="116.5" x2="280.3067" y2="116.5">
	<stop  offset="0" style="stop-color:#111D2E"/>
	<stop  offset="1" style="stop-color:#112032"/>
	<stop  offset="1" style="stop-color:#136497"/>
	<stop  offset="1" style="stop-color:#144B7E"/>
	<stop  offset="1" style="stop-color:#132E62"/>
	<stop  offset="1" style="stop-color:#0A1B48"/>
	<stop  offset="1" style="stop-color:#051839"/>
	<stop  offset="1" style="stop-color:#1387B8"/>
</linearGradient>
<path class="st0" d="M186.1,233H46.9C21,233,0,212,0,186.1V46.9C0,21,21,0,46.9,0h139.2C212,0,233,21,233,46.9v139.2
	C233,212,212,233,186.1,233z"/>
<path class="st1" d="M110.5,87.3c0,0.2,0,0.4,0,0.6L82,129.3c-4.6-0.2-9.3,0.6-13.6,2.4c-1.9,0.8-3.8,1.8-5.5,2.9L0.3,108.8
	c0,0-1.4,23.8,4.6,41.6l44.3,18.3c2.2,9.9,9,18.6,19.1,22.8c16.4,6.9,35.4-1,42.2-17.4c1.8-4.3,2.6-8.8,2.5-13.3l40.8-29.1
	c0.3,0,0.7,0,1,0c24.4,0,44.2-19.9,44.2-44.3c0-24.4-19.8-44.3-44.2-44.3C130.4,43,110.5,62.9,110.5,87.3z M103.7,171.2
	c-5.3,12.7-19.9,18.7-32.6,13.4c-5.9-2.4-10.3-6.9-12.8-12.2l14.4,6c9.4,3.9,20.1-0.5,24-9.9c3.9-9.4-0.5-20.1-9.9-24l-14.9-6.2
	c5.7-2.2,12.3-2.3,18.4,0.3c6.2,2.6,10.9,7.4,13.5,13.5S106.2,165.1,103.7,171.2 M154.8,116.9c-16.2,0-29.5-13.2-29.5-29.5
	c0-16.3,13.2-29.5,29.5-29.5c16.3,0,29.5,13.3,29.5,29.5C184.2,103.6,171,116.9,154.8,116.9 M132.7,87.3c0-12.3,9.9-22.2,22.1-22.2
	c12.2,0,22.1,9.9,22.1,22.2c0,12.3-9.9,22.2-22.1,22.2C142.6,109.5,132.7,99.5,132.7,87.3z"/>
</svg>
