<?xml version="1.0" encoding="utf-8"?>
<!-- Generator: Adobe Illustrator 24.0.1, SVG Export Plug-In . SVG Version: 6.00 Build 0)  -->
<svg version="1.1" xmlns="http://www.w3.org/2000/svg" xmlns:xlink="http://www.w3.org/1999/xlink" x="0px" y="0px"
	 viewBox="0 0 100 100" style="enable-background:new 0 0 100 100;" xml:space="preserve">
<style type="text/css">
	.st0{fill:#DA2724;}
	.st1{fill:#FFFFFF;}
</style>
<g id="Layer_2">
</g>
<g id="Layer_1">
	<g>
		<path class="st0" d="M88,100H12c-6.6,0-12-5.4-12-12V12C0,5.4,5.4,0,12,0h76c6.6,0,12,5.4,12,12v76C100,94.6,94.6,100,88,100z"/>
		<g>
			<g>
				<path class="st1" d="M73.2,70.3c-15.5,0.9-30.9,0.9-46.4,0c-2.6-0.2-5.1-2.5-5.4-5.1c-1.1-10.1-1.1-20.3,0-30.4
					c0.3-2.6,2.8-4.9,5.4-5.1c15.5-0.9,30.9-0.9,46.4,0c2.6,0.2,5.1,2.5,5.4,5.1c1.1,10.1,1.1,20.3,0,30.4
					C78.3,67.8,75.8,70.1,73.2,70.3z"/>
			</g>
			<polygon class="st0" points="43.3,41.1 59.1,49.3 43.3,57.6 			"/>
		</g>
	</g>
</g>
</svg>
