<svg id="Layer_1" data-name="Layer 1" xmlns="http://www.w3.org/2000/svg" viewBox="0 0 295 256.65"><defs><style>.cls-1{opacity:0.12;}.cls-2{fill:#aaa;}.cls-3{fill:none;}.cls-4{fill:#c2d0e1;}.cls-5{fill:#f68a5d;}.cls-6{fill:#cc6e4e;}.cls-7{fill:#cb4e53;opacity:0.3;}.cls-10,.cls-13,.cls-7,.cls-8{isolation:isolate;}.cls-8{opacity:0.1;}.cls-9{fill:#fce0c3;}.cls-10,.cls-11{fill:#dbbb9e;}.cls-10{opacity:0.4;}.cls-12{fill:#fff;}.cls-14{fill:#ef473f;}</style></defs><g id="Layer_1-2" data-name="Layer 1-2"><g class="cls-1"><path class="cls-2" d="M41.2,69.34C41.47,54,50.17,39.53,65,29.7c15.13-9.25,37.74-11.31,53.75-3.17,4.88,2.47,9.06,5.71,13.94,8.14,15.44,7.68,35.58,6.09,52.78,1.7s33.86-11.26,51.9-13.59,39,1.14,48.9,13.28,4.4,30.05-9.72,39.47c-12,8-29.68,11.69-36.28,23a32.33,32.33,0,0,0-3.26,15.79c-.35,15.23-.39,31.72,10.87,43.85a119.61,119.61,0,0,0,19,14.57c14.82,10.44,27.14,24.17,27.67,40.55a28.07,28.07,0,0,1-3.87,15.16c-10.3,17.91-34.05,20.14-55.29,18.75-16.23-.94-32.81-3.48-48.38,0-11.43,2.4-21.51,7.65-32.41,11.16a111,111,0,0,1-51.42,3.48,62,62,0,0,1-28.15-11.06c-15.87-12.62-15.61-32.62-11.92-50s10.21-35.54,3.21-52.16A55.67,55.67,0,0,0,59.54,137C44.76,117.31,38.17,94.46,40.72,71.67Z" transform="translate(-28 -6.68)"/></g><line class="cls-3" x1="17.07" y1="167.76" x2="15.93" y2="174.29"/><path class="cls-4" d="M44.72,182.46a1.67,1.67,0,0,0,1.19-1.25l1.14-6.53c.12-.88-.69-1.67-1.81-1.76a2,2,0,0,0-2.19,1.3l-1.14,6.54c-.17.87.59,1.69,1.69,1.82A2.36,2.36,0,0,0,44.72,182.46Z" transform="translate(-28 -6.68)"/><line class="cls-3" x1="12.37" y1="170.57" x2="20.64" y2="171.48"/><path class="cls-4" d="M49.43,179.61a1.49,1.49,0,0,0,1.07-2.09,2,2,0,0,0-1.6-1l-8.27-1a2,2,0,0,0-2.22,1.43,1.71,1.71,0,0,0,1.65,1.73l8.27.91A2.54,2.54,0,0,0,49.43,179.61Z" transform="translate(-28 -6.68)"/><path class="cls-4" d="M28.45,142.82c-1.21-2.22.1-4.8,2.91-5.75s6.07.08,7.28,2.3-.09,4.79-2.89,5.75S29.68,145,28.45,142.82Zm2.77-.94a2.8,2.8,0,0,0,3.31,1,1.84,1.84,0,0,0,1.26-2.63,2.82,2.82,0,0,0-3.25-1,1.87,1.87,0,0,0-1.28,2.64Z" transform="translate(-28 -6.68)"/><ellipse class="cls-4" cx="13.31" cy="194.26" rx="3.04" ry="2.41"/><path class="cls-4" d="M203.63,253.34a2.63,2.63,0,0,1,3.12-.66,2.07,2.07,0,0,1,.84.66l1.27,1.74,1.28,1.73a1.62,1.62,0,0,1-.84,2.47,2.75,2.75,0,0,1-1.14.25h-5.1a2.09,2.09,0,0,1-2.29-1.81,1.56,1.56,0,0,1,.31-.91l1.27-1.73Z" transform="translate(-28 -6.68)"/><line class="cls-3" x1="280.88" y1="115.24" x2="276.52" y2="120.88"/><path class="cls-4" d="M304.52,129.15a2.19,2.19,0,0,0,1.72-.76l4.4-5.63a1.47,1.47,0,0,0-.93-2.15,2.37,2.37,0,0,0-2.5.48l-4.4,5.63a1.42,1.42,0,0,0,.67,2.2A2.4,2.4,0,0,0,304.52,129.15Z" transform="translate(-28 -6.68)"/><line class="cls-3" x1="275.12" y1="116.36" x2="282.24" y2="119.8"/><path class="cls-4" d="M310.24,128.08a1.84,1.84,0,0,0,2-1.62,1.59,1.59,0,0,0-.95-1.34l-7.13-3.48a2.39,2.39,0,0,0-2.83.32,1.39,1.39,0,0,0,.39,2.24l.33.16,7.12,3.47A2.4,2.4,0,0,0,310.24,128.08Z" transform="translate(-28 -6.68)"/><path class="cls-4" d="M297.44,94.1c0-2.42,2.48-4.38,5.54-4.38s5.54,2,5.54,4.38S306,98.48,303,98.48h0C299.93,98.46,297.47,96.51,297.44,94.1Zm3,0a2.57,2.57,0,1,0,2.5-2h0A2.32,2.32,0,0,0,300.48,94.1Z" transform="translate(-28 -6.68)"/><ellipse class="cls-4" cx="280.04" cy="150.58" rx="3.03" ry="2.4"/><path class="cls-4" d="M319.92,179a2.65,2.65,0,0,0-3.13-.66,2.1,2.1,0,0,0-.83.66l-1.28,1.74-1.27,1.73a1.63,1.63,0,0,0,.83,2.48,3,3,0,0,0,1.15.24h5.1a2.21,2.21,0,0,0,2.5-1.62,1.53,1.53,0,0,0-.3-1.1l-1.28-1.73Z" transform="translate(-28 -6.68)"/><line class="cls-3" x1="123.64" y1="12.55" x2="130.77" y2="9.11"/><path class="cls-4" d="M160.79,15.79a1.56,1.56,0,0,1-1,1.35l-7.12,3.48a2.29,2.29,0,0,1-2.71-.73,1.39,1.39,0,0,1,.6-2l7.12-3.48a2.36,2.36,0,0,1,2.78.53A1.3,1.3,0,0,1,160.79,15.79Z" transform="translate(-28 -6.68)"/><line class="cls-3" x1="125.05" y1="8" x2="129.36" y2="13.63"/><path class="cls-4" d="M159.38,20.31a1.85,1.85,0,0,1-2,1.58,2.16,2.16,0,0,1-1.7-.75l-4.48-5.6a1.39,1.39,0,0,1,.39-2.24,2.4,2.4,0,0,1,2.84.32,2.43,2.43,0,0,1,.2.25l4.4,5.64A1.38,1.38,0,0,1,159.38,20.31Z" transform="translate(-28 -6.68)"/><path class="cls-4" d="M93.72,17.77c0,2.42-2.48,4.38-5.54,4.38s-5.55-2-5.55-4.38,2.49-4.38,5.55-4.38S93.69,15.36,93.72,17.77Zm-8.1,0a2.58,2.58,0,0,0,5,0,2.29,2.29,0,0,0-2.51-2h0A2.34,2.34,0,0,0,85.62,17.77Z" transform="translate(-28 -6.68)"/><ellipse class="cls-4" cx="192.61" cy="11.89" rx="3.03" ry="2.4"/><path class="cls-4" d="M268.37,12.07a1.62,1.62,0,0,1-.83-2.48,2,2,0,0,1,.83-.65l2.2-1,2.2-1a2.64,2.64,0,0,1,3.12.66,1.55,1.55,0,0,1,.31.9v3.93a2.1,2.1,0,0,1-2.29,1.81,2.71,2.71,0,0,1-1.14-.24l-2.2-1Z" transform="translate(-28 -6.68)"/></g><path class="cls-5" d="M287.23,51.81V215.86a13.12,13.12,0,0,1-11.16,13,13,13,0,0,1-2,.15H68.52a14.48,14.48,0,0,1-1.47-.08,12.57,12.57,0,0,1-2-.4,13.12,13.12,0,0,1-9.64-12.14V51.81a9.34,9.34,0,0,1,9.34-9.33H277.89a9.34,9.34,0,0,1,9.34,9.33Z" transform="translate(-28 -6.68)"/><path class="cls-6" d="M278,223.75h-1.53v-1.91H278a2.05,2.05,0,0,0,2.05-1.68l1.88.33A4,4,0,0,1,278,223.75Zm-3.45,0h-5.75v-1.91h5.75Zm-7.66,0h-5.75v-1.91h5.75Zm-7.67,0h-5.75v-1.91h5.75Zm-7.67,0H245.8v-1.91h5.74Zm-7.66,0h-5.75v-1.91h5.75Zm-7.67,0h-5.75v-1.91h5.75Zm-7.66,0H222.8v-1.91h5.75Zm-7.67,0h-5.75v-1.91h5.75Zm-7.66,0h-5.75v-1.91h5.74Zm-7.67,0H199.8v-1.91h5.75Zm-7.66,0h-5.76v-1.91h5.75Zm-7.67,0h-5.75v-1.91h5.75Zm-7.67,0H176.8v-1.91h5.75Zm-7.66,0h-5.75v-1.91h5.74Zm-7.67,0h-5.75v-1.91h5.75Zm-7.66,0H153.8v-1.91h5.75Zm-7.67,0h-5.75v-1.91h5.75Zm-7.67,0h-5.75v-1.91h5.75Zm-7.66,0h-5.75v-1.91h5.74Zm-7.67,0h-5.77v-1.91h5.75Zm-7.67,0h-5.73v-1.91h5.73Zm-7.67,0h-5.74v-1.91h5.75Zm-7.67,0h-5.73v-1.91h5.74Zm-7.66,0H92.48v-1.91h5.75Zm-7.67,0H84.81v-1.91h5.75Zm-7.66,0H77.15v-1.91H82.9Zm-7.67,0H69.48v-1.91h5.75Zm-7.67,0H64.18a2.35,2.35,0,0,1-.37-.05l-.32-.08-.09,0-.33-.12a1.33,1.33,0,0,1-.24-.11,1.71,1.71,0,0,1-.23-.13l-.13-.08-.19-.12-.17-.13-.27-.23c-.1-.1-.2-.21-.29-.32l-.12-.14L63,221.05l.07.08c0,.07.11.12.16.18l.11.09.33.22.05,0,.14.07.17.06.07,0,.12,0,.19,0h3.2ZM61,219.81h-.35v-5.72h1.91v5.72Zm221-1.41h-1.91v-5.75H282ZM62.54,212.15H60.63V206.4h1.91ZM282,210.72h-1.91V205H282ZM62.54,204.48H60.63v-5.75h1.91ZM282,203.05h-1.91v-5.73H282ZM62.54,196.81H60.63v-5.74h1.91ZM282,195.38h-1.91v-5.72H282ZM62.54,189.15H60.63V183.4h1.91ZM282,187.72h-1.91V182H282ZM62.54,181.48H60.63v-5.75h1.91ZM282,180.05h-1.91v-5.72H282ZM62.54,173.82H60.63v-5.75h1.91ZM282,172.38h-1.91v-5.72H282ZM62.54,166.15H60.63V160.4h1.91ZM282,164.72h-1.91V159H282ZM62.54,158.48H60.63v-5.74h1.91ZM282,157.05h-1.91v-5.72H282ZM62.54,150.82H60.63v-5.75h1.91ZM282,149.39h-1.91v-5.73H282ZM62.54,143.13H60.63v-5.72h1.91ZM282,141.7h-1.91V136H282ZM62.54,135.5H60.63v-5.76h1.91ZM282,134.07h-1.91v-5.73H282ZM62.54,127.82H60.63v-5.75h1.91ZM282,126.39h-1.91v-5.73H282ZM62.54,120.15H60.63v-5.74h1.91ZM282,118.72h-1.91V113H282ZM62.54,112.49H60.63v-5.75h1.91ZM282,111.06h-1.91v-5.73H282ZM62.54,104.83H60.63V99.07h1.91ZM282,103.4h-1.91V97.67H282ZM62.54,97.16H60.63V91.41h1.91ZM282,95.73h-1.91V90H282ZM62.54,89.49H60.63V83.74h1.91ZM282,88.06h-1.91V82.33H282ZM62.54,81.83H60.63V76.08h1.91ZM282,80.4h-1.91V74.67H282ZM62.54,74.16H60.63V68.41h1.91ZM282,72.73h-1.91V67H282ZM62.54,66.5H60.63V60.75h1.91ZM282,65.06h-1.91V59.34H282ZM62.54,58.83H60.63V53.08h1.91ZM282,57.4h-1.91V51.67l1.91,0V57.4ZM62.57,51.33,60.69,51a4,4,0,0,1,3.94-3.28h1.51v1.91H64.63A2.06,2.06,0,0,0,62.57,51.33Zm217.12-.85-.09-.1-.09-.11,0,0-.11-.1a2.09,2.09,0,0,0-1.37-.51H275V47.71H278a4,4,0,0,1,2.56.93,3,3,0,0,1,.32.29l.22.24.1.12-1.54,1.13Zm-6.57-.85h-5.75V47.72h5.75Zm-7.67,0H259.7V47.72h5.75Zm-7.67,0H252V47.72h5.74Zm-7.66,0h-5.75V47.72h5.75Zm-7.67,0H236.7V47.72h5.75Zm-7.66,0H229V47.72h5.75Zm-7.67,0H221.4V47.72h5.72Zm-7.67,0h-5.74V47.72h5.74Zm-7.66,0H206V47.72h5.75Zm-7.67,0h-5.75V47.72h5.76Zm-7.66,0h-5.75V47.72h5.75Zm-7.67,0h-5.74V47.72h5.74Zm-7.67,0h-5.74V47.72h5.75Zm-7.66,0h-5.75V47.72h5.75Zm-7.67,0h-5.74V47.72h5.75Zm-7.66,0h-5.75V47.72h5.75Zm-7.67,0h-5.74V47.72h5.74Zm-7.67,0h-5.74V47.72h5.75Zm-7.66,0h-5.75V47.72h5.75Zm-7.67,0h-5.77V47.72h5.78Zm-7.67,0h-5.73V47.72h5.73Zm-7.64,0h-5.76V47.72h5.76Zm-7.66,0H98.72V47.72h5.75Zm-7.67,0H91.05V47.72H96.8Zm-7.67,0H83.39V47.72h5.75Zm-7.66,0H75.72V47.72h5.75Zm-7.67,0H68.06V47.72H73.8Z" transform="translate(-28 -6.68)"/><path class="cls-7" d="M287.23,161.85V217a11.48,11.48,0,0,1-8.25,11,12,12,0,0,1-3.23.95H65.49A14.16,14.16,0,0,1,55.4,216.38a.83.83,0,0,1,.84-.72c1,0,2.81.05,5.35.06,3.4,0,8.11,0,13.83-.1l2.57,0h.06l5.25-.14,2.83-.08,4.43-.16,2.55-.1h.53l3.19-.14h.32l2.57-.13,2.26-.12,2.45-.14,2.44-.14,1.77-.11,1.77-.11.66-.05,1.69-.11q6-.41,12.41-1l1.9-.17,3.6-.33c51.49-4.9,116.3-17,150.36-46.85q2.49-2.17,4.77-4.49a.84.84,0,0,1,1.43.59Z" transform="translate(-28 -6.68)"/><path class="cls-8" d="M198.5,44.86v84.38c0,5.82-3.34,10.55-7.43,10.55H151.54c-4.09,0-7.43-4.73-7.43-10.55V44.86Z" transform="translate(-28 -6.68)"/><rect class="cls-8" x="46.47" y="179.39" width="56.77" height="33.87" rx="5.72"/><path class="cls-9" d="M198.5,42v84.37c0,5.83-3.34,10.56-7.43,10.56H151.54c-2.74,0-5.14-2.12-6.42-5.25a13.91,13.91,0,0,1-1-5.3V42Z" transform="translate(-28 -6.68)"/><path class="cls-10" d="M198.5,113.41v13c0,5.83-3.34,10.56-7.43,10.56H151.54c-2.74,0-5.14-2.12-6.42-5.25C155.61,132.64,184.81,133.39,198.5,113.41Z" transform="translate(-28 -6.68)"/><path class="cls-11" d="M187.05,100.72,184.32,96,181,90.27a1.21,1.21,0,0,0-1.66-.44,1.27,1.27,0,0,0-.45.44L175.61,96l-2.73,4.72a1.92,1.92,0,0,0,.76,2.59,1.81,1.81,0,0,0,.88.23h2.7v17.18a2.81,2.81,0,0,0,2.38,2.83,2.77,2.77,0,0,0,3.1-2.38c0-.11,0-.23,0-.35V103.54h2.7a1.92,1.92,0,0,0,1.86-2A2,2,0,0,0,187.05,100.72Z" transform="translate(-28 -6.68)"/><path class="cls-11" d="M169.87,100.72,167.15,96l-3.31-5.73a1.21,1.21,0,0,0-1.66-.44,1.32,1.32,0,0,0-.44.44L158.44,96l-2.73,4.72a1.91,1.91,0,0,0,.76,2.59,1.8,1.8,0,0,0,.87.23H160v17.18a2.83,2.83,0,0,0,2.39,2.83,2.76,2.76,0,0,0,3.09-2.38,2,2,0,0,0,0-.35V103.54h2.7a1.92,1.92,0,0,0,1.86-2A1.85,1.85,0,0,0,169.87,100.72Z" transform="translate(-28 -6.68)"/><rect class="cls-12" x="45.99" y="177" width="56.77" height="33.87" rx="5.72"/><rect class="cls-11" x="52.19" y="184.87" width="39.59" height="2.39"/><rect class="cls-11" x="52.19" y="191.67" width="25.28" height="2.39"/><rect class="cls-11" x="52.19" y="198.47" width="25.28" height="2.39"/><path class="cls-10" d="M130.71,212.55a5.73,5.73,0,0,1-5.68,5H79.71a5.72,5.72,0,0,1-4.29-1.91C89.11,215.38,108.69,214.63,130.71,212.55Z" transform="translate(-28 -6.68)"/><g class="cls-13"><path class="cls-14" d="M196.85,172l-3,1.51L191.11,171l-5.45,2.75.44,3.67-2.92,1.47L181.6,162.6l2.91-1.47Zm-7.79-2.83-4.43-4.11.72,6Z" transform="translate(-28 -6.68)"/><path class="cls-14" d="M198.32,171.26l-6.89-13.63,5.79-2.92a11.12,11.12,0,0,1,3.36-1.24,3.53,3.53,0,0,1,2.25.5,4.45,4.45,0,0,1,1.68,1.85,4.08,4.08,0,0,1,.38,3,4.88,4.88,0,0,1-2.06,2.62,7,7,0,0,1,2,.4,16.17,16.17,0,0,1,2.68,1.42l3,1.81-3.29,1.67-3.49-2a21.1,21.1,0,0,0-2.46-1.27,2.23,2.23,0,0,0-1.11-.15,5,5,0,0,0-1.46.55l-.56.28,2.87,5.69ZM197.1,162l2-1a11.88,11.88,0,0,0,2.39-1.41,1.69,1.69,0,0,0,.48-1,1.94,1.94,0,0,0-.24-1.16,1.83,1.83,0,0,0-.93-.93,1.87,1.87,0,0,0-1.3,0c-.24.08-.92.41-2,1l-2.15,1.09Z" transform="translate(-28 -6.68)"/><path class="cls-14" d="M218.24,154.89l3.1-.5a6.71,6.71,0,0,1-.37,4.35,6.51,6.51,0,0,1-3.07,2.91,6.58,6.58,0,0,1-5.4.4,8,8,0,0,1-4.31-4.19,8.35,8.35,0,0,1-.91-6.17,6.72,6.72,0,0,1,3.67-4.21,6.29,6.29,0,0,1,4.8-.58,6.08,6.08,0,0,1,2.67,1.8l-2.4,2a3.16,3.16,0,0,0-4-.83,3.44,3.44,0,0,0-1.9,2.33,5.93,5.93,0,0,0,.83,4,6.42,6.42,0,0,0,2.79,3.21,3.41,3.41,0,0,0,3-.13,3.06,3.06,0,0,0,1.54-1.65A4.53,4.53,0,0,0,218.24,154.89Z" transform="translate(-28 -6.68)"/><path class="cls-14" d="M225.81,157.36l-6.89-13.63,2.76-1.39,2.71,5.36,5.39-2.72-2.71-5.36,2.75-1.39,6.89,13.62L234,153.24l-3-6L225.55,150l3,6Z" transform="translate(-28 -6.68)"/><path class="cls-14" d="M239.47,150.45l-6.89-13.62,2.75-1.39,6.89,13.62Z" transform="translate(-28 -6.68)"/><path class="cls-14" d="M248.31,146l-11.76-11.16,3-1.51,8.54,8.34-1.76-11.77,2.92-1.48,2,16.1Z" transform="translate(-28 -6.68)"/><path class="cls-14" d="M257.53,141.32l-6.89-13.63,10.11-5.1,1.16,2.3-7.35,3.72,1.53,3,6.84-3.46,1.16,2.29-6.84,3.46,1.87,3.71,7.61-3.85,1.16,2.3Z" transform="translate(-28 -6.68)"/></g><path class="cls-9" d="M74.94,78a19,19,0,0,0-.65-3.34,17.8,17.8,0,0,0-1-2.67A19.49,19.49,0,0,0,55.62,60.6h-.24v3.34h.24A16.1,16.1,0,0,1,71.7,80c0,.3,0,.59,0,.88a15.72,15.72,0,0,1-.57,3.47,16,16,0,0,1-4.15,7c-.33.33-.67.64-1,1a16,16,0,0,1-10.32,3.75h-.24V99.5h.24a19.25,19.25,0,0,0,10.33-3,19.64,19.64,0,0,0,6.16-6.21,18.88,18.88,0,0,0,2.53-6.25,19.17,19.17,0,0,0,.42-3.37V80A17.15,17.15,0,0,0,74.94,78Z" transform="translate(-28 -6.68)"/><path class="cls-6" d="M86,78.13a18.52,18.52,0,0,1-9.32-2.52A16.28,16.28,0,0,0,64.21,74L56,76.15,55.38,74l8.23-2.19a18.51,18.51,0,0,1,14.14,1.91,16.3,16.3,0,0,0,12.1,1.75l9.36-2.28.53,2.17L90.38,77.6A18.82,18.82,0,0,1,86,78.13Z" transform="translate(-28 -6.68)"/><path class="cls-6" d="M86,82.18a18.53,18.53,0,0,1-9.32-2.53A16.31,16.31,0,0,0,64.2,78L56,80.16,55.38,78l8.23-2.19a18.51,18.51,0,0,1,14.14,1.91,16.3,16.3,0,0,0,12.1,1.75l9.36-2.28.53,2.17-9.36,2.28A18.81,18.81,0,0,1,86,82.18Z" transform="translate(-28 -6.68)"/><path class="cls-6" d="M86,86.22a18.52,18.52,0,0,1-9.32-2.52A16.26,16.26,0,0,0,64.2,82L56,84.22l-.59-2.15,8.23-2.19a18.51,18.51,0,0,1,14.14,1.91A16.29,16.29,0,0,0,89.87,83.5l9.35-2.28.53,2.17-9.36,2.28A18.35,18.35,0,0,1,86,86.22Z" transform="translate(-28 -6.68)"/><path class="cls-6" d="M86,90.27a18.53,18.53,0,0,1-9.32-2.53A16.31,16.31,0,0,0,64.2,86.08L56,88.27l-.59-2.16,8.23-2.19a18.46,18.46,0,0,1,14.14,1.91,16.3,16.3,0,0,0,12.1,1.75l9.36-2.28.53,2.17-9.36,2.28A18.81,18.81,0,0,1,86,90.27Z" transform="translate(-28 -6.68)"/><path class="cls-14" d="M181.88,188.58,167.62,160l77.84-38.81,14.26,28.62Zm-12.34-28,13,26,75.28-37.54-13-26Z" transform="translate(-28 -6.68)"/></svg>