<?xml version="1.0" encoding="utf-8"?>
<!-- Generator: Adobe Illustrator 25.0.1, SVG Export Plug-In . SVG Version: 6.00 Build 0)  -->
<svg version="1.1" id="Layer_1" xmlns="http://www.w3.org/2000/svg" xmlns:xlink="http://www.w3.org/1999/xlink" x="0px" y="0px"
	 viewBox="0 0 653 351.5" style="enable-background:new 0 0 653 351.5;" xml:space="preserve">
<style type="text/css">
	.st0{opacity:0.15;fill:#A9EA9C;enable-background:new    ;}
	.st1{opacity:0.15;fill:#32CAF8;enable-background:new    ;}
	.st2{fill:#2BC3F7;}
	.st3{fill:#9FE791;}
	.st4{fill:#FFFFFF;}
	.st5{opacity:0.1;fill:#2898B2;enable-background:new    ;}
	.st6{fill:#426572;}
	.st7{fill:#EF473F;}
	.st8{fill:#A9EA9C;}
	.st9{fill:#91CD86;}
	.st10{opacity:0.15;}
	.st11{fill:#32CAF8;}
</style>
<g id="Layer_2_1_">
	<g id="Layer_1-2">
		<path class="st0" d="M74.5,130.6h350c41.1,0,74.5,33.3,74.5,74.5l0,0l0,0c0,41.1-33.3,74.5-74.5,74.5l0,0h-350
			C33.4,279.6,0,246.2,0,205.1l0,0l0,0C0,163.9,33.3,130.6,74.5,130.6L74.5,130.6z"/>
		<path class="st1" d="M220.5,94.5h358c41.1,0,74.5,33.3,74.5,74.5l0,0l0,0c0,41.1-33.3,74.5-74.5,74.5l0,0h-358
			c-41.1,0-74.5-33.3-74.5-74.5l0,0l0,0C146,127.9,179.3,94.6,220.5,94.5L220.5,94.5z"/>
		<circle class="st2" cx="151.5" cy="308" r="7.5"/>
		<circle class="st2" cx="528.5" cy="301" r="7.5"/>
		<circle class="st3" cx="265.5" cy="178.1" r="7.5"/>
		<circle class="st3" cx="475.5" cy="58" r="7.5"/>
		<path class="st4" d="M446.8,233.9c0-12.4-10-22.4-22.4-22.4l0,0h-175c-12.4,0-22.4,10-22.4,22.4v36.4h-11
			c-21,0-38.1,17.1-38.1,38.1l0,0l0,0c0,21,17.1,38.1,38.1,38.1h238.9c21,0,38.1-17.1,38.1-38.1l0,0l0,0c0-21-17.1-38.1-38.1-38.1
			l0,0h-8.1V233.9z"/>
		<path class="st5" d="M468.6,343.9c-4.4,1.7-9,2.6-13.7,2.5H216c-21,0.3-38.3-16.5-38.7-37.5c-0.3-21,16.4-38.3,37.4-38.7H227
			v-36.4c0-11.6,8.8-21.2,20.4-22.3c0.6,28.1-4,57.1-26.7,71.6c-5.6,3.5-12.3,6.4-15,12.4c-3.5,8,2.5,17.5,10.4,21s17,2.8,25.7,2.3
			c68.2-4.1,136.2,8.3,203.4,20.7L468.6,343.9z"/>
		<path class="st6" d="M454.9,351.5H216c-23.8-0.4-42.8-20-42.4-43.8c0.4-23.3,19.1-42.1,42.4-42.4h6v-31.4
			c0-15.1,12.3-27.4,27.4-27.4h175c15.1,0,27.4,12.3,27.4,27.4v31.4h3.1c23.8,0,43.1,19.3,43.1,43l0,0h-10c0-18.3-14.7-33.1-33-33.1
			h-13.2v-41.3c0-9.6-7.8-17.4-17.4-17.4h-175c-9.6,0-17.4,7.8-17.4,17.4v41.4h-16c-18.3,0.3-32.8,15.4-32.5,33.7
			c0.3,17.8,14.7,32.2,32.5,32.5h238.9c13,0,24.9-7.7,30.2-19.6l9.1,4.1C487.3,341.5,471.9,351.5,454.9,351.5z"/>
		<g>
			<path class="st7" d="M22.8,126H40c2.6-0.1,5.1,0.1,7.6,0.4c3.3,0.5,6.2,2.5,7.8,5.4c0.9,1.5,1.3,3.2,1.3,5c0,4-2.4,7.7-6.1,9.4
				c2.4,0.6,4.5,2,6.1,3.9c1.4,1.9,2.2,4.2,2.1,6.5c0,2-0.5,3.9-1.4,5.7c-0.8,1.8-2.1,3.3-3.7,4.4c-1.7,1.2-3.8,1.9-5.8,2
				c-1.4,0.1-4.9,0.2-10.5,0.3H22.8V126z M31.5,133.2v10h5.7c3.4,0,5.5,0,6.3-0.1c1.3-0.1,2.6-0.6,3.5-1.5s1.4-2.2,1.3-3.5
				c0-1.2-0.3-2.3-1.1-3.2c-0.9-0.9-2-1.4-3.3-1.5c-0.9-0.1-3.3-0.1-7.4-0.1L31.5,133.2z M31.5,150.3v11.5h8.1c2,0.1,4,0,6-0.3
				c2.7-0.4,4.6-2.7,4.4-5.4c0-1.2-0.3-2.3-0.9-3.3c-0.7-0.9-1.6-1.6-2.7-2c-1.2-0.4-3.8-0.6-7.7-0.6L31.5,150.3z"/>
			<path class="st7" d="M105.2,169.1h-9.5l-3.8-9.8H74.7l-3.6,9.8h-9.2L78.7,126h9.2L105.2,169.1z M89.1,152l-5.9-16l-5.8,16H89.1z"
				/>
			<path class="st7" d="M109.9,169.1V126h8.5l17.7,28.7V126h8.1v43.1h-8.7L118,141v28.1H109.9z"/>
			<path class="st7" d="M153.3,169.1V126h8.5l17.6,28.8V126h8.1v43.1h-8.7L161.4,141v28.1H153.3z"/>
			<path class="st7" d="M196.7,169.1V126h31.9v7.3h-23.2v9.6H227v7.3h-21.6v11.7h24.1v7.3h-32.8V169.1z"/>
			<path class="st7" d="M236.9,126h15.9c2.8-0.1,5.5,0.2,8.2,0.8c2.5,0.7,4.7,2.1,6.5,4c1.9,2,3.3,4.4,4.1,7c1,3.3,1.5,6.7,1.4,10.1
				c0.1,3.1-0.4,6.2-1.3,9.2c-0.9,2.9-2.5,5.5-4.6,7.6c-1.7,1.6-3.8,2.8-6.1,3.4c-2.5,0.7-5.1,1-7.7,0.9h-16.4L236.9,126L236.9,126z
				 M245.6,133.3v28.5h6.5c1.8,0.1,3.5-0.1,5.3-0.4c1.3-0.3,2.5-0.9,3.5-1.8c1.1-1.2,1.9-2.6,2.3-4.2c0.7-2.6,1-5.2,0.9-7.9
				c0.1-2.6-0.2-5.2-0.9-7.7c-0.5-1.6-1.3-3-2.5-4.2c-1.1-1-2.5-1.7-4-2c-2.4-0.4-4.8-0.5-7.1-0.4L245.6,133.3z"/>
		</g>
		<path class="st8" d="M558.5,142.4l-23.3-12.2c-6.4-3.4-14.4-0.9-17.7,5.5l-5.4,10.2l-98.4-51.7l5.5-10.5c3.1-6,0.8-13.4-5.1-16.5
			l0,0l-37.5-19.7c-6-3.1-13.4-0.8-16.5,5.1l0,0l0,0l-5.5,10.5l-14.3,27.1l-5.3,10c-3.1,6-0.8,13.4,5.1,16.5l0,0l0,0l37.5,19.7
			c6,3.1,13.4,0.8,16.5-5.1l5.3-10l98.4,51.7l-4.8,9.2c-3.4,6.4-0.9,14.3,5.5,17.7l23.3,12.2c6.4,3.4,14.3,0.9,17.7-5.5l0,0v-0.1
			L564,160C567.4,153.7,564.9,145.8,558.5,142.4L558.5,142.4z"/>
		<path class="st6" d="M526.6,218c-2.9,0-5.8-0.7-8.4-2.1l-23.3-12.2c-8.9-4.6-12.3-15.6-7.6-24.4v-0.1l2.5-4.8l-89.6-47.1l-3,5.6
			c-4.4,8.4-14.8,11.6-23.2,7.2l-37.5-19.7c-8.4-4.4-11.7-14.9-7.2-23.3l25-47.7c4.4-8.4,14.8-11.7,23.3-7.2L415.1,62
			c8.4,4.4,11.7,14.8,7.3,23.3l0,0l0,0l-3.2,6.1l89.6,47.1l3-5.8c4.7-8.9,15.6-12.3,24.5-7.7l23.3,12.2c8.9,4.7,12.3,15.6,7.6,24.5
			l0,0l-24.5,46.5C539.5,214.2,533.3,218,526.6,218L526.6,218z M396,113.9l107.3,56.4l-7.2,13.6c-2.1,4-0.6,8.9,3.4,11l0,0l0,0
			l23.3,12.2c4,2.1,8.9,0.6,11-3.4l0,0v-0.1l24.5-46.6c2.1-4,0.6-8.9-3.4-11l0,0l0,0l-23.2-12.2c-4-2.1-8.9-0.6-11,3.4l-7.7,14.6
			L405.6,95.5l7.8-14.9c1.9-3.5,0.5-7.9-3-9.8l0,0L373,51.2c-3.5-1.9-7.9-0.5-9.8,3l-25.1,47.7c-1.9,3.5-0.5,7.9,3,9.8l37.5,19.7
			c3.5,1.9,7.9,0.5,9.8-3L396,113.9z"/>
		<path class="st8" d="M418.7,83.1c6.4,3.4,14.4,0.9,17.7-5.5l0,0l12-22.9c3.4-6.4,0.9-14.4-5.5-17.8L385.2,6.5
			c-6.4-3.4-14.4-0.9-17.7,5.5l-12,23c-3.4,6.4-0.9,14.4,5.5,17.7L418.7,83.1z"/>
		<path class="st9" d="M448.5,54.6l-12,22.9c-3.4,6.4-11.3,8.9-17.7,5.5l0,0l0,0l-57.9-30.4c-5.4-2.9-8.1-9.1-6.6-15
			c0.7,0.6,1.6,1.2,2.4,1.7l57.8,30.4c6.4,3.4,14.4,0.9,17.7-5.5l0,0l0,0l12-22.9c0.5-0.9,0.8-1.8,1.1-2.7
			C450,42.6,451.3,49.2,448.5,54.6z"/>
		<path class="st6" d="M424.9,89.6c-2.9,0-5.8-0.7-8.4-2.1l0,0l-57.8-30.4c-8.8-4.7-12.2-15.6-7.6-24.5l12-22.9
			c4.7-8.9,15.6-12.3,24.5-7.6l0,0l0,0l57.8,30.4c8.9,4.7,12.3,15.6,7.7,24.5l-12,22.9c-2.2,4.3-6.1,7.5-10.6,8.9
			C428.6,89.3,426.7,89.6,424.9,89.6z M421.1,78.6c4,2.1,8.9,0.6,11-3.4l0,0l0,0l12-22.9c2.1-4,0.5-8.9-3.4-11L382.9,11
			c-4-2.1-8.9-0.6-11,3.4l0,0l0,0l-12,22.9c-2.1,4-0.6,8.9,3.4,11L421.1,78.6L421.1,78.6z"/>
		<path class="st8" d="M365.5,176.5c6.4,3.4,14.3,0.9,17.7-5.5l12-22.9c3.4-6.4,0.9-14.4-5.5-17.8l0,0L332,99.9
			c-6.4-3.4-14.4-0.9-17.8,5.5l-12,22.9c-3.4,6.4-0.9,14.4,5.5,17.8L365.5,176.5z"/>
		<path class="st9" d="M395.3,148.1l-12,22.9c-3.4,6.4-11.3,8.9-17.7,5.5l-57.8-30.4c-5.4-2.9-8.1-9.1-6.6-15
			c0.7,0.6,1.6,1.2,2.4,1.7l57.8,30.4c6.4,3.4,14.4,0.9,17.7-5.5l12-22.9c0.5-0.9,0.8-1.8,1.1-2.7
			C396.9,136,398.1,142.6,395.3,148.1z"/>
		<path class="st6" d="M371.6,183c-2.9,0-5.8-0.7-8.4-2.1l0,0l-57.8-30.4c-8.9-4.7-12.3-15.7-7.6-24.5l12-22.9
			c4.7-8.9,15.6-12.3,24.5-7.6l57.8,30.4c8.9,4.7,12.3,15.6,7.6,24.5l0,0l-12,22.9C384.6,179.2,378.4,183,371.6,183z M367.9,172.1
			c4,2.1,8.9,0.5,11-3.4l12-22.9c2.1-4,0.6-8.9-3.4-11l0,0l0,0l-57.8-30.4c-4-2.1-8.9-0.6-11,3.4l-12,22.9c-2.1,4-0.5,8.9,3.4,11
			L367.9,172.1z"/>
		<g class="st10">
			<path class="st11" d="M138.4,89.3l-14.2,11.8c-3,2.5,1.3,6.7,4.2,4.2l14.2-11.8C145.6,91,141.3,86.8,138.4,89.3z"/>
			<path class="st11" d="M141.4,102.3L129.6,88c-2.5-3-6.7,1.3-4.2,4.2l11.8,14.2C139.6,109.5,143.8,105.2,141.4,102.3z"/>
		</g>
		<g class="st10">
			<path class="st11" d="M593.3,260.3l-14.2,11.8c-3,2.5,1.3,6.7,4.2,4.2l14.2-11.8C600.6,262,596.3,257.8,593.3,260.3z"/>
			<path class="st11" d="M596.4,273.3L584.6,259c-2.5-3-6.7,1.3-4.2,4.2l11.8,14.2C594.6,280.5,598.8,276.2,596.4,273.3z"/>
		</g>
		<path class="st4" d="M386.6,22.7c4,1.7,6.9,3.8,6.6,4.5s-3.7-0.4-7.6-2.1s-7-3.3-6.8-4S382.6,21,386.6,22.7z"/>
		<path class="st4" d="M408.8,34.7c5.5,3.2,9.5,6.5,9.1,7.1s-4.9-1.8-10.4-4.9s-9.8-5.8-9.5-6.5S403.2,31.5,408.8,34.7z"/>
	</g>
</g>
</svg>
