<?xml version="1.0" encoding="utf-8"?>
<!-- Generator: Adobe Illustrator 25.0.1, SVG Export Plug-In . SVG Version: 6.00 Build 0)  -->
<svg version="1.1" id="Layer_1" xmlns="http://www.w3.org/2000/svg" xmlns:xlink="http://www.w3.org/1999/xlink" x="0px" y="0px"
	 viewBox="0 0 779.2 492.2" style="enable-background:new 0 0 779.2 492.2;" xml:space="preserve">
<style type="text/css">
	.st0{opacity:0.15;fill:#F7AFA3;enable-background:new    ;}
	.st1{fill:#FF8DD9;}
	.st2{fill:#FFFFFF;}
	.st3{fill:#3E6177;}
	.st4{fill:#F5A8A0;}
	.st5{fill:#F7AFA3;}
	.st6{fill:#D5DFEB;}
	.st7{opacity:0.3;fill:#F5A8A0;enable-background:new    ;}
	.st8{opacity:0.12;}
	.st9{fill:#AAAAAA;}
	.st10{fill:none;}
	.st11{fill:#C2D0E1;}
	.st12{fill:#EBF0F9;}
	.st13{fill:#606060;}
	.st14{fill:#ED4245;}
	.st15{fill:#C13038;}
	.st16{fill:#BCDFFF;}
	.st17{fill:#58B1FF;}
	.st18{fill:#4E9CE1;}
	.st19{fill:#00BEE7;}
	.st20{fill:#385868;}
	.st21{fill:#FFFDDC;}
	.st22{fill:#515151;}
	.st23{opacity:0.15;fill:#444343;enable-background:new    ;}
	.st24{opacity:0.2;}
	.st25{fill:#DEEFFF;}
	.st26{opacity:0.54;fill:#BDDFE9;enable-background:new    ;}
	.st27{fill:#B0DFEA;}
	.st28{opacity:0.5;fill:#95BCC9;enable-background:new    ;}
	.st29{fill:#426572;}
	.st30{opacity:0.7;}
	.st31{fill:#D9D6E8;}
	.st32{fill:#E7E4F2;}
	.st33{fill:#EF2568;}
	.st34{fill:#99EAEA;}
	.st35{fill:none;stroke:#99EAEA;stroke-width:9.18;stroke-miterlimit:10;}
	.st36{fill:#898989;}
</style>
<g id="Layer_2_1_">
	<g id="Layer_1-2">
		<path class="st0" d="M85,179l95-125.8c13.5-17.9,39-21.4,56.9-7.9l0,0c17.9,13.5,21.5,39,7.9,56.9c0,0,0,0,0,0l-95,125.8
			c-13.5,17.9-39,21.5-56.9,7.9l0,0C75,222.4,71.5,196.9,85,179z"/>
		<path class="st1" d="M187.7,47.2c6.6-0.9,12.7,3.6,13.6,10.2l2.6,17.7l17,119.8l-4.9-3.5c-0.6-0.4-1.4-0.3-1.8,0.2l0,0l-5.3,6.6
			l-7-4.9c-0.6-0.4-1.4-0.3-1.8,0.3l0,0l-5.3,6.6l-7-4.9c-0.6-0.4-1.4-0.3-1.8,0.2l0,0l-5.4,6.6l-7-4.9c-0.6-0.4-1.4-0.3-1.8,0.2
			l0,0l-5.3,6.6l-7-4.8c-0.6-0.4-1.4-0.3-1.8,0.2l0,0l-5.3,6.6l-7-4.9c-0.6-0.4-1.4-0.3-1.8,0.2l0,0l-5.3,6.6l-7-4.9
			c-0.6-0.4-1.4-0.3-1.8,0.3l0,0l-5.3,6.6l-7-4.9c-0.6-0.4-1.4-0.3-1.8,0.2l0,0l-3.8,4.7L92.1,73c-0.9-6.6,3.6-12.7,10.2-13.6
			c0,0,0,0,0,0l0,0L187.7,47.2z"/>
		<path class="st2" d="M187.7,47.2c6.6-0.9,12.7,3.6,13.6,10.2l2.6,17.7l17,119.8l-4.9-3.5c-0.6-0.4-1.4-0.3-1.8,0.2l0,0l-5.3,6.6
			l-7-4.9c-0.6-0.4-1.4-0.3-1.8,0.3l0,0l-5.3,6.6l-7-4.9c-0.6-0.4-1.4-0.3-1.8,0.2l0,0l-5.4,6.6l-7-4.9c-0.6-0.4-1.4-0.3-1.8,0.2
			l0,0l-5.3,6.6l-7-4.8c-0.6-0.4-1.4-0.3-1.8,0.2l0,0l-5.3,6.6l-7-4.9c-0.6-0.4-1.4-0.3-1.8,0.2l0,0l-5.3,6.6l-7-4.9
			c-0.6-0.4-1.4-0.3-1.8,0.3l0,0l-5.3,6.6l-7-4.9c-0.6-0.4-1.4-0.3-1.8,0.2l0,0l-3.8,4.7L92.1,73c-0.9-6.6,3.6-12.7,10.2-13.6
			c0,0,0,0,0,0l0,0L187.7,47.2z"/>
		<path class="st3" d="M110,216.2L89.7,73.4c-1.2-7.9,4.3-15.3,12.2-16.5h0.1l85.4-12.2l0,0c7.9-1,15.1,4.4,16.4,12.2l2.6,17.7
			L224.2,200l-8.6-6.1l-6.1,7.6l-8-5.6l-6.1,7.6l-8-5.6l-6.1,7.6l-8-5.6l-6.1,7.6l-8-5.6l-6.1,7.6l-8-5.6l-6.1,7.6l-8-5.6l-6.1,7.6
			l-8-5.6L110,216.2z M115.9,202.8c0.9-0.1,1.9,0.1,2.7,0.6l5.1,3.6l3.9-4.9c1.3-1.5,3.5-1.8,5.1-0.7l5.1,3.6l3.9-4.8
			c1.3-1.6,3.5-1.9,5.1-0.7l5.1,3.6l3.9-4.8c1.3-1.5,3.5-1.8,5.1-0.7l5.1,3.6l3.9-4.8c1.3-1.5,3.5-1.9,5.1-0.7l5.1,3.6l3.9-4.8
			c1.3-1.5,3.5-1.8,5.1-0.7l5.1,3.6l3.9-4.8c1.3-1.5,3.5-1.8,5.1-0.7l5.1,3.6l3.9-4.9c1.3-1.5,3.5-1.9,5.1-0.7l0.4,0.2L201.6,75.4
			L199,57.8c-0.8-5.2-5.6-8.8-10.9-8.1l0,0l-85.4,12.1c-5.3,0.7-8.9,5.6-8.2,10.9c0,0,0,0,0,0v0.1l18.8,131.8l0.2-0.3
			C114.1,203.5,115,203,115.9,202.8L115.9,202.8z"/>
		<path class="st3" d="M81.3,113.8c-5,0.7-9.7-2.8-10.4-7.9c-0.7-5,2.8-9.7,7.9-10.4c5-0.7,9.7,2.8,10.4,7.9
			C89.9,108.4,86.4,113.1,81.3,113.8C81.3,113.8,81.3,113.8,81.3,113.8z M79.4,100.3c-2.4,0.3-4,2.5-3.7,4.9c0.3,2.4,2.5,4,4.9,3.7
			c2.4-0.3,4-2.5,3.7-4.9c0,0,0,0,0,0C84,101.7,81.8,100,79.4,100.3L79.4,100.3z"/>
		<path class="st4" d="M234.5,178.8c-5,0.7-9.7-2.8-10.4-7.9s2.8-9.7,7.9-10.4s9.7,2.8,10.4,7.9c0,0,0,0,0,0
			C243,173.4,239.5,178.1,234.5,178.8z M232.6,165.3c-2.4,0.3-4,2.5-3.7,4.9c0.3,2.4,2.5,4,4.9,3.7c2.4-0.3,4-2.5,3.7-4.9
			c0,0,0,0,0,0C237.2,166.7,235,165,232.6,165.3C232.6,165.3,232.6,165.3,232.6,165.3z"/>
		<circle class="st5" cx="89.1" cy="122.9" r="3.7"/>
		<circle class="st6" cx="212.4" cy="72.7" r="3.7"/>
		
			<rect x="167.5" y="164.9" transform="matrix(0.5818 -0.8133 0.8133 0.5818 -58.2212 221.3996)" class="st7" width="37.5" height="4.9"/>
		
			<rect x="180.9" y="168.8" transform="matrix(0.5703 -0.8214 0.8214 0.5703 -57.74 232.0512)" class="st7" width="24.1" height="4.9"/>
		<path class="st6" d="M116,83.8l57.9-8.1c2.9-0.4,5.5,1.6,5.9,4.4l0.1,1.1c0.4,2.9-1.6,5.5-4.4,5.9l-57.9,8.1
			c-2.9,0.4-5.5-1.6-5.9-4.4l-0.1-1.1C111.2,86.9,113.1,84.2,116,83.8z"/>
		<path class="st6" d="M118.9,104.8l44.2-6.2c2.9-0.4,5.5,1.6,5.9,4.4l0.1,1.1c0.4,2.9-1.6,5.5-4.4,5.9l-44.2,6.2
			c-2.9,0.4-5.5-1.6-5.9-4.4l-0.1-1.1C114.1,107.8,116.1,105.2,118.9,104.8z"/>
		<path class="st6" d="M121.9,125.8l30.6-4.3c2.9-0.4,5.5,1.6,5.9,4.4l0.1,1.1c0.4,2.9-1.6,5.5-4.4,5.9l-30.6,4.3
			c-2.9,0.4-5.5-1.6-5.9-4.4l-0.1-1.1C117,128.8,119,126.2,121.9,125.8z"/>
		<circle class="st2" cx="118.1" cy="194.5" r="39.2"/>
		<circle class="st4" cx="119.5" cy="194.3" r="31.8"/>
		<path class="st3" d="M122.9,228.4c-18.7,2.6-36.1-10.5-38.7-29.2c-2.6-18.7,10.5-36.1,29.2-38.7s36.1,10.5,38.7,29.2c0,0,0,0,0,0
			C154.7,208.5,141.6,225.8,122.9,228.4z M114.1,165.3c-16.1,2.2-27.3,17.1-25,33.2s17.1,27.3,33.2,25c16-2.2,27.3-17,25.1-33.1
			C145,174.3,130.2,163.1,114.1,165.3C114.1,165.3,114.1,165.3,114.1,165.3z"/>
		<path class="st2" d="M104.7,193l-0.7-5c-0.3-1.4,0-2.8,0.9-3.9c2.1-1.8,5.1-2.2,7.6-1c1.2,0.8,1.9,2.1,1.9,3.5l0.7,5.1
			c0.3,1.4,0,2.8-0.9,3.9c-1,1-2.3,1.6-3.6,1.7c-1.4,0.3-2.8,0-4-0.7C105.4,195.7,104.7,194.4,104.7,193z M108.1,192.6
			c0.1,0.9,0.8,1.6,1.7,1.5c0,0,0,0,0,0c0.1,0,0.2,0,0.3,0c1.2-0.2,1.7-0.8,1.6-2l-0.7-5c0-0.9-0.8-1.6-1.6-1.5
			c-0.1,0-0.2,0-0.4,0.1c-0.9,0-1.6,0.8-1.6,1.7c0,0.1,0,0.2,0,0.3L108.1,192.6z M112.2,208.3c0-0.2,0-0.5,0.1-0.7l8.8-27.5
			c0.2-0.6,0.7-1.1,1.4-1.1c0.5-0.1,1.1,0,1.5,0.3c0.5,0.3,0.8,0.7,0.9,1.3c0,0.2,0,0.5-0.1,0.7l-8.8,27.5c-0.2,0.7-0.8,1.1-1.5,1.1
			c-0.5,0.1-1.1-0.1-1.5-0.4C112.6,209.2,112.3,208.8,112.2,208.3L112.2,208.3z M122.5,202.3l-0.7-5.1c-0.3-1.4,0-2.8,0.9-3.9
			c1-1,2.3-1.6,3.6-1.7c1.4-0.3,2.8-0.1,4,0.6c1.2,0.8,1.9,2.1,1.9,3.5l0.7,5.1c0.3,1.4,0,2.8-0.9,3.9c-1,1-2.3,1.6-3.6,1.7
			c-1.4,0.3-2.8,0-4-0.6C123.2,205,122.5,203.7,122.5,202.3L122.5,202.3z M125.9,201.8c0.1,0.9,0.8,1.6,1.7,1.5c0,0,0,0,0,0
			c0.1,0,0.2,0,0.3,0c0.9,0,1.6-0.7,1.6-1.5c0-0.2,0-0.3-0.1-0.5l-0.7-5.1c0-0.9-0.7-1.6-1.6-1.5c-0.1,0-0.3,0-0.4,0.1
			c-0.9,0-1.6,0.8-1.6,1.7c0,0,0,0,0,0c0,0.1,0,0.2,0,0.3L125.9,201.8z"/>
	</g>
</g>
<g id="Layer_2-2">
	<g id="Layer_1-2-2">
		<g class="st8">
			<path class="st9" d="M210.4,100.8c-5.4-8.5-6.9-19-4-28.7c3.2-9.4,12.4-17,22.3-17.1c3,0,6,0.6,9,0.5c9.5-0.2,17.7-6.8,23.6-14.2
				C267.2,34,272,25.4,279,19s17.4-10.5,26.1-6.7s12.9,15.2,10.2,24.5c-2.3,7.8-8.7,14.9-7.5,23c0.8,3.5,2.2,6.7,4.3,9.6
				c5.4,8.5,11.3,17.6,20.6,21.1c4.4,1.3,9,2.2,13.6,2.6c10.2,1.5,20.6,5.6,26.7,14.4c2,2.8,3.3,6.1,3.8,9.5
				c2,12.8-7.5,20.8-17.3,26.1c-7.4,4.1-15.5,7.5-21.1,13.8c-4.1,4.6-6.6,10.4-10.1,15.4c-5.2,7.5-12.6,13.3-21.1,16.6
				c-5.1,2.2-10.8,2.9-16.3,2c-11.5-2.4-18.6-13.5-23.3-24.1c-4.7-10.6-8.4-22.5-17.5-29.7c-2.2-1.7-4.6-3.2-7.2-4.4
				c-13.6-6.6-24.7-17.3-31.8-30.6L210.4,100.8z"/>
		</g>
		<line class="st10" x1="250.1" y1="157.5" x2="252" y2="161.5"/>
		<path class="st11" d="M252.9,162.1c0.2-0.3,0.2-0.7,0.1-1l-1.9-3.9c-0.3-0.5-0.9-0.7-1.5-0.4c-0.4,0.3-0.6,0.8-0.5,1.3l1.9,3.9
			c0.2,0.5,0.8,0.8,1.3,0.6c0,0,0.1,0,0.1,0C252.6,162.4,252.8,162.2,252.9,162.1z"/>
		<line class="st10" x1="249.1" y1="160.4" x2="253" y2="158.6"/>
		<path class="st11" d="M253.9,159.1c0.3-0.5,0.2-1.1-0.3-1.5c-0.3-0.2-0.7-0.2-1.1-0.1l-4,1.8c-0.5,0.3-0.7,0.9-0.5,1.4
			c0.3,0.5,0.8,0.7,1.4,0.5l3.9-1.9C253.6,159.4,253.8,159.3,253.9,159.1z"/>
		<path class="st11" d="M231.4,144.9c-1.3-0.9-1.7-2.7-0.8-4c0.9-1.3,2.7-1.7,4-0.8c1.3,0.9,1.7,2.7,0.8,4c0,0,0,0,0,0
			C234.6,145.4,232.8,145.7,231.4,144.9z M232.3,143.6c0.6,0.4,1.4,0.2,1.8-0.4c0,0,0,0,0,0c0.4-0.6,0.2-1.4-0.4-1.8
			c-0.6-0.4-1.4-0.2-1.8,0.4C231.5,142.4,231.7,143.2,232.3,143.6L232.3,143.6z"/>
		<circle class="st11" cx="258.1" cy="173.2" r="1.6"/>
		<path class="st11" d="M347.8,155.6c0-0.7,0.5-1.2,1.1-1.2c0,0,0,0,0,0c0.2,0,0.4,0,0.6,0.1l1.2,0.6l1.2,0.6c0.6,0.3,0.8,1,0.5,1.6
			c0,0,0,0,0,0c-0.1,0.2-0.2,0.3-0.4,0.5l-2.2,1.5c-0.6,0.4-1.3,0.2-1.6-0.3c0,0,0,0,0,0c-0.1-0.2-0.2-0.4-0.2-0.6l-0.1-1.3
			L347.8,155.6z"/>
		<line class="st10" x1="346" y1="53.1" x2="346.2" y2="57.5"/>
		<path class="st10" d="M348.3,55.2"/>
		<path class="st10" d="M343.9,55.4"/>
		<line class="st10" x1="240.4" y1="41.5" x2="242.2" y2="37.6"/>
		<path class="st11" d="M214.6,57.3c0.9,1.3,0.5,3.1-0.8,4c-1.3,0.9-3.1,0.5-4-0.8c-0.9-1.3-0.5-3.1,0.8-4c0,0,0,0,0,0
			C212,55.6,213.7,56,214.6,57.3z M211.1,59.6c0.4,0.6,1.2,0.8,1.8,0.4s0.8-1.2,0.4-1.8c-0.4-0.6-1.2-0.8-1.8-0.4c0,0,0,0,0,0l0,0
			C210.9,58.2,210.7,59,211.1,59.6z"/>
		<path class="st12" d="M342.4,103.3l29.9,17.7c2.7,1.7,3.6,5.3,1.9,8l-25.7,43.5c-1.6,2.8-5.2,3.7-8,2L228.1,108
			c-14.8-8.7-19.7-27.8-10.9-42.6l0,0c8.7-14.8,27.8-19.7,42.6-11c0,0,0,0,0,0l0,0l60.9,36l8.2,4.8"/>
		<path class="st2" d="M374.3,129l-2,3.4c-0.5-0.8-1.2-1.5-2-2l-29.8-17.6l-13.5-8.1l-8.1-4.8l-61-36c-14.8-8.7-33.9-3.8-42.7,11
			c-0.9,1.6-1.7,3.2-2.3,4.9c0.8-17.2,15.4-30.4,32.6-29.5c5,0.2,9.9,1.7,14.2,4.3l61,36.1l8.2,4.8l13.5,8.1l29.9,17.7
			C375,122.7,375.9,126.2,374.3,129z"/>
		<path class="st11" d="M372.5,128.6l-25.7,43.5c-1.6,2.8-5.2,3.7-8,2.1l-112.6-66.6c-13.9-8.3-19.2-25.8-12.1-40.4
			c0.5,10.5,6.2,20,15.2,25.3L342,159.1c2.8,1.6,6.3,0.7,8-2l21.3-36C373.5,123,374,126.1,372.5,128.6z"/>
		<path class="st13" d="M348.1,176.3c-2.6,1.7-6,1.8-8.6,0.2L226.9,110c-15.6-9.9-20.2-30.5-10.3-46.1c9.5-14.9,28.9-19.9,44.3-11.3
			l69,40.8c1.2,0.5,1.7,1.8,1.2,3s-1.8,1.7-3,1.2c-0.1,0-0.2-0.1-0.3-0.1l-0.3-0.2l-69.1-40.9c-13.5-8.4-31.3-4.2-39.7,9.3
			c-8.4,13.5-4.2,31.3,9.3,39.7c0.4,0.2,0.7,0.4,1.1,0.6l112.6,66.6c1.7,1,3.8,0.5,4.8-1.2c0,0,0,0,0,0l0,0l25.7-43.6
			c1-1.7,0.4-3.9-1.2-4.9l-29.9-17.7c-1.1-0.6-1.6-2-1-3.1c0.6-1.1,2-1.6,3.1-1c0.1,0,0.2,0.1,0.2,0.1l29.9,17.7
			c3.9,2.3,5.2,7.3,2.9,11.1l-25.7,43.5C350.1,174.7,349.2,175.6,348.1,176.3z"/>
		<path class="st13" d="M313.2,157.6c-0.2,0.1-0.4,0.2-0.7,0.3c-1.2,0.3-2.5-0.4-2.8-1.6c0,0,0,0,0,0l-10.4-40.5
			c-0.3-1.2,0.4-2.5,1.7-2.8s2.5,0.4,2.8,1.7l10.4,40.5C314.5,156.1,314.1,157.1,313.2,157.6z"/>
		<path class="st13" d="M298.7,139.6c-0.2,0.1-0.4,0.2-0.7,0.3c-1.2,0.3-2.5-0.4-2.8-1.6l-10.4-40.5c-0.4-1.2,0.3-2.5,1.6-2.8
			c1.2-0.4,2.5,0.3,2.8,1.6c0,0.1,0,0.1,0,0.2l10.4,40.5C299.9,138.1,299.5,139.1,298.7,139.6z"/>
		
			<ellipse transform="matrix(0.1602 -0.9871 0.9871 0.1602 125.6316 307.0623)" class="st14" cx="243.3" cy="79.7" rx="13.5" ry="13.5"/>
		<path class="st15" d="M255,86.6c-3.5,5.9-10.8,8.3-17.1,5.5c7.5-0.1,13.5-6.2,13.4-13.7c-0.1-4.7-2.6-9.1-6.7-11.5
			c-0.4-0.3-0.9-0.5-1.4-0.7c7.5-0.1,13.6,5.9,13.7,13.3C256.9,82.1,256.2,84.5,255,86.6z"/>
		<path class="st13" d="M251.5,93.7c-7.3,4.8-17.1,2.9-22-4.4c-4.8-7.3-2.9-17.1,4.4-22c7.3-4.8,17.1-2.9,22,4.4
			c3.4,5.1,3.5,11.6,0.4,16.9C255.2,90.6,253.5,92.4,251.5,93.7z M236.7,71.1c-5.2,3.4-6.6,10.4-3.2,15.5s10.4,6.6,15.5,3.2
			c5.2-3.4,6.6-10.4,3.2-15.5c-2.6-4-7.5-5.9-12.2-4.7C238.8,69.9,237.7,70.4,236.7,71.1z"/>
		<path class="st13" d="M215.5,65.9c-0.7,0.5-1.7,0.5-2.4,0.1l-13.3-7.7c-1.1-0.6-1.5-2-0.9-3.2c0.6-1.1,2-1.5,3.2-0.8l13.3,7.7
			c1.1,0.6,1.5,2,0.8,3.1C216.1,65.4,215.8,65.7,215.5,65.9L215.5,65.9z"/>
	</g>
</g>
<g id="Layer_2-3">
	<g id="Layer_1-2-3">
		<path class="st16" d="M47,469.7h398.1c4,0,7.3,3.3,7.3,7.3v5.4c0,4-3.3,7.3-7.3,7.3H47c-4,0-7.3-3.3-7.3-7.3V477
			C39.7,473,43,469.7,47,469.7z"/>
		<path class="st17" d="M411.6,407.2L411.6,407.2c0-26.3-4.2-52.3-12.5-77.2l-14.8-44.4c-2.4-7.3-9.2-12.2-16.9-12.2H129.2
			c-7.7,0-14.5,4.9-16.9,12.2l-14.8,44.4c-8.3,24.9-12.5,51-12.5,77.2l0,0"/>
		<path class="st18" d="M411.6,396.2H84.9c0-6.3,0.2-12.5,0.7-18.8c4.6-2.4,9.8-3.6,15-3.6h290.6c7.2,0,14.1,2.3,19.9,6.6
			C411.4,385.7,411.6,391,411.6,396.2z"/>
		<path class="st18" d="M387.3,294.5H109.2l6.7-23.7c2.4-8.3,9-13.9,16.5-13.9h231.7c7.5,0,14.1,5.6,16.5,13.9L387.3,294.5z"/>
		<polyline class="st18" points="263.9,303.6 263.9,311 325.8,311 325.8,303.5 		"/>
		<path class="st19" d="M86.5,376.8"/>
		
			<rect x="88.9" y="341.8" transform="matrix(0.9334 -0.3589 0.3589 0.9334 -115.9638 60.6092)" class="st20" width="32.7" height="1.8"/>
		
			<rect x="88.1" y="348.2" transform="matrix(0.9334 -0.3589 0.3589 0.9334 -118.6663 58.9698)" class="st20" width="22.9" height="1.8"/>
		<path class="st18" d="M313.2,328.7h-9.2c-3.2,0.1-5.7,2.9-5.6,6.1c0.1,3,2.6,5.5,5.6,5.6h9.2c3.2-0.1,5.7-2.9,5.6-6.1
			C318.7,331.3,316.3,328.8,313.2,328.7z"/>
		<path class="st18" d="M343,328.7h-9.2c-3.2,0.1-5.7,2.9-5.6,6.1c0.1,3,2.6,5.5,5.6,5.6h9.2c3.2-0.1,5.7-2.9,5.6-6.1
			C348.5,331.3,346.1,328.8,343,328.7z"/>
		<path class="st18" d="M363.6,340.4h9.2c3.2-0.1,5.7-2.9,5.6-6.1c-0.1-3-2.6-5.5-5.6-5.6h-9.2c-3.2-0.1-6,2.4-6.1,5.6
			c-0.1,3.2,2.4,6,5.6,6.1C363.3,340.4,363.4,340.4,363.6,340.4z"/>
		<path class="st18" d="M313.2,350.6h-9.2c-3.2,0.1-5.7,2.9-5.6,6.1c0.1,3,2.6,5.5,5.6,5.6h9.2c3.2-0.1,5.7-2.9,5.6-6.1
			C318.7,353.2,316.3,350.7,313.2,350.6z"/>
		<path class="st18" d="M343,350.6h-9.2c-3.2,0.1-5.7,2.9-5.6,6.1c0.1,3,2.6,5.5,5.6,5.6h9.2c3.2-0.1,5.7-2.9,5.6-6.1
			C348.5,353.2,346.1,350.7,343,350.6z"/>
		<path class="st18" d="M372.8,350.6h-9.2c-3.2-0.1-6,2.4-6.1,5.6c-0.1,3.2,2.4,6,5.6,6.1c0.2,0,0.3,0,0.5,0h9.2
			c3.2-0.1,5.7-2.9,5.6-6.1C378.3,353.2,375.8,350.7,372.8,350.6L372.8,350.6L372.8,350.6z"/>
		<path class="st18" d="M224.2,328.7h-9.2c-3.2,0.1-5.7,2.9-5.6,6.1c0.1,3,2.6,5.5,5.6,5.6h9.2c3.2-0.1,5.7-2.9,5.6-6.1
			C229.7,331.3,227.3,328.8,224.2,328.7z"/>
		<path class="st18" d="M254,328.7h-9.2c-3.2,0.1-5.7,2.9-5.6,6.1c0.1,3,2.6,5.5,5.6,5.6h9.2c3.2-0.1,5.7-2.9,5.6-6.1
			C259.5,331.3,257,328.8,254,328.7z"/>
		<path class="st18" d="M283.8,328.7h-9.2c-3.2,0.1-5.7,2.9-5.6,6.1c0.1,3,2.6,5.5,5.6,5.6h9.2c3.2-0.1,5.7-2.9,5.6-6.1
			C289.2,331.3,286.8,328.8,283.8,328.7z"/>
		<path class="st18" d="M224.2,350.6h-9.2c-3.2,0.1-5.7,2.9-5.6,6.1c0.1,3,2.6,5.5,5.6,5.6h9.2c3.2-0.1,5.7-2.9,5.6-6.1
			C229.7,353.2,227.3,350.7,224.2,350.6z"/>
		<path class="st18" d="M254,350.6h-9.2c-3.2,0.1-5.7,2.9-5.6,6.1c0.1,3,2.6,5.5,5.6,5.6h9.2c3.2-0.1,5.7-2.9,5.6-6.1
			C259.5,353.2,257,350.7,254,350.6z"/>
		<path class="st18" d="M283.8,350.6h-9.2c-3.2,0.1-5.7,2.9-5.6,6.1c0.1,3,2.6,5.5,5.6,5.6h9.2c3.2-0.1,5.7-2.9,5.6-6.1
			C289.2,353.2,286.8,350.7,283.8,350.6z"/>
		<path class="st21" d="M304.1,323.1h9.1c3.2,0,5.9,2.6,5.9,5.8c0,0,0,0,0,0l0,0c0,3.2-2.6,5.8-5.9,5.8h-9.1c-3.2,0-5.9-2.6-5.9-5.9
			l0,0l0,0C298.3,325.7,300.9,323.1,304.1,323.1z"/>
		<path class="st20" d="M313.2,337.2h-9.2c-4.6,0-8.3-3.7-8.3-8.3c0-4.6,3.7-8.3,8.3-8.3c0,0,0,0,0,0h9.2c4.6,0,8.3,3.7,8.3,8.3
			C321.5,333.5,317.8,337.2,313.2,337.2C313.2,337.2,313.2,337.2,313.2,337.2z M304.1,325.5c-1.9,0-3.4,1.5-3.4,3.4
			c0,1.9,1.5,3.4,3.4,3.4c0,0,0,0,0,0h9.2c1.9,0,3.4-1.5,3.4-3.4c0-1.9-1.5-3.4-3.4-3.4c0,0,0,0,0,0H304.1z"/>
		<path class="st21" d="M333.9,323.1h9.1c3.2,0,5.9,2.6,5.9,5.8c0,0,0,0,0,0l0,0c0,3.2-2.6,5.9-5.8,5.9c0,0,0,0,0,0h-9.1
			c-3.2,0-5.9-2.6-5.9-5.9l0,0l0,0C328,325.7,330.6,323.1,333.9,323.1L333.9,323.1z"/>
		<path class="st20" d="M343,337.2h-9.2c-4.6,0-8.3-3.7-8.3-8.3c0-4.6,3.7-8.3,8.3-8.3c0,0,0,0,0,0h9.2c4.6,0,8.3,3.7,8.3,8.3
			C351.3,333.5,347.6,337.2,343,337.2C343,337.2,343,337.2,343,337.2z M333.9,325.5c-1.9,0-3.4,1.5-3.4,3.4c0,1.9,1.5,3.4,3.4,3.4
			c0,0,0,0,0,0h9.2c1.9,0,3.4-1.5,3.4-3.4c0-1.9-1.5-3.4-3.4-3.4H333.9z"/>
		<path class="st21" d="M363.6,323.1h9.1c3.2,0,5.9,2.6,5.9,5.9l0,0l0,0c0,3.2-2.6,5.9-5.9,5.9l0,0h-9.1c-3.2,0-5.9-2.6-5.9-5.9l0,0
			l0,0C357.8,325.7,360.4,323.1,363.6,323.1L363.6,323.1z"/>
		<path class="st20" d="M372.8,337.2h-9.2c-4.6,0-8.3-3.7-8.3-8.3c0-4.6,3.7-8.3,8.3-8.3c0,0,0,0,0,0h9.2c4.6,0,8.3,3.7,8.3,8.3
			C381.1,333.5,377.4,337.2,372.8,337.2C372.8,337.2,372.8,337.2,372.8,337.2L372.8,337.2z M363.6,325.5c-1.9,0.2-3.3,1.8-3.1,3.7
			c0.2,1.6,1.4,2.9,3.1,3.1h9.2c1.9,0,3.4-1.5,3.4-3.4c0-1.9-1.5-3.4-3.4-3.4c0,0,0,0,0,0L363.6,325.5z"/>
		<path class="st21" d="M304.1,345h9.1c3.2,0,5.9,2.6,5.9,5.8c0,0,0,0,0,0l0,0c0,3.2-2.6,5.9-5.8,5.9c0,0,0,0,0,0h-9.1
			c-3.2,0-5.9-2.6-5.9-5.9l0,0l0,0C298.2,347.6,300.9,345,304.1,345C304.1,345,304.1,345,304.1,345z"/>
		<path class="st20" d="M313.2,359.1h-9.2c-4.6-0.2-8.2-4-8-8.6c0.2-4.4,3.6-7.8,8-8h9.2c4.6,0.2,8.2,4,8,8.6
			C321.1,355.5,317.6,358.9,313.2,359.1z M304.1,347.4c-1.9,0-3.4,1.5-3.4,3.4c0,1.9,1.5,3.4,3.4,3.4c0,0,0,0,0,0h9.2
			c1.9,0,3.4-1.5,3.4-3.4c0-1.9-1.5-3.4-3.4-3.4c0,0,0,0,0,0H304.1z"/>
		<path class="st21" d="M333.9,345h9.1c3.2,0,5.9,2.6,5.9,5.8c0,0,0,0,0,0l0,0c0,3.2-2.6,5.9-5.8,5.9c0,0,0,0,0,0h-9.1
			c-3.2,0-5.9-2.6-5.9-5.9l0,0l0,0C328,347.6,330.6,345,333.9,345L333.9,345z"/>
		<path class="st20" d="M343,359.1h-9.2c-4.6-0.2-8.2-4-8-8.6c0.2-4.4,3.6-7.8,8-8h9.2c4.6,0.2,8.2,4,8,8.6
			C350.9,355.5,347.4,358.9,343,359.1z M333.9,347.4c-1.9,0-3.4,1.5-3.4,3.4c0,1.9,1.5,3.4,3.4,3.4h9.2c1.9,0,3.4-1.5,3.4-3.4
			c0-1.9-1.5-3.4-3.4-3.4c0,0,0,0,0,0H333.9z"/>
		<path class="st21" d="M363.6,345h9.1c3.2,0,5.9,2.6,5.9,5.9l0,0l0,0c0,3.2-2.6,5.9-5.9,5.9l0,0h-9.1c-3.2,0-5.9-2.6-5.9-5.9l0,0
			l0,0C357.8,347.6,360.4,345,363.6,345L363.6,345z"/>
		<path class="st20" d="M372.8,359.1h-9.2c-4.6,0.2-8.4-3.4-8.6-8s3.4-8.4,8-8.6c0.2,0,0.4,0,0.6,0h9.2c4.6,0.2,8.2,4,8,8.6
			C380.6,355.5,377.1,358.9,372.8,359.1L372.8,359.1z M363.6,347.4c-1.9,0.2-3.3,1.8-3.1,3.7c0.2,1.6,1.4,2.9,3.1,3.1h9.2
			c1.9,0,3.4-1.5,3.4-3.4c0-1.9-1.5-3.4-3.4-3.4c0,0,0,0,0,0L363.6,347.4z"/>
		<path class="st21" d="M215.1,323.1h9.2c3.2,0,5.9,2.6,5.9,5.9l0,0l0,0c0,3.2-2.6,5.8-5.9,5.8h-9.2c-3.2,0-5.9-2.6-5.9-5.9l0,0l0,0
			C209.2,325.7,211.9,323.1,215.1,323.1z"/>
		<path class="st20" d="M224.2,337.2h-9.2c-4.6,0-8.3-3.7-8.3-8.3c0-4.6,3.7-8.3,8.3-8.3c0,0,0,0,0,0h9.2c4.6,0,8.3,3.7,8.3,8.3
			C232.5,333.5,228.8,337.2,224.2,337.2C224.2,337.2,224.2,337.2,224.2,337.2z M215.1,325.5c-1.9,0-3.4,1.5-3.4,3.4
			c0,1.9,1.5,3.4,3.4,3.4c0,0,0,0,0,0h9.2c1.9,0,3.4-1.5,3.4-3.4c0-1.9-1.5-3.4-3.4-3.4c0,0,0,0,0,0H215.1z"/>
		<path class="st21" d="M244.8,323.1h9.1c3.2,0,5.8,2.6,5.8,5.9l0,0l0,0c0,3.2-2.6,5.9-5.8,5.9l0,0h-9.1c-3.2,0-5.9-2.6-5.9-5.9l0,0
			l0,0C239,325.7,241.6,323.1,244.8,323.1L244.8,323.1z"/>
		<path class="st20" d="M254,337.2h-9.2c-4.6,0-8.3-3.7-8.3-8.3c0-4.6,3.7-8.3,8.3-8.3c0,0,0,0,0,0h9.2c4.6,0,8.3,3.7,8.3,8.3
			C262.3,333.5,258.6,337.2,254,337.2C254,337.2,254,337.2,254,337.2z M244.8,325.5c-1.9,0-3.4,1.5-3.4,3.4c0,1.9,1.5,3.4,3.4,3.4
			c0,0,0,0,0,0h9.2c1.9,0,3.4-1.5,3.4-3.4c0-1.9-1.5-3.4-3.4-3.4c0,0,0,0,0,0H244.8z"/>
		<path class="st21" d="M274.6,323.1h9.1c3.2,0,5.9,2.6,5.9,5.9l0,0l0,0c0,3.2-2.6,5.9-5.9,5.9l0,0h-9.1c-3.2,0-5.9-2.6-5.9-5.9l0,0
			l0,0C268.7,325.7,271.4,323.1,274.6,323.1L274.6,323.1z"/>
		<path class="st20" d="M283.8,337.2h-9.2c-4.6,0-8.3-3.7-8.3-8.3c0-4.6,3.7-8.3,8.3-8.3h9.2c4.6,0,8.3,3.7,8.3,8.3
			C292,333.5,288.3,337.2,283.8,337.2C283.8,337.2,283.8,337.2,283.8,337.2z M274.6,325.5c-1.9,0-3.4,1.5-3.4,3.4
			c0,1.9,1.5,3.4,3.4,3.4h9.2c1.9,0,3.4-1.5,3.4-3.4c0-1.9-1.5-3.4-3.4-3.4c0,0,0,0,0,0H274.6z"/>
		<path class="st21" d="M215.1,345h9.2c3.2,0,5.9,2.6,5.9,5.9l0,0l0,0c0,3.2-2.6,5.9-5.9,5.9l0,0h-9.2c-3.2,0-5.9-2.6-5.9-5.9l0,0
			l0,0C209.2,347.6,211.8,345,215.1,345z"/>
		<path class="st20" d="M224.2,359.1h-9.2c-4.6-0.2-8.2-4-8-8.6c0.2-4.4,3.6-7.8,8-8h9.2c4.6-0.2,8.4,3.4,8.6,8s-3.4,8.4-8,8.6
			C224.6,359.1,224.4,359.1,224.2,359.1z M215.1,347.4c-1.9,0-3.4,1.5-3.4,3.4c0,1.9,1.5,3.4,3.4,3.4c0,0,0,0,0,0h9.2
			c1.9,0,3.4-1.5,3.4-3.4c0-1.9-1.5-3.4-3.4-3.4c0,0,0,0,0,0H215.1z"/>
		<path class="st21" d="M244.8,345h9.1c3.2,0,5.8,2.6,5.8,5.9l0,0l0,0c0,3.2-2.6,5.9-5.8,5.9l0,0h-9.1c-3.2,0-5.9-2.6-5.9-5.9l0,0
			l0,0C239,347.6,241.6,345,244.8,345L244.8,345z"/>
		<path class="st20" d="M254,359.1h-9.2c-4.6-0.2-8.2-4-8-8.6c0.2-4.4,3.6-7.8,8-8h9.2c4.6-0.2,8.4,3.4,8.6,8s-3.4,8.4-8,8.6
			C254.4,359.1,254.2,359.1,254,359.1z M244.8,347.4c-1.9,0-3.4,1.5-3.4,3.4c0,1.9,1.5,3.4,3.4,3.4c0,0,0,0,0,0h9.2
			c1.9,0,3.4-1.5,3.4-3.4c0-1.9-1.5-3.4-3.4-3.4c0,0,0,0,0,0H244.8z"/>
		<path class="st21" d="M274.6,345h9.1c3.2,0,5.9,2.6,5.9,5.9l0,0l0,0c0,3.2-2.6,5.9-5.9,5.9l0,0h-9.1c-3.2,0-5.9-2.6-5.9-5.9l0,0
			l0,0C268.7,347.6,271.4,345,274.6,345L274.6,345z"/>
		<path class="st20" d="M283.8,359.1h-9.2c-4.6-0.2-8.2-4-8-8.6c0.2-4.4,3.6-7.8,8-8h9.2c4.6,0.2,8.2,4,8,8.6
			C291.6,355.5,288.1,358.9,283.8,359.1z M274.6,347.4c-1.9,0-3.4,1.5-3.4,3.4c0,1.9,1.5,3.4,3.4,3.4h9.2c1.9,0,3.4-1.5,3.4-3.4
			c0-1.9-1.5-3.4-3.4-3.4c0,0,0,0,0,0H274.6z"/>
		<path class="st20" d="M412.8,408.3H408c0-26-4.2-51.8-12.4-76.4l-14.8-44.4c-2.1-6.3-8-10.5-14.6-10.5H128
			c-6.6,0-12.5,4.2-14.6,10.5l-14.8,44.4c-8.2,24.6-12.4,50.5-12.4,76.4h-4.9c0-26.5,4.3-52.9,12.7-78l14.8-44.5
			c2.8-8.3,10.5-13.9,19.2-13.9h238.1c8.7,0,16.5,5.6,19.2,13.9l14.9,44.5C408.6,355.5,412.9,381.8,412.8,408.3z"/>
		<path class="st17" d="M319.5,190.6h12.6c3.7,0,6.8,3,6.8,6.8v66.9c0,3.7-3,6.8-6.8,6.8h-12.6c-3.7,0-6.8-3-6.8-6.8v-66.9
			C312.7,193.6,315.7,190.6,319.5,190.6z"/>
		<rect x="313.3" y="204" class="st18" width="7" height="12.9"/>
		<path class="st20" d="M332.4,272.7h-12.6c-5.1,0-9.2-4.1-9.2-9.2v-66.9c0-5.1,4.1-9.2,9.2-9.2h12.6c5.1,0,9.2,4.1,9.2,9.2v66.9
			C341.6,268.6,337.5,272.7,332.4,272.7z M319.8,192.4c-2.4,0-4.3,1.9-4.3,4.3l0,0v66.9c0,2.4,1.9,4.3,4.3,4.3h12.6
			c2.4,0,4.3-1.9,4.3-4.3c0,0,0,0,0,0l0,0v-66.8c0-2.4-1.9-4.3-4.3-4.3c0,0,0,0,0,0H319.8L319.8,192.4z"/>
		<path class="st17" d="M116.9,218.1h260.4c4,0,7.3,3.3,7.3,7.3v51.2c0,4-3.3,7.3-7.3,7.3H116.9c-4,0-7.3-3.3-7.3-7.3v-51.2
			C109.6,221.4,112.8,218.1,116.9,218.1z"/>
		<path class="st17" d="M281.8,147.6h90c4,0,7.3,3.3,7.3,7.3v41.8c0,4-3.3,7.3-7.3,7.3h-90c-4,0-7.3-3.3-7.3-7.3v-41.8
			C274.5,150.9,277.8,147.6,281.8,147.6z"/>
		<path class="st20" d="M371.8,205.9h-90c-5,0-9.1-4.1-9.1-9.1v-41.8c0-5,4.1-9.1,9.1-9.1c0,0,0,0,0,0h90c5,0,9.1,4.1,9.1,9.1
			c0,0,0,0,0,0v41.8C380.9,201.8,376.8,205.8,371.8,205.9z M281.8,149.4c-3,0-5.5,2.4-5.5,5.5l0,0v41.8c0,3,2.4,5.5,5.5,5.5l0,0h90
			c3,0,5.5-2.4,5.5-5.5l0,0v-41.8c0-3-2.4-5.5-5.5-5.5l0,0H281.8z"/>
		<path class="st22" d="M285.9,155.2h81.7c1.8,0,3.2,1.4,3.2,3.2v35.3c0,1.8-1.4,3.2-3.2,3.2h-81.7c-1.8,0-3.2-1.4-3.2-3.2v-35.3
			C282.7,156.6,284.2,155.2,285.9,155.2z"/>
		<path class="st18" d="M108.9,238.8c0-7.8,6.3-14.1,14.1-14.1h246.8c7.8,0,14.1,6.3,14.1,14.1v-12.6c0-4.7-3.9-8.6-8.6-8.6H123
			c-7.8,0-14.1,6.3-14.1,14.1v37.6l0,0L108.9,238.8z"/>
		<path class="st20" d="M377.3,286.4H116.9c-5.4,0-9.7-4.4-9.7-9.7l0,0v-51.2c0-5.4,4.4-9.7,9.7-9.7l0,0h260.4
			c5.4,0,9.7,4.4,9.7,9.7l0,0v51.2C387,282,382.7,286.3,377.3,286.4C377.3,286.4,377.3,286.4,377.3,286.4L377.3,286.4z M116.9,220.5
			c-2.7,0-4.9,2.2-4.9,4.9v51.2c0,2.7,2.2,4.9,4.9,4.9h260.4c2.7,0,4.9-2.2,4.9-4.9v-51.2c0-2.7-2.2-4.9-4.9-4.9H116.9z"/>
		<polyline class="st2" points="262.8,251.4 262.8,302.7 324.6,302.7 324.6,250.6 		"/>
		<polyline class="st23" points="265.1,250.7 265.1,258.1 327,258.1 327,250.6 		"/>
		<polygon class="st20" points="328.2,305.2 261.5,305.2 261.5,251.4 266.4,251.4 266.4,300.3 323.4,300.3 323.4,250.6 328.2,250.6 
					"/>
		<rect x="246.3" y="248" class="st20" width="121" height="4.9"/>
		<rect x="271" y="261.9" class="st20" width="25.9" height="1.8"/>
		<rect x="271" y="266" class="st20" width="25.9" height="1.8"/>
		<rect x="271" y="273" class="st20" width="25.9" height="1.8"/>
		<rect x="271" y="282.4" class="st20" width="25.9" height="1.8"/>
		<rect x="271" y="286" class="st20" width="25.9" height="1.8"/>
		
			<rect x="127.4" y="244.4" transform="matrix(0.2042 -0.9789 0.9789 0.2042 -153.0967 333.143)" class="st20" width="1.8" height="32.7"/>
		
			<rect x="119.1" y="251.6" transform="matrix(0.2042 -0.9789 0.9789 0.2042 -161.9924 326.8126)" class="st20" width="1.8" height="22.9"/>
		<g class="st24">
			<ellipse class="st2" cx="140.5" cy="239.6" rx="22.4" ry="9"/>
			<ellipse class="st2" cx="178.4" cy="234.9" rx="10.9" ry="4.4"/>
		</g>
		<polygon class="st2" points="316.7,154.7 304.4,196.5 299.6,196.5 311.9,154.7 		"/>
		<polygon class="st2" points="334.2,154.7 321.9,196.5 308.3,196.5 320.6,154.7 		"/>
		<path class="st20" d="M367.7,198.2h-81.7c-2.4,0-4.4-2-4.4-4.4v-35.4c0-2.4,2-4.4,4.4-4.4h81.7c2.4,0,4.4,2,4.4,4.4v35.4
			C372.1,196.2,370.1,198.2,367.7,198.2z M286,156.4c-1.1,0-2,0.9-2,2v35.4c0,1.1,0.9,2,2,2h81.7c1.1,0,2-0.9,2-2v-35.4
			c0-1.1-0.9-2-2-2L286,156.4z"/>
		<rect x="329.9" y="204" class="st20" width="1.8" height="9.2"/>
		<path class="st18" d="M101.7,383.8h290.8c23.5,0,42.6,19.1,42.6,42.6v37.1c0,3-2.4,5.5-5.5,5.5c0,0,0,0,0,0H64.5
			c-3,0-5.5-2.4-5.5-5.4c0,0,0,0,0,0v-37.1C59,402.9,78.1,383.8,101.7,383.8C101.7,383.8,101.7,383.8,101.7,383.8z"/>
		<path class="st17" d="M100.6,393.3h290.6c18.4,0,33.3,14.9,33.3,33.3l0,0l0,0v21.6c0,6.5-5.3,11.8-11.7,11.8c0,0,0,0,0,0H79.1
			c-6.5,0-11.8-5.3-11.8-11.8l0,0v-21.6C67.3,408.2,82.2,393.3,100.6,393.3L100.6,393.3z"/>
		<path class="st20" d="M425.2,471.5H68.9c-6.8,0-12.3-5.5-12.3-12.3v-32.8c0.1-24.9,20.2-45,45.1-45h290.8c24.9,0,45,20.1,45.1,45
			v32.7C437.6,466,432,471.5,425.2,471.5L425.2,471.5z M101.7,386.2c-22.2,0-40.2,18-40.2,40.2v32.7c0,4.1,3.3,7.5,7.4,7.5h356.3
			c4.1,0,7.5-3.3,7.5-7.5v-32.8c0-22.2-18-40.2-40.2-40.2H101.7z"/>
		<ellipse class="st21" cx="254.4" cy="428.3" rx="10.7" ry="10.7"/>
		<path class="st20" d="M254.4,439.5c-6.9,0-12.5-5.7-12.4-12.6c0-6.9,5.7-12.5,12.6-12.4c6.9,0,12.4,5.6,12.4,12.5
			C267,434,261.4,439.5,254.4,439.5C254.5,439.5,254.4,439.5,254.4,439.5z M254.4,418.2c-4.9,0-8.8,4-8.8,8.9s4,8.8,8.9,8.8
			c4.9,0,8.8-4,8.8-8.8C263.3,422.2,259.4,418.2,254.4,418.2C254.5,418.2,254.4,418.2,254.4,418.2z"/>
		<rect x="383.7" y="415.2" class="st20" width="51.4" height="2.4"/>
		<rect x="361.8" y="415.2" class="st20" width="17.4" height="2.4"/>
		<rect x="405.8" y="421.3" class="st20" width="29.3" height="2.4"/>
		<rect x="393.4" y="421.3" class="st20" width="9.9" height="2.4"/>
		<path class="st25" d="M453.5,477.6H40.9c0.3-3.8,3.5-6.7,7.3-6.7h398C450,470.9,453.2,473.8,453.5,477.6z"/>
		<path class="st20" d="M446.2,492.2h-398c-5.4,0-9.7-4.4-9.7-9.7V477c0-5.4,4.4-9.7,9.7-9.7c0,0,0,0,0,0h398c5.4,0,9.7,4.4,9.7,9.7
			v5.5C456,487.8,451.6,492.2,446.2,492.2C446.2,492.2,446.2,492.2,446.2,492.2z M48.2,472.1c-2.7,0-4.9,2.2-4.9,4.8c0,0,0,0,0,0
			v5.5c0,2.7,2.2,4.9,4.9,4.9c0,0,0,0,0,0h398c2.7,0,4.9-2.2,4.9-4.9V477c0-2.7-2.2-4.9-4.9-4.9L48.2,472.1z"/>
		<rect x="40.9" y="481.1" class="st20" width="51.4" height="1.8"/>
		<rect x="96.8" y="481.1" class="st20" width="17.4" height="1.8"/>
		<rect x="40.9" y="476.9" class="st20" width="29.3" height="1.8"/>
		<rect x="72.7" y="476.9" class="st20" width="9.9" height="1.8"/>
	</g>
</g>
<path class="st26" d="M695.8,467.2h68.7c8.2,0.2,15-6.2,15.2-14.4c0.2-8.2-6.2-15-14.4-15.2c-0.3,0-0.5,0-0.8,0h-37.5
	c-8.2,0.2-15-6.2-15.2-14.4s6.2-15,14.4-15.2c0.3,0,0.5,0,0.8,0h37.5c8.2,0,14.8-6.6,14.8-14.8s-6.6-14.8-14.8-14.8h-48.3
	c-8.2-0.2-14.6-7-14.4-15.2c0.2-7.9,6.5-14.2,14.4-14.4h28c8.2-0.2,14.6-7,14.4-15.2c-0.2-7.9-6.5-14.2-14.4-14.4h-68.6
	c-6.4,0-11.6,5.1-14.4,11.4l-3.6,140.4"/>
<g id="Layer_2-4">
	<g id="Layer_1-2-4">
		<path class="st27" d="M520.2,429.6l23.8-75.8c1-3.2,4.4-4.9,7.5-3.9l134,42.1c3.2,1,4.9,4.4,3.9,7.5l-23.8,75.8
			c-1,3.2-4.4,4.9-7.5,3.9l-134-42.1C520.9,436.1,519.2,432.8,520.2,429.6z"/>
		<path class="st28" d="M689.9,398.1l-24.7,78.6c-0.8,2.4-3.3,3.7-5.7,3L526,437.7l155.4-47.1l5.5,1.7
			C689.3,393.1,690.7,395.7,689.9,398.1z"/>
		
			<ellipse transform="matrix(0.2994 -0.9541 0.9541 0.2994 90.9915 912.131)" class="st2" cx="666.6" cy="394.1" rx="1.9" ry="15.7"/>
		
			<ellipse transform="matrix(0.2995 -0.9541 0.9541 0.2995 80.869 882.6993)" class="st2" cx="641.6" cy="386.3" rx="1.9" ry="5.1"/>
		<path class="st29" d="M662.8,481.4c-1.7,0.5-3.6,0.5-5.3,0l0,0l-134.1-42.1c-4.7-1.5-7.4-6.5-5.9-11.3l23.8-75.9
			c1.5-4.7,6.5-7.4,11.3-5.9l134.1,42.1c4.7,1.5,7.4,6.5,5.9,11.3l-23.8,75.9C667.9,478.3,665.6,480.5,662.8,481.4z M659.3,475.6
			c1.6,0.5,3.3-0.4,3.8-2c0,0,0,0,0,0l0,0l23.8-75.9c0.5-1.6-0.4-3.3-2-3.8c0,0,0,0,0,0l0,0l-134-42.1c-1.6-0.5-3.3,0.4-3.7,2
			c0,0,0,0,0,0l0,0l-23.8,75.8c-0.5,1.6,0.4,3.3,2,3.8c0,0,0,0,0,0l0,0L659.3,475.6z"/>
		
			<rect x="568.6" y="401.3" transform="matrix(0.2994 -0.9541 0.9541 0.2994 16.1328 828.5826)" class="st29" width="7.2" height="4"/>
		
			<rect x="573.1" y="405.9" transform="matrix(0.3011 -0.9536 0.9536 0.3011 14.0384 835.0288)" class="st29" width="7.2" height="4"/>
		
			<rect x="580.8" y="405.1" transform="matrix(0.2994 -0.9541 0.9541 0.2994 20.9816 842.8129)" class="st29" width="7.2" height="4"/>
		
			<rect x="586.8" y="407" transform="matrix(0.2994 -0.9541 0.9541 0.2994 23.4195 849.9323)" class="st29" width="7.2" height="4"/>
		
			<rect x="595.8" y="409.8" transform="matrix(0.2994 -0.9541 0.9541 0.2994 27.0267 860.4708)" class="st29" width="7.2" height="4"/>
		
			<rect x="601.9" y="411.7" transform="matrix(0.2994 -0.9541 0.9541 0.2994 29.4606 867.579)" class="st29" width="7.2" height="4"/>
		
			<rect x="607.9" y="413.6" transform="matrix(0.2994 -0.9541 0.9541 0.2994 31.8889 874.7054)" class="st29" width="7.2" height="4"/>
		
			<rect x="614" y="415.6" transform="matrix(0.2995 -0.9541 0.9541 0.2995 34.2301 881.7305)" class="st29" width="7.2" height="4"/>
		
			<rect x="621.3" y="421.3" transform="matrix(0.3011 -0.9536 0.9536 0.3011 33.0818 891.748)" class="st29" width="7.2" height="4"/>
		<rect x="629" y="420.3" transform="matrix(0.2994 -0.9541 0.9541 0.2994 40.3514 899.469)" class="st29" width="7.2" height="4"/>
		
			<rect x="635.1" y="422.2" transform="matrix(0.2995 -0.9541 0.9541 0.2995 42.6879 906.4932)" class="st29" width="7.2" height="4"/>
		
			<rect x="641.1" y="424.1" transform="matrix(0.2994 -0.9541 0.9541 0.2994 45.2185 913.7051)" class="st29" width="7.2" height="4"/>
		
			<rect x="564.1" y="391.1" transform="matrix(0.2995 -0.9541 0.9541 0.2995 -2.9789 834.9082)" class="st29" width="6" height="56.8"/>
		
			<rect x="545.6" y="411.7" transform="matrix(0.2995 -0.9541 0.9541 0.2995 -19.9266 820.1953)" class="st29" width="6" height="24"/>
		<circle class="st2" cx="650.3" cy="454.4" r="8.4"/>
		<path class="st29" d="M653.1,466.7c-6,1.8-12.4-1.6-14.2-7.7c-1.8-6,1.6-12.4,7.7-14.2c6-1.8,12.4,1.6,14.2,7.7
			c1.6,5.2-0.8,10.9-5.7,13.4C654.4,466.2,653.8,466.5,653.1,466.7z M648.2,450.6c-2.9,0.9-4.5,3.9-3.6,6.7c0.9,2.9,3.9,4.5,6.7,3.6
			c1.7-0.5,3.1-1.8,3.6-3.6l0,0c0.9-2.8-0.7-5.9-3.5-6.7c0,0,0,0,0,0C650.4,450.3,649.3,450.3,648.2,450.6z"/>
		<path class="st27" d="M564.6,363.9l59.7-52.5c2.5-2.2,6.3-1.9,8.5,0.5l92.7,105.5c2.2,2.5,1.9,6.3-0.5,8.5l-59.7,52.5
			c-2.5,2.2-6.3,1.9-8.5-0.5l-92.7-105.5C561.9,369.9,562.2,366.1,564.6,363.9z"/>
		<path class="st28" d="M726.1,425l-61.8,54.4c-1.9,1.7-4.8,1.5-6.5-0.4l-92.4-105.1l157.3,40.4l3.8,4.3
			C728.2,420.4,728,423.3,726.1,425C726.1,425,726.1,425,726.1,425z"/>
		
			<ellipse transform="matrix(0.7507 -0.6606 0.6606 0.7507 -93.9062 569.2212)" class="st2" cx="707.3" cy="409" rx="1.9" ry="15.6"/>
		
			<ellipse transform="matrix(0.7511 -0.6601 0.6601 0.7511 -85.4064 553.1082)" class="st2" cx="690.9" cy="389.8" rx="1.9" ry="5.1"/>
		<path class="st29" d="M664.5,482c-3.4,1-7,0-9.4-2.7l-92.8-105.5c-3.3-3.7-2.9-9.4,0.8-12.7l0,0l59.7-52.5
			c3.7-3.3,9.4-2.9,12.7,0.8l0,0L728.4,415c3.3,3.7,2.9,9.4-0.8,12.7l0,0l-59.7,52.5C666.9,481,665.8,481.6,664.5,482z M659.7,475.4
			c1.1,1.2,3,1.4,4.2,0.3l0,0l59.7-52.5c1.2-1.1,1.4-3,0.3-4.2l0,0l-92.8-105.5c-1.1-1.2-3-1.4-4.2-0.3l0,0l-59.7,52.5
			c-1.2,1.1-1.4,3-0.3,4.2l0,0L659.7,475.4z"/>
		
			<rect x="619.2" y="366.4" transform="matrix(0.7511 -0.6601 0.6601 0.7511 -88.2142 502.8257)" class="st29" width="7.2" height="4"/>
		
			<rect x="623.4" y="371.2" transform="matrix(0.7511 -0.6601 0.6601 0.7511 -90.326 506.7779)" class="st29" width="7.2" height="4"/>
		
			<rect x="627.6" y="376" transform="matrix(0.7511 -0.6601 0.6601 0.7511 -92.4286 510.7341)" class="st29" width="7.2" height="4"/>
		
			<rect x="631.8" y="380.7" transform="matrix(0.7511 -0.6601 0.6601 0.7511 -94.5404 514.6863)" class="st29" width="7.2" height="4"/>
		
			<rect x="638" y="387.8" transform="matrix(0.7511 -0.6601 0.6601 0.7511 -97.6625 520.5466)" class="st29" width="7.2" height="4"/>
		
			<rect x="642.2" y="392.6" transform="matrix(0.7511 -0.6601 0.6601 0.7511 -99.7614 524.4996)" class="st29" width="7.2" height="4"/>
		
			<rect x="646.4" y="397.4" transform="matrix(0.7511 -0.6601 0.6601 0.7511 -101.874 528.4646)" class="st29" width="7.2" height="4"/>
		
			<rect x="650.6" y="402.1" transform="matrix(0.7511 -0.6601 0.6601 0.7511 -103.9795 532.4201)" class="st29" width="7.2" height="4"/>
		
			<rect x="656.8" y="409.2" transform="matrix(0.7511 -0.6601 0.6601 0.7511 -107.0979 538.2684)" class="st29" width="7.2" height="4"/>
		<rect x="661" y="414" transform="matrix(0.7511 -0.6601 0.6601 0.7511 -109.2068 542.23)" class="st29" width="7.2" height="4"/>
		
			<rect x="665.2" y="418.7" transform="matrix(0.7511 -0.6601 0.6601 0.7511 -111.316 546.1888)" class="st29" width="7.2" height="4"/>
		
			<rect x="669.4" y="423.5" transform="matrix(0.7511 -0.6601 0.6601 0.7511 -113.415 550.1418)" class="st29" width="7.2" height="4"/>
		
			<rect x="607" y="351.2" transform="matrix(0.7511 -0.6601 0.6601 0.7511 -98.7524 497.1528)" class="st29" width="6" height="56.8"/>
		
			<rect x="589" y="361.5" transform="matrix(0.7511 -0.6601 0.6601 0.7511 -99.2574 483.7876)" class="st29" width="6" height="24"/>
		<circle class="st2" cx="663" cy="452.5" r="8.4"/>
		<path class="st29" d="M665.2,464.4c-6,1.8-12.4-1.6-14.2-7.6c-1.8-6,1.6-12.4,7.6-14.2s12.4,1.6,14.2,7.6c1.3,4.3,0,8.9-3.4,11.9
			C668.2,463.2,666.7,464,665.2,464.4z M660.3,448.4c-2.8,0.9-4.5,3.9-3.6,6.7c0.9,2.8,3.9,4.5,6.7,3.6l0,0c0.7-0.2,1.4-0.6,2-1.1
			l0,0c2.2-2,2.5-5.4,0.5-7.6C664.5,448.4,662.3,447.7,660.3,448.4L660.3,448.4z"/>
	</g>
</g>
<g class="st30">
	<path class="st31" d="M463.6,218.8l13.9-3.8c3.3-0.3,5.9-3.2,5.6-6.5c0-0.3-0.1-0.6-0.1-0.9c-0.1-9.5-0.8-18.9-1.9-28.3
		L463.6,218.8z"/>
	<path class="st32" d="M396.4,127c15.7,23.9,19.4,53.7,10.1,80.7c-2.5,7-5.5,15.7,0,20.9s11.6,2.9,17.5,1.2l39.7-11.1l17.4-39.6
		c-3.2-25.5-10.2-50.3-20.7-73.7c-2.1-4.6-5.1-9.9-10.1-10.6c-3-0.1-5.9,0.6-8.6,2l-38.1,16.9l-0.9,0.4l-11.2,4.8L396.4,127z"/>
	<path class="st2" d="M421.1,142.7c10.1-2.6,20-5.9,29.8-9.6c5.5-2.1,3.2-11.1-2.5-8.9c-9.8,3.7-19.7,6.9-29.8,9.5
		c-2.5,0.7-3.9,3.3-3.1,5.8C416.2,141.9,418.7,143.3,421.1,142.7L421.1,142.7z"/>
	<path class="st2" d="M423.3,159.5c8.8-2.3,17.4-5,25.9-8.1c5.6-2.1,3.2-11.1-2.5-9c-8.5,3.1-17.1,5.8-25.9,8.1
		c-2.4,0.9-3.6,3.6-2.7,6C419,158.7,421.1,159.9,423.3,159.5L423.3,159.5z"/>
	<path class="st2" d="M425.5,176.7c7.1-1.9,14-4,21-6.2c5.6-1.9,3.2-10.9-2.5-9c-6.9,2.4-13.9,4.5-21,6.2c-2.5,0.8-3.8,3.4-3.1,5.8
		C420.7,175.9,423.2,177.3,425.5,176.7z"/>
</g>
<path class="st33" d="M398.4,34.3c-0.4-1.1-1.6-1.8-2.8-1.4l-2.4,0.7c-2.5,0.6-5.1-0.8-5.9-3.2l-0.7-2.3c-0.4-1.1-1.6-1.8-2.8-1.4
	c-1.1,0.4-1.7,1.5-1.4,2.6l0,0l0.7,2.4c0.7,2.5-0.7,5.1-3.2,5.9l-2.4,0.8c-1.1,0.3-1.8,1.5-1.5,2.6c0,0,0,0.1,0,0.1
	c0.4,1.1,1.6,1.8,2.8,1.4l2.3-0.7c2.6-0.8,5.4,0.7,6.2,3.3l0.7,2.4c0.4,1.1,1.6,1.8,2.7,1.4c1.1-0.3,1.8-1.5,1.5-2.6v-0.1l-0.7-2.3
	c-0.7-2.5,0.7-5.2,3.2-5.9l2.4-0.7C398.2,36.6,398.7,35.4,398.4,34.3z"/>
<path class="st33" d="M515.1,358.3c-0.5-1.4-2-2.1-3.4-1.7l-2.9,0.9c-3.1,0.8-6.2-0.9-7.2-4l-0.9-2.9c-0.4-1.4-1.9-2.2-3.3-1.8
	c-1.4,0.4-2.2,1.9-1.8,3.3l0,0l0,0l0.9,2.9c0.8,3.1-0.9,6.3-4,7.2l-2.9,0.9c-1.4,0.4-2.2,1.8-1.8,3.1c0,0,0,0,0,0c0,0,0,0.1,0,0.1
	c0.5,1.4,2,2.2,3.4,1.7l2.8-0.9c3.2-0.9,6.5,0.8,7.5,4l0.9,2.9c0.4,1.4,1.9,2.1,3.3,1.7c1.4-0.4,2.2-1.8,1.8-3.2c0,0,0-0.1,0-0.1
	l-0.9-2.9c-0.8-3.1,0.9-6.3,4-7.2l2.9-0.9C514.9,361.1,515.5,359.7,515.1,358.3z"/>
<path class="st33" d="M493.4,87.7c-0.3-1.1-1.5-1.6-2.5-1.3c0,0,0,0,0,0l-2.2,0.6c-2.3,0.6-4.6-0.7-5.4-3l-0.6-2.1
	c-0.4-1-1.6-1.5-2.6-1.1c-0.9,0.4-1.3,1.3-1.2,2.2l0,0l0.6,2.1c0.6,2.3-0.7,4.7-3,5.4l-2.2,0.7c-1,0.3-1.6,1.3-1.4,2.4
	c0,0,0,0.1,0,0.1c0.3,1,1.5,1.6,2.5,1.3l2.1-0.6c2.4-0.7,4.9,0.6,5.6,3l0.7,2.1c0.3,1,1.4,1.6,2.5,1.3c1-0.3,1.6-1.3,1.4-2.3
	c0,0,0,0,0,0v-0.1l-0.5-2.1c-0.7-2.3,0.6-4.7,2.9-5.4l2.2-0.6C493.2,89.7,493.7,88.6,493.4,87.7z"/>
<path class="st33" d="M70.1,332.5c-0.5-1.5-2.1-2.3-3.5-1.8l-3,0.9c-3.2,0.8-6.5-1-7.5-4.1l-0.9-3c-0.4-1.5-2-2.3-3.5-1.9
	s-2.3,2-1.9,3.5l0,0l0,0l0.9,3c0.9,3.2-1,6.5-4.1,7.5l-3,1c-1.4,0.4-2.3,1.9-1.9,3.3c0,0,0,0.1,0,0.1c0.5,1.4,2.1,2.2,3.5,1.8
	l2.9-0.9c3.3-1,6.8,0.9,7.9,4.2l0.9,3c0.5,1.4,2,2.2,3.5,1.8c1.4-0.4,2.3-1.9,1.9-3.3c0,0,0-0.1,0-0.1l-0.9-3
	c-0.9-3.2,1-6.5,4.1-7.5l3-0.9C69.9,335.4,70.6,333.9,70.1,332.5z"/>
<path class="st34" d="M40.1,11.1c-0.5-1.6-2.2-2.5-3.8-2l-3.3,1c-3.6,0.8-7.1-1.2-8.3-4.7l-1-3.2c-0.4-1.6-2.1-2.5-3.7-2.1h-0.2
	c-1.6,0.5-2.6,2.2-2.1,3.8l0,0l1.1,3.3c0.9,3.6-1.1,7.2-4.6,8.4l-3.3,1c-1.6,0.6-2.5,2.3-2,3.9c0.5,1.6,2.2,2.5,3.8,2l3.3-1
	c3.6-0.9,7.2,1.1,8.3,4.7l1,3.2c0.5,1.6,2.3,2.5,3.9,2c1.5-0.5,2.4-2.1,2-3.7l-1-3.3c-1-3.5,1-7.2,4.6-8.3l3.3-1
	C39.7,14.4,40.6,12.7,40.1,11.1z"/>
<path class="st34" d="M488.1,16.5c-0.5-1.5-2.1-2.3-3.5-1.8l-3.1,0.9c-3.3,0.8-6.7-1.1-7.7-4.3l-0.9-3c-0.4-1.5-1.9-2.4-3.4-2h-0.1
	c-1.5,0.4-2.4,2-1.9,3.5c0,0,0,0,0,0l0,0l1,3.1c0.8,3.3-1.1,6.7-4.3,7.7l-3.1,0.9c-1.5,0.5-2.3,2.1-1.9,3.6c0.5,1.5,2.1,2.3,3.5,1.8
	l3.1-0.9c3.3-0.9,6.7,1.1,7.7,4.3l0.9,3c0.4,1.5,1.9,2.5,3.5,2.1s2.5-1.9,2.1-3.5c0-0.1,0-0.2-0.1-0.2l-0.9-3
	c-0.9-3.3,1-6.7,4.2-7.7l3.1-1C487.7,19.6,488.6,18,488.1,16.5z"/>
<path class="st34" d="M452.2,292.5c-0.5-1.5-2.1-2.3-3.6-1.9l-3.1,0.9c-3.3,0.8-6.7-1.1-7.7-4.3l-0.9-3c-0.4-1.5-1.9-2.4-3.4-2
	c0,0,0,0,0,0l-0.1,0c-1.5,0.4-2.4,2-1.9,3.5c0,0,0,0,0,0l0,0l1,3.1c0.8,3.3-1.1,6.7-4.3,7.7l-3.1,0.9c-1.5,0.5-2.3,2.1-1.9,3.6
	c0.5,1.5,2.1,2.3,3.5,1.9l3.1-0.9c3.3-0.9,6.7,1.1,7.7,4.3l0.9,3c0.4,1.5,2,2.4,3.6,1.9s2.4-2,1.9-3.6l-0.9-3.1
	c-0.9-3.3,1-6.7,4.2-7.7l3.1-0.9C451.8,295.7,452.6,294.1,452.2,292.5z"/>
<circle class="st35" cx="14.4" cy="244.7" r="9.8"/>
<circle class="st35" cx="541.7" cy="275.9" r="9.8"/>
<path class="st36" d="M480.1,227.2l3,5.5l-0.6-0.8c-0.1-2.1,0.5-4.1,1.7-5.8c1.3-1.9,3.1-3.4,5.2-4.3c1.9-1,4.2-1.2,6.3-0.5
	c2,0.6,3.6,2.1,4.5,4l8,17.2l-5.3,2.5l-7.1-15.4c-0.5-1.1-1.4-2-2.5-2.5c-1.2-0.5-2.6-0.4-3.8,0.3c-1.3,0.6-2.4,1.6-3.1,2.8
	c-0.8,1.3-1.2,2.8-1.2,4.3c0,1.7,0.4,3.4,1.2,5l5,10.9l-5.3,2.5l-10.8-23.2L480.1,227.2z"/>
<path class="st36" d="M509.6,227.4c-1.1-2.2-1.5-4.6-1.3-7.1c0.2-2.4,1.1-4.7,2.5-6.6c1.6-2.1,3.6-3.7,6-4.7
	c2.3-1.1,4.8-1.6,7.4-1.5c2.3,0.2,4.6,1,6.5,2.4c3.9,2.9,6.1,7.7,5.8,12.6c-0.2,2.4-1,4.6-2.4,6.5c-1.5,2.1-3.6,3.7-5.9,4.8
	c-2.3,1.1-4.8,1.6-7.4,1.5c-2.4-0.1-4.6-0.9-6.6-2.2C512.3,231.7,510.6,229.7,509.6,227.4z M514.9,225c0.6,1.4,1.6,2.7,2.9,3.6
	c1.2,0.9,2.6,1.4,4,1.6c1.5,0.2,3-0.1,4.3-0.7c1.4-0.6,2.6-1.6,3.4-2.9c0.8-1.2,1.3-2.7,1.3-4.1c0.1-1.6-0.2-3.1-0.9-4.5
	c-0.6-1.4-1.6-2.7-2.9-3.6c-1.2-0.9-2.5-1.5-4-1.7c-3.1-0.4-6,1-7.7,3.6c-0.8,1.3-1.2,2.7-1.3,4.2C514,222.1,514.3,223.6,514.9,225z
	"/>
<path class="st36" d="M550.5,184.4c-0.4-0.8-0.4-1.7,0-2.5c0.3-0.8,1-1.5,1.8-1.8c0.8-0.4,1.7-0.4,2.5-0.1c1.6,0.5,2.6,2.2,2.1,3.8
	c0,0.1-0.1,0.3-0.1,0.4c-0.3,0.8-1,1.4-1.8,1.8c-0.8,0.4-1.7,0.4-2.5,0.2C551.5,185.8,550.8,185.2,550.5,184.4z M554.7,192.6
	l5.3-2.4l10.8,23.3l-5.3,2.5L554.7,192.6z"/>
<path class="st36" d="M573.8,183.8l3,5.5l-0.6-0.8c-0.1-2.1,0.5-4.1,1.7-5.8c1.3-1.9,3.1-3.4,5.2-4.3c1.9-1,4.2-1.2,6.3-0.5
	c2,0.6,3.6,2.1,4.5,4l8,17.2l-5.3,2.4l-7.1-15.4c-0.5-1.1-1.4-2-2.5-2.5c-1.2-0.5-2.6-0.4-3.8,0.3c-1.3,0.6-2.4,1.6-3.1,2.8
	c-0.8,1.3-1.2,2.8-1.2,4.3c0,1.7,0.4,3.4,1.2,5l5,10.9l-5.3,2.4L568.9,186L573.8,183.8z"/>
<path class="st36" d="M619.8,191.5l-24-17.9l6.2-2.9l17.3,14.4l-3.3,1.3l-0.5-22l5.8-2.7l-1.3,29.7L619.8,191.5z"/>
<path class="st36" d="M629.7,171.7c-2.2-4.4-1.7-9.7,1.3-13.6c1.6-2.1,3.6-3.7,6-4.7c2.3-1.1,4.8-1.6,7.4-1.4c2.3,0.2,4.6,1,6.5,2.4
	c4,2.9,6.2,7.7,5.8,12.6c-0.2,2.4-1,4.6-2.4,6.5c-1.5,2.1-3.6,3.7-5.9,4.8c-2.3,1.1-4.8,1.6-7.4,1.5c-2.4-0.1-4.6-0.9-6.6-2.2
	C632.4,176,630.7,174,629.7,171.7z M635,169.3c0.6,1.4,1.6,2.7,2.9,3.6c1.2,0.9,2.6,1.4,4,1.6c1.5,0.2,3-0.1,4.3-0.7
	c1.4-0.6,2.6-1.6,3.4-2.9c0.8-1.2,1.3-2.7,1.3-4.1c0.1-3.1-1.2-6.1-3.7-8.1c-1.2-0.9-2.5-1.5-4-1.7c-3-0.4-6,1-7.7,3.6
	c-0.8,1.3-1.2,2.7-1.3,4.2C634.1,166.4,634.4,167.9,635,169.3z"/>
<path class="st36" d="M652.8,136.9c-0.4-0.8-0.4-1.7,0-2.5c0.3-0.8,1-1.5,1.8-1.8c0.8-0.4,1.7-0.4,2.5-0.1c1.6,0.5,2.6,2.2,2.1,3.8
	c0,0.1-0.1,0.3-0.1,0.4c-0.3,0.8-1,1.4-1.8,1.8c-0.8,0.4-1.7,0.4-2.5,0.2C653.9,138.4,653.2,137.7,652.8,136.9z M657,145.2l5.3-2.5
	l10.8,23.2l-5.3,2.5L657,145.2z"/>
<path class="st36" d="M700,150.9c-0.7,1.4-1.7,2.7-2.8,3.8c-1.2,1.1-2.6,2.1-4,2.8c-2.3,1.1-4.8,1.7-7.3,1.6
	c-2.3-0.1-4.6-0.8-6.5-2.2c-2-1.5-3.6-3.4-4.6-5.7c-1.1-2.2-1.5-4.8-1.2-7.2c0.3-2.3,1.2-4.5,2.6-6.3c1.4-1.9,3.2-3.3,5.3-4.3
	c1.7-0.8,3.5-1.3,5.3-1.6c1.6-0.2,3.3-0.1,4.8,0.4l-1.1,4.6c-1-0.2-2-0.3-3.1-0.2c-1.2,0-2.5,0.3-3.6,0.9c-1.3,0.6-2.5,1.6-3.3,2.8
	c-0.8,1.2-1.3,2.6-1.4,4.1c-0.1,1.5,0.2,3.1,0.9,4.5c0.6,1.4,1.6,2.6,2.9,3.5c1.2,0.9,2.6,1.4,4.1,1.6c1.6,0.1,3.2-0.2,4.7-0.9
	c0.9-0.4,1.8-1,2.5-1.7c0.7-0.7,1.3-1.4,1.7-2.3L700,150.9z"/>
<path class="st36" d="M718.8,145.5c-2.4,1.2-5,1.7-7.6,1.6c-2.3-0.1-4.6-0.9-6.5-2.3c-2-1.5-3.5-3.4-4.5-5.6c-1-2.2-1.4-4.6-1.1-7.1
	c0.3-2.4,1.2-4.7,2.6-6.7c1.5-2.1,3.4-3.7,5.7-4.7c2.8-1.4,5.9-1.7,8.9-0.8c3,1,5.7,2.9,7.6,5.5L707.8,141l-2.7-2.5l13-13l-0.7,1.3
	c-1-1-2.3-1.8-3.7-2.2c-1.6-0.4-3.3-0.2-4.7,0.6c-2.7,1.2-4.5,3.8-4.6,6.8c-0.1,1.6,0.3,3.2,1,4.6c0.6,1.5,1.7,2.8,2.9,3.8
	c1.2,0.9,2.6,1.5,4.1,1.6c1.5,0.1,3.1-0.1,4.5-0.8c1-0.5,1.9-1.1,2.7-1.9c0.8-0.8,1.5-1.7,2-2.7l4.2,2.8c-0.8,1.4-1.8,2.6-3,3.7
	C721.6,144,720.3,144.9,718.8,145.5z"/>
<path class="st36" d="M743.7,133.8c-1.6,0.8-3.4,1.2-5.2,1.4c-1.7,0.2-3.5-0.1-5.1-0.8l0.8-4c1.3,0.4,2.6,0.7,4,0.7
	c1.2,0,2.3-0.2,3.4-0.7c0.7-0.3,1.4-0.7,1.9-1.2c0.5-0.4,0.9-1,1.1-1.7c0.2-0.7,0.1-1.4-0.2-2c-0.3-0.8-0.9-1.4-1.7-1.6
	c-0.8-0.2-1.7-0.3-2.6-0.2c-1,0.1-2,0.2-3.1,0.4c-1.9,0.3-3.8,0.1-5.6-0.6c-1.5-0.7-2.8-1.9-3.4-3.4c-0.6-1.2-0.8-2.5-0.7-3.9
	c0.2-1.4,0.7-2.8,1.6-3.9c1-1.4,2.4-2.4,4-3.1c1.5-0.7,3-1.2,4.6-1.4c1.5-0.2,3.1-0.1,4.5,0.3l-0.6,4.2c-1-0.4-2.1-0.6-3.1-0.5
	c-0.9,0-1.9,0.2-2.8,0.6c-0.6,0.3-1.2,0.7-1.7,1.2c-0.5,0.4-0.8,1-1,1.6c-0.2,0.6-0.1,1.2,0.2,1.7c0.3,0.7,0.9,1.3,1.6,1.5
	c0.8,0.2,1.7,0.3,2.6,0.2c1-0.1,1.9-0.2,2.9-0.3c1.2-0.2,2.4-0.2,3.7,0c1.1,0.1,2.2,0.5,3.1,1.1c1,0.7,1.8,1.6,2.2,2.7
	c0.6,1.3,0.9,2.8,0.8,4.3c-0.1,1.5-0.7,3-1.7,4.2C747,131.9,745.5,133.1,743.7,133.8z"/>
<path class="st36" d="M738.7,83.8l4.7-2.2l14.9,32.2l-4.7,2.2L738.7,83.8z M760.8,125.1c-0.9,0.4-1.8,0.5-2.8,0.3
	c-0.9-0.2-1.6-0.9-2-1.8c-0.4-0.8-0.4-1.8,0-2.6c0.4-0.9,1.1-1.6,2-2c0.9-0.4,1.9-0.5,2.8-0.2c0.9,0.3,1.6,0.9,1.9,1.7
	c0.4,0.8,0.5,1.8,0.1,2.6C762.5,124.1,761.7,124.7,760.8,125.1L760.8,125.1z"/>
</svg>
