<?xml version="1.0" encoding="utf-8"?>
<!-- Generator: Adobe Illustrator 25.0.1, SVG Export Plug-In . SVG Version: 6.00 Build 0)  -->
<svg version="1.1" id="Layer_1" xmlns="http://www.w3.org/2000/svg" xmlns:xlink="http://www.w3.org/1999/xlink" x="0px" y="0px"
	 viewBox="0 0 653 375" style="enable-background:new 0 0 653 375;" xml:space="preserve">
<style type="text/css">
	.st0{opacity:0.15;fill:#A9EA9C;enable-background:new    ;}
	.st1{opacity:0.15;fill:#32CAF8;enable-background:new    ;}
	.st2{fill:#2BC3F7;}
	.st3{fill:#9FE791;}
	.st4{fill:#FFFFFF;}
	.st5{opacity:0.1;fill:#2898B2;enable-background:new    ;}
	.st6{fill:#426572;}
	.st7{fill:#A9EA9C;}
	.st8{fill:#91CD86;}
	.st9{opacity:0.2;fill:#2BC3F7;enable-background:new    ;}
	.st10{opacity:0.15;}
	.st11{fill:#32CAF8;}
	.st12{opacity:0.13;fill:#2BC3F7;enable-background:new    ;}
	.st13{opacity:0.38;}
	.st14{fill:#F7F2E1;}
	.st15{fill:#E6E2BD;}
	.st16{fill:#EF473F;}
</style>
<g id="Layer_2_1_">
	<g id="Layer_1-2">
		<path class="st0" d="M74.5,97.5h350c41.1,0,74.5,33.3,74.5,74.5l0,0l0,0c0,41.1-33.3,74.5-74.5,74.5l0,0h-350
			C33.4,246.5,0,213.2,0,172l0,0l0,0C0,130.9,33.3,97.5,74.5,97.5L74.5,97.5z"/>
		<path class="st1" d="M220.5,61.5h358c41.1,0,74.5,33.3,74.5,74.5l0,0l0,0c0,41.1-33.3,74.5-74.5,74.5l0,0h-358
			c-41.1,0-74.5-33.3-74.5-74.5l0,0l0,0C146,94.9,179.3,61.5,220.5,61.5L220.5,61.5z"/>
		<circle class="st2" cx="86.5" cy="238" r="7.5"/>
		<circle class="st2" cx="575.5" cy="119" r="7.5"/>
		<circle class="st3" cx="160.5" cy="339" r="7.5"/>
		<circle class="st3" cx="475.5" cy="25" r="7.5"/>
		<path class="st4" d="M215.3,4.5h225.4c6.6,0,12,5.4,12,12v341c0,6.6-5.4,12-12,12H215.3c-6.6,0-12-5.4-12-12v-341
			C203.3,9.9,208.7,4.5,215.3,4.5z"/>
		<path class="st5" d="M455.7,308.6v48.9c0,6.6-5.4,12-12,12H218.3c-6.6,0-12-5.4-12-12v-27.4c8.5,4.7,16.5,10.8,25.1,15.1
			c24.3,12.1,53.2,9.7,79.9,5C360.8,341.5,408.6,326.1,455.7,308.6z"/>
		<path class="st5" d="M455.7,21.5v14c0-6.6-5.4-12-12-12H218.3c-6.6,0-12,5.4-12,12v-14c0-6.6,5.4-12,12-12h225.4
			C450.3,9.5,455.7,14.9,455.7,21.5z"/>
		<path class="st6" d="M443.2,375H217.8c-9.4,0-17-7.6-17-17V17c0-9.4,7.6-17,17-17h225.4c9.4,0,17,7.6,17,17v60.5h-10V17
			c0-3.9-3.1-7-7-7H217.8c-3.9,0-7,3.1-7,7v341c0,3.9,3.1,7,7,7h225.4c3.9,0,7-3.1,7-7V119.1h10V358
			C460.2,367.4,452.6,375,443.2,375z"/>
		<rect x="208" y="43.5" class="st6" width="245" height="9"/>
		<rect x="208" y="322.5" class="st6" width="245" height="9"/>
		<path class="st5" d="M212.2,140.5H278c6.6,0,12,5.4,12,12v83.9c0,6.6-5.4,12-12,12h-65.8c-6.6,0-12-5.4-12-12v-83.9
			C200.2,145.9,205.6,140.5,212.2,140.5z"/>
		<path class="st7" d="M225.1,188.4H161c-8.6,0-15.5-7-15.5-15.5V85.5c0-8.6,7-15.5,15.5-15.5h64.1c8.6,0,15.5,6.9,15.5,15.5v87.4
			C240.6,181.5,233.7,188.4,225.1,188.4z M164.9,169h56.3V89.4h-56.3V169z"/>
		<path class="st8" d="M240.8,117.6v59.2c0,8.6-7,15.5-15.5,15.5h-64.1c-8.6,0-15.5-7-15.5-15.5v-59.2h19.4v55.3h56.3v-55.3
			C221.4,117.6,240.8,117.6,240.8,117.6z"/>
		<path class="st6" d="M225.1,194.9H161c-10.8,0-19.5-8.7-19.5-19.5V88c0-10.8,8.7-19.5,19.5-19.5h64.1c10.8,0,19.5,8.7,19.5,19.5
			v87.4C244.6,186.1,235.9,194.8,225.1,194.9z M161.1,76.4c-6.4,0-11.5,5.2-11.5,11.5v87.4c0,6.4,5.2,11.5,11.5,11.5h64.1
			c6.4,0,11.5-5.2,11.5-11.5V88c0-6.4-5.2-11.5-11.5-11.5L161.1,76.4L161.1,76.4z M225.3,175.4H161V87.8h64.3V175.4z M169,167.4
			h48.3V95.8H169V167.4z"/>
		<path class="st7" d="M144.6,128.4h96c6.6,0,12,5.4,12,12v83.5c0,6.6-5.4,12-12,12h-96c-6.6,0-12-5.4-12-12v-83.5
			C132.6,133.8,138,128.4,144.6,128.4z"/>
		<path class="st8" d="M253.6,141.7v81.1c0,7.3-5.9,13.2-13.2,13.2h-38.2c-4.2,0-7.6-3.4-7.6-7.6v-92.2c0-4.2,3.4-7.6,7.6-7.7l0,0
			h38.2C247.7,128.5,253.6,134.5,253.6,141.7z"/>
		<path class="st6" d="M240.6,238.8h-96c-8.8,0-16-7.2-16-16v-83.4c0-8.8,7.2-16,16-16h96c8.8,0,16,7.2,16,16v83.4
			C256.6,231.6,249.4,238.8,240.6,238.8z M144.6,131.3c-4.4,0-8,3.6-8,8v83.5c0,4.4,3.6,8,8,8h96c4.4,0,8-3.6,8-8v-83.4
			c0-4.4-3.6-8-8-8L144.6,131.3z"/>
		<ellipse class="st4" cx="154.4" cy="142.6" rx="7.6" ry="2.6"/>
		<ellipse class="st4" cx="187.1" cy="142.6" rx="18.9" ry="2.6"/>
		<path class="st2" d="M338.8,77.5h76.5c11.5,0,20.8,9.3,20.8,20.8v57.5c0,11.5-9.3,20.8-20.8,20.8h-76.5
			c-11.5,0-20.8-9.3-20.8-20.8V98.2C318,86.8,327.3,77.5,338.8,77.5z"/>
		<path class="st2" d="M231,298h134.8c5.8,0,5.8-9,0-9H231C225.2,289,225.2,298,231,298z"/>
		<path class="st9" d="M231,270h134.8c5.8,0,5.8-9,0-9H231C225.2,261,225.2,270,231,270z"/>
		<ellipse class="st5" cx="440.5" cy="258" rx="52.5" ry="51.5"/>
		<circle class="st7" cx="453.5" cy="249" r="51.5"/>
		<path class="st8" d="M502.6,246c0,28.4-23.1,51.5-51.5,51.5s-51.5-23.1-51.5-51.5c0-2.2,0.1-4.3,0.4-6.5
			c3.6,28.2,29.4,48.2,57.6,44.6c23.3-3,41.7-21.3,44.6-44.6C502.5,241.7,502.6,243.8,502.6,246z"/>
		<path class="st6" d="M453.5,303.5c-30.7,0-55.5-24.8-55.5-55.5s24.8-55.5,55.5-55.5S509,217.3,509,248S484.2,303.5,453.5,303.5z
			 M453.5,200.5c-26.2,0-47.5,21.3-47.5,47.5s21.3,47.5,47.5,47.5S501,274.2,501,248S479.7,200.5,453.5,200.5L453.5,200.5z"/>
		<g class="st10">
			<path class="st11" d="M507.4,319.2L493.1,331c-3,2.5,1.3,6.7,4.2,4.2l14.2-11.8C514.6,321,510.3,316.8,507.4,319.2L507.4,319.2z"
				/>
			<path class="st11" d="M510.4,332.2L498.6,318c-2.5-3-6.7,1.3-4.2,4.2l11.8,14.2C508.6,339.5,512.8,335.2,510.4,332.2L510.4,332.2
				z"/>
		</g>
		<path class="st6" d="M447.4,218.7h16.5v12.7l-3.2,25.5h-10.2l-3.1-25.5L447.4,218.7L447.4,218.7z M448,260.7h15.4v13.6H448V260.7z
			"/>
		<path class="st12" d="M335.9,80.4h76.5c11.5,0,20.8,9.3,20.8,20.8v57.5c0,11.5-9.3,20.8-20.8,20.8h-76.5
			c-11.5,0-20.8-9.3-20.8-20.8v-57.5C315.2,89.7,324.5,80.4,335.9,80.4z"/>
	</g>
</g>
<g class="st13">
	<path class="st6" d="M303,88.9l6.8,2.2l-2.6,8.4c0.9-0.5,1.8-0.8,2.8-0.9s2,0.1,3,0.4c2.1,0.6,3.7,2,4.6,4s0.9,4.4,0,7.3
		c-0.5,1.8-1.4,3.4-2.6,4.8c-1,1.2-2.3,2-3.7,2.4c-1.4,0.4-2.8,0.3-4.1-0.1c-1.1-0.3-2.2-1-3-1.8c-0.8-0.9-1.4-1.9-1.7-3l-0.8,2.6
		l-6.3-2L303,88.9z M305,106.6c-0.5,1.1-0.5,2.4-0.2,3.6c0.3,0.8,1,1.5,1.8,1.7c0.8,0.3,1.7,0.1,2.4-0.4c1-0.8,1.6-1.9,1.9-3.1
		c0.4-1.1,0.5-2.3,0.1-3.4c-0.3-0.8-0.9-1.4-1.6-1.6c-0.9-0.3-1.8-0.2-2.6,0.3C305.9,104.4,305.2,105.4,305,106.6z"/>
	<path class="st6" d="M326,96.2l6.8,2.1l-7.7,24.4l-6.8-2.1L326,96.2z"/>
	<path class="st6" d="M331.3,115c0.7-2.5,2.5-4.6,4.8-5.8c2.6-1.2,5.5-1.3,8.2-0.3c3.5,1.1,5.9,3,7,5.6c1.9,4.7,0,10.2-4.5,12.6
		c-2.6,1.2-5.6,1.3-8.3,0.2c-2.5-0.7-4.7-2.2-6.2-4.3C330.8,120.7,330.4,117.7,331.3,115z M338.1,117.1c-0.5,1.2-0.5,2.5-0.1,3.8
		c0.7,1.7,2.6,2.5,4.3,1.8c0.2-0.1,0.4-0.2,0.5-0.3c1-0.8,1.8-2,2.1-3.3c0.5-1.2,0.5-2.5,0.1-3.7c-0.3-0.9-1.1-1.6-2-1.9
		s-2-0.2-2.8,0.4C339.2,114.7,338.4,115.9,338.1,117.1L338.1,117.1z"/>
	<path class="st6" d="M367.5,128.4l6.2,2.8c-0.7,1.2-1.7,2.2-2.8,2.9c-1.2,0.7-2.5,1.2-3.8,1.3c-1.7,0.1-3.4-0.1-5-0.7
		c-1.6-0.5-3.1-1.1-4.5-2c-1.1-0.7-2-1.6-2.7-2.7c-0.6-1-1.1-2.2-1.2-3.4c-0.1-1.5,0-3,0.5-4.4c0.4-1.6,1.2-3,2.4-4.2
		c0.7-0.8,1.6-1.4,2.6-1.8c0.9-0.4,1.9-0.7,2.9-0.8c1.8-0.1,3.6,0.2,5.3,0.8c2.9,0.9,4.9,2.1,6.1,3.6c1.2,1.6,1.8,3.5,1.8,5.5
		l-6.6-1.2c0-0.7-0.2-1.4-0.6-2c-1.3-1.4-3.3-1.8-5-0.9c-1.1,0.8-1.9,2-2.2,3.3c-0.5,1.2-0.5,2.5,0,3.6c0.4,1,1.3,1.7,2.3,2
		c0.8,0.3,1.7,0.3,2.5,0C366.4,129.8,367,129.2,367.5,128.4z"/>
	<path class="st6" d="M382,113.8l6.9,2.2l-4,12.6l6.9-4.3l8.3,2.6l-8.3,4.2l3.1,13.6l-7.6-2.4l-1.4-8.2l-3.3,1.7l-1.5,4.6l-6.9-2.2
		L382,113.8z"/>
	<path class="st6" d="M417.7,144l-13.6-4.3c-0.2,0.9-0.2,1.8,0.1,2.7c0.4,1,1.2,1.7,2.2,2c0.7,0.2,1.4,0.2,2,0.1
		c0.6-0.2,1.1-0.4,1.5-0.8l6.5,2.7c-1.3,1.3-3,2.2-4.9,2.6c-2.2,0.3-4.5,0-6.6-0.8c-1.9-0.5-3.7-1.4-5.2-2.7c-1.2-1.1-2-2.6-2.4-4.2
		c-0.4-1.8-0.3-3.7,0.3-5.5c0.7-2.5,2.4-4.7,4.8-5.9c2.6-1.2,5.5-1.3,8.1-0.3c2.1,0.5,4,1.6,5.6,3c1.2,1.2,2,2.7,2.3,4.4
		c0.3,2,0.1,4.1-0.6,6L417.7,144z M411.8,138.6c0.3-1,0.2-2.1-0.2-3.1c-1-1.7-3.1-2.2-4.8-1.2c-0.1,0-0.2,0.1-0.2,0.2
		c-0.7,0.6-1.2,1.3-1.5,2.1L411.8,138.6z"/>
	<path class="st6" d="M444.8,133.5l-7.7,24.4l-6.3-2l0.8-2.6c-0.9,0.7-2,1.2-3.1,1.5c-1.2,0.2-2.4,0.1-3.5-0.3
		c-2.2-0.6-4-2.3-4.6-4.5c-0.7-2.4-0.6-4.9,0.2-7.3c0.9-2.9,2.3-5,4.2-6.1c1.8-1.1,4.1-1.3,6.1-0.6c1,0.3,1.9,0.8,2.7,1.4
		c0.8,0.6,1.4,1.4,1.8,2.3l2.7-8.5L444.8,133.5z M433.2,146.9c0.4-1.1,0.5-2.3,0.1-3.4c-0.3-0.8-1-1.5-1.9-1.7
		c-0.8-0.3-1.6-0.1-2.3,0.4c-0.9,0.8-1.6,1.8-1.8,3c-0.4,1.1-0.5,2.3-0.2,3.4c0.3,0.8,0.9,1.4,1.7,1.6c0.8,0.3,1.8,0.2,2.5-0.3
		C432.2,149.2,432.9,148.1,433.2,146.9L433.2,146.9z"/>
</g>
<rect x="331" y="31.3" transform="matrix(0.2685 -0.9633 0.9633 0.2685 149.9579 448.2704)" class="st14" width="78.3" height="188.2"/>
<polyline class="st15" points="450.3,188.4 269,137.9 269.7,135.2 446.3,184.5 451,185.8 "/>
<path class="st16" d="M304.6,87.8l6.8,2.2l-2.7,8.4c0.9-0.5,1.8-0.8,2.8-0.9s2,0,3,0.4c2.1,0.6,3.7,2.1,4.6,4c0.9,2,0.9,4.4,0,7.3
	c-0.5,1.8-1.4,3.4-2.6,4.8c-1,1.2-2.2,2-3.7,2.5c-1.4,0.4-2.8,0.3-4.1-0.1c-1.1-0.3-2.2-1-3-1.8c-0.8-0.9-1.3-1.9-1.7-3l-0.8,2.6
	l-6.3-2L304.6,87.8z M306.6,105.4c-0.5,1.1-0.5,2.4-0.2,3.6c0.3,0.8,1,1.5,1.9,1.7c0.8,0.3,1.7,0.1,2.4-0.4c1-0.8,1.6-1.9,1.9-3.1
	c0.4-1.1,0.5-2.2,0.2-3.3c-0.3-0.8-0.9-1.4-1.6-1.6c-0.9-0.3-1.8-0.2-2.6,0.3C307.5,103.3,306.8,104.3,306.6,105.4z"/>
<path class="st16" d="M327.6,95l6.8,2.1l-7.7,24.4l-6.8-2.1L327.6,95z"/>
<path class="st16" d="M333,113.8c0.7-2.5,2.5-4.6,4.8-5.8c2.6-1.2,5.5-1.3,8.2-0.3c3.5,1.1,5.9,3,7.1,5.6c0.9,2.2,1,4.6,0.2,6.8
	c-0.7,2.5-2.4,4.7-4.8,5.8c-2.4,1.2-5.1,1.2-8.3,0.2c-2.5-0.7-4.7-2.2-6.2-4.3C332.4,119.5,332.1,116.5,333,113.8z M339.8,115.9
	c-0.5,1.2-0.5,2.5-0.1,3.8c0.7,1.7,2.6,2.5,4.3,1.8c0.2-0.1,0.4-0.2,0.5-0.3c1-0.8,1.8-2,2.1-3.3c0.5-1.2,0.5-2.5,0.1-3.7
	c-0.3-0.9-1.1-1.6-2-1.9s-2-0.2-2.8,0.4C340.8,113.5,340,114.7,339.8,115.9L339.8,115.9z"/>
<path class="st16" d="M369.1,127.2l6.2,2.8c-0.7,1.2-1.7,2.2-2.8,2.9c-1.2,0.7-2.5,1.2-3.8,1.3c-1.7,0.1-3.4-0.1-5.1-0.7
	c-1.6-0.5-3.1-1.1-4.5-2c-1.1-0.7-2-1.6-2.7-2.7c-0.6-1-1.1-2.2-1.2-3.4c-0.1-1.5,0-3,0.5-4.4c0.4-1.6,1.2-3,2.4-4.2
	c0.8-0.8,1.6-1.4,2.6-1.8c0.9-0.4,1.9-0.7,2.9-0.8c1.8-0.1,3.6,0.2,5.3,0.8c2.9,0.9,4.9,2.1,6.1,3.6c1.2,1.6,1.8,3.5,1.8,5.5
	l-6.6-1.2c0.1-0.7-0.1-1.4-0.6-2s-1.2-1-1.9-1.2c-1-0.4-2.2-0.2-3.1,0.3c-1.1,0.8-1.9,2-2.2,3.3c-0.5,1.2-0.5,2.5,0,3.6
	c0.4,1,1.3,1.7,2.3,2c0.8,0.3,1.7,0.3,2.5,0C367.9,128.6,368.6,128,369.1,127.2z"/>
<path class="st16" d="M383.5,112.6l6.9,2.2l-4,12.6l6.9-4.3l8.3,2.6l-8.3,4.2l3.1,13.6l-7.6-2.4l-1.4-8.2l-3.3,1.7l-1.5,4.6
	l-6.9-2.1L383.5,112.6z"/>
<path class="st16" d="M419.3,142.8l-13.6-4.3c-0.2,0.9-0.2,1.8,0.1,2.7c0.4,1,1.2,1.7,2.2,2c0.7,0.2,1.4,0.2,2,0.1
	c0.6-0.1,1.1-0.4,1.5-0.7l6.5,2.7c-1.3,1.3-3,2.3-4.9,2.7c-2.2,0.3-4.5,0-6.6-0.8c-1.9-0.5-3.7-1.4-5.2-2.7c-1.2-1.1-2-2.6-2.4-4.2
	c-0.4-1.8-0.3-3.7,0.3-5.5c0.7-2.5,2.4-4.7,4.8-5.9c2.6-1.2,5.5-1.3,8.1-0.2c2.1,0.5,4,1.6,5.6,3c1.2,1.2,2,2.7,2.3,4.4
	c0.3,2,0.1,4.1-0.6,6L419.3,142.8z M413.4,137.4c0.3-1,0.2-2.1-0.2-3.1c-1-1.7-3.1-2.2-4.8-1.2c-0.1,0-0.2,0.1-0.2,0.2
	c-0.7,0.6-1.2,1.3-1.5,2.1L413.4,137.4z"/>
<path class="st16" d="M446.4,132.4l-7.7,24.4l-6.3-2l0.8-2.6c-0.9,0.7-2,1.2-3.1,1.5c-1.2,0.2-2.4,0.1-3.5-0.2
	c-2.2-0.6-4-2.3-4.6-4.5c-0.7-2.4-0.6-4.9,0.2-7.3c0.9-2.9,2.3-4.9,4.2-6.1c1.8-1.1,4.1-1.3,6.1-0.6c1,0.3,1.9,0.8,2.7,1.4
	c0.8,0.6,1.4,1.4,1.8,2.3l2.7-8.4L446.4,132.4z M434.8,145.7c0.4-1.1,0.5-2.3,0.1-3.4c-0.3-0.8-1-1.5-1.9-1.7
	c-0.8-0.3-1.6-0.1-2.3,0.4c-0.9,0.8-1.6,1.8-1.8,3c-0.4,1.1-0.5,2.3-0.2,3.4c0.3,0.8,0.9,1.4,1.7,1.6c0.8,0.3,1.7,0.2,2.5-0.3
	C433.8,148,434.5,146.9,434.8,145.7L434.8,145.7z"/>
<path class="st16" d="M277.9,129.9l17.5-61.4L462.4,116l-17.5,61.4L277.9,129.9z M297.4,72l-15.9,55.9l161.5,46l15.9-55.8L297.4,72z
	"/>
</svg>
