<?xml version="1.0" encoding="utf-8"?>
<svg version="1.1" xmlns="http://www.w3.org/2000/svg" xmlns:xlink="http://www.w3.org/1999/xlink" x="0px" y="0px"
	 viewBox="0 0 786.8 676.4" style="max-width:300px;enable-background:new 0 0 786.8 676.4;" xml:space="preserve">
<style type="text/css">
	.st0{opacity:0.8;}
	.st1{fill:url(#SVGID_1_);}
	.st2{fill:#FFFFFF;}
	.st3{fill:#64FFDA;}
	.st4{opacity:0.7;}
	.st5{opacity:0.6;}
	.st6{opacity:0.5;}
	.st7{fill:#C6C6C6;}
	.st8{opacity:0.4;}
	.st9{opacity:0.3;}
	.st10{opacity:0.5;fill:#C6C6C6;enable-background:new    ;}
	.st11{opacity:0.9;}
	.st12{fill:none;stroke:#D40400;stroke-width:2;stroke-miterlimit:10;stroke-dasharray:12;}
	.st13{fill:#C9C9C9;}
	.st14{fill:none;stroke:#C1C1C1;stroke-width:2;stroke-miterlimit:10;stroke-dasharray:12;}
	.st15{fill:url(#SVGID_2_);}
	.st16{fill:#3F3D56;}
	.st17{fill:#3751FF;}
	.st18{fill:#F2F2F2;}
	.st19{enable-background:new    ;}
</style>
<g class="st0">
	
		<linearGradient id="SVGID_1_" gradientUnits="userSpaceOnUse" x1="660.5" y1="530.72" x2="660.5" y2="72" gradientTransform="matrix(1 0 0 1 -79.24 -72)">
		<stop  offset="0" style="stop-color:#808080;stop-opacity:0.25"/>
		<stop  offset="0.54" style="stop-color:#808080;stop-opacity:0.12"/>
		<stop  offset="1" style="stop-color:#808080;stop-opacity:0.1"/>
	</linearGradient>
	<rect x="375.8" class="st1" width="411" height="458.7"/>
</g>
<rect x="382.5" y="306.3" class="st2" width="397.4" height="142.5"/>
<rect x="415.2" y="340.1" class="st3" width="15.4" height="73"/>
<g class="st4">
	<rect x="445.6" y="340.1" class="st3" width="15.4" height="73"/>
</g>
<g class="st5">
	<rect x="476" y="340.1" class="st3" width="15.4" height="73"/>
</g>
<g class="st6">
	<path class="st7" d="M514.1,340.1L514.1,340.1c4.3,0,7.7,3.4,7.7,7.7v57.6c0,4.3-3.4,7.7-7.7,7.7l0,0c-4.3,0-7.7-3.4-7.7-7.7v-57.6
		C506.4,343.5,509.8,340.1,514.1,340.1z"/>
</g>
<g class="st6">
	<path class="st7" d="M544.5,340.1L544.5,340.1c4.3,0,7.7,3.4,7.7,7.7v57.6c0,4.3-3.4,7.7-7.7,7.7l0,0c-4.3,0-7.7-3.4-7.7-7.7v-57.6
		C536.8,343.5,540.2,340.1,544.5,340.1z"/>
</g>
<g class="st8">
	<path class="st7" d="M574.9,340.1L574.9,340.1c4.3,0,7.7,3.4,7.7,7.7v57.6c0,4.3-3.4,7.7-7.7,7.7l0,0c-4.3,0-7.7-3.4-7.7-7.7v-57.6
		C567.2,343.5,570.6,340.1,574.9,340.1z"/>
</g>
<g class="st9">
	<path class="st7" d="M605.3,340.1L605.3,340.1c4.3,0,7.7,3.4,7.7,7.7v57.6c0,4.3-3.4,7.7-7.7,7.7l0,0c-4.3,0-7.7-3.4-7.7-7.7v-57.6
		C597.6,343.5,601,340.1,605.3,340.1z"/>
</g>
<rect x="382.5" y="158.3" class="st2" width="397.4" height="142.5"/>
<path class="st10" d="M422.9,192.1L422.9,192.1c4.3,0,7.7,3.4,7.7,7.7v57.6c0,4.3-3.4,7.7-7.7,7.7h0c-4.3,0-7.7-3.4-7.7-7.7v-57.6
	C415.2,195.5,418.6,192.1,422.9,192.1z"/>
<g class="st6">
	<path class="st7" d="M453.3,192.1L453.3,192.1c4.3,0,7.7,3.4,7.7,7.7v57.6c0,4.3-3.4,7.7-7.7,7.7h0c-4.3,0-7.7-3.4-7.7-7.7v-57.6
		C445.6,195.5,449,192.1,453.3,192.1z"/>
</g>
<g class="st8">
	<path class="st7" d="M483.7,192.1L483.7,192.1c4.3,0,7.7,3.4,7.7,7.7v57.6c0,4.3-3.4,7.7-7.7,7.7h0c-4.3,0-7.7-3.4-7.7-7.7v-57.6
		C476,195.5,479.4,192.1,483.7,192.1z"/>
</g>
<g class="st8">
	<path class="st7" d="M514.1,192.1L514.1,192.1c4.3,0,7.7,3.4,7.7,7.7v57.6c0,4.3-3.4,7.7-7.7,7.7l0,0c-4.3,0-7.7-3.4-7.7-7.7v-57.6
		C506.4,195.5,509.8,192.1,514.1,192.1z"/>
</g>
<g class="st6">
	<path class="st7" d="M544.5,192.1L544.5,192.1c4.3,0,7.7,3.4,7.7,7.7v57.6c0,4.3-3.4,7.7-7.7,7.7l0,0c-4.3,0-7.7-3.4-7.7-7.7v-57.6
		C536.8,195.5,540.2,192.1,544.5,192.1z"/>
</g>
<g class="st8">
	<path class="st7" d="M574.9,192.1L574.9,192.1c4.3,0,7.7,3.4,7.7,7.7v57.6c0,4.3-3.4,7.7-7.7,7.7l0,0c-4.3,0-7.7-3.4-7.7-7.7v-57.6
		C567.2,195.5,570.6,192.1,574.9,192.1z"/>
</g>
<g class="st9">
	<path class="st7" d="M605.3,192.1L605.3,192.1c4.3,0,7.7,3.4,7.7,7.7v57.6c0,4.3-3.4,7.7-7.7,7.7l0,0c-4.3,0-7.7-3.4-7.7-7.7v-57.6
		C597.6,195.5,601,192.1,605.3,192.1z"/>
</g>
<rect x="382.5" y="10.2" class="st2" width="397.4" height="142.5"/>
<rect y="341.4" class="st2" width="500" height="334"/>
<path class="st7" d="M422.9,44L422.9,44c4.3,0,7.7,3.4,7.7,7.7v57.6c0,4.3-3.4,7.7-7.7,7.7h0c-4.3,0-7.7-3.4-7.7-7.7V51.8
	C415.2,47.5,418.6,44,422.9,44z"/>
<g class="st11">
	<path class="st7" d="M453.3,44L453.3,44c4.3,0,7.7,3.4,7.7,7.7v57.6c0,4.3-3.4,7.7-7.7,7.7h0c-4.3,0-7.7-3.4-7.7-7.7V51.8
		C445.6,47.5,449,44,453.3,44z"/>
</g>
<g class="st0">
	<path class="st7" d="M483.7,44L483.7,44c4.3,0,7.7,3.4,7.7,7.7v57.6c0,4.3-3.4,7.7-7.7,7.7h0c-4.3,0-7.7-3.4-7.7-7.7V51.8
		C476,47.5,479.4,44,483.7,44z"/>
</g>
<path class="st7" d="M514.1,44L514.1,44c4.3,0,7.7,3.4,7.7,7.7v57.6c0,4.3-3.4,7.7-7.7,7.7l0,0c-4.3,0-7.7-3.4-7.7-7.7V51.8
	C506.4,47.5,509.8,44,514.1,44z"/>
<path class="st7" d="M544.5,44L544.5,44c4.3,0,7.7,3.4,7.7,7.7v57.6c0,4.3-3.4,7.7-7.7,7.7l0,0c-4.3,0-7.7-3.4-7.7-7.7V51.8
	C536.8,47.5,540.2,44,544.5,44z"/>
<path class="st7" d="M574.9,44L574.9,44c4.3,0,7.7,3.4,7.7,7.7v57.6c0,4.3-3.4,7.7-7.7,7.7l0,0c-4.3,0-7.7-3.4-7.7-7.7V51.8
	C567.2,47.5,570.6,44,574.9,44z"/>
<path class="st7" d="M605.3,44L605.3,44c4.3,0,7.7,3.4,7.7,7.7v57.6c0,4.3-3.4,7.7-7.7,7.7l0,0c-4.3,0-7.7-3.4-7.7-7.7V51.8
	C597.6,47.5,601,44,605.3,44z"/>
<polyline class="st12" points="159.8,306.4 159.8,99.4 330.8,99.4 "/>
<path class="st13" d="M180.6,194.5h-14.8l5.5-16.6c0.5-1.9-1-3.9-3-3.9h-18.4c-1.5,0-2.8,1.1-3,2.7l-4.1,30.7
	c-0.2,1.8,1.2,3.5,3,3.5h15.2l-5.9,24.9c-0.5,1.9,1,3.8,3,3.8c1.1,0,2.1-0.6,2.7-1.5l22.5-38.9C184.4,197,182.9,194.5,180.6,194.5z"
	/>
<polyline class="st14" points="636.8,477.4 636.8,639.4 546.8,639.4 "/>
<polyline class="st14" points="690.8,513.4 690.8,675.4 600.8,675.4 "/>
<linearGradient id="SVGID_2_" gradientUnits="userSpaceOnUse" x1="727.0001" y1="621.12" x2="727.0001" y2="571.92" gradientTransform="matrix(1 0 0 -1 0 678)">
	<stop  offset="0" style="stop-color:#808080;stop-opacity:0.25"/>
	<stop  offset="0.54" style="stop-color:#808080;stop-opacity:0.12"/>
	<stop  offset="1" style="stop-color:#808080;stop-opacity:0.1"/>
</linearGradient>
<path class="st15" d="M717,56.9h20c8.1,0,14.6,6.5,14.6,14.6v20c0,8.1-6.5,14.6-14.6,14.6h-20c-8.1,0-14.6-6.5-14.6-14.6v-20
	C702.4,63.4,708.9,56.9,717,56.9z"/>
<path class="st7" d="M720.2,60.1h13.5c8.1,0,14.6,6.5,14.6,14.6v13.5c0,8.1-6.5,14.6-14.6,14.6h-13.5c-8.1,0-14.6-6.5-14.6-14.6
	V74.7C705.7,66.7,712.2,60.1,720.2,60.1z"/>
<path class="st7" d="M717,203.9h20c8.1,0,14.6,6.5,14.6,14.6v20c0,8.1-6.5,14.6-14.6,14.6h-20c-8.1,0-14.6-6.5-14.6-14.6v-20
	C702.4,210.5,708.9,203.9,717,203.9z"/>
<path class="st7" d="M720.2,207.2h13.5c8.1,0,14.6,6.5,14.6,14.6v13.5c0,8.1-6.5,14.6-14.6,14.6h-13.5c-8.1,0-14.6-6.5-14.6-14.6
	v-13.5C705.7,213.7,712.2,207.2,720.2,207.2z"/>
<path class="st7" d="M717,352h20c8.1,0,14.6,6.5,14.6,14.6v20c0,8.1-6.5,14.6-14.6,14.6h-20c-8.1,0-14.6-6.5-14.6-14.6v-20
	C702.4,358.5,708.9,352,717,352z"/>
<path class="st7" d="M720.2,355.2h13.5c8.1,0,14.6,6.5,14.6,14.6v13.5c0,8.1-6.5,14.6-14.6,14.6h-13.5c-8.1,0-14.6-6.5-14.6-14.6
	v-13.5C705.7,361.7,712.2,355.2,720.2,355.2z"/>
<path class="st16" d="M469.5,457.6H199.9v-57.9h269.6V457.6z M201.1,456.4h267.2V401H201.1V456.4z"/>
<rect x="181.5" y="411.3" class="st17" width="268.4" height="56.7"/>
<ellipse class="st17" cx="11.9" cy="353" rx="4.2" ry="4.3"/>
<ellipse class="st17" cx="26.1" cy="353" rx="4.2" ry="4.3"/>
<ellipse class="st17" cx="40.4" cy="353" rx="4.2" ry="4.3"/>
<path class="st16" d="M500,675.4H0v-334h500V675.4z M1.2,674.2h497.6V342.6H1.2V674.2z"/>
<rect x="0.6" y="359.9" class="st16" width="498.8" height="1.2"/>
<path class="st16" d="M13.1,356c-2.7,0.1-4.9-2.1-5-4.7c-0.1-2.7,2.1-4.9,4.7-5c2.7-0.1,4.9,2.1,5,4.7c0,0,0,0.1,0,0.1
	C17.8,353.8,15.7,356,13.1,356z M13.1,347.5c-2,0-3.7,1.5-3.7,3.6c0,2,1.5,3.7,3.6,3.7s3.7-1.5,3.7-3.6c0,0,0-0.1,0-0.1
	C16.7,349.1,15.1,347.5,13.1,347.5z"/>
<path class="st16" d="M27.3,356c-2.7,0.1-4.9-2.1-5-4.7c-0.1-2.7,2.1-4.9,4.7-5c2.7-0.1,4.9,2.1,5,4.7c0,0,0,0.1,0,0.1
	C32.1,353.8,30,356,27.3,356z M27.3,347.5c-2,0-3.7,1.5-3.7,3.6c0,2,1.5,3.7,3.6,3.7s3.7-1.5,3.7-3.6c0,0,0-0.1,0-0.1
	C30.9,349.1,29.3,347.5,27.3,347.5z"/>
<path class="st16" d="M41.6,356c-2.7,0.1-4.9-2.1-5-4.7c-0.1-2.7,2.1-4.9,4.7-5c2.7-0.1,4.9,2.1,5,4.7c0,0,0,0.1,0,0.1l0,0
	C46.3,353.8,44.2,356,41.6,356z M41.6,347.5c-2-0.1-3.7,1.5-3.8,3.6c-0.1,2,1.5,3.7,3.6,3.8s3.7-1.5,3.8-3.6c0,0,0-0.1,0-0.1l0,0
	C45.2,349.1,43.6,347.5,41.6,347.5z"/>
<rect x="156.6" y="360.5" class="st16" width="1.2" height="314.8"/>
<rect x="213.3" y="515.2" class="st18" width="87.3" height="12.2"/>
<rect x="350.5" y="515.2" class="st18" width="87.3" height="12.2"/>
<path class="st16" d="M305.9,521.9h-88.5v-13.4h88.5V521.9z M218.7,520.7h86.1v-11h-86.1V520.7z"/>
<rect x="213.3" y="609.7" class="st18" width="87.3" height="12.2"/>
<path class="st16" d="M305.9,616.4h-88.5V603h88.5V616.4z M218.7,615.2h86.1v-11h-86.1V615.2z"/>
<rect x="213.6" y="561.2" class="st18" width="224.4" height="12.2"/>
<path class="st16" d="M443.4,569.2H217.8v-13.4h225.6V569.2z M218.9,568h223.3v-11H218.9V568z"/>
<path class="st16" d="M443.1,521.9h-88.5v-13.4h88.5L443.1,521.9z M355.8,520.7h86.1v-11h-86.1L355.8,520.7z"/>
<path class="st16" d="M82.7,558.1c-27,0-48.8-22.5-48.8-50.1c0-27.7,21.9-50.1,48.8-50.1s48.8,22.4,48.8,50.1
	C131.5,535.6,109.6,558,82.7,558.1z M82.7,459.3c-26.2,0-47.4,21.8-47.4,48.6c0,26.9,21.2,48.6,47.4,48.6s47.4-21.8,47.4-48.6
	C130,481.1,108.8,459.4,82.7,459.3L82.7,459.3z"/>
<g class="st19">
	<path d="M77.4,509.6l-1.5-23.1c-0.3-4.5-0.4-7.7-0.4-9.7c0-2.7,0.7-4.8,2.1-6.2s3.2-2.2,5.5-2.2c2.8,0,4.6,1,5.5,2.9
		c0.9,1.9,1.4,4.7,1.4,8.3c0,2.1-0.1,4.3-0.3,6.5l-2.1,23.8c-0.2,2.8-0.7,5-1.4,6.5c-0.7,1.5-2,2.3-3.7,2.3c-1.7,0-2.9-0.7-3.6-2.2
		C78.1,514.8,77.6,512.6,77.4,509.6z M82.7,541.3c-2,0-3.7-0.6-5.1-1.9s-2.2-3-2.2-5.3c0-2,0.7-3.7,2.1-5.1s3.1-2.1,5.1-2.1
		s3.8,0.7,5.2,2.1c1.4,1.4,2.1,3.1,2.1,5.1c0,2.3-0.7,4-2.2,5.3S84.6,541.3,82.7,541.3z"/>
</g>
</svg>
