<svg id="Layer_1" data-name="Layer 1" xmlns="http://www.w3.org/2000/svg" viewBox="0 0 1245 1007.22"><defs><style>.cls-1{fill:#545454;}.cls-2{fill:#ec615b;}.cls-3{fill:#757575;}.cls-4{fill:#898989;}.cls-5{fill:#2d2d2d;}.cls-6{fill:#e8e8e8;}.cls-7{fill:#161616;}.cls-8{fill:#fff;}.cls-10,.cls-12,.cls-13,.cls-14,.cls-15,.cls-16,.cls-18,.cls-21,.cls-22,.cls-23,.cls-9{fill:#4c4c4c;}.cls-9{opacity:0.09;}.cls-10,.cls-11,.cls-12,.cls-14,.cls-15,.cls-16,.cls-18,.cls-21,.cls-22,.cls-23,.cls-9{isolation:isolate;}.cls-10{opacity:0.11;}.cls-11{fill:#8c8c8c;opacity:0.16;}.cls-12{opacity:0.12;}.cls-14{opacity:0.08;}.cls-15{opacity:0.1;}.cls-16{opacity:0.13;}.cls-17{fill:#7f7f7f;}.cls-18{opacity:0.15;}.cls-19{stroke:#000;stroke-miterlimit:10;stroke-width:2px;}.cls-20{fill:#141414;}.cls-21{opacity:0.24;}.cls-22{opacity:0.17;}.cls-23{opacity:0.14;}</style></defs><g id="background"><g id="details"><circle class="cls-1" cx="135.68" cy="174.49" r="12.8"/><polygon class="cls-2" points="162.88 197.09 162.88 197.09 162.88 197.09 162.88 197.09"/><circle class="cls-1" cx="341.78" cy="675.29" r="9.4"/><circle class="cls-1" cx="984.38" cy="117.89" r="13.4"/><circle class="cls-1" cx="496.48" cy="110.19" r="5.6"/><circle class="cls-3" cx="149.98" cy="127.09" r="9.1"/><circle class="cls-3" cx="365.08" cy="659.69" r="5"/><circle class="cls-3" cx="499.38" cy="81.29" r="5.9"/><circle class="cls-3" cx="952.68" cy="87.59" r="3.4"/><path class="cls-4" d="M1166.6,606.1c2.6-5.2,8.7,1.5,10.5,3.5s4,4.2,6.8,4.7c5.3,1,7.8-3.8,12-5.6,5.9-2.7,7.3,7.2,11.6,9.3,2,1,3.6.5,5.6-.1,2.3-.6,4-2,6.5-1.3a7.49,7.49,0,0,1,5.5,6.4c.2,1.9,3.2,1.9,3,0-.6-6.1-6.4-11-12.6-9.4-2.6.7-5.2,2.8-7.6.9-1.4-1.1-2.2-3.3-3.2-4.8-1.4-2.1-3-4.1-5.6-4.5-3-.5-5.3,1.2-7.6,2.9s-3.9,3.4-7,2.9-4.6-2.9-6.7-5.1c-3.3-3.6-10.8-7.2-13.8-1.3-.8,1.7,1.8,3.2,2.6,1.5Z" transform="translate(-232.02 -118.31)"/><path class="cls-4" d="M1189.7,627.3a16.22,16.22,0,0,1,12.9,3.6c2.5,2.1,3.3,4.7,5,7.3,3.5,5.3,7.9.7,12.5.2,7.1-.8,10.8,7.5,17.6,8.6,4,.6,7.6-1.1,9.1-4.9.7-1.8-2.2-2.6-2.9-.8-3.4,8.5-14.2-3.2-18.3-5.1a11.5,11.5,0,0,0-5.7-1.2c-2.6.2-7.3,4-9.7,1.8-1.4-1.3-2-4.2-3.4-5.8a16.4,16.4,0,0,0-4.7-4,19.36,19.36,0,0,0-13.3-2.5c-1.8.2-1,3.1.9,2.8Z" transform="translate(-232.02 -118.31)"/><path class="cls-3" d="M290.6,459.9c-1.1-6.1-1.3-12.1,5.7-14.5,2.8-1,5.8-1.5,8.1-3.5,4.2-3.6,3.9-9.3,3.6-14.4-.2-3.7-1.1-9.4,4.5-7.9,1.8.5,3.7,1.2,5.5.3a4.78,4.78,0,0,0,2.4-3.3c.9-3,0-5.4,2.6-7.9a8.5,8.5,0,0,1,7.6-2.3c1.9.3,1.9-2.7,0-3a11.27,11.27,0,0,0-8.7,2.3c-3.2,2.5-3.3,5.1-4.3,8.7-1.5,5.1-5.2.9-8.9,1.6-2.3.4-3.3,2-3.8,4.1-.9,4,.4,8.3.3,12.3-.3,7.5-5.3,8.2-11,10.5-7.8,3.1-7.7,10.5-6.4,17.7.2,2,3.1,1.2,2.8-.7Z" transform="translate(-232.02 -118.31)"/><path class="cls-3" d="M324,440.1c-6-7.7.9-15.3,9.2-14.6,2.5.2,4.6,0,5.9-2.3,1.8-3,1.2-7.1,2.6-10.3a19.7,19.7,0,0,1,12.4-11.2c1.8-.6,1-3.5-.8-2.9a23.15,23.15,0,0,0-12.3,9,20.87,20.87,0,0,0-3.4,8.3c-.2,1-.2,2.9-.5,3.8-.8,2.6-3.3,2.3-5.6,2.4-10.6.6-16.5,11.1-9.6,20,1.1,1.5,3.2-.6,2.1-2.2Z" transform="translate(-232.02 -118.31)"/><path class="cls-5" d="M607.1,190.5c-1.7-5.6,3.8-11.4,9.4-8.4,6.1,3.2,4,12.1-2.7,12.8-1.9.2-1.9,3.2,0,3,9-.9,13-12.6,4.9-17.9-7.8-5.1-17.2,2.8-14.5,11.4.6,1.7,3.5.9,2.9-.9Z" transform="translate(-232.02 -118.31)"/><path class="cls-5" d="M938.6,758.4c-4.1,4.9,1.5,9.1,5.8,10.8,3.3,1.3,5.5,3,6,6.7a40.19,40.19,0,0,0,.6,5,8,8,0,0,0,1.8,3.4c1.4,1.5,6.8,2.9,6,5.7a1.5,1.5,0,0,0,2.9.8c.7-2.5-.1-4.3-2.2-6-1.4-1.1-3.4-1.4-4.6-2.7-1.9-2-1.3-5.2-1.7-7.6a9.5,9.5,0,0,0-2.9-5.9c-1.9-1.6-12.9-4.2-9.6-8.2,1.3-1.4-.8-3.5-2.1-2Z" transform="translate(-232.02 -118.31)"/><path class="cls-5" d="M951.8,748.4a4.89,4.89,0,0,0,1.7,5.8c1.7,1.4,4.4,1.5,5.9,3.1s1.4,4,1.8,6.2c.5,2.8,1.5,4.9,4.1,6.3,1.9,1,4,1.3,5.8,2.4a13.1,13.1,0,0,1,5.7,9.5c.2,1.9,3.2,1.9,3,0-.8-7.1-4.9-11.5-11.4-14-5.1-1.9-3.6-6.2-5.3-10.2a6.25,6.25,0,0,0-2.3-3c-1.7-1.2-7.4-2.2-6.1-5.4.7-1.7-2.2-2.5-2.9-.7Z" transform="translate(-232.02 -118.31)"/><path class="cls-5" d="M986.7,146.6c-3.1-4.1,3.1-7,6.2-7.4,2.3-.3,4.7-.1,7-.5a14.39,14.39,0,0,0,8.3-4.6c2-2.3,2.3-4.6,3.2-7.4.5-1.7,1.8-4.5,3.7-5.3.7-.3,2.4.2,3.3.2a16.19,16.19,0,0,0,4.9-.3c1.9-.4,1.1-3.3-.8-2.9-4,.8-9.5-1.7-12.5,2-1.1,1.4-1.2,3.1-1.4,4.8-.6,4.6-2.8,8.6-7.5,10-5.2,1.6-11.3-.5-15.6,3.8-2.5,2.5-3.4,6-1.3,8.9,1.1,1.7,3.7.2,2.5-1.3Z" transform="translate(-232.02 -118.31)"/><path class="cls-5" d="M1017,145.4a14.32,14.32,0,0,1,7-12.2c3.3-2,7-1.8,10.8-1.8,5.1.1,10,0,13.3-4.4,1.1-1.6-1.5-3.1-2.6-1.5-4.4,5.9-15.5,1.5-21.8,4.5a17.25,17.25,0,0,0-9.6,15.4c-.1,1.9,2.9,1.9,2.9,0Z" transform="translate(-232.02 -118.31)"/><path class="cls-5" d="M608,483.7c.9-.2,1.8-.5,2.8-.7.4.9.8,1.9,1.2,2.8a13.31,13.31,0,0,1-.5,4,20.87,20.87,0,0,0-.4,4.3c.2,2.2,1.1,4.6,3.1,5.7,3,1.6,6.4-.7,9.5.9,4.1,2,6.3,6.9,8.1,10.9.8,1.8,3.4.2,2.6-1.5-1.9-4.3-4.4-9.1-8.6-11.6-2.1-1.2-3.7-1.2-6-1.4s-3.2,2.6-5.6-2.3c-.7-1.6.2-4,.4-5.6.5-3.5.7-7.7-3.2-9.2-2.6-1-5.8-.1-6.3,2.9-.3,1.9,2.6,2.7,2.9.8Z" transform="translate(-232.02 -118.31)"/><path class="cls-5" d="M628.5,480c-2.9,2-1.7,5.2.3,7.6,2.2,2.6,4.7,4.7,6.7,7.6a41.62,41.62,0,0,1,5.1,10.9c.6,1.8,3.5,1.1,2.9-.8a46,46,0,0,0-5.4-11.7c-1.1-1.6-9.3-10.2-8-11.1,1.5-1,0-3.6-1.6-2.5Z" transform="translate(-232.02 -118.31)"/></g><g id="papers"><path class="cls-6" d="M484.1,251.4c3.1,37.1,6,74.8-1.6,111.6-.4,1.9,2.5,2.7,2.9.8,7.7-37.1,4.8-75,1.7-112.4-.2-1.9-3.2-1.9-3,0Z" transform="translate(-232.02 -118.31)"/><path class="cls-6" d="M485.8,252.4c18.4.8,36.9.8,55.3-.1,15.9-.8,33.2-.8,48-7.2,1.8-.8.2-3.4-1.5-2.6-15.4,6.7-33.9,6.3-50.4,7-17.1.7-34.3.7-51.4-.1-1.9-.1-1.9,2.9,0,3Z" transform="translate(-232.02 -118.31)"/><path class="cls-6" d="M586.6,244.7A285.39,285.39,0,0,1,593.2,357c-.3,1.9,2.6,2.7,2.9.8a291.56,291.56,0,0,0-6.6-113.9c-.4-1.9-3.3-1.1-2.9.8Z" transform="translate(-232.02 -118.31)"/><path class="cls-6" d="M483.3,364.5c19.8,4.4,40.2,4.8,60.4,3.4,10.2-.7,20.5-1.9,30.7-3.1,7.3-.9,14.9-1.3,20.9-6,1.5-1.2-.6-3.3-2.1-2.1-6.8,5.3-17.4,5-25.5,5.9-9.2,1.1-18.5,2-27.8,2.6-18.7,1.1-37.4.6-55.7-3.5-2-.5-2.8,2.4-.9,2.8Z" transform="translate(-232.02 -118.31)"/><path class="cls-6" d="M491.3,355.7c2.4.1,4.7-.7,7.1-.9a26.38,26.38,0,0,1,8.4.8,1.5,1.5,0,0,0,.8-2.9,27,27,0,0,0-8-1c-2.8.1-5.5,1.1-8.3,1-1.9-.1-1.9,2.9,0,3Z" transform="translate(-232.02 -118.31)"/><path class="cls-6" d="M493.1,348.7c4.9.1,9.9.1,14.8.2a1.5,1.5,0,0,0,0-3c-4.9-.1-9.9-.1-14.8-.2-1.9-.1-1.9,2.9,0,3Z" transform="translate(-232.02 -118.31)"/><path class="cls-6" d="M494.1,341.2l13.1.6c1.9.1,1.9-2.9,0-3l-13.1-.6c-1.9-.1-1.9,2.9,0,3Z" transform="translate(-232.02 -118.31)"/><path class="cls-6" d="M495.5,322.2a104.09,104.09,0,0,1,14.8-.8,1.5,1.5,0,0,0,0-3,104.89,104.89,0,0,0-14.8.8c-1.9.3-1.9,3.3,0,3Z" transform="translate(-232.02 -118.31)"/><path class="cls-6" d="M496.5,314.3l14.1.3a1.5,1.5,0,0,0,0-3l-14.1-.3a1.5,1.5,0,0,0,0,3Z" transform="translate(-232.02 -118.31)"/><path class="cls-6" d="M495.5,307.5a76.79,76.79,0,0,0,12.7-.2c1.9-.2,1.9-3.2,0-3a67.38,67.38,0,0,1-12.7.2c-1.9-.2-1.9,2.8,0,3Z" transform="translate(-232.02 -118.31)"/><path class="cls-6" d="M496.2,288.3a75.53,75.53,0,0,1,15.8-1.4,1.5,1.5,0,0,0,0-3,77.13,77.13,0,0,0-16.6,1.5c-1.8.4-1,3.3.8,2.9Z" transform="translate(-232.02 -118.31)"/><path class="cls-6" d="M495.9,281c5.6.1,11.2.1,16.9-.2,1.9-.1,1.9-3.1,0-3-5.6.3-11.2.4-16.9.2-2-.1-2,2.9,0,3Z" transform="translate(-232.02 -118.31)"/><path class="cls-6" d="M493.8,273.2a144.61,144.61,0,0,0,18.6-.7c1.9-.2,1.9-3.2,0-3a144.61,144.61,0,0,1-18.6.7,1.5,1.5,0,0,0,0,3Z" transform="translate(-232.02 -118.31)"/><path class="cls-6" d="M527.2,270.4a292.5,292.5,0,0,1,46.7-3.2,1.5,1.5,0,0,0,0-3,290.3,290.3,0,0,0-47.5,3.3c-1.9.3-1.1,3.2.8,2.9Z" transform="translate(-232.02 -118.31)"/><path class="cls-6" d="M530.3,276c15.4-1.3,30.9-2.1,46.4-2.6,1.9-.1,1.9-3.1,0-3-15.5.4-31,1.3-46.4,2.6-2,.2-2,3.2,0,3Z" transform="translate(-232.02 -118.31)"/><path class="cls-6" d="M529.1,282.7c16-.8,32.1,1.1,48.1-.6,1.9-.2,1.9-3.2,0-3-16,1.8-32.1-.2-48.1.6-1.9.1-1.9,3.1,0,3Z" transform="translate(-232.02 -118.31)"/><path class="cls-6" d="M519.6,307.5c7,0,14-.1,21-.1a1.5,1.5,0,0,0,0-3c-7,0-14,.1-21,.1a1.5,1.5,0,0,0,0,3Z" transform="translate(-232.02 -118.31)"/><path class="cls-6" d="M520.3,315.1c7.5-.2,15.1-.4,22.6-.5,2.1,0,22.1-1.1,22.1-.9.6,1.8,3.5,1.1,2.9-.8-.6-2.1-2.4-1.8-4.3-1.8-4.6,0-9.2.2-13.8.3-9.8.2-19.7.5-29.5.7a1.5,1.5,0,0,0,0,3Z" transform="translate(-232.02 -118.31)"/><path class="cls-6" d="M520.3,322.6c6,.3,11.9.3,17.9.2,1.9-.1,1.9-3.1,0-3-6,.2-11.9.1-17.9-.2-2-.1-2,2.9,0,3Z" transform="translate(-232.02 -118.31)"/><path class="cls-6" d="M516.8,339.8q30-1.95,60.2-1.5a1.5,1.5,0,0,0,0-3c-20.1-.3-40.1.2-60.2,1.5-1.9.1-1.9,3.1,0,3Z" transform="translate(-232.02 -118.31)"/><path class="cls-6" d="M519.9,346.4l15.1-.3a1.5,1.5,0,0,0,0-3l-15.1.3a1.5,1.5,0,0,0,0,3Z" transform="translate(-232.02 -118.31)"/><path class="cls-6" d="M547.1,346.3c8.1-.8,16.3-1.5,24.4-2,1.9-.1,1.9-3.1,0-3-8.2.5-16.3,1.2-24.4,2-1.9.2-2,3.2,0,3Z" transform="translate(-232.02 -118.31)"/><path class="cls-6" d="M518.5,356c16.4-.2,32.8-.7,49.2-1.3,1.9-.1,1.9-3.1,0-3-16.4.7-32.8,1.1-49.2,1.3a1.5,1.5,0,0,0,0,3Z" transform="translate(-232.02 -118.31)"/><path class="cls-6" d="M598.8,297.3a414,414,0,0,1,78.6-6.9,17.1,17.1,0,0,1-1.4-1.1,480.23,480.23,0,0,1,21.9,152,1.5,1.5,0,0,0,3,0,482.8,482.8,0,0,0-22-152.8,1.6,1.6,0,0,0-1.4-1.1,415,415,0,0,0-79.4,7c-2,.3-1.2,3.2.7,2.9Z" transform="translate(-232.02 -118.31)"/><path class="cls-6" d="M545.4,366.7a204.62,204.62,0,0,1-11.6,82.5c-.6,1.8,2.2,2.6,2.9.8a208.8,208.8,0,0,0,11.7-83.3c-.1-1.9-3.1-2-3,0Z" transform="translate(-232.02 -118.31)"/><path class="cls-6" d="M534.3,451.4c25.2,10.7,52.8,9.6,79.5,7.1,29.1-2.8,57.7-7.5,85.7-15.8a1.51,1.51,0,0,0-.8-2.9c-27.2,8-54.9,12.8-83.2,15.5-26.6,2.6-54.5,4.2-79.7-6.5-1.7-.8-3.2,1.8-1.5,2.6Z" transform="translate(-232.02 -118.31)"/><path class="cls-5" d="M569.5,375a170,170,0,0,0-15.7,9.7c-1,.7-1,2.5.4,2.7,4.6,1,9.2,1.9,13.8,2.9,1.9.4,2.7-2.5.8-2.9-4.6-1-9.2-1.9-13.8-2.9a25.12,25.12,0,0,0,.4,2.7,157.66,157.66,0,0,1,15.7-9.7c1.6-.8.1-3.4-1.6-2.5Z" transform="translate(-232.02 -118.31)"/><path class="cls-5" d="M592.8,365.8c-6.6,10.7-13.2,21.4-19.8,32-1,1.6,1.6,3.2,2.6,1.5,6.6-10.7,13.2-21.4,19.8-32,1-1.6-1.6-3.1-2.6-1.5Z" transform="translate(-232.02 -118.31)"/><path class="cls-5" d="M597.4,388.5l17.8-2.7c1.9-.3,1.1-3.2-.8-2.9l-17.8,2.7c-1.9.3-1.1,3.2.8,2.9Z" transform="translate(-232.02 -118.31)"/><path class="cls-5" d="M627.2,372.4h-.3a1.62,1.62,0,0,0-1.7.7c-.1.1-.1.2-.2.3a1.36,1.36,0,0,0,0,1.5c2.3,3.4,7.7,4.2,11.4,5,.7.2,1.4.3,2.1.5-.1.1-.3.2-.4.3,0,.7-3.2,3.1-3.8,3.6l-6.6,6.3c-1.4,1.3.7,3.5,2.1,2.1,2.7-2.5,5.3-5.1,8-7.6,1.4-1.4,4.2-3.2,3.6-5.5-.5-1.9-2.6-2.1-4.3-2.6-2.7-.7-7.9-1.1-9.6-3.7v1.5c.1-.1.1-.2.2-.3-.6.2-1.1.5-1.7.7h.3c2,.4,2.8-2.5.9-2.8Z" transform="translate(-232.02 -118.31)"/><path class="cls-6" d="M606.7,307.4a74.92,74.92,0,0,1,15.7-1c1.9.1,1.9-2.9,0-3a75.54,75.54,0,0,0-16.5,1.2c-1.9.3-1.1,3.1.8,2.8Z" transform="translate(-232.02 -118.31)"/><path class="cls-6" d="M605.9,315q10.65-1,21.3-1.8c1.9-.1,1.9-3.1,0-3q-10.65.75-21.3,1.8c-1.9.2-1.9,3.2,0,3Z" transform="translate(-232.02 -118.31)"/><path class="cls-6" d="M609.1,326.3v.1a17.1,17.1,0,0,0,1.4-1.1h-.2c.4.2.9.5,1.3.7,0-.1-.1-.1-.1-.2a11,11,0,0,0-.2,1.8c-.7.2-.6.3.4.2h1.7c1,0,2-.1,3-.1,2-.2,4-.4,6-.8s1.1-3.2-.8-2.9a51.58,51.58,0,0,1-7.8.8c-1.6,0-3.5-.5-4.7.7a1.52,1.52,0,0,0-.2,1.8,1.8,1.8,0,0,0,1.6.9,1.5,1.5,0,0,0,1.4-1.1V327c.5-1.8-2.4-2.6-2.8-.7Z" transform="translate(-232.02 -118.31)"/><path class="cls-6" d="M607,340.9c8.4-1.2,16.8-2.8,25.3-2.5,1.9.1,1.9-2.9,0-3-8.8-.3-17.5,1.4-26.1,2.6-1.9.3-1.1,3.2.8,2.9Z" transform="translate(-232.02 -118.31)"/><path class="cls-6" d="M639.6,304.2a279.31,279.31,0,0,1,28.8-2.3c1.9-.1,1.9-3.1,0-3a274.93,274.93,0,0,0-28.8,2.3c-1.9.2-1.9,3.2,0,3Z" transform="translate(-232.02 -118.31)"/><path class="cls-6" d="M646.5,316.8c6-1,11.9-1.9,17.9-2.9,1.9-.3,1.1-3.2-.8-2.9-6,1-11.9,1.9-17.9,2.9-1.9.3-1.1,3.2.8,2.9Z" transform="translate(-232.02 -118.31)"/><path class="cls-6" d="M648.5,334.3c5.1-.5,10.3-.7,15.5-.7a1.5,1.5,0,0,0,0-3c-5.2,0-10.3.2-15.5.7-1.9.2-1.9,3.2,0,3Z" transform="translate(-232.02 -118.31)"/><path class="cls-6" d="M657.5,340c6.3-.9,12.5-1.5,18.9-1.9,1.9-.1,1.9-3.1,0-3-6.6.4-13.1,1.1-19.7,2-1.9.3-1.1,3.1.8,2.9Z" transform="translate(-232.02 -118.31)"/><path class="cls-6" d="M558.4,416.3a1.5,1.5,0,0,0,0-3,1.5,1.5,0,0,0,0,3Z" transform="translate(-232.02 -118.31)"/><path class="cls-6" d="M555.2,413.6c2.5.8,4.9.5,7.5.4a87,87,0,0,1,10.2.4c1.9.2,1.9-2.8,0-3a64.81,64.81,0,0,0-8.8-.4c-2.6,0-5.5.6-8-.3-1.9-.6-2.7,2.3-.9,2.9Z" transform="translate(-232.02 -118.31)"/><path class="cls-6" d="M558.8,422.6a70.11,70.11,0,0,1,16.5.4c1.9.2,1.9-2.8,0-3a82.78,82.78,0,0,0-16.5-.4c-1.9.2-1.9,3.2,0,3Z" transform="translate(-232.02 -118.31)"/><path class="cls-6" d="M550.1,435.3c4.7,1.8,9.6,1.5,14.6,1.5h17.4c10.2,0,21.2,1.1,31.1-1.9,1.8-.6,1.1-3.5-.8-2.9-9.6,3-20.4,1.8-30.3,1.8H566.6c-5.3,0-10.7.5-15.8-1.4-1.8-.7-2.5,2.2-.7,2.9Z" transform="translate(-232.02 -118.31)"/><path class="cls-6" d="M601.8,421.1c3.2-.2,6.4-.3,9.6-.5s6.5-.7,9.5.6c1.8.7,2.6-2.2.8-2.9-2.9-1.2-5.8-.9-8.9-.7l-11.1.6a1.45,1.45,0,1,0,.1,2.9Z" transform="translate(-232.02 -118.31)"/><path class="cls-6" d="M589.4,448.4c16.1-.6,32.1-1.5,48.2-2.8,1.9-.2,1.9-3.2,0-3-16,1.3-32.1,2.2-48.2,2.8-2,.1-2,3.1,0,3Z" transform="translate(-232.02 -118.31)"/><path class="cls-6" d="M768.5,162.7c4.5,47.4,3.5,95,2.5,142.5a1.5,1.5,0,0,0,3,0c1.1-47.5,2-95.1-2.5-142.5-.2-1.9-3.2-1.9-3,0Z" transform="translate(-232.02 -118.31)"/><path class="cls-6" d="M770.1,163.8c20.3.9,40.2-4.8,60.3-7a293.05,293.05,0,0,1,61.4-.1c1.9.2,1.9-2.8,0-3a293.05,293.05,0,0,0-61.4.1c-20.1,2.2-40,7.9-60.3,7a1.5,1.5,0,0,0,0,3Z" transform="translate(-232.02 -118.31)"/><path class="cls-6" d="M890.5,155.9c2.7,10.5,3.1,21.3,3.3,32,.3,11.5.7,23.1,1.1,34.6.8,22.7,1.8,45.5,3,68.2.1,1.9,3.1,1.9,3,0-1.2-23.4-2.3-46.8-3.1-70.2-.4-11.5-.7-23-1-34.4-.3-10.4-.8-20.9-3.4-31a1.5,1.5,0,0,0-2.9.8Z" transform="translate(-232.02 -118.31)"/><path class="cls-6" d="M772.4,307.4c21.5,6.2,44.6,3.9,66.5,1.7,21.1-2.1,42-6.1,61.3-15.4,1.7-.8.2-3.4-1.5-2.6-19.3,9.3-40.4,13.1-61.5,15.2s-43.3,4.2-63.9-1.8a1.52,1.52,0,1,0-.9,2.9Z" transform="translate(-232.02 -118.31)"/><path class="cls-6" d="M895.7,182.8a176,176,0,0,1,37-1.8,179.14,179.14,0,0,1,19.2,2.2c2.7.5,5.7.7,8.3,1.6,3.7,1.3,3.5,4,4.1,7.5a596.57,596.57,0,0,1,9.1,74.2c.1,1.9,3.1,1.9,3,0-.9-14.1-2.2-28.2-4-42.2-.8-6.5-1.8-13-2.9-19.5l-1.8-10.5c-.5-3-.7-6.8-1.9-9.5-1.7-3.9-8.6-3.8-12.2-4.4a172.84,172.84,0,0,0-19-2.3,182,182,0,0,0-39.7,1.8c-1.9.3-1.1,3.2.8,2.9Z" transform="translate(-232.02 -118.31)"/><path class="cls-6" d="M858.1,306.2a50.21,50.21,0,0,1,3.1,15.3c.1,2.6-.3,5.7,1.6,7.8s5.2,2.1,7.8,2.5c4.2.6,8.5,1.1,12.7,1.3,19.5,1.1,39-1.4,58.3-4,1.9-.2,1.9-3.3,0-3-16.5,2.2-33,4.4-49.7,4.2-3.8,0-7.6-.2-11.4-.5-2.5-.2-4.9-.5-7.4-.8-1.7-.2-5.3-.1-6.6-1.1-3.4-2.5-2.3-8.2-2.9-11.9a55.92,55.92,0,0,0-2.7-10.7c-.6-1.7-3.5-1-2.8.9Z" transform="translate(-232.02 -118.31)"/><path class="cls-6" d="M936.8,268.1c2.2,9.6,2.6,19.5,3.1,29.4.5,9.4,1,18.9,1.4,28.3.8,19.2,1.3,38.4,1.5,57.7a1.5,1.5,0,0,0,3,0c-.2-19.9-.8-39.7-1.6-59.6-.8-18.6-.3-38.3-4.5-56.5-.4-2-3.3-1.2-2.9.7Z" transform="translate(-232.02 -118.31)"/><path class="cls-6" d="M938.8,269.9a450.89,450.89,0,0,1,62.6.8c1.9.2,1.9-2.8,0-3a435.9,435.9,0,0,0-62.6-.8c-1.9.2-1.9,3.2,0,3Z" transform="translate(-232.02 -118.31)"/><path class="cls-6" d="M942.5,384.1c2.5,4.3,6.6,5.9,11.4,6.5,7.2.9,14.5,1.2,21.7,1.7,15.4,1,30.8,1.8,46.2,1.9,7.5,0,15.1-.1,22.6-.4l10.8-.6c1.9-.1,5.2.2,6.9-1.2,1.1-.9,1.2-2.2,1.4-3.6.4-3.9.3-7.9.4-11.8.3-7.9.5-15.8.8-23.7.1-1.9-2.9-1.9-3,0-.2,6.2-.4,12.5-.6,18.7-.1,3-.2,5.9-.3,8.9-.1,1.6-.1,3.3-.2,4.9-.1,2.8-.4,3.8-3.4,4.6-2.6.7-6.1.4-8.8.6-3.3.2-6.5.3-9.8.4-6.2.2-12.4.2-18.7.2-12.1-.1-24.3-.6-36.4-1.4-6.2-.4-12.4-.8-18.7-1.3s-16,.4-19.7-5.9c-1-1.7-3.6-.1-2.6,1.5Z" transform="translate(-232.02 -118.31)"/><path class="cls-6" d="M994.6,225.6c5.5,18.9,6.7,37.9,7.6,57.5,1,20,1.9,39.9,2.9,59.9.1,1.9,3.1,1.9,3,0q-1.5-30.9-3-61.9c-.9-19.2-2.3-37.7-7.7-56.3a1.46,1.46,0,0,0-2.8.8Z" transform="translate(-232.02 -118.31)"/><path class="cls-6" d="M1005.8,345.4c11.7,4.1,24.1,4.8,36.3,5.9,12.7,1.2,24.8,2.5,37.5.4s25.3-4.6,37.9-7.5c11.5-2.7,22.1-6.6,31.3-14.1,1.5-1.2-.6-3.3-2.1-2.1-9.5,7.7-20.9,11.2-32.7,13.9s-23.4,5-35.2,6.9c-12.4,2-24.3.6-36.7-.6-11.9-1.2-24.1-1.8-35.5-5.8-1.8-.6-2.6,2.3-.8,3Z" transform="translate(-232.02 -118.31)"/><path class="cls-6" d="M995.9,225.7c21.5-6.1,44-6.5,66.2-7.6,22.5-1.2,44.7-1.9,67.2-.2,1.9.1,1.9-2.9,0-3-23.1-1.8-45.9-.9-69,.3-21.9,1.1-44,1.7-65.2,7.7-1.9.4-1.1,3.3.8,2.8Z" transform="translate(-232.02 -118.31)"/><path class="cls-6" d="M1127.8,216.3c.3,19,2.8,37.9,6.2,56.6,1.7,9.5,3.7,18.9,5.8,28.3s3.7,18.7,6.9,27.6c.6,1.8,3.5,1,2.9-.8-6.1-17.2-9-36.1-12.3-54a350.33,350.33,0,0,1-6.5-57.7c-.1-1.9-3.1-1.9-3,0Z" transform="translate(-232.02 -118.31)"/><path class="cls-6" d="M782,215c19-1.4,38.1-2,57.2-1.9a1.5,1.5,0,0,0,0-3c-19.1-.1-38.2.5-57.2,1.9-1.9.1-1.9,3.1,0,3Z" transform="translate(-232.02 -118.31)"/><path class="cls-6" d="M782.5,227.9c4.3.1,8.7.3,13,0,4-.2,7.9-1,11.9-.5,1.9.2,1.9-2.8,0-3-4-.5-7.9.3-11.9.5-4.3.2-8.7.1-13,0-2-.1-2,2.9,0,3Z" transform="translate(-232.02 -118.31)"/><path class="cls-6" d="M782.4,236.4c7.2.4,14.3-1.1,21.4,0,1.9.3,2.7-2.6.8-2.9-7.4-1.1-14.8.3-22.2-.1-2-.1-2,2.9,0,3Z" transform="translate(-232.02 -118.31)"/><path class="cls-6" d="M784.1,255.5h19.6a1.5,1.5,0,0,0,0-3H784.1a1.5,1.5,0,0,0,0,3Z" transform="translate(-232.02 -118.31)"/><path class="cls-6" d="M785.4,262.5h14.2a1.5,1.5,0,0,0,0-3H785.4a1.5,1.5,0,0,0,0,3Z" transform="translate(-232.02 -118.31)"/><path class="cls-6" d="M782.5,273.6h20a1.5,1.5,0,0,0,0-3h-20a1.5,1.5,0,0,0,0,3Z" transform="translate(-232.02 -118.31)"/><path class="cls-6" d="M834.1,225.1h42.3a1.5,1.5,0,0,0,0-3H834.1a1.5,1.5,0,0,0,0,3Z" transform="translate(-232.02 -118.31)"/><path class="cls-6" d="M835.1,236.9h27.5a1.5,1.5,0,0,0,0-3H835.1a1.5,1.5,0,0,0,0,3Z" transform="translate(-232.02 -118.31)"/><path class="cls-6" d="M872.8,236.4H881a1.5,1.5,0,0,0,0-3h-8.2a1.5,1.5,0,1,0,0,3Z" transform="translate(-232.02 -118.31)"/><path class="cls-6" d="M838,255.7h33.1a1.5,1.5,0,0,0,0-3H838a1.5,1.5,0,0,0,0,3Z" transform="translate(-232.02 -118.31)"/><path class="cls-6" d="M826.2,269.3h29a1.5,1.5,0,0,0,0-3h-29a1.5,1.5,0,0,0,0,3Z" transform="translate(-232.02 -118.31)"/><path class="cls-6" d="M838,276.7h22a1.5,1.5,0,0,0,0-3H838a1.5,1.5,0,0,0,0,3Z" transform="translate(-232.02 -118.31)"/><path class="cls-6" d="M865.8,268.8h21a1.5,1.5,0,0,0,0-3h-21a1.5,1.5,0,0,0,0,3Z" transform="translate(-232.02 -118.31)"/><path class="cls-6" d="M900.5,197.5h19.3a1.5,1.5,0,0,0,0-3H900.5a1.5,1.5,0,0,0,0,3Z" transform="translate(-232.02 -118.31)"/><path class="cls-6" d="M925.7,191.8c5,2.1,10.6,2,15.4,4.5v-2.6c-3.5,2.5-7,5-10.4,7.5-1.6,1.1-.1,3.7,1.5,2.6,3.5-2.5,7-5,10.4-7.5a1.54,1.54,0,0,0,0-2.6c-5.1-2.6-10.9-2.6-16.1-4.8-1.8-.7-2.6,2.2-.8,2.9Z" transform="translate(-232.02 -118.31)"/><path class="cls-6" d="M903.5,210.8c2.3.6,4.6,1.2,7,1.6.6.1,6.1.4,6.4,1-.3-.6-8,6.1-8.8,7-1.3,1.4.8,3.5,2.1,2.1a38.14,38.14,0,0,1,8-6.4c1.5-.9,3.2-2.2,2.3-4.2-.9-1.8-3.6-1.5-5.3-1.8a83.2,83.2,0,0,1-10.8-2.3c-2-.4-2.8,2.5-.9,3Z" transform="translate(-232.02 -118.31)"/><path class="cls-6" d="M902.9,236.2h30.9a1.5,1.5,0,0,0,0-3H902.9a1.5,1.5,0,0,0,0,3Z" transform="translate(-232.02 -118.31)"/><path class="cls-6" d="M934.2,226.5a30.64,30.64,0,0,0,6.6,2.4c2.4.7,6.5,1.3,8,3.6V231c-1,1.7-3,3.2-4.4,4.6l-4.3,4.3a1.52,1.52,0,0,0,1.8,2.4c.2-.1.5-.3.7-.4a1.5,1.5,0,0,0-1.5-2.6c-.2.1-.5.3-.7.4l1.8,2.4c1.7-1.7,3.5-3.4,5.2-5.2,1.4-1.4,3.1-2.6,4-4.3a1.36,1.36,0,0,0,0-1.5c-3.1-4.8-11-4.7-15.7-7.1-1.7-1-3.2,1.6-1.5,2.5Z" transform="translate(-232.02 -118.31)"/><path class="cls-6" d="M902.7,253.3h21.7a1.5,1.5,0,0,0,0-3H902.7a1.5,1.5,0,0,0,0,3Z" transform="translate(-232.02 -118.31)"/><path class="cls-6" d="M936.8,252.6H960a1.5,1.5,0,0,0,0-3H936.8a1.5,1.5,0,1,0,0,3Z" transform="translate(-232.02 -118.31)"/><path class="cls-6" d="M905.4,273.1h23.7a1.5,1.5,0,0,0,0-3H905.4a1.5,1.5,0,0,0,0,3Z" transform="translate(-232.02 -118.31)"/><path class="cls-6" d="M872.8,310.3h36.7a1.5,1.5,0,0,0,0-3H872.8a1.5,1.5,0,0,0,0,3Z" transform="translate(-232.02 -118.31)"/><path class="cls-6" d="M886.5,320.9h33.1a1.5,1.5,0,0,0,0-3H886.5a1.5,1.5,0,0,0,0,3Z" transform="translate(-232.02 -118.31)"/><path class="cls-6" d="M982.1,285.5c-5.3-5.7-12.1,7.4-12.8,11.3-.9,5.2.4,10.5,1.8,15.5,1.1,4.1,2.2,7.6.6,11.8a15.27,15.27,0,0,1-7.6,8.2c-1.3.6-.7,2.9.8,2.8,12.1-1.2,8.7,21.9,11.8,29.3,3,7,9.9,10.3,17.2,9.1,1.9-.3,1.1-3.2-.8-2.9-15.6,2.5-14.8-14.8-16.2-25-.9-6.3-4.4-14.3-12.1-13.5.3.9.5,1.9.8,2.8,6.3-2.8,11-10.6,9.8-17.5-.9-5.5-3.2-10.6-3.4-16.2a18.07,18.07,0,0,1,1-6.9c.3-.7,4.9-8.8,6.9-6.6,1.4,1.4,3.5-.8,2.2-2.2Z" transform="translate(-232.02 -118.31)"/><path class="cls-6" d="M1029.8,348.7c-2.5,2.7-1.7,5.9-.3,9.1,1.2,2.7,4.1,5.9,4,8.9,0,5.5-6.4,8-10.6,9.6-1.8.7-1,3.6.8,2.9,5-1.9,10.6-4.3,12.3-9.9a8.83,8.83,0,0,0-.3-6.2c-1.2-3.1-7-9-3.8-12.3,1.4-1.4-.8-3.5-2.1-2.1Z" transform="translate(-232.02 -118.31)"/><path class="cls-6" d="M1221,377.8a345.81,345.81,0,0,0,9.9,128.5,1.5,1.5,0,0,0,2.9-.8,341.7,341.7,0,0,1-9.8-127.7c.2-1.9-2.8-1.9-3,0Z" transform="translate(-232.02 -118.31)"/><path class="cls-6" d="M1223.8,378.3c26.3,1.8,54,5.9,80-.8a1.5,1.5,0,0,0-.8-2.9c-25.6,6.7-53.1,2.5-79.2.7-2-.1-2,2.9,0,3Z" transform="translate(-232.02 -118.31)"/><path class="cls-6" d="M1301.8,376.3a175.22,175.22,0,0,0,26.8,109c1,1.6,3.6.1,2.6-1.5a173.28,173.28,0,0,1-26.4-107.5c.2-1.9-2.8-1.9-3,0Z" transform="translate(-232.02 -118.31)"/><path class="cls-6" d="M1233.1,507.2c15.3,5.6,34.2,2.8,49.7-.7a144.27,144.27,0,0,0,46.7-19.9c1.6-1,.1-3.6-1.5-2.6a140.94,140.94,0,0,1-44.3,19.2c-15.4,3.7-34.5,6.7-49.8,1.1-1.8-.7-2.6,2.2-.8,2.9Z" transform="translate(-232.02 -118.31)"/><path class="cls-6" d="M1241.6,394.9a108.88,108.88,0,0,0-15.2,12.7,1.54,1.54,0,0,0,1.1,2.6c7.4-.2,14.9-.4,22.3-.5a1.5,1.5,0,0,0,0-3c-7.4.2-14.9.4-22.3.5.4.9.7,1.7,1.1,2.6a100.48,100.48,0,0,1,14.6-12.2c1.5-1.1,0-3.8-1.6-2.7Z" transform="translate(-232.02 -118.31)"/><path class="cls-6" d="M1255.5,399a128.33,128.33,0,0,1,23.2.3c1.9.2,1.9-2.8,0-3a128.45,128.45,0,0,0-23.2-.3c-1.9.1-1.9,3.1,0,3Z" transform="translate(-232.02 -118.31)"/><path class="cls-6" d="M1279.7,394.2a121.18,121.18,0,0,1,14.2,4.2,23.35,23.35,0,0,0-.7-2.5c-3.2,2.5-6.3,5.1-9.3,7.9-1.4,1.3.7,3.4,2.1,2.1,3-2.7,6.1-5.4,9.3-7.9,1-.8.3-2.2-.7-2.5a85.93,85.93,0,0,0-14.2-4.2,1.49,1.49,0,0,0-.7,2.9Z" transform="translate(-232.02 -118.31)"/><path class="cls-6" d="M1228,428.7c4.4.3,8.7.5,13.1.8,1.9.1,1.9-2.9,0-3-4.4-.3-8.7-.5-13.1-.8-1.9-.1-1.9,2.9,0,3Z" transform="translate(-232.02 -118.31)"/><path class="cls-6" d="M1250.2,428.7c12.3-1.9,24.6-3.8,36.8-5.7,1.9-.3,1.1-3.2-.8-2.9-12.3,1.9-24.6,3.8-36.8,5.7-1.9.3-1.1,3.2.8,2.9Z" transform="translate(-232.02 -118.31)"/><path class="cls-6" d="M1230.2,438.5h9.4a1.5,1.5,0,0,0,0-3h-9.4a1.5,1.5,0,0,0,0,3Z" transform="translate(-232.02 -118.31)"/><path class="cls-6" d="M1230.9,445.8a33.45,33.45,0,0,0,10.5-.8c1.9-.4,1.1-3.3-.8-2.9a35,35,0,0,1-9.7.7c-1.9-.2-1.9,2.8,0,3Z" transform="translate(-232.02 -118.31)"/><path class="cls-6" d="M1229.8,458.8c13.3-1.4,27.9-1.4,40.6-5.8,1.8-.6,1-3.5-.8-2.9-12.5,4.3-26.8,4.3-39.8,5.7-1.9.2-1.9,3.2,0,3Z" transform="translate(-232.02 -118.31)"/><path class="cls-6" d="M1254.1,442.1a316.88,316.88,0,0,0,41-7.2,1.5,1.5,0,0,0-.8-2.9,301.89,301.89,0,0,1-40.2,7.1c-1.9.2-1.9,3.2,0,3Z" transform="translate(-232.02 -118.31)"/><path class="cls-6" d="M1233.1,471.1a25.35,25.35,0,0,0,9.1-.7,1.5,1.5,0,0,0-.8-2.9,23.17,23.17,0,0,1-8.3.6c-1.9-.2-1.9,2.8,0,3Z" transform="translate(-232.02 -118.31)"/><path class="cls-6" d="M1255.4,467.9c4.5.5,8.8-.8,13.2-1.8,5.4-1.2,10.8-2.4,16.1-3.6,1.9-.4,1.1-3.3-.8-2.9-4.7,1.1-9.5,2.1-14.2,3.2s-9.5,2.6-14.3,2.1c-1.9-.3-1.9,2.7,0,3Z" transform="translate(-232.02 -118.31)"/><path class="cls-6" d="M1249.3,473.3a6.83,6.83,0,0,0-5.1,5,7,7,0,0,0,.2,3.2c.3.8,4.5,6.1,2.3,6.7a1.47,1.47,0,0,0-.9,2.2c2.4,3.3,2.1,8.1,5.7,10.6,2.3,1.6,4.8,1.7,6.9-.2,1.4-1.3-.7-3.4-2.1-2.1-3.6,3.4-6.5-7.8-7.9-9.8-.3.7-.6,1.5-.9,2.2a3.62,3.62,0,0,0,3-3.4c.5-3.1-6.8-9.8-.4-11.5a1.5,1.5,0,0,0-.8-2.9Z" transform="translate(-232.02 -118.31)"/><path class="cls-6" d="M1257,486.3c9-.4,17.9-1.1,26.8-2.1,1.9-.2,1.9-3.2,0-3-8.9,1-17.8,1.7-26.8,2.1-1.9.1-1.9,3.1,0,3Z" transform="translate(-232.02 -118.31)"/><path class="cls-6" d="M1289.6,470.4a28.05,28.05,0,0,1,2.9,0c4.3,1.2,2.5,2.2,2.8,4.4.2,1.7,0,3.2.5,4.9s1.5,3.5,2.1,5.3c.9,2.6,1,3.1-.9,5.4-1.8,2.1-1.8,2.1-4.2,2.5-1.9.3-1.1,3.2.8,2.9,3-.5,6-1.6,7.4-4.5,1.6-3.4-.1-6.7-1.4-9.9a16.17,16.17,0,0,1-1.3-7.2c0-1.4.2-2.9-.4-4.2-1.7-3.5-5.2-2.2-8.3-2.6-1.9-.2-1.9,2.8,0,3Z" transform="translate(-232.02 -118.31)"/><path class="cls-6" d="M1033.62,270.9a9.53,9.53,0,0,0-7.12,7,9.71,9.71,0,0,0,.28,4.47c.42,1.11,6.29,8.51,3.21,9.35a2,2,0,0,0-1.25,3.07c3.35,4.61,2.93,11.31,8,14.8,3.21,2.23,6.7,2.37,9.63-.28,2-1.81-1-4.75-2.93-2.93-5,4.75-9.08-10.89-11-13.68-.42,1-.84,2.09-1.26,3.07,2.51-.7,3.91-2.1,4.19-4.75.7-4.33-9.5-13.68-.56-16.05,2.65-.7,1.54-4.75-1.12-4.05Z" transform="translate(-232.02 -118.31)"/><path class="cls-6" d="M1044.37,289.05c12.57-.56,25-1.54,37.42-2.94,2.65-.27,2.65-4.46,0-4.18-12.42,1.39-24.85,2.37-37.42,2.93-2.65.14-2.65,4.33,0,4.19Z" transform="translate(-232.02 -118.31)"/><path class="cls-6" d="M1089.89,266.85c1.12.14,2.93-.28,4,0,6,1.67,3.49,3.07,3.91,6.14.28,2.37,0,4.47.7,6.84.69,2.52,2.09,4.89,2.93,7.4,1.25,3.63,1.39,4.33-1.26,7.54-2.51,2.93-2.51,2.93-5.86,3.49-2.66.42-1.54,4.47,1.11,4.05,4.19-.7,8.38-2.23,10.34-6.28,2.23-4.75-.14-9.36-2-13.82a22.71,22.71,0,0,1-1.81-10.06c0-1.95.28-4-.56-5.86-2.38-4.89-7.26-3.07-11.59-3.63-2.65-.28-2.65,3.91,0,4.19Z" transform="translate(-232.02 -118.31)"/></g><g id="ground_grey" data-name="ground grey"><path class="cls-6" d="M240,859q8.25,58.5,13.7,117.3c.2,1.9,3.2,1.9,3,0q-5.55-59.25-13.8-118.1c-.3-1.9-3.1-1.1-2.9.8Z" transform="translate(-232.02 -118.31)"/><path class="cls-6" d="M253.8,977.9a119.2,119.2,0,0,0,103,1.1c1.7-.8.2-3.4-1.5-2.6a116,116,0,0,1-100-1.1c-1.7-.9-3.2,1.7-1.5,2.6Z" transform="translate(-232.02 -118.31)"/><path class="cls-6" d="M359,861.2q-.15,58.35-2.5,116.5c-.1,1.9,2.9,1.9,3,0,1.6-38.8,2.4-77.7,2.5-116.5a1.5,1.5,0,0,0-3,0Z" transform="translate(-232.02 -118.31)"/><path class="cls-6" d="M240.8,859.5c39,11.8,80.1,7.6,119.9,3.1,1.9-.2,1.9-3.2,0-3-39.6,4.4-80.3,8.7-119.1-3-1.8-.6-2.6,2.3-.8,2.9Z" transform="translate(-232.02 -118.31)"/><path class="cls-6" d="M255.6,963c3.4-6.8,11.1,2.8,13.8,5.2a12,12,0,0,0,8.8,3.3c8.4-.4,15.5-8.7,24.1-6.6,8.4,2.1,12.8,10.7,22.4,9.8,10.8-1,21.8-13.8,32.8-7.4a1.5,1.5,0,0,0,1.5-2.6c-10.5-6.1-20.2,2.7-30,6-7.5,2.5-12.4-.4-18.3-4.6-3.6-2.5-7.3-4.7-11.9-4.4-10.5.6-19.3,12.3-28.9,2.9-2.8-2.8-5.1-5.8-9.3-6.5-3.2-.5-6.1.5-7.6,3.4-.9,1.7,1.7,3.2,2.6,1.5Z" transform="translate(-232.02 -118.31)"/><path class="cls-6" d="M252.8,945.7a186.1,186.1,0,0,0,105.1-2c1.8-.6,1.1-3.5-.8-2.9a184.1,184.1,0,0,1-103.5,2,1.5,1.5,0,0,0-.8,2.9Z" transform="translate(-232.02 -118.31)"/><path class="cls-6" d="M247.9,910.9a214.09,214.09,0,0,0,111.5-2.5,1.51,1.51,0,0,0-.8-2.9A210.18,210.18,0,0,1,248.7,908a1.5,1.5,0,0,0-.8,2.9Z" transform="translate(-232.02 -118.31)"/><path class="cls-6" d="M246.2,884.9c6-4.5,11.9,2.1,16.5,5.4a16.55,16.55,0,0,0,11.9,3.4c9.1-1.2,17.8-10.6,27.3-8.2,5.2,1.3,8.5,6.4,13.8,7.3,4,.7,7.7-1.2,10.9-3.3,5.4-3.4,9.8-6.1,16.5-5.6,6.1.4,11.8,1.9,18,.9,1.9-.3,1.1-3.2-.8-2.9-6.9,1-13.6-1.4-20.5-1.1-5,.2-8.9,2.2-13,5-2.3,1.5-4.6,3.3-7.3,3.9-4.1,1-7.2-1.4-10.3-3.6-3.6-2.5-7.2-4.3-11.8-3.8-9.3.9-17.8,10.4-27.4,8.4-8.3-1.7-15.9-15.5-25.5-8.4-1.3,1.2.2,3.8,1.7,2.6Z" transform="translate(-232.02 -118.31)"/><path class="cls-6" d="M267.7,861.6c-4.6-4.7-18.9-20.1-11-26.7a1.38,1.38,0,0,0,.2-1.8c-6.2-8.9-13-18.4-13.7-29.6-.3-4.9,1.8-8.8,2.2-13.4.4-4.4-1.9-9.3-3-13.5-5.4-21.8-9.2-45.6-7.1-68.1a53.65,53.65,0,0,1,3.7-16.3c4.2-10,12.7-.8,16.3,4.2,6,8.4,10.1,17.9,13.6,27.6a545.57,545.57,0,0,1,18.4,64.1,564.6,564.6,0,0,1,11.8,76.6c.2,1.9,3.2,1.9,3,0a583.12,583.12,0,0,0-11.5-75.5c-5.4-24.7-12.1-49.7-21.5-73.1-3.8-9.4-8.5-19.9-16-27-5.6-5.4-13.2-6.4-16.6,1.6-4.3,10-4.7,21.4-4.4,32.2a263.25,263.25,0,0,0,4.1,38.6c1.3,7,2.8,13.9,4.6,20.7,1.1,4.1,1.9,7.1.7,11.1a28.22,28.22,0,0,0-1.3,8.7c0,12.4,7.3,23.1,14.1,32.8a11,11,0,0,0,.2-1.8c-9.8,8.3,5.1,25.1,11,31,1.5,1,3.6-1.1,2.2-2.4Z" transform="translate(-232.02 -118.31)"/><path class="cls-6" d="M291.2,783.5c.9-8.8,1.8-17.7,5-26a46.15,46.15,0,0,1,7.9-12.9c2.3-2.8,3.9-5.7,6-8.6,6.1-8.6,11.9.9,13,7.1a132.84,132.84,0,0,1,1.5,16.7,175.66,175.66,0,0,1-1.8,32.4c-.2,1.6,1.8,2.7,2.7,1.2,2.3-3.7,9.4-11.5,12.9-3.2,1.1,2.6.4,6.4.3,9.1-.4,7.7-1.1,15.3-2.2,22.9a243,243,0,0,1-9.7,41.1c-.6,1.8,2.3,2.6,2.9.8A251.78,251.78,0,0,0,341.4,804c.4-5.7,2.6-16.4-4.2-19.6-6.2-2.9-11.4,2.8-14.4,7.5l2.7,1.2a175,175,0,0,0,1.4-40.9c-.7-7.5-1.4-23.6-12.8-22.5-4.2.4-6.3,4.1-8.3,7.3-3.1,5.2-7.6,9.2-10.4,14.6-5.2,9.9-6.3,21.2-7.4,32.1,0,1.7,3,1.7,3.2-.2Z" transform="translate(-232.02 -118.31)"/><path class="cls-6" d="M241.1,690.2c21.5,56.4,33.1,115.7,44.5,174.7.4,1.9,3.3,1.1,2.9-.8-11.4-59-23-118.4-44.5-174.7-.7-1.8-3.6-1-2.9.8Z" transform="translate(-232.02 -118.31)"/><path class="cls-6" d="M239.7,774.7a89.41,89.41,0,0,1,34.2,35.6c.9,1.7,3.5.2,2.6-1.5a92.74,92.74,0,0,0-35.2-36.7,1.53,1.53,0,0,0-1.6,2.6Z" transform="translate(-232.02 -118.31)"/><path class="cls-6" d="M267,716.9c-1.8,16.7-3.4,33.5-1.4,50.2.2,1.9,3.2,1.9,3,0-2-16.8-.4-33.5,1.4-50.2.2-1.9-2.8-1.9-3,0Z" transform="translate(-232.02 -118.31)"/><path class="cls-6" d="M314.9,733q-3.45,63-6.8,126.1c-.1,1.9,2.9,1.9,3,0q3.45-63,6.8-126.1c.1-2-2.9-2-3,0Z" transform="translate(-232.02 -118.31)"/><path class="cls-6" d="M288.5,781.8a320.11,320.11,0,0,0,19.6,49.1c.9,1.7,3.5.2,2.6-1.5A315,315,0,0,1,291.4,781c-.6-1.8-3.5-1.1-2.9.8Z" transform="translate(-232.02 -118.31)"/><path class="cls-6" d="M311.4,845.6a73.07,73.07,0,0,0,27.1-26.7,1.5,1.5,0,0,0-2.6-1.5,69.43,69.43,0,0,1-26,25.6,1.5,1.5,0,0,0,1.5,2.6Z" transform="translate(-232.02 -118.31)"/><path class="cls-6" d="M241.9,860.1c6-.4,15.4-2.5,19.8,2.9l1.8-2.4a41.51,41.51,0,0,0-12.4-4.3c-.3,1-.5,1.9-.8,2.9a116.81,116.81,0,0,1,14.2,3.3c1.9.6,2.6-2.3.8-2.9a116.81,116.81,0,0,0-14.2-3.3c-1.9-.3-2.7,2.5-.8,2.9a43.77,43.77,0,0,1,11.7,4,1.52,1.52,0,0,0,1.8-2.4c-5.1-6.3-14.9-4.2-21.9-3.8-1.9.2-1.9,3.2,0,3.1Z" transform="translate(-232.02 -118.31)"/><path class="cls-6" d="M331.4,861.2c-.2-1,12.1-.4,12.8-.3,4.2.2,8.5.4,12.7.5v-3c-7.9.4-15.8.8-23.7,1.1a1.5,1.5,0,0,0,0,3c4.4.2,8.8.3,13.2.2a1.5,1.5,0,0,0,0-3c-4.4.1-8.8.1-13.2-.2v3c7.9-.4,15.8-.8,23.7-1.1a1.5,1.5,0,0,0,0-3c-7.7-.3-15.7-1.3-23.4-1-2.9.1-5.7,1.1-4.9,4.6.3,1.9,3.2,1.1,2.8-.8Z" transform="translate(-232.02 -118.31)"/><path class="cls-6" d="M452.2,1115l44.9-56.3c13.7-17.1,27.4-34.3,43.4-49.3,1.4-1.3-.7-3.4-2.1-2.1-16,15.1-29.7,32.2-43.4,49.3l-44.9,56.3c-1.2,1.5.9,3.6,2.1,2.1Z" transform="translate(-232.02 -118.31)"/><path class="cls-6" d="M538.4,1008.8h489a1.5,1.5,0,0,0,0-3h-489a1.5,1.5,0,1,0,0,3Z" transform="translate(-232.02 -118.31)"/><path class="cls-6" d="M1026.9,1009.1a1331.76,1331.76,0,0,1,100.5,115.8c1.2,1.5,3.8,0,2.6-1.5A1330.57,1330.57,0,0,0,1029,1007c-1.3-1.4-3.5.7-2.1,2.1Z" transform="translate(-232.02 -118.31)"/><path class="cls-6" d="M288.2,1020.2H427.6a1.5,1.5,0,0,0,0-3H288.2a1.5,1.5,0,0,0,0,3Z" transform="translate(-232.02 -118.31)"/><path class="cls-6" d="M548.6,959.7h649.5a1.5,1.5,0,0,0,0-3H548.6a1.5,1.5,0,0,0,0,3Z" transform="translate(-232.02 -118.31)"/><path class="cls-6" d="M1263.9,961h211.7a1.5,1.5,0,0,0,0-3H1263.9a1.5,1.5,0,0,0,0,3Z" transform="translate(-232.02 -118.31)"/><path class="cls-6" d="M1085.1,1004.4h115.7a1.5,1.5,0,0,0,0-3H1085.1a1.5,1.5,0,0,0,0,3Z" transform="translate(-232.02 -118.31)"/><path class="cls-6" d="M1257.3,1016.2h88.1a1.5,1.5,0,0,0,0-3h-88.1a1.5,1.5,0,0,0,0,3Z" transform="translate(-232.02 -118.31)"/></g><g id="ground_black" data-name="ground black"><path class="cls-7" d="M444.5,957.7H553.4a1.5,1.5,0,0,0,0-3H444.5a1.5,1.5,0,0,0,0,3Z" transform="translate(-232.02 -118.31)"/><path class="cls-7" d="M546.9,970.7H819.2a1.5,1.5,0,0,0,0-3H546.9a1.5,1.5,0,0,0,0,3Z" transform="translate(-232.02 -118.31)"/><path class="cls-7" d="M758.3,957.7h368.3a1.5,1.5,0,0,0,0-3H758.3a1.5,1.5,0,0,0,0,3Z" transform="translate(-232.02 -118.31)"/><path class="cls-7" d="M1126.6,977.2H1386a1.5,1.5,0,0,0,0-3H1126.6a1.5,1.5,0,0,0,0,3Z" transform="translate(-232.02 -118.31)"/><path class="cls-7" d="M273.3,1079.6H355a1.5,1.5,0,0,0,0-3H273.3a1.5,1.5,0,1,0,0,3Z" transform="translate(-232.02 -118.31)"/><path class="cls-7" d="M968.4,1061.5h118a1.5,1.5,0,0,0,0-3h-118a1.5,1.5,0,0,0,0,3Z" transform="translate(-232.02 -118.31)"/><path class="cls-7" d="M1279.6,1065.3h106.3a1.5,1.5,0,0,0,0-3H1279.6a1.5,1.5,0,0,0,0,3Z" transform="translate(-232.02 -118.31)"/></g></g><g id="table_pc_s" data-name="table &amp; pc&apos;s"><g id="table"><path class="cls-8" d="M386.3,701.5v380.9c8.8-.9,17.5-1.8,26.3-2.8V698.7C403.9,699.6,395.1,700.5,386.3,701.5Z" transform="translate(-232.02 -118.31)"/><path class="cls-8" d="M1146.8,705.6q-.3,187-.7,374h25.6V702.1C1163.5,703.3,1155.2,704.5,1146.8,705.6Z" transform="translate(-232.02 -118.31)"/><path d="M515.9,955.6q-1.5-80.55-.7-164.8c.4-36.1,1.1-71.6,2.1-106.7-10.6-.2-21.2-.5-31.9-.7q-.3,135.45-.7,270.8C495.1,954.7,505.5,955.2,515.9,955.6Z" transform="translate(-232.02 -118.31)"/><path d="M1045,689.7q.3,132.3.7,264.6c9.5-.2,18.9-.5,28.4-.7q1.05-134.4,2.1-268.7C1065.8,686.4,1055.4,688.1,1045,689.7Z" transform="translate(-232.02 -118.31)"/><path d="M343.4,693.8c-.2,7.4-.5,14.8-.7,22.2q430.05.75,860.2,1.4c-.7-7.8-1.4-15.7-2.1-23.5q-139.35-6.15-284.7-8.3C717.5,682.6,526.4,685.8,343.4,693.8Z" transform="translate(-232.02 -118.31)"/><path class="cls-8" d="M343.4,693.1q428.7.3,857.5.7-45.75-43.35-91.4-86.6-345.9.3-691.9.7Q380.4,650.5,343.4,693.1Z" transform="translate(-232.02 -118.31)"/><path class="cls-7" d="M343.5,695.1q37-44.25,76.3-86.6c1.3-1.4-.8-3.5-2.1-2.1q-39.3,42.3-76.3,86.6c-1.2,1.4.9,3.6,2.1,2.1Z" transform="translate(-232.02 -118.31)"/><path class="cls-7" d="M340.8,695.1v18.7a1.5,1.5,0,0,0,3,0V695.1a1.5,1.5,0,0,0-3,0Z" transform="translate(-232.02 -118.31)"/><path class="cls-7" d="M344.8,717.8h857a1.5,1.5,0,0,0,0-3h-857a1.5,1.5,0,1,0,0,3Z" transform="translate(-232.02 -118.31)"/><path class="cls-7" d="M1204.5,715V692.6a1.5,1.5,0,0,0-3,0V715a1.5,1.5,0,0,0,3,0Z" transform="translate(-232.02 -118.31)"/><path class="cls-7" d="M342.3,717.8a1.5,1.5,0,0,0,0-3,1.5,1.5,0,0,0,0,3Z" transform="translate(-232.02 -118.31)"/><path class="cls-7" d="M343.5,695.4h857a1.5,1.5,0,0,0,0-3h-857a1.5,1.5,0,0,0,0,3Z" transform="translate(-232.02 -118.31)"/><path class="cls-7" d="M420.6,609.6h689a1.5,1.5,0,0,0,0-3h-689a1.5,1.5,0,0,0,0,3Z" transform="translate(-232.02 -118.31)"/><path class="cls-7" d="M1108.1,609.7l91,84.4c1.4,1.3,3.5-.8,2.1-2.1l-91-84.4c-1.4-1.3-3.5.8-2.1,2.1Z" transform="translate(-232.02 -118.31)"/><path class="cls-7" d="M385.6,716.3v364.5a1.5,1.5,0,0,0,3,0V716.3a1.5,1.5,0,0,0-3,0Z" transform="translate(-232.02 -118.31)"/><path class="cls-7" d="M411.7,717.5v362a1.5,1.5,0,0,0,3,0v-362a1.5,1.5,0,0,0-3,0Z" transform="translate(-232.02 -118.31)"/><path class="cls-7" d="M387.1,1083.7c7.9-.5,15.7-1,23.6-1.4,1.9-.1,1.9-3.1,0-3-7.9.5-15.7,1-23.6,1.4-1.9.2-2,3.2,0,3Z" transform="translate(-232.02 -118.31)"/><path class="cls-7" d="M1144.3,716.3v364.5a1.5,1.5,0,0,0,3,0V716.3a1.5,1.5,0,0,0-3,0Z" transform="translate(-232.02 -118.31)"/><path class="cls-7" d="M1170.4,717.5v362a1.5,1.5,0,0,0,3,0v-362a1.5,1.5,0,0,0-3,0Z" transform="translate(-232.02 -118.31)"/><path class="cls-7" d="M1147,1081.7c7.9-.5,15.7-1,23.6-1.4,1.9-.1,1.9-3.1,0-3-7.9.5-15.7,1-23.6,1.4-1.9.1-1.9,3.1,0,3Z" transform="translate(-232.02 -118.31)"/><path class="cls-7" d="M484.2,717.7V953.2a1.5,1.5,0,0,0,3,0V717.7a1.5,1.5,0,0,0-3,0Z" transform="translate(-232.02 -118.31)"/><path class="cls-7" d="M514.1,719.1V953.2a1.5,1.5,0,0,0,3,0V719.1a1.5,1.5,0,0,0-3,0Z" transform="translate(-232.02 -118.31)"/><path class="cls-7" d="M487,956.1h28.6a1.5,1.5,0,0,0,0-3H487a1.5,1.5,0,0,0,0,3Z" transform="translate(-232.02 -118.31)"/><path class="cls-7" d="M1045,716.4V953.2a1.5,1.5,0,0,0,3,0V716.4a1.5,1.5,0,0,0-3,0Z" transform="translate(-232.02 -118.31)"/><path class="cls-7" d="M1073.5,719.1V953.2a1.5,1.5,0,0,0,3,0V719.1a1.5,1.5,0,0,0-3,0Z" transform="translate(-232.02 -118.31)"/><path class="cls-7" d="M1047.8,956.1H1075a1.5,1.5,0,0,0,0-3h-27.2a1.5,1.5,0,0,0,0,3Z" transform="translate(-232.02 -118.31)"/></g><g id="mug"><path class="cls-8" d="M945.6,590.9a12,12,0,0,0-2.3,6.5,154.06,154.06,0,0,0-1.4,28.1c.4,6,.8,14.9,1.1,26.3a27.07,27.07,0,0,0,11,7.2c7.5,2.5,14.6.8,28.4-2.7,5.6-1.4,10-2.8,13-3.8a25.71,25.71,0,0,0,3.1-9.9c.4-4.9-1.1-7.2.7-9.7s4.4-2,5.6-4.7c.7-1.6.6-4-.5-4.9-1.9-1.3-5.3,2.1-7,.7-.5-.4-.5-.8-.7-4.5-.3-5-.4-5.6.2-6.1s2.2-.6,5.4-.5c2.4,0,3.5,0,4,.4,1.9,1.5,1.1,6.4-.7,9.9-2.3,4.4-5.8,5.8-5.4,6.7s4.9,0,8.5-2.2c2.1-1.3,5.2-3.1,5.9-6.5,1.2-5-3.6-9.4-4.3-10.1-5.9-5.5-14.5-3.7-15.6-3.4.1-4.8.2-9.6.4-14.4a81.16,81.16,0,0,0-30.4-7.2C950.5,585.6,946.8,589.2,945.6,590.9Z" transform="translate(-232.02 -118.31)"/><path class="cls-7" d="M941.2,595.4a389.79,389.79,0,0,0-.6,55.1c.1,1.9,3.1,1.9,3,0a389.63,389.63,0,0,1,.6-55.1c.2-1.9-2.8-1.9-3,0Z" transform="translate(-232.02 -118.31)"/><path class="cls-7" d="M940.8,651.3c13.4,14.8,34.3,10.2,50.6,3.9,1.8-.7,1-3.6-.8-2.9-15.3,5.9-35.1,10.9-47.7-3.1-1.3-1.4-3.4.7-2.1,2.1Z" transform="translate(-232.02 -118.31)"/><path class="cls-7" d="M944.1,595.3c3.9-7.1,17.1-7.8,24.3-7.6a53.66,53.66,0,0,1,24.4,6.6c1.7.9,3.2-1.7,1.5-2.6a56.1,56.1,0,0,0-29.2-7c-7.7.3-19.4,1.6-23.6,9.1-.9,1.7,1.7,3.2,2.6,1.5Z" transform="translate(-232.02 -118.31)"/><path class="cls-7" d="M993.1,594.6v13.5a1.52,1.52,0,0,0,1.9,1.4c5-1.1,12.9,0,15.8,4.9,5.7,9.4-5.4,11.4-11.1,15.2-2.5,1.6-2.9,3.3-2.9,6.2,0,6.5,0,14-6.7,17.3-1.7.9-.2,3.4,1.5,2.6,5.9-2.9,7.8-9,8.1-15.2.1-2.8-.8-6,1.4-8.3,1.1-1.1,3.3-1.6,4.7-2.3,3-1.4,5.8-2.9,7.8-5.6,3.8-5.1,1.7-10.4-2.8-14.1a19.79,19.79,0,0,0-16.6-3.7,23.07,23.07,0,0,0,1.9,1.4V594.4c-.1-1.7-3.1-1.7-3,.2Z" transform="translate(-232.02 -118.31)"/><path class="cls-7" d="M995.4,613.5a33.83,33.83,0,0,0,.6,11c.4,1.9,3.3,1.1,2.9-.8a31.85,31.85,0,0,1-.5-10.2c.2-1.9-2.8-1.9-3,0Z" transform="translate(-232.02 -118.31)"/><path class="cls-7" d="M997.7,616.5a6.32,6.32,0,0,1,5.7-1.6c1.9.6,3.4,2.8,2.5,4.8-1.3,2.7-5.7,2.7-8.3,2.7a1.5,1.5,0,0,0,0,3c4.7.1,12.3-1.3,11.5-7.7a7.16,7.16,0,0,0-4.9-5.7c-3.1-.9-6.3.3-8.7,2.4-1.4,1.2.7,3.3,2.2,2.1Z" transform="translate(-232.02 -118.31)"/><path class="cls-7" d="M952.7,590.6c-2,1.6-5.3.8-5.6,4.2-.3,2.7,2,4.6,4.3,5.1,5.2,1.1,11.6-.2,17-.1,6.4.1,12.9.6,19.3,1.3.8.1,1.5-.8,1.5-1.5a4.41,4.41,0,0,0-.9-3.3c-1-1.6-3.6-.1-2.6,1.5.2.6.3,1.2.5,1.8l1.5-1.5a198.74,198.74,0,0,0-23.1-1.3c-1.9,0-3.9,0-5.8.1-1.4,0-4.3.8-5.5.2-.6-.9-1.3-1.8-1.9-2.7a9.36,9.36,0,0,0,1.6-.4c.5-.4,1.4-.8,1.9-1.2,1.5-1.3-.7-3.4-2.2-2.2Z" transform="translate(-232.02 -118.31)"/><path class="cls-9" d="M970.6,586.5c-.4-1.4-8.9-.8-16.6,1.6a60.38,60.38,0,0,0-10.3,4.3c-.8,11-1.3,22.4-1.6,34.4q-.3,12.75,0,24.9a37.52,37.52,0,0,0,19.4,7.5,36.7,36.7,0,0,0,15-2l-5.1-58.5c-8-.1-14.3-.8-14.6-2.8C956.2,592.8,971.2,588.4,970.6,586.5Z" transform="translate(-232.02 -118.31)"/><path class="cls-10" d="M944.1,598.7c4.2,13.3,8.6,26.8,13,40.3,2.2,6.8,4.5,13.5,6.7,20.2a32.67,32.67,0,0,1-12.2-2.8,33.18,33.18,0,0,1-9.1-5.9,252.46,252.46,0,0,1-.4-29.2C942.5,613.2,943.2,605.6,944.1,598.7Z" transform="translate(-232.02 -118.31)"/></g><g id="compuers"><path class="cls-8" d="M975.6,425.6c-.9,4.6-2,11.4-3.2,19.7-3.7,27.3-3.6,48.5-3.5,65,.1,12.1.6,27.8,2.1,46.3a228.11,228.11,0,0,0,22.5,6.7c17.1,4.2,27.1,4.6,55.5,8.4,17.5,2.4,13.4,2.2,28.8,4.2,22.7,3,37,4.9,55.1,5.3a315.68,315.68,0,0,0,34.1-1.1,363.14,363.14,0,0,0,7-40.7,380.76,380.76,0,0,0,2.1-47,430.53,430.53,0,0,0-4.9-59c-3.8-.9-9.1-2.2-15.4-3.5a484.34,484.34,0,0,0-69.5-9.1,521.48,521.48,0,0,0-76.5.7C995.8,422.6,984.2,424.2,975.6,425.6Z" transform="translate(-232.02 -118.31)"/><path class="cls-8" d="M320.9,501.7q26,66.15,51.8,132.3,75.9-46.05,151.8-92.2-21.9-53.7-43.7-107.5c-25.7,8.7-52.8,18.9-81.1,30.8S345.1,489.4,320.9,501.7Z" transform="translate(-232.02 -118.31)"/><path class="cls-8" d="M371.8,635.8a673.09,673.09,0,0,0,62.9,33.8c14.4,6.9,28.5,12.9,41.9,18.3,23.1-15.6,46.2-31.2,69.2-47,22.7-15.6,45.4-31.2,68-47q-43.2-25.65-86.5-51.2Q449.45,589.35,371.8,635.8Z" transform="translate(-232.02 -118.31)"/><path class="cls-7" d="M400,638c43.7-26.4,88.1-52.1,129.7-81.8,1.6-1.1.1-3.7-1.5-2.6-41.6,29.7-86,55.4-129.7,81.8-1.6,1-.1,3.6,1.5,2.6Z" transform="translate(-232.02 -118.31)"/><path class="cls-7" d="M416.6,648.3c43.7-26.4,88.1-52.1,129.7-81.8,1.6-1.1.1-3.7-1.5-2.6-41.6,29.7-86,55.4-129.7,81.8-1.6,1-.1,3.6,1.5,2.6Z" transform="translate(-232.02 -118.31)"/><path class="cls-7" d="M436.9,658c43.7-26.4,88.1-52.1,129.7-81.8,1.6-1.1.1-3.7-1.5-2.6-41.6,29.7-86,55.4-129.7,81.8a1.5,1.5,0,0,0,1.5,2.6Z" transform="translate(-232.02 -118.31)"/><path class="cls-7" d="M453.5,668.3c43.7-26.4,88.1-52.1,129.7-81.8,1.6-1.1.1-3.7-1.5-2.6-41.6,29.7-86,55.4-129.7,81.8a1.5,1.5,0,0,0,1.5,2.6Z" transform="translate(-232.02 -118.31)"/><path class="cls-7" d="M413.6,628.6c11,7,22.1,13.9,33.1,20.9,1.6,1,3.1-1.6,1.5-2.6-11-7-22.1-13.9-33.1-20.9-1.6-1-3.1,1.6-1.5,2.6Z" transform="translate(-232.02 -118.31)"/><path class="cls-7" d="M430.8,618.6c10.3,7.3,20.6,14.5,30.9,21.8,1.6,1.1,3.1-1.5,1.5-2.6-10.3-7.3-20.6-14.5-30.9-21.8-1.5-1.1-3,1.5-1.5,2.6Z" transform="translate(-232.02 -118.31)"/><path class="cls-7" d="M447.3,608.5c9.9,7.2,19.7,14.6,29.2,22.4,1.5,1.2,3.6-.9,2.1-2.1-9.7-7.9-19.7-15.5-29.8-22.8-1.6-1.3-3.1,1.3-1.5,2.5Z" transform="translate(-232.02 -118.31)"/><path class="cls-7" d="M464.5,598.7a297.9,297.9,0,0,1,27.7,22.4c1.4,1.3,3.5-.8,2.1-2.1A311.1,311.1,0,0,0,466,596.1c-1.6-1.1-3.1,1.5-1.5,2.6Z" transform="translate(-232.02 -118.31)"/><path class="cls-7" d="M480.3,590.1a258.94,258.94,0,0,1,25.3,23.8c1.3,1.4,3.4-.7,2.1-2.1A270.85,270.85,0,0,0,482.4,588c-1.4-1.2-3.6.9-2.1,2.1Z" transform="translate(-232.02 -118.31)"/><path class="cls-7" d="M492.8,580.3a202.88,202.88,0,0,1,26.9,25.5c1.3,1.5,3.4-.7,2.1-2.1a202.88,202.88,0,0,0-26.9-25.5c-1.4-1.2-3.6.9-2.1,2.1Z" transform="translate(-232.02 -118.31)"/><path class="cls-7" d="M508.4,569.6c9.6,7.7,19,15.7,27.9,24.1,1.4,1.3,3.5-.8,2.1-2.1-9-8.4-18.3-16.5-27.9-24.1-1.5-1.2-3.6.9-2.1,2.1Z" transform="translate(-232.02 -118.31)"/><path class="cls-7" d="M521.6,562.2c5.3,3,9.5,7.8,13.9,12s8.5,8.2,12.8,12.3c1.4,1.3,3.5-.8,2.1-2.1-4.7-4.5-9.4-9.1-14.1-13.6-4.1-4-8.1-8.3-13.1-11.2-1.8-.9-3.3,1.7-1.6,2.6Z" transform="translate(-232.02 -118.31)"/><path class="cls-7" d="M398,638.2a317.82,317.82,0,0,0,36.5,20.4c1.7.8,3.3-1.8,1.5-2.6a343.21,343.21,0,0,1-36.5-20.4c-1.6-1-3.1,1.6-1.5,2.6Z" transform="translate(-232.02 -118.31)"/><path class="cls-7" d="M529.5,557l1.2.3a1.39,1.39,0,0,0,1.8-1,1.43,1.43,0,0,0-1-1.8l-1.2-.3a1.46,1.46,0,0,0-.8,2.8Z" transform="translate(-232.02 -118.31)"/><path class="cls-7" d="M529.2,556.8c12.6,5.6,23.5,14.2,35.7,20.5,1.7.9,3.2-1.7,1.5-2.6-12.2-6.3-23.1-14.9-35.7-20.5-1.7-.8-3.3,1.8-1.5,2.6Z" transform="translate(-232.02 -118.31)"/><path class="cls-7" d="M433.2,658.5A152.4,152.4,0,0,1,451.1,669c1.6,1.1,3.1-1.5,1.5-2.6a161,161,0,0,0-17.9-10.5c-1.7-.9-3.2,1.7-1.5,2.6Z" transform="translate(-232.02 -118.31)"/><path class="cls-7" d="M447.6,650.1a138.48,138.48,0,0,1,13.2,11.1c1.4,1.3,3.5-.8,2.1-2.1a128.31,128.31,0,0,0-13.8-11.6c-1.5-1.2-3,1.4-1.5,2.6Z" transform="translate(-232.02 -118.31)"/><path class="cls-7" d="M462,641a101.06,101.06,0,0,1,13.8,12.3c1.3,1.4,3.4-.7,2.1-2.1a103,103,0,0,0-14.4-12.8c-1.5-1.1-3,1.5-1.5,2.6Z" transform="translate(-232.02 -118.31)"/><path class="cls-7" d="M477.1,631.4c4.2,4,8.2,8.2,12.1,12.4,1.3,1.4,3.4-.7,2.1-2.1-3.9-4.3-7.9-8.4-12.1-12.4a1.48,1.48,0,0,0-2.1,2.1Z" transform="translate(-232.02 -118.31)"/><path class="cls-7" d="M518.8,605c4,4.7,8,9.5,12.1,14.2,1.2,1.5,3.4-.7,2.1-2.1-4-4.7-8-9.5-12.1-14.2-1.3-1.5-3.4.7-2.1,2.1Z" transform="translate(-232.02 -118.31)"/><path class="cls-7" d="M536.5,594.4c4,4.2,7.8,8.6,11.6,13,1.3,1.5,3.4-.7,2.1-2.1-3.8-4.4-7.6-8.8-11.6-13-1.3-1.4-3.4.7-2.1,2.1Z" transform="translate(-232.02 -118.31)"/><path class="cls-7" d="M548.2,586.6c6.4,3,12.7,5.9,19.1,8.9,1.7.8,3.3-1.8,1.5-2.6-6.4-3-12.7-5.9-19.1-8.9-1.7-.8-3.3,1.8-1.5,2.6Z" transform="translate(-232.02 -118.31)"/><path class="cls-7" d="M564.6,576.5c5.6,3.5,11.3,6.8,17.1,9.8,1.7.9,3.2-1.7,1.5-2.6-5.8-3-11.5-6.3-17.1-9.8-1.6-1.1-3.1,1.5-1.5,2.6Z" transform="translate(-232.02 -118.31)"/><path class="cls-8" d="M654.3,372.9c-1.2,11.1-2.2,22.5-2.8,34.4a569.62,569.62,0,0,0,8.4,130.3c21.1-.1,38.1-.4,48.8-.7,73.4-1.8,105.2-6.1,170.6-6.3,16.6,0,29.9.2,37.6.4,2.6-10.4,4.9-21.4,6.7-33,8.1-52.8,3-99.4-4.9-135.5a433.84,433.84,0,0,0-58.3-7c-16.1-.8-20.6-.2-85.3,2.8-46,2.1-58.3,2.5-79.7,6A356.63,356.63,0,0,0,654.3,372.9Z" transform="translate(-232.02 -118.31)"/><path class="cls-7" d="M1048.6,572.3a324.94,324.94,0,0,1-.7,40.7c-.1,1.9,2.9,1.9,3,0a325.26,325.26,0,0,0,.7-40.7c-.1-2-3.1-2-3,0Z" transform="translate(-232.02 -118.31)"/><path class="cls-7" d="M1066.2,575.2V613a1.5,1.5,0,0,0,3,0V575.2a1.5,1.5,0,0,0-3,0Z" transform="translate(-232.02 -118.31)"/><path class="cls-7" d="M1048.3,611.6c-3.2-.2-15.5,2-13,7.7,1.1,2.6,5.5,2.8,7.7,3.2a99.59,99.59,0,0,0,15.4,1,148.59,148.59,0,0,0,14.9-.7c2.3-.3,7-.8,8.4-3.1,3.1-5.3-10.7-7.8-13.3-8.2-1.9-.3-2.7,2.6-.8,2.9a38.52,38.52,0,0,1,6.5,1.6c2.9,1,5.7,1.6,2.1,3.3-4,1.8-10.5,1.1-14.8,1.2a108.89,108.89,0,0,1-15.1-.5c-1.9-.2-9.5-.1-5.8-3.7,1.8-1.8,5.6-1.8,7.9-1.7,1.9.1,1.9-2.9-.1-3Z" transform="translate(-232.02 -118.31)"/><path class="cls-7" d="M971.4,558.8a386.85,386.85,0,0,0,76.9,14.7c1.9.2,1.9-2.8,0-3A378.78,378.78,0,0,1,972.2,556c-1.8-.6-2.6,2.3-.8,2.8Z" transform="translate(-232.02 -118.31)"/><path class="cls-7" d="M1066.5,575.5c33.4,5.9,67.4,8.1,101.1,4.7,1.9-.2,1.9-3.2,0-3-33.5,3.3-67.2,1.3-100.3-4.6-1.9-.3-2.7,2.6-.8,2.9Z" transform="translate(-232.02 -118.31)"/><path class="cls-7" d="M972.4,556.4c-2.4-43.4-4.6-87.3,5-130.1.4-1.9-2.5-2.7-2.9-.8-9.6,43-7.4,87.2-5.1,130.9.1,1.9,3.1,1.9,3,0Z" transform="translate(-232.02 -118.31)"/><path class="cls-7" d="M976.1,427.3c32-6.8,65.9-5.9,98.5-5.3,32.1.6,64.4,3.5,95.2,13.1,1.8.6,2.6-2.3.8-2.9-31.1-9.7-63.6-12.6-96-13.2-32.8-.6-67-1.5-99.3,5.4-1.9.5-1.1,3.3.8,2.9Z" transform="translate(-232.02 -118.31)"/><path class="cls-7" d="M1169.9,434.4a413,413,0,0,1-3.7,143.7c-.4,1.9,2.5,2.7,2.9.8a417.37,417.37,0,0,0,3.7-145.3c-.3-1.9-3.2-1.1-2.9.8Z" transform="translate(-232.02 -118.31)"/><path class="cls-7" d="M319.4,503.5q26.1,67.2,52.2,134.3c.7,1.8,3.6,1,2.9-.8q-26.1-67.2-52.2-134.3c-.7-1.8-3.6-1-2.9.8Z" transform="translate(-232.02 -118.31)"/><path class="cls-7" d="M371,638.8q51,27.75,104.2,51.1c1.8.8,3.3-1.8,1.5-2.6q-53.1-23.4-104.2-51.1a1.5,1.5,0,0,0-1.5,2.6Z" transform="translate(-232.02 -118.31)"/><path class="cls-7" d="M477.2,690.1q68.4-47.1,136.9-94.3c1.6-1.1.1-3.7-1.5-2.6q-68.4,47.1-136.9,94.3c-1.6,1.1-.1,3.7,1.5,2.6Z" transform="translate(-232.02 -118.31)"/><path class="cls-7" d="M320.7,503.2a1386.85,1386.85,0,0,1,160.5-67.7c1.8-.6,1-3.5-.8-2.9a1406.46,1406.46,0,0,0-161.2,68c-1.8.9-.3,3.4,1.5,2.6Z" transform="translate(-232.02 -118.31)"/><path class="cls-7" d="M373.6,636.7q75.75-46.35,151.6-92.7c1.6-1,.1-3.6-1.5-2.6q-75.75,46.35-151.6,92.7c-1.6,1-.1,3.6,1.5,2.6Z" transform="translate(-232.02 -118.31)"/><path class="cls-7" d="M479.2,435.1q22.05,53.25,44,106.4c.7,1.8,3.6,1,2.9-.8q-22.05-53.25-44-106.4c-.7-1.8-3.6-1-2.9.8Z" transform="translate(-232.02 -118.31)"/><path class="cls-7" d="M525.3,543.3q44.1,25.2,88.1,50.5a1.5,1.5,0,0,0,1.5-2.6q-44.1-25.2-88.1-50.5c-1.7-.9-3.2,1.7-1.5,2.6Z" transform="translate(-232.02 -118.31)"/><path class="cls-7" d="M651.5,373.6c-4.1,54.5,1.1,109.1,6.4,163.3.2,1.9,3.2,1.9,3,0-5.3-54.3-10.5-108.8-6.4-163.3.2-1.9-2.8-1.9-3,0Z" transform="translate(-232.02 -118.31)"/><path class="cls-7" d="M653.9,374.9c31.8-11.6,66.1-12.4,99.5-14.4,34.7-2.1,69.5-4.8,104.2-3.8a355.66,355.66,0,0,1,60.8,6.6c1.9.4,2.7-2.5.8-2.9-34.6-7.1-69.9-7.7-105-6.3-35.4,1.4-71.1,3.1-106.3,6.5-18.6,1.8-37.1,4.9-54.8,11.3-1.8.8-1,3.7.8,3Z" transform="translate(-232.02 -118.31)"/><path class="cls-7" d="M918.4,362a432.22,432.22,0,0,1-2.2,167.7,17.1,17.1,0,0,0,1.4-1.1q-100.2,3.3-200.3,6.5l-56.8,1.8c-1.9.1-1.9,3.1,0,3q100.2-3.3,200.3-6.5l56.8-1.8a1.39,1.39,0,0,0,1.4-1.1,438.44,438.44,0,0,0,2.2-169.3c-.3-1.9-3.2-1.1-2.8.8Z" transform="translate(-232.02 -118.31)"/><path d="M1050.3,571.9c0,5.6-.1,11.3-.2,17-.2,8-.4,16-.7,23.8a13.55,13.55,0,0,0-7.2.9c-.3.1-5.9,2.5-5.7,4.6.5,3.6,18.4,4.1,28.2,3.7,5.6-.2,15.9-.6,16.2-2.8.2-1.7-5-3.9-12.4-6.1-.3-13.2-.6-26.5-.9-39.7C1061.8,572.8,1056,572.3,1050.3,571.9Z" transform="translate(-232.02 -118.31)"/><path class="cls-6" d="M984.9,437.3a596.58,596.58,0,0,0-3.5,99.1c.1,1.9,3.1,1.9,3,0a619,619,0,0,1,3.5-99.1c.2-1.9-2.8-1.9-3,0Z" transform="translate(-232.02 -118.31)"/><path class="cls-6" d="M987.3,438.5c13.8-5.1,28.4-6.4,43-6.6,14.4-.1,28.8.4,43.1,1.3a643.88,643.88,0,0,1,88.6,12c1.9.4,2.7-2.5.8-2.9a640.25,640.25,0,0,0-89.4-12.1c-14.9-1-30-1.5-44.9-1.3-14.2.2-28.5,1.7-41.9,6.7-1.9.6-1.1,3.5.7,2.9Z" transform="translate(-232.02 -118.31)"/><path class="cls-6" d="M1161.8,444c1.5,39-2.1,78-6,116.8-.2,1.9,2.8,1.9,3,0,3.9-38.8,7.4-77.8,6-116.8-.1-1.9-3.1-1.9-3,0Z" transform="translate(-232.02 -118.31)"/><path class="cls-6" d="M981.9,538.6c11.8,7,26.8,9.2,40,12.1,15.3,3.4,30.8,6.2,46.4,8.4,14.7,2.1,29.5,3.6,44.4,4.6,14.6,1,30.1,2.6,44.5-.3,1.9-.4,1.1-3.3-.8-2.9-14.4,3-30.1,1.1-44.7.2-14.9-1-29.8-2.6-44.5-4.7-14.3-2.1-28.5-4.6-42.6-7.7-13.5-3-29.1-5.2-41.2-12.2a1.46,1.46,0,1,0-1.5,2.5Z" transform="translate(-232.02 -118.31)"/><path class="cls-6" d="M985.5,452c59.3-3.6,118.6,3,177.2,11.2,1.9.3,2.7-2.6.8-2.9-58.9-8.3-118.4-14.9-178-11.3-1.9.1-1.9,3.1,0,3Z" transform="translate(-232.02 -118.31)"/><path class="cls-6" d="M1005.8,442.1a.66.66,0,0,1,0-1.3c.9-.4,1.6.6,1.5,1.4-.1,1.3-1.6.4-1.4-.3l.3-.3c-.1.1-.2-.1-.2-.1.1-.2.7-.7.7,0a1.5,1.5,0,0,0-3,0,2.61,2.61,0,0,0,2.7,2.6,2.51,2.51,0,0,0,2.5-3,2.93,2.93,0,0,0-3.3-2.5,3.47,3.47,0,0,0-2.8,3.6c.3,3.7,5.7,5,7.1,1.3a4.28,4.28,0,0,0-4.7-5.8,3.62,3.62,0,0,0-3,3.4,3.87,3.87,0,0,0,2.7,3.8,1.47,1.47,0,0,0,.9-2.8Z" transform="translate(-232.02 -118.31)"/><path class="cls-6" d="M1021.8,440.2c-.5-.1,0-.5.3-.5.6.1.5.8,0,.8h-.1a.44.44,0,0,1-.1-.3v-.3a.1.1,0,0,1-.1.1c-.2,0,.2-.1.1,0,.7-.3-.1.2.1,0v-.2h0a1.43,1.43,0,0,0-1.8,1,1.51,1.51,0,0,0,1,1.8,2.85,2.85,0,0,0,3.4-1.5,2.68,2.68,0,0,0-.8-3.5,3.12,3.12,0,0,0-5,2.7,3.27,3.27,0,0,0,5.7,1.9,3.46,3.46,0,1,0-6-3,3.15,3.15,0,0,0,2.3,3.7,1.44,1.44,0,1,0,1-2.7Z" transform="translate(-232.02 -118.31)"/><path class="cls-6" d="M1051.7,479.6c-13.5,5.6-26.8,11.5-40,17.6-1.3.6-.7,2.4.4,2.7a203.08,203.08,0,0,1,32.5,14.9,1.5,1.5,0,0,0,1.5-2.6,203.06,203.06,0,0,0-33.2-15.2,25.12,25.12,0,0,0,.4,2.7c13-6,26.1-11.8,39.3-17.3,1.7-.7.9-3.6-.9-2.8Z" transform="translate(-232.02 -118.31)"/><path class="cls-6" d="M1089.4,475.1l-33.8,42.8c-1.2,1.5.9,3.6,2.1,2.1l33.8-42.8c1.2-1.4-.9-3.6-2.1-2.1Z" transform="translate(-232.02 -118.31)"/><path class="cls-6" d="M1104.5,491.7a237.09,237.09,0,0,0,29.3,15.9V505c-10.8,6.1-21.6,12.2-32.4,18.2-1.7.9-.2,3.5,1.5,2.6,10.8-6.1,21.6-12.2,32.4-18.2a1.54,1.54,0,0,0,0-2.6,237.09,237.09,0,0,1-29.3-15.9c-1.6-1.1-3.1,1.5-1.5,2.6Z" transform="translate(-232.02 -118.31)"/><path class="cls-6" d="M1106.4,555.7c12.4.3,24.7.6,37.1.8a1.5,1.5,0,0,0,0-3c-12.4-.3-24.7-.6-37.1-.8a1.5,1.5,0,0,0,0,3Z" transform="translate(-232.02 -118.31)"/><path class="cls-6" d="M329.2,506.2q23.1,55.05,43.4,111.2c.7,1.8,3.6,1,2.9-.8q-20.4-56.1-43.4-111.2c-.8-1.8-3.7-1-2.9.8Z" transform="translate(-232.02 -118.31)"/><path class="cls-6" d="M331,505.4c47.6-19.5,95.2-39.1,142.5-59.3,1.8-.8.2-3.3-1.5-2.6-47.1,20.1-94.4,39.6-141.8,59-1.8.8-1,3.7.8,2.9Z" transform="translate(-232.02 -118.31)"/><path class="cls-6" d="M473.2,445.3q21,44.85,39.1,90.8c.7,1.8,3.6,1,2.9-.8Q496.9,489,475.8,443.7c-.8-1.6-3.4-.1-2.6,1.6Z" transform="translate(-232.02 -118.31)"/><path class="cls-6" d="M376.2,619.5q35.1-19.65,69.4-40.3c11.3-6.8,22.6-13.7,33.8-20.7,11-6.9,22-13.9,33.9-19.3,1.8-.8.2-3.4-1.5-2.6-11.9,5.4-22.9,12.4-33.9,19.3-11.2,7-22.5,13.9-33.8,20.7-22.9,13.8-46.1,27.2-69.4,40.3a1.5,1.5,0,0,0,1.5,2.6Z" transform="translate(-232.02 -118.31)"/><path class="cls-6" d="M464,556.4c7.5-4.8,15.1-9.7,22.6-14.5,1.6-1,.1-3.6-1.5-2.6-7.5,4.8-15.1,9.7-22.6,14.5-1.6,1.1-.1,3.7,1.5,2.6Z" transform="translate(-232.02 -118.31)"/><path class="cls-6" d="M493,538.6c1.9-.9,3.8-1.8,5.8-2.7,1.7-.8.2-3.4-1.5-2.6-1.9.9-3.8,1.8-5.8,2.7-1.8.8-.2,3.4,1.5,2.6Z" transform="translate(-232.02 -118.31)"/><path class="cls-6" d="M446.9,463.6h0a6.37,6.37,0,0,0,.2-.7c0-.1.1-.1.1-.2a4.35,4.35,0,0,1,.7-.4c-.3.1.6.1.7.1.3.1.3.3.4.5s0-.2,0,0,0-.2,0,0h0l-.1.1a.35.35,0,0,0-.2.1c-.2.1-.1-.1,0,0h-.1a.1.1,0,0,1-.1-.1c-.1-.1,0-.1,0,.1h0s-.1-.3,0-.3a1,1,0,0,0-.1.3c.1-.3-.1.1,0-.1l.1-.1c-.1.1.2,0,.2,0s.2,0,.2.1.1.1,0,0,.1.3.1.1v.4a.62.62,0,0,1-.6.4h-.1c.2.1,0,0-.1,0,.2.1-.1-.1-.1-.1a.9.9,0,0,1-.1-.5c0-.3,0-.4.3-.6l.1-.1c.1,0,.1-.1.2-.1h.2c-.2-.1.1.1.2.1a1,1,0,0,1,.4.7,1.5,1.5,0,0,0-3,0c0,2.8,4.5,2.8,4.6.1s-4.2-3.2-4.8-.6a2.75,2.75,0,0,0,1.9,3.1,2.63,2.63,0,0,0,3-1.4,2.91,2.91,0,0,0-4-3.9,2.7,2.7,0,0,0-.9,3.6,2.34,2.34,0,0,0,1.8,1.1,1.86,1.86,0,0,0,1.8-1.8,1.54,1.54,0,0,0-1.5-1.5,1.82,1.82,0,0,0-1.4,1.6Z" transform="translate(-232.02 -118.31)"/><path class="cls-6" d="M460.5,457.6c.8-.2,1.1,1.1.3,1.2-.1,0-.4-.1-.3-.1h0c-.2-.2-.1-.1,0,.1,0-.1,0-.1-.1-.2h0v-.1a.76.76,0,0,1,.2-.4c.1-.1.3-.1.4-.2h0c.1,0,.1,0,.2.1h0l.1.1h0c0,.1,0,.5.1.3l-1,1a1.85,1.85,0,0,1,.7-.2h0c-.1-.1-.2-.1-.3-.3s-.1-.4-.1-.3.1-.3,0-.1a1,1,0,0,1,.9-.7,1.5,1.5,0,0,0,0,3c2.3,0,2.8-3.2.9-4.3a3.5,3.5,0,0,0-3,0,2.05,2.05,0,0,0-.8,3c1,1.8,3.9,2,4.6-.2a2.78,2.78,0,0,0-3-3.5,2.48,2.48,0,0,0-1.9,2.9,2.32,2.32,0,0,0,2.9,1.7,1.4,1.4,0,0,0,1-1.8,1.51,1.51,0,0,0-1.8-1Z" transform="translate(-232.02 -118.31)"/><path class="cls-6" d="M660.4,378.9q1.2,75.15,8,150c.2,1.9,3.2,1.9,3,0q-6.75-74.85-8-150a1.5,1.5,0,0,0-3,0Z" transform="translate(-232.02 -118.31)"/><path class="cls-6" d="M663.9,380.5c20.5-3.6,41.3-4.3,62-5.2,20.1-.8,40.3-1.6,60.4-2.3q60.9-2.25,121.8-3.8a1.5,1.5,0,0,0,0-3q-62,1.65-123.8,3.8c-20.5.7-40.9,1.5-61.4,2.4-20,.8-40,1.7-59.8,5.2-1.8.3-1,3.2.8,2.9Z" transform="translate(-232.02 -118.31)"/><path class="cls-6" d="M907.6,368.5c5.6,10.7,5.3,23.1,5.6,34.8q.45,18.3.3,36.6c-.2,24.4-1.1,48.7-2.8,73.1-.1,1.9,2.9,1.9,3,0,1.7-25.6,2.7-51.3,2.8-77,.1-12.5-.1-25-.4-37.6-.3-10.8-.7-21.6-5.9-31.4-.9-1.7-3.5-.2-2.6,1.5Z" transform="translate(-232.02 -118.31)"/><path class="cls-6" d="M670.6,529.3c78.8-14.6,159.8-12.7,239.5-14a1.5,1.5,0,0,0,0-3c-80.1,1.3-161.3-.5-240.3,14.1-1.9.4-1.1,3.3.8,2.9Z" transform="translate(-232.02 -118.31)"/><path class="cls-6" d="M690.5,387.4a98,98,0,0,0-11.4,9,1.57,1.57,0,0,0,.3,2.4c3.6,2.2,8.9,1.7,11.7,5,1.2,1.5,3.3-.6,2.1-2.1-3.1-3.8-8.4-3.1-12.3-5.5l.3,2.4a98.46,98.46,0,0,1,10.8-8.5c1.6-1.2.1-3.8-1.5-2.7Z" transform="translate(-232.02 -118.31)"/><path class="cls-6" d="M707,385.9A117.83,117.83,0,0,0,696.6,405c-.8,1.8,1.8,3.3,2.6,1.5a113.79,113.79,0,0,1,10.4-19.1c1-1.6-1.6-3.1-2.6-1.5Z" transform="translate(-232.02 -118.31)"/><path class="cls-6" d="M712.9,397.6a64.64,64.64,0,0,1,13.9-.3c1.9.2,1.9-2.8,0-3a64.5,64.5,0,0,0-13.9.3c-1.9.2-2,3.2,0,3Z" transform="translate(-232.02 -118.31)"/><path class="cls-6" d="M730.2,386.8c3.6,5,10.2,5.4,14.3,9.7l.3-2.4a61.79,61.79,0,0,0-12,8.8c-1.4,1.3.7,3.4,2.1,2.1a61.53,61.53,0,0,1,11.4-8.3,1.51,1.51,0,0,0,.3-2.4c-3.9-4-10.6-4.5-13.9-9.1-1.1-1.4-3.7.1-2.5,1.6Z" transform="translate(-232.02 -118.31)"/><path class="cls-6" d="M669.9,423.6l12.3-.9c1.9-.1,1.9-3.1,0-3l-12.3.9c-1.9.2-1.9,3.2,0,3Z" transform="translate(-232.02 -118.31)"/><path class="cls-6" d="M691.8,422c27.7-1.6,55.4-3.3,83.1-4.9,1.9-.1,1.9-3.1,0-3-27.7,1.6-55.4,3.3-83.1,4.9-1.9.1-2,3.1,0,3Z" transform="translate(-232.02 -118.31)"/><path class="cls-6" d="M671.5,435.6h6.8a1.5,1.5,0,0,0,0-3h-6.8a1.5,1.5,0,0,0,0,3Z" transform="translate(-232.02 -118.31)"/><path class="cls-6" d="M686.6,434.4a24,24,0,0,0,8-.8,1.5,1.5,0,0,0-.8-2.9,21.75,21.75,0,0,1-7.2.6c-1.9,0-1.9,3,0,3.1Z" transform="translate(-232.02 -118.31)"/><path class="cls-6" d="M711.2,432.3a581.23,581.23,0,0,1,79.2-2.1c1.9.1,1.9-2.9,0-3a582.09,582.09,0,0,0-79.2,2.1c-1.9.1-1.9,3.1,0,3Z" transform="translate(-232.02 -118.31)"/><path class="cls-6" d="M675.2,450.6a63.1,63.1,0,0,1-5.5,6.1,1.51,1.51,0,0,0,.7,2.5,38.28,38.28,0,0,0,9.5,1.4,1.5,1.5,0,0,0,0-3,28.67,28.67,0,0,1-8.7-1.3,23.35,23.35,0,0,0,.7,2.5,53.15,53.15,0,0,0,5.5-6.1c1.1-1.5-1.1-3.7-2.2-2.1Z" transform="translate(-232.02 -118.31)"/><path class="cls-6" d="M685.4,456.5a204,204,0,0,1,41.3-3.6,1.5,1.5,0,0,0,0-3,198.05,198.05,0,0,0-42.1,3.7c-1.8.4-1,3.2.8,2.9Z" transform="translate(-232.02 -118.31)"/><path class="cls-6" d="M730.8,449c4.9,2.5,10.8.8,15.5,3.5a25.12,25.12,0,0,1,.4-2.7,27.93,27.93,0,0,0-7.7,3.9c-1.6,1.1-.1,3.7,1.5,2.6a29,29,0,0,1,7-3.6,1.51,1.51,0,0,0,.4-2.7c-4.8-2.9-10.6-1-15.5-3.5-1.8-1-3.3,1.6-1.6,2.5Z" transform="translate(-232.02 -118.31)"/><path class="cls-6" d="M863.2,378.8a5.2,5.2,0,0,0-4.4,4.4,12.38,12.38,0,0,0,.5,4.7c1,4.4.4,6.6-3.6,9a1.52,1.52,0,0,0,.8,2.8c4.2-.1,2.7,19.3,11.6,12.8,1.6-1.1.1-3.7-1.5-2.6-4.1,2.9-3.8-6.6-4-7.6a9.64,9.64,0,0,0-1-3,5.22,5.22,0,0,0-5.1-2.6c.3.9.5,1.9.8,2.8,2.3-1.4,4.7-3,5.6-5.7.8-2.4-2.6-11.4,1.2-12.1,1.8-.3,1-3.2-.9-2.9Z" transform="translate(-232.02 -118.31)"/><path class="cls-6" d="M882.7,380c3.4-.5,4.7,1.5,4.1,6.2-.3.6-.6,1.1-.9,1.7a12.66,12.66,0,0,0-.6,2.8c0,2.1,1.4,2.5,2.1,4.1s-.1,1.3-.3,3.2c-.6,4,4.9,7.3-.3,10.9-1.6,1.1-.1,3.7,1.5,2.6a7.87,7.87,0,0,0,3.8-6.5,10.89,10.89,0,0,0-.8-3.1,11.78,11.78,0,0,1,.5-6.7,1.67,1.67,0,0,0-.4-1.5,13.44,13.44,0,0,1-1.4-1.1c-2.4-2.4-.8-3.6.3-6.3.6-1.6,1.1-2.9.6-4.6-.9-3.6-4.7-4.8-8-4.7-2.1,0-2.1,3-.2,3Z" transform="translate(-232.02 -118.31)"/><path class="cls-6" d="M773.3,396c15.8-1.3,31.5-2.5,47.3-3.8,1.9-.2,1.9-3.2,0-3-15.8,1.3-31.5,2.5-47.3,3.8-1.9.1-1.9,3.1,0,3Z" transform="translate(-232.02 -118.31)"/><path class="cls-6" d="M841.3,391.2A34.86,34.86,0,0,0,852,391c1.9-.3,1.1-3.2-.8-2.9a36.47,36.47,0,0,1-9.9.1c-1.9-.3-1.9,2.7,0,3Z" transform="translate(-232.02 -118.31)"/><path class="cls-6" d="M681,477.3c26.5-1.7,53-3.5,79.5-5.2,1.9-.1,1.9-3.1,0-3-26.5,1.7-53,3.5-79.5,5.2-1.9.1-1.9,3.1,0,3Z" transform="translate(-232.02 -118.31)"/><path class="cls-6" d="M777.7,470c10.1-1,20.1-1.9,30.2-2.8,1.9-.2,1.9-3.2,0-3-10.1.8-20.2,1.8-30.2,2.8-1.9.2-1.9,3.2,0,3Z" transform="translate(-232.02 -118.31)"/><path class="cls-6" d="M830.6,466.1c19.7-2,39.5-3.5,59.2-4.4,1.9-.1,1.9-3.1,0-3-19.8,1-39.5,2.4-59.2,4.4-1.9.2-1.9,3.2,0,3Z" transform="translate(-232.02 -118.31)"/><path class="cls-6" d="M692.8,487.2l-11.2,7.9a1.48,1.48,0,0,0,.4,2.7,117.42,117.42,0,0,0,11.8,2.4c1.9.3,2.7-2.6.8-2.9a117.42,117.42,0,0,1-11.8-2.4,25.12,25.12,0,0,0,.4,2.7l11.2-7.9c1.5-1.1,0-3.7-1.6-2.5Z" transform="translate(-232.02 -118.31)"/><path class="cls-6" d="M708.1,485.5a141.91,141.91,0,0,0-11.9,15.8c-1.1,1.6,1.5,3.1,2.6,1.5a128.19,128.19,0,0,1,11.4-15.2c1.3-1.4-.8-3.6-2.1-2.1Z" transform="translate(-232.02 -118.31)"/><path class="cls-6" d="M717,489.8a14.15,14.15,0,0,0,4.1,2c.9.3,1.8.5,2.7.8a7.14,7.14,0,0,1,1.5.8q-.15-1-.9-.6c-1.3-.1-3.8,1.5-5,2.1a36.12,36.12,0,0,0-5.3,3.3c-1.5,1.1,0,3.7,1.5,2.6a32.31,32.31,0,0,1,7.2-4.2c1.6-.7,5-1,5.5-3.1.4-1.8-1.6-2.8-2.9-3.4-2.3-1-4.9-1.3-7-2.8-1.4-1.2-2.9,1.4-1.4,2.5Z" transform="translate(-232.02 -118.31)"/><path class="cls-6" d="M750.3,494c12.3-1,24.6-2.3,36.9-1.6,1.9.1,1.9-2.9,0-3-12.4-.7-24.6.6-36.9,1.6-2,.1-2,3.1,0,3Z" transform="translate(-232.02 -118.31)"/><path class="cls-6" d="M813.9,489.5a505.35,505.35,0,0,1,69.6-3.2,1.5,1.5,0,0,0,0-3,522.34,522.34,0,0,0-69.6,3.2c-1.9.2-1.9,3.2,0,3Z" transform="translate(-232.02 -118.31)"/><path class="cls-11" d="M985.5,436.1c-.5,5-1,10.1-1.4,15.1,28.9-.9,60.6-.6,94.6,1.6,30.1,2,58.2,5.2,83.9,9.2.6-6.3,1.1-12.6,1.7-18.9-11.6-2.3-26.9-5-44.9-7.5-23.1-3.2-40.7-4.6-50.3-5.3-24.3-1.7-36.7-2.5-53.2-.5A214.71,214.71,0,0,0,985.5,436.1Z" transform="translate(-232.02 -118.31)"/><path class="cls-12" d="M379.7,474.1a168.11,168.11,0,0,0-9.2,38.2c-2.3,19.9-8.2,70.7,18.4,86.2,18.2,10.6,47.2,2.2,71.7-17.8,4.2,3.4,8.5,6.7,12.7,10.1l-74.7,45.3c17.6,10.5,35.2,20.9,52.7,31.4,19-11.3,37.9-22.5,56.9-33.8,9.6,4.7,19.2,9.5,28.7,14.2-19.9,14-39.7,28-59.6,42.1q-52.05-25.95-104-51.9-26.4-68.55-52.7-137.2C340.4,492.1,360.1,483.1,379.7,474.1Z" transform="translate(-232.02 -118.31)"/><path class="cls-13" d="M484.9,633.5" transform="translate(-232.02 -118.31)"/><path class="cls-14" d="M1106,422.6a112.52,112.52,0,0,1,7.1,24.1c.7,4.2,6.2,37.5-8.5,66.8-15.7,31.4-51.2,51.6-91.2,53.9a576.62,576.62,0,0,0,106.2,12.9c16.8.5,32.8.2,47.8-.7a343.74,343.74,0,0,0,9.2-61.1,352.66,352.66,0,0,0-5.4-85.5C1149.4,429.7,1127.7,426.1,1106,422.6Z" transform="translate(-232.02 -118.31)"/><path class="cls-9" d="M858,355.8a86.58,86.58,0,0,1,9.7,28.8c4.5,30.2-9,54.3-18.3,70.5-28,48.5-74.7,71.8-95.5,80.7,43.4-.3,88-1.6,133.6-4.3,10.2-.6,20.3-1.2,30.4-1.9a402.27,402.27,0,0,0,2-168.3Q889,358.45,858,355.8Z" transform="translate(-232.02 -118.31)"/></g></g><g id="guy_chair" data-name="guy &amp; chair"><g id="leg_right" data-name="leg right"><path d="M830,992.2q1.5,10.2,2.7,21.3c.9,8.5,1.4,16.7,1.8,24.5a14.57,14.57,0,0,0,4.5,5.1c3.6,2.5,7.5,2.5,11.7,2.4,12.2-.3,18.3-.4,21-.9,9.5-1.9,18.5-3.6,20.4-9.6,1.3-4-1.3-8.4-1.5-8.7-1.5-2.5-3.5-3.6-6.9-5.4a29.34,29.34,0,0,0-22.8-3c-1.3-10.6-2.6-21.2-3.9-31.7Z" transform="translate(-232.02 -118.31)"/><path class="cls-8" d="M811.9,794.3c-8.1,8.8-5.6,18.2-8.9,74.9-1.3,22.8-1.8,21.7-2.2,35.4a480.74,480.74,0,0,0,1.6,63.4c.7,7.9,1.6,14.5,2.2,19.1,5.9,3,16,7,28.4,5.7,7.3-.7,12.8-3.1,16.9-4.8a75.59,75.59,0,0,0,19.8-12.4l-5.1-189.3C829.3,779.6,816.6,789.2,811.9,794.3Z" transform="translate(-232.02 -118.31)"/><path class="cls-7" d="M805,802.6a1137.15,1137.15,0,0,0-2.1,182.7c.1,1.9,3.1,1.9,3,0A1137.28,1137.28,0,0,1,808,802.6c.2-1.9-2.8-1.9-3,0Z" transform="translate(-232.02 -118.31)"/><path class="cls-7" d="M804.4,988.2c22.2,11.5,47.7,4.9,65.5-11.4,1.4-1.3-.7-3.4-2.1-2.1-16.8,15.4-40.9,21.8-61.9,11-1.7-1-3.2,1.6-1.5,2.5Z" transform="translate(-232.02 -118.31)"/><path class="cls-7" d="M862.3,788.9l4.8,185.4c.1,1.9,3.1,1.9,3,0l-4.8-185.4a1.5,1.5,0,0,0-3,0Z" transform="translate(-232.02 -118.31)"/><path class="cls-7" d="M828.7,993.5a250.63,250.63,0,0,1,4.5,36.6c.1,1.9,3.1,1.9,3,0a246.56,246.56,0,0,0-4.6-37.4c-.4-1.9-3.3-1.1-2.9.8Z" transform="translate(-232.02 -118.31)"/><path class="cls-7" d="M855.5,986c.6,13.1,1.8,26.1,3.6,39.1.3,1.9,3.2,1.1,2.9-.8a378.43,378.43,0,0,1-3.5-38.3c-.1-1.9-3.1-1.9-3,0Z" transform="translate(-232.02 -118.31)"/><path class="cls-7" d="M860.6,1018.5a36.58,36.58,0,0,1,29.5,9.1c1.4,1.3,3.6-.8,2.1-2.1a39.42,39.42,0,0,0-31.6-10c-1.9.2-1.9,3.2,0,3Z" transform="translate(-232.02 -118.31)"/><path class="cls-7" d="M833.2,1029c-.5,6.3-.2,13.9,6.5,16.8,2.6,1.1,5.9,1.2,8.7,1.4a115.45,115.45,0,0,0,14.4.4c11.5-.6,33.8-5.2,30.5-21.3-.4-1.9-3.3-1.1-2.9.8,2.9,14.2-19.9,17.3-29.4,17.6a98,98,0,0,1-15.3-.7c-9-1.1-10.1-7-9.5-14.9.1-2-2.9-2-3-.1Z" transform="translate(-232.02 -118.31)"/><path class="cls-10" d="M807,802c9.8-3.5,19.6-7,29.4-10.4-1.7,32.5-2.1,68-.4,106,1.4,32.4,4.2,62.8,7.7,90.9a39.29,39.29,0,0,1-6.6,2.3c-13.8,3.6-26.1-1-32.1-3.9A986,986,0,0,1,801.9,877C802.7,850.5,804.5,825.5,807,802Z" transform="translate(-232.02 -118.31)"/><path class="cls-15" d="M806.2,804c.4,17.5,1.5,40.2,3.9,66.5,1.9,20.9,4,36.5,4.6,41.4,2.9,21.1,7.3,48.5,14.7,80.5-8.4-1.9-16.8-3.9-25.1-5.8-1.5-32.1-2.2-66.1-1.5-101.8C803.2,856.7,804.4,829.7,806.2,804Z" transform="translate(-232.02 -118.31)"/></g><g id="chair"><path d="M784.9,876.6c.6,3.1,1.4,7.6,2.4,13.2,5.9,35.6,5.8,61.2,6.4,82.8.5,18.4,1.7,44.7,5.1,77.4-2.1.9-5.3,2.4-9.1,4.4-9.4,4.9-22,11.5-33.8,23.7a100.5,100.5,0,0,0-13.2,16.9,333.73,333.73,0,0,0,122-10.8c-5.4-4.6-11.4-9.2-17.9-13.9a276.9,276.9,0,0,0-35.1-21c-2.4-23.3-4.3-47.8-5.4-73.3-1.7-39.4-1.5-76.5,0-110.9C799.1,869,792,872.8,784.9,876.6Z" transform="translate(-232.02 -118.31)"/><path class="cls-8" d="M710.9,828c0-4.6,5.3-8.5,15.9-16.2,5-3.7,18.8-13,41.9-18.3,20.3-4.6,35.9-3.3,54.8-1.7,26.9,2.3,39.3,7.7,42.6,9.1a100.13,100.13,0,0,1,22,13.5A56.35,56.35,0,0,1,875.9,837c-4.9,5.6-18.3,18.4-55.4,21.3C769,862.5,710.8,844.7,710.9,828Z" transform="translate(-232.02 -118.31)"/><path d="M713.9,822.2a52.53,52.53,0,0,0-3.4,9.5,61.09,61.09,0,0,0,.3,31.1,166.58,166.58,0,0,0,22.6,8.4c29.2,8.7,53,7.5,72.3,6.4,25.4-1.4,41.8-2.6,60.8-12.5a106.1,106.1,0,0,0,23.3-16.6c-.3-10.9-.7-21.9-1-32.8a154.7,154.7,0,0,1-28.4,14.9C798.4,855.4,737,832.4,713.9,822.2Z" transform="translate(-232.02 -118.31)"/><path class="cls-7" d="M709.2,829a92.53,92.53,0,0,0,.1,34c.4,1.9,3.2,1.1,2.9-.8a88.23,88.23,0,0,1-.1-32.4c.4-1.9-2.5-2.7-2.9-.8Z" transform="translate(-232.02 -118.31)"/><path class="cls-7" d="M710.2,863c13.5,8.7,29.8,10.9,45.4,13.2,16.8,2.4,33.7,3.8,50.7,2.4,29.1-2.4,65-5.2,84.9-29.5,1.2-1.5-.9-3.6-2.1-2.1-9.4,11.5-22.9,18.1-37.1,21.8-15.4,4-31.7,5.8-47.6,6.9-16.7,1.2-33.4-.3-49.9-2.7-14.7-2.2-30.1-4.3-42.8-12.6-1.6-1-3.1,1.6-1.5,2.6Z" transform="translate(-232.02 -118.31)"/><path class="cls-7" d="M887,816.2a121.75,121.75,0,0,1,1.7,31.3c-.1,1.9,2.9,1.9,3,0a127.79,127.79,0,0,0-1.8-32.1c-.3-1.9-3.2-1.1-2.9.8Z" transform="translate(-232.02 -118.31)"/><path class="cls-7" d="M712,829.3c15.9-27.4,51.5-35.4,80.9-37.1a181.23,181.23,0,0,1,51.9,4.4,170,170,0,0,1,24,7.3c7.4,2.9,14.6,6.8,18.3,14.2.9,1.7,3.5.2,2.6-1.5-7.1-14-26.6-18.5-40.5-22a186.71,186.71,0,0,0-56.2-5.3c-30.4,1.8-66.9,10.2-83.4,38.6-1.2,1.5,1.4,3,2.4,1.4Z" transform="translate(-232.02 -118.31)"/><path class="cls-7" d="M784.6,877.7q9.45,85.35,12.7,171.2c.1,1.9,3.1,1.9,3,0q-3.15-85.8-12.7-171.2c-.2-1.9-3.2-1.9-3,0Z" transform="translate(-232.02 -118.31)"/><path class="cls-7" d="M803.6,877.7q.3,86.25,5.8,172.3c.1,1.9,3.1,1.9,3,0q-5.55-86.1-5.8-172.3c-.1-1.9-3.1-1.9-3,0Z" transform="translate(-232.02 -118.31)"/><path class="cls-7" d="M797.1,1048a144.71,144.71,0,0,0-56.2,46.1,1.52,1.52,0,0,0,.9,2.2c20.7,3.4,41.6,1.7,62.3-.6,20.2-2.2,40.6-4.4,60.1-10.2,1-.3,1.6-1.8.7-2.5a254.6,254.6,0,0,0-52.9-34.2c-1.7-.8-3.3,1.8-1.5,2.6a248.39,248.39,0,0,1,52.3,33.7,23.35,23.35,0,0,1,.7-2.5c-19.3,5.8-39.4,7.9-59.3,10.1-20.4,2.3-41.1,4-61.5.7.3.7.6,1.5.9,2.2a141.11,141.11,0,0,1,55.1-45c1.6-.8.1-3.4-1.6-2.6Z" transform="translate(-232.02 -118.31)"/></g><g id="leg_left" data-name="leg left"><path d="M694.6,783.1c2.3,9.1,4.7,18.2,7,27.3a198.91,198.91,0,0,0-30.9-7.3c-5.6-.8-29.3-4.4-30.9.6-.6,1.9,2.2,4.8,2.5,5.1,2.3,2.3,5.1,2.5,7.6,3.1,5.1,1.1,6.8,3,12.1,5.6,8,4,25.3,10.3,44.7,13.8a181.06,181.06,0,0,0,25.6,2.8c-4.1-17.9-8.3-35.8-12.4-53.7C711.5,781.2,703,782.1,694.6,783.1Z" transform="translate(-232.02 -118.31)"/><path class="cls-8" d="M690.7,532.6c-4.5,1.8-8,5.4-13.6,16.3-9,17.4-11.8,29.8-11.8,29.8-8.4,37.3-12.5,56-14,70.5-4.6,46,3,48,2.7,96.3,0,3.6-.1,11.4,4.5,19,7.3,11.9,21.4,15.3,25.3,16.3,11.5,2.8,22.4.8,31.7-.9,2.6-.5,4.8-1,6.3-1.4a133.11,133.11,0,0,0,18.5,12.2c9.1,4.9,17,9.2,28,10.4a85.91,85.91,0,0,0,16.3,0,105.42,105.42,0,0,0,12.2-1.8,69.92,69.92,0,0,0,20.8,3.6c5.6.1,24,.2,40.2-11.8,14.5-10.7,19.5-25.1,23.1-35.7,3.4-10.2,16.4-48.9-3.2-69.6-17-18-49.3-12.8-75.1-8.6a165.79,165.79,0,0,0-29.8,7.7c-11.9-30.8-20.7-55.1-26.7-71.9-5.7-15.9-14-30.9-19-47-4.5-14.4-6.9-25.9-17.2-31.7C709.2,533.9,699.8,528.9,690.7,532.6Z" transform="translate(-232.02 -118.31)"/><path class="cls-7" d="M794.8,801.7c26.5,6.1,56.9,2.1,75.1-20.1,9.1-11.1,12-24.9,14.5-38.7,2.5-14.3,3.9-28.9-.7-42.9-.6-1.8-3.5-1-2.9.8,4.5,13.5,3.2,27.6.7,41.3-2.3,13.2-5,26.7-13.7,37.4-17.4,21.4-46.7,25.1-72.2,19.3a1.5,1.5,0,0,0-.8,2.9Z" transform="translate(-232.02 -118.31)"/><path class="cls-7" d="M735.1,585c-1.4-13.4-4.9-27.2-11.6-39-5-8.7-13-17-23.8-16.5-11.4.5-19.8,9.7-24.5,19.2-6.4,12.6-10.4,26.9-14.1,40.4a365.68,365.68,0,0,0-12.8,85.1,387.49,387.49,0,0,0,1.2,45.7c1.2,13.7,2.2,28.6,6.1,41.8,3.3,11.3,18.4,18,28.9,20.7a57.52,57.52,0,0,0,37.5-3.1c1.8-.8.2-3.4-1.5-2.6a54.47,54.47,0,0,1-33.8,3.2c-9.9-2.2-25-8.3-28.2-18.9-1.7-5.7-2.3-11.9-3.2-17.8-1.1-7.1-1.9-14.2-2.6-21.4-1.1-12.1-1.7-24.3-1.6-36.5a364.27,364.27,0,0,1,8.2-75.8,360.41,360.41,0,0,1,9.5-35.3c3.8-11.6,7.4-25.3,16.1-34.3,4.9-5,11.9-8.5,19-7.2,6.8,1.3,12,6.6,15.6,12.2,7.6,11.6,11.3,26.3,12.8,40,0,2,3,2.1,2.8.1Z" transform="translate(-232.02 -118.31)"/><path class="cls-7" d="M682.9,614.8a281.63,281.63,0,0,0,11.2,108.7c5.2,16.8,11.3,35.4,21.9,49.7,9.4,12.7,24.1,21.1,39,25.8,17.2,5.5,36.1,5.8,52.4-2.5,1.7-.9.2-3.5-1.5-2.6-14.9,7.6-32,7.6-47.7,3-16.1-4.7-32.2-13.9-41.6-28.1-9.2-14-15-30.9-19.8-46.9a275.25,275.25,0,0,1-10.4-50.1,284.75,284.75,0,0,1-.5-56.9c.2-2-2.8-2-3-.1Z" transform="translate(-232.02 -118.31)"/><path class="cls-7" d="M676.4,604.2a187.52,187.52,0,0,0,5.8,38.7,1.5,1.5,0,0,0,2.9-.8,173.65,173.65,0,0,1-5.7-37.9c-.1-1.9-3.1-1.9-3,0Z" transform="translate(-232.02 -118.31)"/><path class="cls-7" d="M733,585.2q28.35,67.65,50.1,138c.6,1.8,3.5,1.1,2.9-.8q-21.6-70.2-50.1-138c-.8-1.7-3.7-.9-2.9.8Z" transform="translate(-232.02 -118.31)"/><path class="cls-7" d="M692.8,784.5c2.6,9,5.2,18,7.8,27.1a1.5,1.5,0,0,0,2.9-.8c-2.6-9-5.2-18-7.8-27.1-.6-1.8-3.5-1-2.9.8Z" transform="translate(-232.02 -118.31)"/><path class="cls-7" d="M701.8,809.8a126.12,126.12,0,0,0-62.9-7.8c-.8.1-1.9.9-1.4,1.9,2.6,6.4,9.9,8.3,15.7,10.8,8.3,3.6,16.6,7.1,25.1,10.1,17,6.1,34.7,10.3,52.8,9.8a1.5,1.5,0,0,0,0-3c-16,.4-31.7-2.8-46.8-7.9-7.3-2.4-14.4-5.2-21.5-8.2-3.8-1.6-7.7-3.2-11.5-4.9s-9.2-3.3-11-7.6a23.07,23.07,0,0,0-1.4,1.9,124.22,124.22,0,0,1,62.1,7.7c1.8.8,2.5-2.1.8-2.8Z" transform="translate(-232.02 -118.31)"/><path class="cls-7" d="M718,779.1c2.1,18.5,10.9,35.5,12.2,54.1.1,1.9,3.1,1.9,3,0-1.3-18.6-10.1-35.6-12.2-54.1-.2-1.9-3.2-1.9-3,0Z" transform="translate(-232.02 -118.31)"/><path class="cls-15" d="M688.6,780c-3.4-8.7-8.1-21.7-12.6-37.7-1.9-6.9-14.1-52-11.5-110.4.7-15.3,2.4-32.2,14.6-44.5,4.7-4.7,10-10,14.6-8.9,19.2,4.5-15.3,106.5,33,161.6,24.8,28.3,60.6,31.9,66.4,32.4,51.4,4.6,86.1-32.3,90.5-37.1a64,64,0,0,1-4.2,26.2A66.55,66.55,0,0,1,852.2,794c-24.9,15.2-51,8.1-55.4,6.8a91,91,0,0,1-27.7,0c-24.6-3.8-41.2-16.8-48.6-23.5a39.42,39.42,0,0,1-16.7,4.7A37.78,37.78,0,0,1,688.6,780Z" transform="translate(-232.02 -118.31)"/><path class="cls-16" d="M680.2,603.2c1.3-.1,1.8,11.7,8.4,50.2,7.7,45.5,11.6,68.2,17.3,81.1,7.2,16.4,25.8,45.8,81.6,67.5a94.4,94.4,0,0,1-66.9-24.1c-6.3,1.4-12.6,2.8-18.8,4.2a449.81,449.81,0,0,1-12.6-45.5C673.6,666.5,677.3,603.4,680.2,603.2Z" transform="translate(-232.02 -118.31)"/></g><g id="hand_left" data-name="hand left"><path class="cls-8" d="M548.1,562.6c-.5,2.1,2.6,4.9,5.1,6.1a10.24,10.24,0,0,0,8.6,0,31.8,31.8,0,0,1,17.7,4c2.6,1.5,5,4.7,9.6,11.1,8.5,11.6,9.6,15.5,15.2,19.2a26,26,0,0,0,10.1,4c2.4,2.7,6.1,6.9,10.6,12.1,16.1,18.8,17.2,22.2,24.8,28.8,8.2,7.2,18.1,16,29.8,14.7,6.2-.7,11.2-4.1,19.2-12.1,16.6-16.7,28.1-35.1,38.4-56.1,11.1-22.6,13.6-33.6,14.7-38.9.6-3.3,6.5-33.1-2-36.9-3.3-1.5-7.6,1.4-14.1,6.6a211.78,211.78,0,0,0-38.4,39.9,323.61,323.61,0,0,0-25.8,44.5l-42.9-22.2a20.13,20.13,0,0,1-2-8.6c0-6.1,3.1-8.4,5.1-15.2,2.1-7,2.4-16.6-1-18.2-2.4-1.1-7,1.6-9.1,5.1s-.9,6.8-3,8.1c-2.7,1.7-7.6-1.7-8.1-2-5.4-3.8-4.9-8.5-9.1-16.2-4.5-8.3-10.5-12.9-14.1-15.7-5-3.8-10.6-8.1-16.2-6.6-.9.2-4.6,1.3-5.9,4.6a7,7,0,0,0-.2,4,9.27,9.27,0,0,0-8-1,8.77,8.77,0,0,0-5.6,6.6,8,8,0,0,0,.2,3.2c-.5-.2-4.8-1.3-7.8,1.3a5.55,5.55,0,0,0-2.2,4c0,1.7,1.2,3.1,3.3,4.8,4.5,3.7,7.9,4.6,12.1,6.9a40.74,40.74,0,0,1,8.1,5.9C559.7,558.4,548.9,558.9,548.1,562.6Z" transform="translate(-232.02 -118.31)"/><path class="cls-7" d="M672.8,610.1c17.5-34.1,36.8-70.6,72.7-88.5,1.7-.9.2-3.4-1.5-2.6-36.3,18-56,55-73.7,89.5-1,1.8,1.6,3.3,2.5,1.6Z" transform="translate(-232.02 -118.31)"/><path class="cls-7" d="M628.7,589.3c15.4,10.3,34.6,14.6,47.8,28.1a1.48,1.48,0,0,0,2.1-2.1c-13.4-13.7-32.8-18.1-48.4-28.6-1.6-1.1-3.1,1.5-1.5,2.6Z" transform="translate(-232.02 -118.31)"/><path class="cls-7" d="M616.2,609.1a153.3,153.3,0,0,0,26.9,34.1c9.4,8.9,21.7,20.3,35.5,20.6,12.6.3,21.2-10.2,27.9-19.5,10-13.9,19.2-28.3,27.8-43.1,8.8-15.1,18.1-31.1,18.5-49a1.5,1.5,0,0,0-3,0c-.4,19.2-11.4,36.4-21,52.4-9.2,15.5-18.7,32-30.6,45.5-5.5,6.3-12.6,11.5-21.3,10.6-9.7-1-18.3-8-25.5-14.1a151.27,151.27,0,0,1-32.7-39c-.9-1.7-3.5-.2-2.5,1.5Z" transform="translate(-232.02 -118.31)"/><path class="cls-7" d="M618.9,607.2c-4-1.9-8.6-2.5-12.5-4.7s-6.8-6.2-9.4-10c-4.6-6.8-8.8-13.9-15.3-19.1a28.28,28.28,0,0,0-10.3-5.4c-4.2-1.2-8-.5-12.3-.3-2.7.1-8.3.2-8.5-3.9s5.3-3.4,7.6-3.5c5.1-.3,10,0,14.7,2,1.8.7,2.6-2.2.8-2.9-5.6-2.3-11.3-2.4-17.3-2-2.9.2-6.7.2-8.3,3.1-1.4,2.5-.3,5.7,1.6,7.7,3.2,3.4,8,2.7,12.2,2.3,15-1.5,23.9,10.5,31.3,21.8,2.6,4,5.3,8,9,11,4.5,3.6,10.1,4.1,15.1,6.6,1.8.7,3.4-1.9,1.6-2.7Z" transform="translate(-232.02 -118.31)"/><path class="cls-7" d="M630.9,587.9c-5.4-6.3-.4-16.1,1.5-22.9,1.4-4.9,3.4-11.7.8-16.6-1.5-2.9-4.8-4.7-8-3.5a8.9,8.9,0,0,0-4.2,3.7c-1.4,2.3-1.8,8.6-4.6,9.3-1.9.4-1.1,3.3.8,2.9,3.4-.8,4.1-4.2,5.1-7.1.5-1.5,1.5-5.4,3.4-5.7l5.4,3a23.36,23.36,0,0,0,.4,2.6c.2,3.6-.9,7.3-1.8,10.7-2.4,8.1-7.1,18.3-.8,25.8,1.1,1.4,3.2-.8,2-2.2Z" transform="translate(-232.02 -118.31)"/><path class="cls-7" d="M549.7,547a21.22,21.22,0,0,1-4.3-2.8c-1.7-.9-2-2.2-.9-3.8-.1-2.3,1.1-3.1,3.5-2.7,4.5-.3,8.4,1.9,12.3,3.7,6.7,3.2,13.1,6.6,18.7,11.5,1.4,1.3,3.6-.8,2.1-2.1a75,75,0,0,0-16.2-10.5c-5.5-2.8-11.4-6.3-17.8-5.6-3.3.4-7.2,1.6-7.1,5.5.1,4.5,4.7,7.3,8.1,9.3,1.7,1,3.2-1.6,1.6-2.5Z" transform="translate(-232.02 -118.31)"/><path class="cls-7" d="M553.6,534.9c-5.3-4,1.6-6.7,3.7-7.1a13.22,13.22,0,0,1,5.9.8,38.67,38.67,0,0,1,8.9,4.9A100.06,100.06,0,0,1,587,546.2a1.48,1.48,0,0,0,2.1-2.1c-7.5-7.6-18.3-18.4-29.6-19.4-7.1-.6-14.8,7.1-7.4,12.7,1.5,1.3,3-1.3,1.5-2.5Z" transform="translate(-232.02 -118.31)"/><path class="cls-7" d="M566.6,525.9c-3.6-4.5,4.5-6.1,6.9-5.7,1,.2,1.9.5,2.9.8a29,29,0,0,1,8.7,5,69.57,69.57,0,0,1,12.2,13.2c1.2,1.5,3.8,0,2.6-1.5-6.3-8.3-13.7-17-24.2-20-3.5-1-8.1-1.3-10.9,1.6a6.26,6.26,0,0,0-.3,8.7c1.2,1.5,3.3-.6,2.1-2.1Z" transform="translate(-232.02 -118.31)"/><path class="cls-7" d="M596.3,537.1c3.7,6.3,7,13,11.2,19,2.6,3.7,6.4,6.4,11,4.5,1.8-.7,1-3.6-.8-2.9-6.1,2.4-9.3-6-11.7-10.1s-4.7-8.1-7.1-12.1c-.9-1.6-3.5-.1-2.6,1.6Z" transform="translate(-232.02 -118.31)"/><path class="cls-7" d="M547.2,548.4c5.6,3.7,11.3,7.3,16.9,11,1.6,1.1,3.1-1.5,1.5-2.6-5.6-3.7-11.3-7.3-16.9-11-1.6-1-3.1,1.6-1.5,2.6Z" transform="translate(-232.02 -118.31)"/><path class="cls-12" d="M544.2,538.5c4-1.9,10.1,3.4,13.9,6.5,18.5,15.1,19.4,9.8,30,20.7,10.8,11,10.5,17,21.3,23.6a47.07,47.07,0,0,0,13.2,5.5c1.9,2.7,4.7,6.7,8.4,11.3,13.3,16.7,20.2,25.4,31,29.4.9.3,18.2,6.5,32.6-1.9,11.5-6.7,11.5-17.4,24.9-52.3,16.9-44,23.7-49.5,28.1-49.1,2.6.2,5,2.6,6.1,4.5,2.3,3.9.5,8.1-1.9,17.8-2.3,9.2-1.8,9.6-3.2,15.2-3.9,14.8-10.9,23-30.7,56.5A142.46,142.46,0,0,1,703,647.5c-6.3,7.4-10.3,11.8-16.5,13.9-10.4,3.5-20.6-1.9-25.5-4.5-6.6-3.5-11.3-7.8-18.7-16.5a283.52,283.52,0,0,1-24.9-33.9,24.07,24.07,0,0,1-9-1.9c-3.1-1.4-7.1-3.9-16.8-17.8-6.9-9.9-6.8-11.3-10.3-13.6-5.5-3.6-12.3-4.2-15.8-4.5-8.1-.8-12.4.9-14.5-1.9a5.72,5.72,0,0,1,0-6.5c3.4-4.2,15,1,15.5-.3.3-.9-4.3-3.3-12.3-8.1-9.5-5.7-12.5-7.9-12.3-10.3A3.81,3.81,0,0,1,544.2,538.5Z" transform="translate(-232.02 -118.31)"/></g><g id="hand_right" data-name="hand right"><path class="cls-8" d="M872.5,500.4c-5.4,1.1-7.5,11.2-9.6,20.7a120.76,120.76,0,0,0-2.5,30.3c.7,21.5,5.3,42,11.1,54.1,3.1,6.5,5,7.3,8.6,15.7,1.2,2.8,2.1,5.2,4.5,7.1,4.6,3.5,10.6,2.2,11.1,2,6.2-1.5,9.5-6.9,11.1-9.6,4.5-7.7,4.6-15.6,3.5-29.3-1.6-20.7-2.4-31-5.6-41.9a115.91,115.91,0,0,0-16.2-34.4C883.3,507.3,877.7,499.4,872.5,500.4Z" transform="translate(-232.02 -118.31)"/><path class="cls-7" d="M872.6,503.1c5.4-.6,9.3,6,12.1,9.9,2.5,3.5,4.8,7.2,7,10.9a126.15,126.15,0,0,1,10.4,24.2,165.52,165.52,0,0,1,7.2,51.4c-.1,9,0,20.8-7.6,27.2-3.5,2.9-8.8,4.7-13.1,2.6-4.5-2.2-7.1-8.2-9.4-12.3a142.29,142.29,0,0,1-17-53.9c-2.2-20.5-.7-43,10.6-60.7,1-1.6-1.6-3.1-2.6-1.5-11.6,18.2-13.2,41.3-11,62.2a141.46,141.46,0,0,0,21,61.4c4.3,6.7,10.3,10.7,18.3,7.6,8.3-3.2,12-11.5,13.1-19.8,2.8-19.6.1-41.3-5.2-60.3a136.39,136.39,0,0,0-13.3-31.8,118.48,118.48,0,0,0-9.4-13.7c-2.9-3.6-6.1-7-11-6.5-2,.3-2,3.3-.1,3.1Z" transform="translate(-232.02 -118.31)"/><path class="cls-10" d="M875.7,503a145.49,145.49,0,0,0-2.3,43.6c1.6,15.5,5.4,26.9,10.3,41.7A322.76,322.76,0,0,0,900.5,629a13.91,13.91,0,0,1-9,2.3c-7.3-1.1-11.6-9.6-14.5-16.2-10.6-23.6-15.9-35.4-16.8-55.6-1.3-27.7,6.1-58.4,12.6-58.5C874,501,875,502.1,875.7,503Z" transform="translate(-232.02 -118.31)"/></g><g id="torso"><path class="cls-17" d="M735.1,520.1c-.5,4.3-1,10.4-1.5,17.7-.4,5.5-1.4,21.6-1,36.9.9,30.2,7.5,54.2,11.6,68.7,3.7,13,7.6,23.7,10.6,31.3a56.91,56.91,0,0,0,2.5,11.6c7.2,21.6,25.8,32.3,30.3,34.9,22.5,12.6,44.9,8,51.5,6.6s27.9-6.4,41.9-25.3c4.6-6.1,8.7-14.1,12.6-35.4,1.8-9.9,6-35.9,3-80.3-3.1-45.2-10.4-62.2-14.7-70.7a133.78,133.78,0,0,0-10.6-17.7,119.06,119.06,0,0,0-53.6-9.1c-18.3,1.2-32.3,6.7-46,12.1A225.31,225.31,0,0,0,735.1,520.1Z" transform="translate(-232.02 -118.31)"/><path class="cls-7" d="M733,522.8a281.32,281.32,0,0,0,22.6,155.4c.8,1.8,3.4.2,2.6-1.5a276.89,276.89,0,0,1-22.3-153.1c.2-1.9-2.7-2.7-2.9-.8Z" transform="translate(-232.02 -118.31)"/><path class="cls-7" d="M751.5,670.8c3.6,25.1,21.7,46.8,45.5,55.5,25.4,9.3,55.9,3.8,76.2-14,10.6-9.2,17.9-21.6,19.3-35.7.2-1.9-2.8-1.9-3,0-3.3,33.7-40.6,52.8-71.4,50.9-31.8-1.9-59.2-25.8-63.7-57.6-.3-1.8-3.2-1-2.9.9Z" transform="translate(-232.02 -118.31)"/><path class="cls-7" d="M734.8,522.8c39.7-25,89.4-42.7,135.1-23,1.8.8,3.3-1.8,1.5-2.6-46.8-20.2-97.4-2.7-138.2,23-1.5,1.1,0,3.7,1.6,2.6Z" transform="translate(-232.02 -118.31)"/><path class="cls-7" d="M869.9,499.5c10.8,9.9,15,26.5,18.1,40.4a343.45,343.45,0,0,1,6.7,46.4c2.6,30.9,1.7,62.1-4.5,92.6-.4,1.9,2.5,2.7,2.9.8,6.6-32,7.4-64.7,4.3-97.2-1.5-15.7-3.5-31.6-7.3-47-3.3-13.2-7.7-28.6-18-38.1-1.5-1.3-3.6.8-2.2,2.1Z" transform="translate(-232.02 -118.31)"/><path class="cls-7" d="M769.2,687.6a81.19,81.19,0,0,0,45,20.8c1.9.2,1.9-2.8,0-3a77.06,77.06,0,0,1-42.9-20c-1.4-1.2-3.6.9-2.1,2.2Z" transform="translate(-232.02 -118.31)"/><path class="cls-18" d="M814.5,490.5c3.7,5.8,7.5,11.7,11.2,17.5a380.42,380.42,0,0,1,23.1,80.2c2.9,17.1,5.7,33.1,4.7,53.1-.9,18-5.5,50.6-28.7,88.3a72.54,72.54,0,0,0,20.9-3.4c3.5-1.1,29.3-9.8,41.8-34.3,5.2-10.2,6.1-19.3,6.9-30.3,4.2-59,.3-97.1-1.9-110.2-1.8-10.8-4.4-23.3-11.5-37.5a111.46,111.46,0,0,0-10.3-16.5,99.44,99.44,0,0,0-56.2-6.9Z" transform="translate(-232.02 -118.31)"/><path class="cls-10" d="M882.9,522.1c-3.6.2-5.4,21.9-6.6,36.5a451.23,451.23,0,0,0-.3,66.2c1.1,23.4-4.4,57.2-34,101.7a81.63,81.63,0,0,0,19.4-7.8c6.6-3.7,16-9,22.8-20a52.41,52.41,0,0,0,7.2-20.6,371.25,371.25,0,0,0,5.3-76.5C895.2,564,887.9,521.8,882.9,522.1Z" transform="translate(-232.02 -118.31)"/></g><g id="chair_support" data-name="chair support"><path d="M738.2,596.6c5.6,81.5.9,163.2-3.8,244.6-.2,3.9,5.8,3.8,6,0,4.8-81.4,9.4-163.1,3.8-244.6-.3-3.9-6.3-3.9-6,0Z" transform="translate(-232.02 -118.31)"/><path class="cls-19" d="M740.3,592.9a930.6,930.6,0,0,0,96.6-1.1c26.3-1.6,51-4.3,73.9-7.6-.5,25.4-1.1,50.7-1.6,76.1a614.84,614.84,0,0,1-87.4,10.8A611.49,611.49,0,0,1,743,670Z" transform="translate(-232.02 -118.31)"/><path d="M906.2,601q-11.1,115.2-22.1,230.4c-.4,3.8,5.6,3.8,6,0Q901.2,716.2,912.2,601c.4-3.8-5.6-3.8-6,0Z" transform="translate(-232.02 -118.31)"/></g><g id="head"><path class="cls-8" d="M725.8,432.8c-.7,2,0,5.9.8,10.9a69.06,69.06,0,0,0,2.2,8.9,105.64,105.64,0,0,0,6.1,15.6,102.45,102.45,0,0,0,18.4,26.2,103.52,103.52,0,0,0,10.9,9.5c8.7-3.5,17.4-7.1,26.2-10.6a35,35,0,0,0,11.1-13.4c5.8-12.5,2.7-26.2-1.9-34.2C783.5,417.6,729.3,423,725.8,432.8Z" transform="translate(-232.02 -118.31)"/><path class="cls-7" d="M724.2,440.9a122.64,122.64,0,0,0,26.7,54.3c3.7,4.4,7.6,8.7,13.5,10.1,1.9.4,2.7-2.5.8-2.9-6.2-1.4-10.4-7.1-14.3-11.9a115.82,115.82,0,0,1-10.6-15.6,121.37,121.37,0,0,1-13.2-34.8c-.4-1.8-3.3-1-2.9.8Z" transform="translate(-232.02 -118.31)"/><path class="cls-7" d="M746.8,465.5c-.4-8.7,10-6,13.4-1.5,4,5.2,2.9,16.4-5.9,14.9-1.9-.3-2.7,2.6-.8,2.9,11.3,1.9,15.1-11.9,9.1-19.7-5.2-6.8-19.4-8.3-18.8,3.3.1,2,3.1,2,3,.1Z" transform="translate(-232.02 -118.31)"/><path class="cls-20" d="M724.7,438.7c-1.3-4.6-3.5-12,.4-19.3a21.35,21.35,0,0,1,11.7-9.6,21.2,21.2,0,0,1,20.9-22.5,39.83,39.83,0,0,1,29.8-8c12.8,1.9,15,9.6,29.3,15.7a63.16,63.16,0,0,0,22.9,4.8l-7.6,8.8a34.51,34.51,0,0,1,6.4,10c1,2.3,2.8,7.6,2.4,17.7-.4,9.8-2.8,17.7-4.8,24.5-3.6,11.8-5.7,15.3-3.6,20.1,2.3,5.4,7.8,6.9,7.1,9.2-.8,2.5-7.8,2.8-12.7,2.2-7.3-.9-11.9-4.1-12.7-3-1,1.3,5.9,5.9,4.8,8.9-1.3,3.9-14.4,3.3-23.8,1.1a57.59,57.59,0,0,1-15.4-6.1,61.23,61.23,0,0,1-17.3-14.5c2.5-5.6,2.2-11.8-1.2-16.1-.3-.4-5.3-6.5-11.3-4.8a10.23,10.23,0,0,0-5.6,4.8C740.1,460.2,728.8,452.7,724.7,438.7Z" transform="translate(-232.02 -118.31)"/><path class="cls-21" d="M737,410.5c2.1,6.3,15.8,5.1,26,8.5,7.3,2.4,17,8.7,25.7,26.1-2.4-7.8-13.5-40-39.9-47.2a39.87,39.87,0,0,0-8.3-1.4,16.57,16.57,0,0,0-3.6,7.9C736.9,404.9,736.3,408.3,737,410.5Z" transform="translate(-232.02 -118.31)"/><path class="cls-22" d="M758.3,386.7a34.6,34.6,0,0,1,7.7-4.6,37,37,0,0,1,6.9-2.1,83.79,83.79,0,0,0,66.4,19.9,25,25,0,0,1-7.4,8.5c-13.9,9.9-34.7,1.4-44.6-2.6A90.14,90.14,0,0,1,758.3,386.7Z" transform="translate(-232.02 -118.31)"/><path class="cls-23" d="M807.5,455.5c-1.6.5.5,11.8,1.2,15.2a75.5,75.5,0,0,0,6.2,18.3c3.2,1,6.4,2.1,9.5,3.1C812.6,461.4,808.8,455.1,807.5,455.5Z" transform="translate(-232.02 -118.31)"/><path class="cls-12" d="M760.2,467.6c.3,2.5.5,4.8-.8,6.7-1.6,2.3-4.1,1.9-6.3,5.2-.8,1.2-.8,1.8-.6,2.1.5.9,2.6.5,3.6.5,5.2.2,8.3,5.5,11.9,8.6,2.9,2.6,7.9,5.3,16.9,5.5a92.45,92.45,0,0,1-14.7-9.9,91.37,91.37,0,0,1-7.7-7.2c1-2.2,2.8-7.1.9-12.1-1.4-3.8-4.6-6.5-5-6.2S759.7,463.4,760.2,467.6Z" transform="translate(-232.02 -118.31)"/></g></g></svg>