<svg id="Layer_1" data-name="Layer 1" xmlns="http://www.w3.org/2000/svg" viewBox="0 0 20 18.88"><defs><style>.cls-1{fill:#ddd;}</style></defs><g id="dot-group"><circle id="Ellipse_4" data-name="Ellipse 4" class="cls-1" cx="0.4" cy="4.91" r="0.4"/><circle id="Ellipse_5" data-name="Ellipse 5" class="cls-1" cx="5.18" cy="4.91" r="0.4"/><circle id="Ellipse_6" data-name="Ellipse 6" class="cls-1" cx="10.03" cy="4.91" r="0.4"/><circle id="Ellipse_7" data-name="Ellipse 7" class="cls-1" cx="14.81" cy="4.91" r="0.4"/><circle id="Ellipse_8" data-name="Ellipse 8" class="cls-1" cx="19.6" cy="4.91" r="0.4"/><circle id="Ellipse_9" data-name="Ellipse 9" class="cls-1" cx="0.4" cy="9.42" r="0.4"/><circle id="Ellipse_10" data-name="Ellipse 10" class="cls-1" cx="5.18" cy="9.42" r="0.4"/><circle id="Ellipse_11" data-name="Ellipse 11" class="cls-1" cx="10.03" cy="9.42" r="0.4"/><circle id="Ellipse_12" data-name="Ellipse 12" class="cls-1" cx="14.81" cy="9.42" r="0.4"/><circle id="Ellipse_13" data-name="Ellipse 13" class="cls-1" cx="19.6" cy="9.42" r="0.4"/><circle id="Ellipse_14" data-name="Ellipse 14" class="cls-1" cx="0.4" cy="13.98" r="0.4"/><circle id="Ellipse_15" data-name="Ellipse 15" class="cls-1" cx="5.18" cy="13.98" r="0.4"/><circle id="Ellipse_16" data-name="Ellipse 16" class="cls-1" cx="10.03" cy="13.98" r="0.4"/><circle id="Ellipse_17" data-name="Ellipse 17" class="cls-1" cx="14.81" cy="13.98" r="0.4"/><circle id="Ellipse_18" data-name="Ellipse 18" class="cls-1" cx="19.6" cy="13.98" r="0.4"/><circle id="Ellipse_19" data-name="Ellipse 19" class="cls-1" cx="0.4" cy="18.49" r="0.4"/><circle id="Ellipse_20" data-name="Ellipse 20" class="cls-1" cx="5.18" cy="18.49" r="0.4"/><circle id="Ellipse_21" data-name="Ellipse 21" class="cls-1" cx="10.03" cy="18.49" r="0.4"/><circle id="Ellipse_22" data-name="Ellipse 22" class="cls-1" cx="14.81" cy="18.49" r="0.4"/><circle id="Ellipse_23" data-name="Ellipse 23" class="cls-1" cx="19.6" cy="18.49" r="0.4"/><circle id="Ellipse_24" data-name="Ellipse 24" class="cls-1" cx="0.4" cy="0.4" r="0.4"/><circle id="Ellipse_25" data-name="Ellipse 25" class="cls-1" cx="5.18" cy="0.4" r="0.4"/><circle id="Ellipse_26" data-name="Ellipse 26" class="cls-1" cx="10.03" cy="0.4" r="0.4"/><circle id="Ellipse_27" data-name="Ellipse 27" class="cls-1" cx="14.81" cy="0.4" r="0.4"/><circle id="Ellipse_28" data-name="Ellipse 28" class="cls-1" cx="19.6" cy="0.4" r="0.4"/></g></svg>