<?xml version="1.0" encoding="utf-8"?>
<!-- Generator: Adobe Illustrator 24.2.3, SVG Export Plug-In . SVG Version: 6.00 Build 0)  -->
<svg version="1.1" id="Layer_1" xmlns="http://www.w3.org/2000/svg" xmlns:xlink="http://www.w3.org/1999/xlink" x="0px" y="0px"
	 viewBox="0 0 827 550" style="enable-background:new 0 0 827 550;" xml:space="preserve">
<style type="text/css">
	.st0{opacity:0.4;fill:#B3E8FF;enable-background:new    ;}
	.st1{opacity:0.5;fill:#C2CED3;enable-background:new    ;}
	.st2{fill:#29C6FF;}
	.st3{fill:#22A6FF;}
	.st4{fill:#213346;}
	.st5{fill:#FFFFFF;}
	.st6{fill:#DCE1FF;}
	.st7{fill:#FFC62A;}
	.st8{fill:#B3E8FF;}
	.st9{fill:#FF28B3;}
	.st10{fill:#FFC826;}
	.st11{fill:#FF9905;}
	.st12{opacity:0.6;fill:#FFFFFF;enable-background:new    ;}
	.st13{fill:#15DE97;}
	.st14{opacity:0.5;fill:#FFFFFF;enable-background:new    ;}
	.st15{fill:none;stroke:#B2B2B2;stroke-width:3;stroke-linecap:round;stroke-linejoin:round;}
	.st16{opacity:0.15;fill:#F7AFA3;enable-background:new    ;}
	.st17{fill:#F5A8A0;}
	.st18{fill:#D5DFEB;}
	.st19{fill:#3E6177;}
	.st20{fill:#EBEFF7;}
	.st21{fill:#515862;}
	.st22{fill:#DE5F61;}
	.st23{fill:#EE9FA4;}
	.st24{fill:#B0535C;}
	.st25{fill:#BBD2E6;}
	.st26{opacity:0.48;fill:#FFFFFF;stroke:#181828;stroke-width:1.7337;stroke-miterlimit:10;enable-background:new    ;}
	.st27{opacity:0.5;}
	.st28{fill:#ACACCE;}
	.st29{opacity:0.1;}
	.st30{fill:#A8EF9E;}
	.st31{fill:#D3F7CD;}
	.st32{opacity:0.3;}
	.st33{fill:#A0A0A0;}
</style>
<g id="Layer_2_1_">
	<g id="Layer_1-2">
		<circle class="st0" cx="186.7" cy="277.8" r="180.5"/>
		<circle class="st0" cx="190.7" cy="274.6" r="148.5"/>
		<circle class="st0" cx="27.6" cy="122.7" r="13.2"/>
		<circle class="st0" cx="29.2" cy="86.9" r="7.5"/>
		<path class="st1" d="M108.7,72.8h155.9c20.9,0,37.9,17,37.9,37.9v374.2c0,20.9-17,37.9-37.9,37.9H108.7c-20.9,0-37.9-17-37.9-37.9
			V110.7C70.8,89.8,87.8,72.8,108.7,72.8z"/>
		<path class="st2" d="M105.6,60.9h161.5c18.8,0,34,15.2,34,34v377.7c0,18.8-15.2,34-34,34H105.6c-18.8,0-34-15.2-34-34V94.9
			C71.7,76.1,86.9,60.9,105.6,60.9z"/>
		<path class="st3" d="M267,62.5H104.5c-10.5,0-20.5,4.8-27,13.1c6-4.7,13.4-7.2,21-7.2H261c18.8-0.1,34.1,15.2,34.2,34l0,0v377.7
			c0,7.6-2.5,14.9-7.2,20.9c8.3-6.4,13.2-16.3,13.2-26.8V96.5C301.1,77.6,285.8,62.4,267,62.5L267,62.5L267,62.5z"/>
		<path class="st4" d="M267.2,509.2H105.7c-20.2,0-36.6-16.4-36.6-36.6V94.9c0-20.2,16.4-36.6,36.6-36.6h161.5
			c20.2,0,36.6,16.4,36.6,36.6v85.3h-5.3V94.9c0-17.3-14-31.3-31.3-31.3H105.7c-17.3,0-31.3,14-31.3,31.3v377.8
			c0,17.3,14,31.3,31.3,31.3h161.5c17.3,0,31.3-14,31.3-31.3V221.4h5.3v251.2C303.8,492.9,287.4,509.2,267.2,509.2z"/>
		<rect x="298.5" y="209.2" class="st4" width="5.3" height="5.5"/>
		<rect x="298.5" y="188.9" class="st4" width="5.3" height="15.3"/>
		<path class="st5" d="M103.6,77.8h165.6c9,0,16.2,7.3,16.2,16.2v376.9c0,9-7.3,16.2-16.2,16.2H103.6c-9,0-16.2-7.3-16.2-16.2V94
			C87.4,85,94.6,77.8,103.6,77.8z"/>
		<path class="st6" d="M268.3,78.7H102.7c-6,0-11.5,3.3-14.3,8.6c2.3-1.2,4.9-1.9,7.6-1.9h165.6c8.9,0,16.2,7.2,16.2,16.2l0,0v376.9
			c0,2.6-0.6,5.2-1.9,7.6c5.3-2.8,8.6-8.3,8.6-14.3V94.9C284.4,86,277.2,78.8,268.3,78.7z"/>
		<path class="st4" d="M269.2,489.1H103.6c-10.1,0-18.2-8.2-18.2-18.2V94c0-10.1,8.1-18.2,18.2-18.2h165.6
			c10.1,0,18.2,8.2,18.2,18.2v376.9C287.4,480.9,279.2,489.1,269.2,489.1z M103.6,79.7c-7.9,0-14.2,6.4-14.2,14.2v376.9
			c0,7.9,6.4,14.2,14.2,14.2h165.6c7.9,0,14.2-6.4,14.2-14.2V94c0-7.9-6.4-14.2-14.2-14.2H103.6V79.7z"/>
		<circle class="st7" cx="140.3" cy="31.7" r="4.2"/>
		<circle class="st8" cx="456.4" cy="19.7" r="10.5"/>
		<circle class="st7" cx="473.2" cy="46.3" r="4.2"/>
		<circle class="st9" cx="483.7" cy="9.2" r="4.2"/>
		<circle class="st8" cx="109.9" cy="37.5" r="10.5"/>
		<circle class="st9" cx="120.3" cy="14.9" r="4.2"/>
		<path class="st5" d="M79.5,168.9c-1.1,0-2-0.9-2-2v-42.6c0-1.1,0.9-2,2-2s2,0.9,2,2v42.6C81.5,168,80.6,168.9,79.5,168.9z"/>
		<path class="st5" d="M79.5,183.7c-1.1,0-2-0.9-2-2v-4.1c0-1.1,0.9-2,2-2s2,0.9,2,2v4.1C81.5,182.8,80.6,183.7,79.5,183.7z"/>
		<path class="st6" d="M132.3,86v5.6c0,7.2,5.9,13.1,13.1,13.1l0,0h90.5c7.2,0,13.1-5.8,13.1-13.1l0,0V86"/>
		<path class="st2" d="M131.3,74.1v6.3c0,8.2,5.9,14.8,13.1,14.8h90.5c7.2,0,13.1-6.6,13.1-14.8v-6.3"/>
		<path class="st4" d="M235.6,96.5H145c-8.3,0-15.1-6.8-15.1-15.1v-5.6h4v5.6c0,6.1,5,11.1,11.1,11.1h90.5c6.1,0,11.1-5,11.1-11.1
			v-5.6h4v5.6C250.7,89.8,243.9,96.5,235.6,96.5z"/>
		<path class="st6" d="M129.1,308.9h112.6v1.8c0,4.9-4,8.9-8.9,8.9l0,0H138c-4.9,0-8.9-4-8.9-8.9l0,0l0,0V308.9L129.1,308.9
			L129.1,308.9z"/>
		<path class="st10" d="M133.6,231.3H235c3.7,0,6.7,3,6.7,6.7v65.5c0,3.7-3,6.7-6.7,6.7H133.6c-3.7,0-6.7-3-6.7-6.7V238
			C126.9,234.3,129.9,231.3,133.6,231.3z"/>
		<path class="st11" d="M184.4,288c-4.1,0-8.1-1.6-11-4.5L135.9,246l3-3l37.5,37.5c2.1,2.1,5,1.3,8,1.3s5.9,0.8,8-1.3l37.5-37.5
			l2.9,2.9l-37.5,37.6C192.4,286.4,188.5,288,184.4,288z"/>
		<path class="st12" d="M135.1,269.7c-1.5,0-2.7-1.2-2.6-2.7v-10.8c0.1-1.5,1.4-2.6,2.8-2.5c1.3,0.1,2.4,1.2,2.5,2.5V267
			C137.8,268.5,136.6,269.7,135.1,269.7L135.1,269.7z"/>
		<path class="st12" d="M135.1,279c-1.5,0-2.7-1.2-2.6-2.7v-0.6c-0.1-1.5,1-2.7,2.5-2.8c1.5-0.1,2.7,1,2.8,2.5c0,0.1,0,0.2,0,0.3
			v0.6C137.8,277.8,136.6,279,135.1,279L135.1,279z"/>
		<path class="st4" d="M184.4,283.9c-4.1,0-8-1.6-10.9-4.5L136,241.9l2.8-2.8l37.5,37.5c4.5,4.5,11.7,4.5,16.2,0l0,0L230,239
			l2.8,2.8l-37.5,37.5C192.4,282.3,188.5,283.9,184.4,283.9z"/>
		
			<rect x="122.8" y="286.2" transform="matrix(0.7382 -0.6746 0.6746 0.7382 -155.4942 175.7763)" class="st4" width="51.8" height="4"/>
		
			<rect x="219.8" y="262.3" transform="matrix(0.6746 -0.7382 0.7382 0.6746 -140.5979 257.52)" class="st4" width="4" height="51.8"/>
		<path class="st4" d="M205.1,82.3h-32c-1.5,0.1-2.7-1-2.8-2.5s1-2.7,2.5-2.8c0.1,0,0.2,0,0.3,0h32c1.5,0.1,2.6,1.4,2.5,2.8
			C207.5,81.2,206.4,82.2,205.1,82.3z"/>
		<path class="st4" d="M216.2,82.3H216c-1.5-0.1-2.6-1.4-2.5-2.8c0.1-1.3,1.2-2.4,2.5-2.5h0.2c1.5,0.1,2.6,1.4,2.5,2.8
			C218.6,81.2,217.5,82.2,216.2,82.3z"/>
		<path class="st4" d="M232.7,312.1h-97.6c-5.9,0-10.6-4.8-10.6-10.6v-61.6c0-5.9,4.8-10.6,10.6-10.6h97.6c5.9,0,10.6,4.8,10.6,10.6
			v61.6C243.3,307.4,238.5,312.1,232.7,312.1L232.7,312.1z M135.1,233.3c-3.7,0-6.6,3-6.6,6.6v61.6c0,3.7,3,6.6,6.6,6.6l0,0h97.6
			c3.7,0,6.6-3,6.6-6.6l0,0v-61.6c0-3.7-3-6.6-6.6-6.6l0,0L135.1,233.3L135.1,233.3z"/>
		<circle class="st13" cx="133.6" cy="229.2" r="17.8"/>
		<path class="st4" d="M133.6,249c-10.9,0-19.8-8.8-19.8-19.8s8.8-19.8,19.8-19.8c10.9,0,19.8,8.8,19.8,19.8l0,0l0,0
			C153.4,240.1,144.5,249,133.6,249z M133.6,213.5c-8.7,0-15.8,7.1-15.8,15.8s7.1,15.8,15.8,15.8s15.8-7.1,15.8-15.8l0,0
			C149.4,220.5,142.3,213.5,133.6,213.5z"/>
		<path class="st14" d="M121.8,223.8c-0.4,0-0.7-0.3-0.7-0.7c0-0.1,0-0.2,0.1-0.3l0,0c1.5-3.4,4.6-5.9,8.3-6.5
			c0.4-0.1,0.7,0.1,0.8,0.5l0,0c0.1,0.4-0.2,0.7-0.5,0.8l0,0c-3.3,0.6-6.1,2.7-7.4,5.8C122.3,223.7,122,223.9,121.8,223.8z"/>
		<path class="st14" d="M120.6,228.6L120.6,228.6c-0.4,0-0.7-0.3-0.7-0.7c0.1-1,0.2-1.9,0.5-2.8c0.1-0.4,0.5-0.6,0.8-0.5
			c0.4,0.1,0.6,0.5,0.5,0.8l0,0c-0.2,0.8-0.4,1.7-0.4,2.5C121.2,228.3,120.9,228.6,120.6,228.6z"/>
		<path class="st4" d="M69,130.9c-1.5,0-2.7-1.2-2.7-2.7l0,0v-15.9c-0.1-1.5,1-2.7,2.5-2.8s2.7,1,2.8,2.5c0,0.1,0,0.2,0,0.3v15.9
			C71.7,129.7,70.5,130.9,69,130.9z"/>
		<path class="st4" d="M69.1,159.6c-1.5,0-2.7-1.2-2.7-2.6v-16c0.1-1.5,1.4-2.6,2.8-2.5c1.3,0.1,2.4,1.2,2.5,2.5v15.9
			C71.7,158.4,70.6,159.6,69.1,159.6z"/>
		<circle class="st9" cx="275.2" cy="42.3" r="4.2"/>
		<circle class="st8" cx="349.7" cy="473.8" r="10.5"/>
		<circle class="st7" cx="374" cy="457.8" r="4.2"/>
		<circle class="st9" cx="381.5" cy="493.2" r="4.2"/>
		<path class="st5" d="M134.3,237.8c-0.9,0-1.8-0.2-2.6-0.5c-0.8-0.4-1.5-0.9-2.1-1.6c-0.6-0.7-1.1-1.6-1.3-2.5
			c-0.3-1.1-0.5-2.2-0.5-3.3c0-1.2,0.1-2.3,0.4-3.5c0.3-0.9,0.7-1.7,1.3-2.5c0.6-0.7,1.3-1.2,2.1-1.5c0.9-0.3,1.8-0.5,2.7-0.5
			s1.8,0.2,2.6,0.5c0.8,0.4,1.5,0.9,2.1,1.6c0.6,0.7,1.1,1.6,1.4,2.5c0.3,1.1,0.5,2.2,0.5,3.3s-0.1,2.3-0.5,3.4
			c-0.3,0.9-0.8,1.8-1.4,2.5c-0.6,0.7-1.3,1.2-2.1,1.6C136.1,237.7,135.2,237.9,134.3,237.8z M134.3,235.6c0.8,0,1.6-0.2,2.3-0.7
			c0.6-0.5,1.1-1.2,1.4-2c0.3-1,0.5-2,0.5-3s-0.2-2-0.5-2.9c-0.3-0.8-0.7-1.5-1.4-2s-1.5-0.8-2.3-0.7c-0.8,0-1.6,0.2-2.3,0.7
			c-0.6,0.5-1.1,1.2-1.4,2c-0.3,1-0.5,2-0.5,3s0.1,2,0.5,3c0.3,0.8,0.8,1.5,1.4,2C132.7,235.5,133.5,235.7,134.3,235.6L134.3,235.6z
			"/>
	</g>
</g>
<g>
	<path class="st15" d="M431.8,79.9c-7.9-12.4-24.3-16.1-36.7-8.2S379,96,386.9,108.4c4.9,7.7,13.4,12.4,22.5,12.4h52.1
		c9.7,0,17.5-7.9,17.5-17.6s-7.9-17.5-17.6-17.5s-17.5,7.9-17.5,17.5"/>
</g>
<g>
	<path class="st15" d="M672.7,176.7c10.4-14.3,32.2-18.6,48.6-9.5s21.3,28.1,10.9,42.4c-6.5,8.9-17.7,14.3-29.7,14.3h-68.8
		c-12.8,0-23.2-9.1-23.2-20.2s10.4-20.2,23.2-20.2s23.2,9.1,23.2,20.2l0,0"/>
</g>
<path class="st16" d="M430.3,369.1L544,255.4c16.2-16.2,42.4-16.2,58.6,0l0,0c16.2,16.2,16.2,42.4,0,58.6L488.9,427.6
	c-16.2,16.2-42.4,16.2-58.6,0l0,0c-16.2-16.1-16.3-42.3-0.2-58.5C430.1,369.1,430.2,369,430.3,369.1z"/>
<path class="st17" d="M539.7,269.2c-5.9,0-10.8-4.8-10.8-10.8c0-5.9,4.8-10.8,10.8-10.8c5.9,0,10.8,4.8,10.8,10.7l0,0l0,0
	C550.4,264.4,545.6,269.2,539.7,269.2z M539.7,252.7c-3.2,0-5.8,2.6-5.8,5.8c0,3.2,2.6,5.8,5.8,5.8s5.8-2.6,5.8-5.8l0,0l0,0
	C545.4,255.3,542.8,252.7,539.7,252.7L539.7,252.7z"/>
<circle class="st17" cx="485.5" cy="289.5" r="3.5"/>
<circle class="st18" cx="470.8" cy="405" r="3.5"/>
<path class="st19" d="M417.8,405.4c-4.9,0-8.9-4-8.9-8.9s4-8.9,8.9-8.9s8.9,4,8.9,8.9l0,0C426.7,401.4,422.7,405.4,417.8,405.4z
	 M417.8,392.6c-2.2,0-3.9,1.7-3.9,3.9s1.7,3.9,3.9,3.9c2.2,0,3.9-1.7,3.9-3.9l0,0C421.7,394.3,419.9,392.6,417.8,392.6z"/>
<path class="st17" d="M446.7,415.6c-3.7,0-6.8-3-6.8-6.7s3-6.8,6.8-6.8s6.8,3,6.8,6.7l0,0l0,0C453.4,412.6,450.4,415.6,446.7,415.6
	L446.7,415.6z M446.7,405.9c-1.7,0-3,1.3-3,3s1.3,3,3,3s3-1.3,3-3l0,0C449.7,407.2,448.3,405.9,446.7,405.9L446.7,405.9z"/>
<circle class="st17" cx="539.5" cy="325.8" r="2.7"/>
<circle class="st18" cx="488.3" cy="341.5" r="2.7"/>
<g id="Layer_2-2">
	<g id="Layer_1-2-2">
		<path class="st20" d="M496.7,431.8l26.1-5.1c1.8-0.3,3.5,0.8,3.8,2.6l0.4,1.9c0.3,1.8-0.8,3.5-2.6,3.8l-26.1,5.1
			c-1.8,0.3-3.5-0.8-3.8-2.6l-0.4-1.9C493.8,433.9,494.9,432.1,496.7,431.8z"/>
		<path class="st21" d="M497.7,441.6c-2.3,0-4.2-1.6-4.7-3.8l-0.4-1.9c-0.5-2.6,1.2-5.1,3.8-5.6l26.1-5.1c2.6-0.5,5.1,1.2,5.6,3.8
			l0.4,1.9c0.5,2.6-1.2,5.1-3.8,5.6l-26.1,5.1C498.3,441.6,498,441.6,497.7,441.6z M523.4,428.1h-0.3l-26.1,5.1
			c-0.9,0.2-1.5,1.1-1.4,2l0.4,1.9c0.2,0.9,1.1,1.6,2,1.4l26.1-5.1c0.9-0.2,1.6-1.1,1.4-2l-0.4-1.9
			C525,428.7,524.2,428.1,523.4,428.1L523.4,428.1z"/>
		<circle class="st22" cx="618.2" cy="316.1" r="22.1"/>
		<circle class="st23" cx="609.8" cy="320.4" r="22.1"/>
		<path class="st22" d="M504,427.1l9.3-1.8c5.7-1.1,9.4-6.6,8.3-12.2c-0.1-0.6-0.3-1.1-0.5-1.7l-3.9-10.4c-3.5-9.5-3-20.1,1.5-29.2
			l1.8-3.7c1.6-3.3,0.3-7.4-3.1-9c-1.3-0.7-2.8-0.9-4.3-0.6l-31,6c-5.4,1.1-8.9,6.3-7.8,11.6c0.1,0.6,0.3,1.2,0.5,1.8l17.4,42.7
			C494.2,425.3,499.1,428,504,427.1z"/>
		<path class="st23" d="M513.1,424l-9.4,1.8c-4.9,1-9.8-1.7-11.7-6.3l-0.2-0.4c2.4,0.7,5,0.8,7.4,0.2c5.2-1.4,9.2-5.5,10.3-10.7
			c1.1-5.4-0.8-11.2,1.3-16.2c0.9-1.9,2.2-3.5,3.8-4.8c0.1,4.2,0.9,8.3,2.3,12.2l3.9,10.4c2,5.4-0.7,11.4-6.1,13.4
			C514.3,423.7,513.7,423.9,513.1,424L513.1,424z"/>
		<path class="st24" d="M518.1,372.7l-41.6,8.1c-0.9-5.2-4.1-9.9,1.3-11l41-8.1C523.9,360.8,519.4,368.1,518.1,372.7z"/>
		<path class="st22" d="M450.6,327.7l5-1c4.6-0.9,9.1,2.1,10,6.7l4,20.3c0.9,4.6-2.1,9.1-6.7,10l-5,1c-4.6,0.9-9.1-2.1-10-6.7
			l-4-20.3C443,333.1,446,328.6,450.6,327.7z"/>
		<path class="st23" d="M464,365.9c-0.6,0.2-1.2,0.4-1.9,0.5l-1.3,0.2c-6,1.2-11.8-2.7-12.9-8.7l-4.2-18.6
			c-1.2-5.9,3.8-9.8,9.7-10.9l1.3-0.2c0.6-0.1,1.3-0.2,1.9-0.2c-5,1.9-7.9,7.1-6.8,12.4l3.3,16.6C454,362.3,458.7,366,464,365.9z"/>
		<path class="st21" d="M501.7,427.5c-4.8,0-9.2-3-11-7.4l-17.5-42.7c-2.4-5.8,0.4-12.5,6.3-14.9l0,0c0.7-0.3,1.4-0.5,2.1-0.6l31-6
			c4.5-0.9,8.8,2,9.7,6.5c0.4,1.8,0.1,3.6-0.7,5.2l-1.8,3.7c-4.3,8.8-4.8,18.9-1.4,28l3.9,10.4c2.3,6.2-0.9,13.1-7.1,15.4l0,0
			c-0.6,0.2-1.2,0.4-1.8,0.5l-9.3,1.8C503.3,427.4,502.5,427.5,501.7,427.5z M514.2,358.5c-0.3,0-0.7,0-1,0.1l-31,6
			c-4.6,0.9-7.6,5.3-6.7,9.9l0,0c0.1,0.5,0.3,1.1,0.5,1.6l17.4,42.7c1.6,3.9,5.8,6.2,10,5.4l9.3-1.8c4.9-1,8-5.7,7.1-10.6
			c-0.1-0.4-0.2-0.9-0.4-1.3l-3.9-10.4c-3.7-9.9-3.1-20.9,1.5-30.3l1.8-3.7c1.3-2.6,0.2-5.8-2.4-7.1l0,0
			C515.8,358.7,515,358.5,514.2,358.5z"/>
		<path class="st21" d="M455.7,367.1c-4.8,0-8.9-3.4-9.8-8.1l-4-20.3c-1.1-5.4,2.5-10.7,7.9-11.7l0,0l0,0l5-1
			c5.4-1.1,10.7,2.5,11.7,7.9l0,0l0,0l4,20.2c1.1,5.4-2.5,10.7-7.9,11.7l0,0l0,0l-5,1C457,367,456.4,367.1,455.7,367.1z
			 M456.7,328.8c-0.4,0-0.9,0-1.3,0.1l-5,1c-3.8,0.7-6.3,4.4-5.5,8.2l4,20.2c0.7,3.8,4.4,6.3,8.2,5.5l5-1c3.8-0.7,6.3-4.4,5.5-8.2
			l-4-20.2C463,331.2,460.1,328.9,456.7,328.8L456.7,328.8z"/>
		<path class="st21" d="M619,340.2c-13,0-23.6-10.6-23.6-23.6S606,293,619,293c11.3,0,21,8,23.1,19l0,0c2.5,12.8-5.9,25.2-18.6,27.6
			l0,0C622,340.1,620.5,340.2,619,340.2z M619,296.1c-11.4,0-20.6,9.2-20.6,20.5c0,11.4,9.2,20.6,20.5,20.6
			c11.4,0,20.6-9.2,20.6-20.5c0-1.3-0.1-2.7-0.4-4l0,0C637.3,303.1,628.8,296.1,619,296.1L619,296.1z"/>
		<path class="st21" d="M647.7,327.5l-0.1-3c6-0.2,10.7-5.3,10.5-11.3s-5.3-10.7-11.3-10.5l-0.1-3c7.7-0.3,14.1,5.7,14.4,13.4
			C661.4,320.8,655.4,327.3,647.7,327.5L647.7,327.5z"/>
		<path class="st21" d="M648.7,335.5l-0.1-3c11,0.1,20-8.8,20.1-19.8s-8.8-20-19.8-20.1c-0.3,0-0.5,0-0.8,0s-0.7,0-1,0l-0.1-3
			c12.7-0.2,23.1,9.9,23.3,22.5C670.5,324.5,661,334.8,648.7,335.5L648.7,335.5z"/>
		<path class="st20" d="M628.4,361.1c0.8,4.1-2.3,7.5-5.8,6.4c-13.8-4.4-42.9-12.9-58.8-12.5c-29.7,0.7-58.4,8.4-87.2,14.1
			c-8.4,1.6-16.8-5.1-18.8-14.9l-3.6-18.6l-3.6-18.7c-1.9-9.8,3.4-19.2,11.8-20.9c28.9-5.6,58.4-9.2,86.1-19.8
			c16.9-6.4,36.8-14.9,49.7-30.1c2.7-3.2,7.6-1.4,8.5,3.1L628.4,361.1z"/>
		<path class="st25" d="M626.6,353.3l1.2,6.4c0.7,3.5-1.5,10.6-5,9.7c-13.6-3.4-43.3-13.9-59.1-13.2c-29.5,1.4-58.3,8.9-87.2,14.5
			c-8.4,1.6-16.6-3.9-18.2-12.3l-1.2-6.3c1.7,8.4,9.8,13.9,18.2,12.3c28.9-5.6,57.6-13.1,87.2-14.5c15.8-0.7,44.6,5.8,58.1,9.2
			c2.6,0.7,5.3-0.9,5.9-3.5C626.7,354.8,626.7,354.1,626.6,353.3L626.6,353.3z"/>
		<path class="st5" d="M607.2,253.1l1.2,6.4c-0.5-2.7-3.1-4.4-5.8-3.8c-1,0.2-1.9,0.7-2.6,1.4c-13.2,13.5-33.3,21.3-50.3,27.2
			c-27.9,9.8-57.3,13.7-86.2,19.4c-8.4,1.7-13.9,9.8-12.3,18.3l-1.2-6.4c-1.6-8.4,3.9-16.6,12.3-18.3c28.9-5.6,58.4-9.6,86.2-19.4
			c17-6,38-18.8,51.3-32.3C602.6,242.8,606.4,249.2,607.2,253.1z"/>
		<path class="st5" d="M601.6,283l2.1-0.4c0.5-0.1,1.1,0.2,1.2,0.8l5.1,26.3c0.1,0.5-0.2,1.1-0.8,1.2l-2.1,0.4
			c-0.5,0.1-1.1-0.2-1.2-0.8l-5.1-26.3C600.8,283.7,601.1,283.1,601.6,283z"/>
		<path class="st5" d="M607.6,315.6l2.1-0.4c0.5-0.1,1.1,0.2,1.2,0.8l0.4,2.1c0.1,0.5-0.2,1.1-0.8,1.2l-2.1,0.4
			c-0.5,0.1-1.1-0.2-1.2-0.8l-0.4-2.1C606.7,316.2,607.1,315.7,607.6,315.6z"/>
		<path class="st22" d="M466.1,294.9c-1.3,0.2-2.5,0.5-3.8,0.7c-7.5,1.5-12.4,9.4-11.9,18.3l-0.1,0.9l2,10l2.2,11.6l2.3,11.5
			l2.1,10.9h0.2c2.5,7.1,8.3,12,14.5,12.5c1.1,0.1,2.3,0,3.4-0.2l3.8-0.8c7.5-1.5,14.9-3.1,22.4-4.7l-14.6-74.8
			C481.1,292.2,473.6,293.5,466.1,294.9z"/>
		<path class="st23" d="M488.6,291.5l1.2,6.4c-9.2,1.7-18.4,3.3-27.5,5.1c-6.1,1.2-10.8,5.9-12.2,11.9l-0.4-2.2l0.1-0.7
			c-0.2-7.5,5-14,12.4-15.6h0.1l3.8-0.8l5-0.9l5-0.9l6.9-1.3C484.8,292.1,486.7,291.8,488.6,291.5z"/>
		<path class="st24" d="M501.4,357.9l1.2,6.4c-7.9,1.6-15.8,3.3-23.7,4.9l-2.7,0.5c-1,0.2-2.1,0.3-3.2,0.2c-0.4,0-0.9,0-1.3-0.1
			c-5.7-0.7-10.6-4.5-12.7-9.9h-0.2v-0.2c0.5-0.1,0.9-0.3,1.3-0.5c3.3,3.3,7.9,4.9,12.6,4.5c0.4,0,0.9-0.1,1.3-0.2
			C483.1,361.8,492.3,359.8,501.4,357.9z"/>
		<path class="st21" d="M473.6,372.2c-8.2,0-15.9-6.9-17.8-16.7l-7.4-38c-2.1-10.9,3.6-21.2,12.9-23c6.6-1.3,13.4-2.5,19.9-3.7
			c22-3.9,44.7-8,65.9-16.1c18.3-7,37-15.5,49-30c1.4-1.8,3.8-2.6,6-2c2.7,0.8,4.7,3.1,5.2,5.9l22.3,114c0.6,2.6-0.2,5.3-2.2,7.1
			c-1.5,1.4-3.7,1.8-5.6,1.2c-12.2-4-42.4-13.2-58.4-12.9c-22.8,0.5-45.3,5.2-67.2,9.9c-6.5,1.4-13.2,2.8-19.8,4.1
			C475.5,372.2,474.5,372.2,473.6,372.2z M600.6,245.5c-0.9,0-1.7,0.4-2.2,1.1c-12.5,15-31.5,23.7-50.2,30.9
			c-21.5,8.2-44.4,12.3-66.5,16.3c-6.5,1.2-13.3,2.4-19.9,3.6c-7.6,1.5-12.3,10.2-10.5,19.5l7.4,38c1.8,9.2,9.5,15.5,17,14.1
			c6.6-1.3,13.3-2.7,19.8-4.1c22-4.7,44.7-9.5,67.7-10c15.8-0.3,44,8,59.4,13.1c0.9,0.3,2,0.1,2.7-0.5c1.1-1.1,1.6-2.7,1.2-4.3
			l-22.3-114c-0.2-1.7-1.4-3-3-3.5C601,245.6,600.8,245.6,600.6,245.5z"/>
		
			<rect x="494.9" y="290.9" transform="matrix(0.9823 -0.1872 0.1872 0.9823 -52.5608 98.7182)" class="st21" width="3" height="73.5"/>
		<path class="st20" d="M489.8,421.2l36-7c2.7-0.5,5.3,1.2,5.9,3.9l0.6,2.9c0.5,2.7-1.2,5.3-3.9,5.9l-36,7c-2.7,0.5-5.3-1.2-5.9-3.9
			l-0.6-2.9C485.3,424.4,487.1,421.8,489.8,421.2z"/>
		<path class="st25" d="M531.5,420.4c0.7,3.5-1.6,6.9-5.1,7.6l-15.4,3c0.6-0.3,1.1-0.5,1.7-0.8c1.9-1,8.6-4.2,6.9-7.2
			c-0.7-1.3-2.4-1.6-3.8-1.3c-5.8,1.3-11.3,3.8-17.3,4.8c-2.5,0.4-5.4,0.5-7.1-1.4c-0.7-0.9-1.1-2-1.3-3.1c0.3-0.1,0.5-0.1,0.8-0.2
			l33.1-6.5C527.4,414.6,530.8,416.9,531.5,420.4z"/>
		<path class="st21" d="M491.3,435.5c-3.1,0-5.8-2.2-6.4-5.2l-0.6-2.9c-0.7-3.5,1.6-6.9,5.1-7.6l36-7c3.5-0.7,6.9,1.6,7.6,5.1
			l0.6,2.9c0.7,3.5-1.6,6.9-5.1,7.6l-36,7C492.2,435.5,491.7,435.5,491.3,435.5z M526.8,415.5c-0.2,0-0.4,0-0.7,0.1l-36,7
			c-1.9,0.4-3.1,2.2-2.8,4.1l0.6,2.9c0.3,1.9,2.1,3.2,4,2.9l0,0l36-7c1.9-0.4,3.1-2.2,2.8-4.1l-0.6-2.9
			C529.8,416.9,528.4,415.7,526.8,415.5L526.8,415.5z"/>
	</g>
</g>
<g id="Layer_1-2-3">
	<path class="st26" d="M573,373.7l153.6-41.9c14.7-4,29.8,4.7,33.8,19.3l32.1,117.6c4,14.7-4.7,29.8-19.3,33.8l-153.6,41.9
		c-14.7,4-29.8-4.7-33.8-19.3l-32.1-117.6C549.7,392.9,558.3,377.7,573,373.7z"/>
	<path class="st5" d="M573,373.7l153.6-41.9c14.7-4,29.8,4.7,33.8,19.3l32.1,117.6c4,14.7-4.7,29.8-19.3,33.8l-153.6,41.9
		c-14.7,4-29.8-4.7-33.8-19.3l-32.1-117.6C549.7,392.9,558.3,377.7,573,373.7z"/>
	<g class="st27">
		
			<rect x="574.3" y="385.6" transform="matrix(0.9648 -0.263 0.263 0.9648 -80.2624 179.0791)" class="st28" width="109" height="7.5"/>
		
			<rect x="583.9" y="424" transform="matrix(0.9648 -0.263 0.263 0.9648 -90.8616 176.6974)" class="st28" width="61.4" height="7.5"/>
		
			<rect x="587.8" y="436.7" transform="matrix(0.9648 -0.263 0.263 0.9648 -93.6131 181.549)" class="st28" width="87.1" height="7.5"/>
		
			<rect x="593.2" y="460.3" transform="matrix(0.9648 -0.263 0.263 0.9648 -100.6411 176.2391)" class="st28" width="29.6" height="7.5"/>
		
			<rect x="577.6" y="393.7" transform="matrix(0.9648 -0.263 0.263 0.9648 -81.2073 188.2273)" class="st28" width="169.8" height="7.5"/>
		<g class="st29">
			
				<rect x="575.4" y="389.6" transform="matrix(0.9648 -0.263 0.263 0.9648 -81.2757 179.5094)" class="st28" width="109" height="7.5"/>
			
				<rect x="585" y="428" transform="matrix(0.9648 -0.263 0.263 0.9648 -91.8748 177.1275)" class="st28" width="61.4" height="7.5"/>
			
				<rect x="588.9" y="440.7" transform="matrix(0.9648 -0.263 0.263 0.9648 -94.6263 181.9792)" class="st28" width="87.1" height="7.5"/>
			
				<rect x="594.3" y="464.3" transform="matrix(0.9648 -0.263 0.263 0.9648 -101.6545 176.6694)" class="st28" width="29.6" height="7.5"/>
			
				<rect x="578.7" y="397.7" transform="matrix(0.9648 -0.263 0.263 0.9648 -82.2206 188.6578)" class="st28" width="169.8" height="7.5"/>
		</g>
	</g>
	<circle class="st30" cx="682.6" cy="471.2" r="26.5"/>
	<path class="st31" d="M661.9,476.8c-3.6-13.2,3.4-26.9,16.2-31.8c-0.8,0.1-1.7,0.3-2.5,0.5c-14.1,3.9-22.5,18.4-18.6,32.6
		c3.9,14.1,18.4,22.5,32.6,18.6c0.9-0.2,1.6-0.5,2.4-0.8C678.5,498.3,665.5,490,661.9,476.8z"/>
	<path class="st5" d="M672.4,478.2l10.2,5.3c1,0.5,2.2,0.2,2.7-0.8l0,0c0.1-0.1,0.1-0.3,0.2-0.4l6.8-23.1c0.7-2.4-3.1-3.5-3.8-1
		l-6.8,23.1l2.9-1.2l-10.2-5.3C672.1,473.6,670.1,477,672.4,478.2z"/>
	<g class="st32">
		<path class="st5" d="M620.9,360.7l-4,160.3l-3.1,0.9c-4.4,1.2-8.8,1.2-12.1,0l4-156.9L620.9,360.7z"/>
		<polygon class="st5" points="633.9,357.2 629.9,517.4 622.2,519.5 626.3,359.3 		"/>
	</g>
</g>
<g>
	<path class="st33" d="M383.5,207.7l2.7,5.2l-0.5-0.8c0-1.9,0.6-3.7,1.8-5.4c1.2-1.7,2.9-2.9,5-3.8c2.1-0.9,4-1,5.9-0.3
		s3.2,2,4.1,3.9l6.9,16.4l-5,2.1l-6.2-14.7c-0.5-1.2-1.3-2-2.3-2.5s-2.2-0.4-3.6,0.2c-1.2,0.5-2.2,1.4-3,2.5c-0.8,1.2-1.2,2.5-1.2,4
		c-0.1,1.5,0.3,3.1,1,4.7l4.4,10.4l-5,2.1l-9.4-22.1L383.5,207.7z"/>
	<path class="st33" d="M411.2,208.8c-0.9-2.2-1.3-4.4-1-6.7c0.3-2.2,1.2-4.3,2.6-6.1s3.3-3.2,5.7-4.3c2.4-1,4.7-1.4,7-1.1
		c2.3,0.3,4.3,1.1,6,2.4c1.8,1.4,3.1,3.1,4.1,5.3c0.9,2.2,1.3,4.4,1,6.6c-0.3,2.2-1.1,4.2-2.5,6.1c-1.4,1.8-3.3,3.2-5.7,4.3
		c-2.4,1-4.7,1.4-7,1.2s-4.3-1-6.1-2.3C413.6,213,412.2,211.1,411.2,208.8z M416.3,206.7c0.6,1.4,1.5,2.6,2.6,3.5s2.4,1.4,3.7,1.7
		c1.4,0.2,2.7,0.1,4.1-0.5s2.5-1.4,3.3-2.6c0.8-1.1,1.2-2.4,1.4-3.8c0.1-1.4-0.1-2.8-0.7-4.3c-0.6-1.4-1.5-2.6-2.6-3.5
		s-2.4-1.5-3.7-1.7c-1.4-0.2-2.7-0.1-4.1,0.5s-2.4,1.4-3.2,2.6c-0.8,1.2-1.2,2.5-1.4,3.9C415.4,203.9,415.7,205.3,416.3,206.7z"/>
	<path class="st33" d="M459.1,175.7l3.2,6.2l-0.6-0.8c0-1.6,0.3-3,1-4.5c0.7-1.4,1.5-2.6,2.5-3.6s1.9-1.7,2.8-2.1l1.9,5.1
		c-1.8,0.6-3.1,1.5-4.1,2.8s-1.5,2.7-1.7,4.3c-0.2,1.5,0,3,0.6,4.4l4.3,10.1l-5,2.1l-9.4-22.1L459.1,175.7z"/>
	<path class="st33" d="M493.7,187.8c-2.5,1.1-4.9,1.5-7.2,1.2c-2.2-0.2-4.2-1-6-2.4c-1.7-1.3-3.1-3.2-4.1-5.4
		c-0.9-2.2-1.2-4.4-0.8-6.7c0.4-2.3,1.3-4.3,2.7-6.2c1.4-1.9,3.2-3.3,5.5-4.2c2.9-1.2,5.7-1.4,8.4-0.5c2.7,0.9,5,2.7,6.9,5.4
		l-15.6,14.2l-2.4-2.4l12.6-11.8l-0.7,1.2c-0.9-1-2.1-1.7-3.4-2.1c-1.4-0.4-2.8-0.3-4.4,0.4c-1.4,0.6-2.4,1.4-3.2,2.5
		c-0.8,1.1-1.2,2.3-1.4,3.7c-0.1,1.4,0.1,2.8,0.8,4.3c0.6,1.5,1.5,2.7,2.6,3.6c1.1,0.9,2.4,1.5,3.8,1.6s2.8,0,4.2-0.6
		c1-0.4,1.8-1,2.6-1.7c0.8-0.7,1.4-1.6,2-2.5l3.8,2.7c-0.8,1.2-1.8,2.3-2.9,3.4C496.2,186.4,495,187.2,493.7,187.8z"/>
	<path class="st33" d="M520.1,176.6c-2,0.8-4,1.1-6,0.9c-2.1-0.2-3.9-1-5.7-2.4c-1.7-1.3-3.1-3.2-4.1-5.6c-1-2.4-1.4-4.7-1-6.9
		c0.3-2.2,1.1-4.2,2.5-6c1.3-1.7,3.1-3.1,5.2-4c2-0.8,3.9-1.1,5.8-0.9c1.9,0.2,3.6,0.8,5.1,1.8l0.1,1.8l-2.4-5.7l5-2.1l14,33.1
		l-5,2.1l-6.9-16.3l1.2,2c-0.3,1.6-1.2,3.1-2.5,4.6C523.9,174.5,522.2,175.7,520.1,176.6z M520.1,171.9c1.3-0.5,2.4-1.3,3.2-2.2
		c0.9-1,1.4-2,1.8-3.2s0.4-2.4,0.1-3.5l-1.6-3.8c-0.8-1.1-1.7-1.9-2.8-2.4c-1.1-0.6-2.2-0.9-3.4-0.9s-2.5,0.2-3.8,0.8
		s-2.4,1.4-3.3,2.6c-0.9,1.2-1.4,2.5-1.6,3.9s0,2.9,0.6,4.4s1.5,2.6,2.7,3.5s2.5,1.4,3.9,1.6C517.4,172.7,518.8,172.5,520.1,171.9z"
		/>
	<path class="st33" d="M550.1,164.3c-2.1,0.9-4,1-5.8,0.3s-3.2-2-4.1-3.9l-6.9-16.4l5-2.1l6.2,14.6c0.6,1.1,1.3,2,2.3,2.5
		s2.1,0.5,3.5-0.1c1.2-0.5,2.2-1.3,2.8-2.5c0.7-1.1,1-2.5,1.1-4s-0.2-3.1-0.9-4.7l-4.4-10.3l5-2.1l9.4,22.1l-4.5,1.9l-2.7-5.3
		l0.8,0.9c0,1.2-0.3,2.4-0.8,3.5c-0.5,1.2-1.3,2.2-2.3,3.2C552.7,162.9,551.5,163.7,550.1,164.3z"/>
	<path class="st33" d="M582.4,150.2c-2.5,1.1-4.9,1.5-7.2,1.2s-4.2-1-6-2.4c-1.7-1.3-3.1-3.2-4.1-5.4c-0.9-2.2-1.2-4.4-0.8-6.7
		s1.3-4.3,2.7-6.2s3.2-3.3,5.5-4.2c2.9-1.2,5.7-1.4,8.4-0.5s5,2.7,6.9,5.4l-15.6,14.2l-2.4-2.4l12.6-11.8l-0.7,1.2
		c-0.9-1-2.1-1.7-3.4-2.1c-1.4-0.4-2.8-0.3-4.4,0.4c-1.4,0.6-2.4,1.4-3.2,2.5s-1.2,2.3-1.4,3.7c-0.1,1.4,0.1,2.8,0.8,4.3
		c0.6,1.5,1.5,2.7,2.6,3.6c1.1,0.9,2.4,1.5,3.8,1.6c1.4,0.2,2.8,0,4.2-0.6c1-0.4,1.8-1,2.6-1.7s1.4-1.6,2-2.5l3.8,2.7
		c-0.8,1.2-1.8,2.3-2.9,3.4C585,148.9,583.7,149.7,582.4,150.2z"/>
	<path class="st33" d="M606.1,140.1c-1.6,0.7-3.2,1-4.9,1.1s-3.3-0.2-4.7-0.9l0.9-3.8c1.3,0.5,2.6,0.7,3.7,0.8
		c1.2,0,2.2-0.1,3.2-0.6c0.7-0.3,1.3-0.7,1.9-1.1c0.5-0.4,0.9-0.9,1.1-1.5c0.2-0.6,0.1-1.2-0.1-1.9c-0.3-0.8-0.9-1.3-1.6-1.6
		c-0.7-0.2-1.5-0.3-2.4-0.3s-1.9,0.1-2.9,0.3c-2.1,0.2-3.8-0.1-5.2-0.7c-1.4-0.7-2.4-1.8-3.1-3.3c-0.5-1.2-0.7-2.4-0.5-3.7
		c0.2-1.3,0.7-2.5,1.6-3.6c0.9-1.2,2.2-2.1,3.9-2.8c1.5-0.6,3-1,4.4-1.2c1.4-0.1,2.8,0,4.2,0.4l-0.7,3.9c-0.9-0.4-1.9-0.6-2.9-0.6
		s-1.9,0.2-2.6,0.5c-0.6,0.3-1.2,0.6-1.7,1.1c-0.5,0.4-0.8,0.9-1,1.4s-0.2,1.1,0.1,1.6c0.3,0.8,0.8,1.3,1.5,1.5s1.5,0.3,2.4,0.3
		s1.8-0.1,2.8-0.2c1.2-0.1,2.4-0.1,3.4,0.1s2,0.5,2.9,1.1c0.8,0.6,1.5,1.4,2,2.6c0.6,1.3,0.8,2.7,0.6,4.1c-0.1,1.4-0.7,2.7-1.7,3.9
		C609.6,138.2,608.1,139.2,606.1,140.1z"/>
	<path class="st33" d="M610.1,100.3l5.1-2.2l4.2,9.8l6-2.6l1.7,3.9l-6,2.6l7.7,18.1l-5.1,2.2L616,114l-4,1.7l-1.7-3.9l4-1.7
		L610.1,100.3z"/>
	<path class="st33" d="M647.1,122.7c-1.6,0.7-3.2,1-4.9,1.1s-3.3-0.2-4.7-0.9l0.9-3.8c1.3,0.5,2.6,0.7,3.7,0.8
		c1.2,0,2.2-0.1,3.2-0.6c0.7-0.3,1.3-0.7,1.9-1.1c0.5-0.4,0.9-0.9,1.1-1.5c0.2-0.6,0.1-1.2-0.1-1.9c-0.3-0.8-0.9-1.3-1.6-1.6
		c-0.7-0.2-1.5-0.3-2.4-0.3s-1.9,0.1-2.9,0.3c-2.1,0.2-3.8-0.1-5.2-0.7s-2.4-1.8-3.1-3.3c-0.5-1.2-0.7-2.4-0.5-3.7
		c0.2-1.3,0.7-2.5,1.6-3.6c0.9-1.2,2.2-2.1,3.9-2.8c1.5-0.6,3-1,4.4-1.2s2.8,0,4.2,0.4l-0.7,3.9c-0.9-0.4-1.9-0.6-2.9-0.6
		s-1.9,0.2-2.6,0.5c-0.6,0.3-1.2,0.6-1.7,1.1c-0.5,0.4-0.8,0.9-1,1.4s-0.1,1.1,0.1,1.6c0.3,0.8,0.8,1.3,1.5,1.5s1.5,0.3,2.4,0.3
		s1.8-0.1,2.8-0.2c1.2-0.1,2.3-0.1,3.4,0.1c1.1,0.2,2,0.5,2.9,1.1c0.8,0.6,1.5,1.4,2,2.6c0.6,1.3,0.8,2.7,0.6,4.1
		c-0.1,1.4-0.7,2.7-1.7,3.9C650.5,120.9,649.1,121.9,647.1,122.7z"/>
	<path class="st33" d="M644,75.6l4.5-1.9l13,30.7l-4.5,1.9L644,75.6z M663.5,115c-0.9,0.4-1.8,0.4-2.6,0.2c-0.8-0.3-1.5-0.8-1.8-1.7
		c-0.3-0.8-0.3-1.6,0.1-2.4c0.4-0.8,1-1.4,1.9-1.8s1.8-0.4,2.6-0.1s1.4,0.9,1.7,1.7c0.4,0.9,0.4,1.7,0,2.5
		C665,114.1,664.4,114.6,663.5,115z"/>
</g>
</svg>
