<svg id="Layer_1" data-name="Layer 1" xmlns="http://www.w3.org/2000/svg" viewBox="0 0 412.24 405.24"><defs><style>.cls-1,.cls-7{fill:#fff;}.cls-1{opacity:0.3;}.cls-1,.cls-10,.cls-4,.cls-9{isolation:isolate;}.cls-2{fill:#426572;}.cls-3{fill:#a9ea9c;}.cls-4{fill:#91cd86;}.cls-10,.cls-4{opacity:0.5;}.cls-14,.cls-5{fill:#1d6855;}.cls-6{fill:none;stroke:#1d6855;stroke-miterlimit:10;stroke-width:10.46px;}.cls-8{fill:#f5e48f;}.cls-9{fill:#dec378;opacity:0.6;}.cls-10{fill:#e1d2d5;}.cls-11{fill:#b0dfea;}.cls-12{fill:#95bcc9;}.cls-13{fill:#d9f4f9;}.cls-14{font-size:59.46px;font-family:ArialRoundedMTBold, Arial Rounded MT Bold;}</style></defs><g id="Layer_2" data-name="Layer 2"><g id="Layer_1-2" data-name="Layer 1-2"><path class="cls-1" d="M167.16,226.48a80.7,80.7,0,0,1-80.58-76.21c-.08,1.48-.13,3-.13,4.47a80.7,80.7,0,0,0,161.4,0c0-1.5,0-3-.13-4.47A80.7,80.7,0,0,1,167.16,226.48Z" transform="translate(0 0)"/><polygon class="cls-2" points="112.17 168.09 89.06 168.09 89.06 162.13 106.21 162.13 106.21 148.95 112.17 148.95 112.17 168.09"/><path class="cls-2" d="M187.11,109a10.15,10.15,0,1,1,10.16-10.15A10.14,10.14,0,0,1,187.11,109Zm0-14.35a4.19,4.19,0,1,0,4.19,4.19A4.2,4.2,0,0,0,187.11,94.68Z" transform="translate(0 0)"/><polygon class="cls-2" points="227.78 177.47 221.82 177.47 221.82 158 245.34 158 245.34 163.96 227.78 163.96 227.78 177.47"/><path class="cls-2" d="M225,192.48a9.29,9.29,0,1,1,9.29-9.29h0A9.3,9.3,0,0,1,225,192.48Zm0-12.63a3.33,3.33,0,1,0,3.34,3.33,3.33,3.33,0,0,0-3.34-3.33h0Z" transform="translate(0 0)"/><polygon class="cls-2" points="173.24 237.71 167.28 237.71 167.28 220.78 154.28 220.78 154.28 214.82 173.24 214.82 173.24 237.71"/><path class="cls-2" d="M148.75,227.05a9.1,9.1,0,1,1,9.1-9.1A9.09,9.09,0,0,1,148.75,227.05Zm0-12.24a3.14,3.14,0,1,0,3.14,3.14h0A3.15,3.15,0,0,0,148.75,214.81Z" transform="translate(0 0)"/><g id="Layer_2-2" data-name="Layer 2"><g id="Layer_1-2-2" data-name="Layer 1-2"><path class="cls-3" d="M18.39,315.59,128,14.43c2.27-6.23,7.94-9.88,12.67-8.16L311.44,68.42c4.74,1.72,6.74,8.17,4.47,14.4L206.29,384c-2.26,6.22-7.94,9.88-12.67,8.15L22.86,330C18.13,328.26,16.13,321.82,18.39,315.59Z" transform="translate(0 0)"/><path class="cls-1" d="M302.81,61.48,315,65.9c4.22,1.55,6,7.3,4,12.87L208.48,382.29c-2,5.57-7.11,8.84-11.35,7.31L185,385.18c4.23,1.53,9.3-1.74,11.34-7.3L306.8,74.36C308.82,68.79,307,63,302.81,61.48Z" transform="translate(0 0)"/><path class="cls-4" d="M133.81,6.35C190.4,73.73,122,302,104.42,356.82L24.26,327.64c-4.22-1.55-6-7.31-4-12.88L130.74,11.24A13.26,13.26,0,0,1,133.81,6.35Z" transform="translate(0 0)"/><path class="cls-5" d="M320.19,84.38,210.58,385.54c-3.4,9.34-11.91,14.82-19,12.23L20.81,335.62c-7.1-2.58-10.1-12.25-6.7-21.59L123.72,12.87c3.4-9.34,11.91-14.81,19-12.23L313.49,62.79C320.59,65.37,323.59,75,320.19,84.38ZM22.68,317.15c-1.13,3.11-.13,6.33,2.23,7.2L195.67,386.5c2.37.86,5.21-1,6.34-4.08L311.62,81.26c1.13-3.11.13-6.33-2.23-7.19L138.63,11.92c-2.37-.87-5.21,1-6.34,4.07Z" transform="translate(0 0)"/><path class="cls-6" d="M39.28,310.25" transform="translate(0 0)"/></g></g><path class="cls-7" d="M220.34,115.31A69,69,0,0,1,234,145.18c.34,1.88,3.22,1.09,2.87-.79a71.89,71.89,0,0,0-14.4-31.19c-1.17-1.51-3.27.61-2.11,2.11Z" transform="translate(0 0)"/><path class="cls-7" d="M206.62,101.65a62.18,62.18,0,0,1,9.12,8.42c1.32,1.4,3.42-.71,2.11-2.11a65.48,65.48,0,0,0-9.72-8.88c-1.57-1.11-3.06,1.48-1.5,2.57Z" transform="translate(0 0)"/><circle class="cls-8" cx="229.93" cy="158.08" r="80.7"/><path class="cls-9" d="M308.61,158.07A80.71,80.71,0,0,1,153.33,189a42.67,42.67,0,0,1,35.25-3c8.53,3.11,15.89,8.93,24.48,11.89,18.59,6.41,41-3.09,50.17-20.48s5-40.52-9.11-54.28c-7.19-7-16.38-11.66-25.79-15.18A143.42,143.42,0,0,0,172.87,99a80.7,80.7,0,0,1,135.74,59Z" transform="translate(0 0)"/><path class="cls-10" d="M228,85.83a80.7,80.7,0,0,1,80.58,76.23c.08-1.48.13-3,.13-4.47a80.7,80.7,0,0,0-161.4,0v0c0,1.5,0,3,.13,4.47A80.7,80.7,0,0,1,228,85.83Z" transform="translate(0 0)"/><path class="cls-1" d="M228,227.61a80.7,80.7,0,0,1-80.58-76.23c-.08,1.48-.13,3-.13,4.47a80.7,80.7,0,1,0,161.4,0v0c0-1.5,0-3-.13-4.47A80.7,80.7,0,0,1,228,227.61Z" transform="translate(0 0)"/><polygon class="cls-2" points="172.95 169.2 149.85 169.2 149.85 163.25 167 163.25 167 150.07 172.95 150.07 172.95 169.2"/><path class="cls-2" d="M169.82,153.65a9.17,9.17,0,1,1,9.18-9.17A9.16,9.16,0,0,1,169.82,153.65Zm0-12.37a3.21,3.21,0,1,0,3.18,3.24v0A3.21,3.21,0,0,0,169.82,141.28Z" transform="translate(0 0)"/><polygon class="cls-2" points="241.43 103.15 219.72 103.15 219.72 76.84 225.68 76.84 225.68 97.19 241.43 97.19 241.43 103.15"/><path class="cls-2" d="M247.9,110.15A10.15,10.15,0,1,1,258.05,100h0A10.16,10.16,0,0,1,247.9,110.15Zm0-14.35a4.19,4.19,0,1,0,4.19,4.19A4.2,4.2,0,0,0,247.9,95.8Z" transform="translate(0 0)"/><polygon class="cls-2" points="288.57 178.59 282.61 178.59 282.61 159.12 306.13 159.12 306.13 165.08 288.57 165.08 288.57 178.59"/><path class="cls-2" d="M285.74,193.58a9.29,9.29,0,1,1,9.26-9.32v0A9.3,9.3,0,0,1,285.74,193.58Zm0-12.63a3.33,3.33,0,1,0,3.34,3.33A3.33,3.33,0,0,0,285.74,181Z" transform="translate(0 0)"/><polygon class="cls-2" points="234.03 238.82 228.07 238.82 228.07 221.9 215.07 221.9 215.07 215.94 234.03 215.94 234.03 238.82"/><path class="cls-2" d="M209.54,228.17a9.1,9.1,0,1,1,9.1-9.1A9.09,9.09,0,0,1,209.54,228.17Zm0-12.24a3.14,3.14,0,1,0,3.14,3.14h0A3.15,3.15,0,0,0,209.54,215.93Z" transform="translate(0 0)"/><path id="BTC_alt-2" data-name="BTC alt-2" class="cls-2" d="M254.55,157.58a19.22,19.22,0,0,0-6.55-2.84,17.79,17.79,0,0,0,4.57-3.76,14.24,14.24,0,0,0,2.1-6.3c.11-1.51.37-7.85-4.57-11.5-3.82-2.82-8.2-3.94-14.07-4.31V116.09h-7.89v12.64h-6V116.09h-7.88v12.64h-15.5v8.19h4.56c1.24,0,3.45.14,4.39,1.19s1.11,1.6,1.11,3.65v32.63a3.19,3.19,0,0,1-.81,2.36c-.66.63-1.33.77-2.91.77h-4.72L198.76,187h15.51v12.6h7.88V187h6v12.6H236V186.77c2-.12,3.94-.27,5-.42a26.17,26.17,0,0,0,12.09-4.2c4.75-3.32,5.82-8.51,5.93-13.74S257.23,159.6,254.55,157.58Zm-32.39-19.94s2.51-.22,5-.18a25.08,25.08,0,0,1,7.84,1.11c3.24,1,5.16,3.43,5.23,6.3a6.19,6.19,0,0,1-3.39,6,19.17,19.17,0,0,1-8.14,2c-2.87.11-6.56,0-6.56,0Zm17.65,37.69a25,25,0,0,1-8.92,2.14c-3.5.26-8.73.15-8.73.15V160.71s5-.26,8.92,0a25.38,25.38,0,0,1,8.66,2,7,7,0,0,1,.07,12.64Z" transform="translate(0 0)"/><path class="cls-7" d="M281.13,116.42a69,69,0,0,1,13.63,29.88c.34,1.88,3.22,1.09,2.87-.79a71.89,71.89,0,0,0-14.4-31.19c-1.17-1.51-3.27.61-2.11,2.11Z" transform="translate(0 0)"/><path class="cls-7" d="M267.41,102.77a62.18,62.18,0,0,1,9.12,8.42c1.32,1.4,3.42-.71,2.11-2.11a65.48,65.48,0,0,0-9.72-8.88c-1.57-1.11-3.06,1.48-1.5,2.57Z" transform="translate(0 0)"/><path class="cls-2" d="M227.14,243.81a84.61,84.61,0,1,1,84.6-84.62h0A84.7,84.7,0,0,1,227.14,243.81Zm0-161.4a76.8,76.8,0,1,0,76.8,76.8,76.8,76.8,0,0,0-76.8-76.8Z" transform="translate(0 0)"/><rect class="cls-11" x="6" y="149.92" width="360.45" height="245.76" rx="44.83"/><path class="cls-12" d="M366.45,330.3v27.31a40.8,40.8,0,0,1-40.79,40.81H46.81A40.8,40.8,0,0,1,6,357.63V330.3a40.8,40.8,0,0,0,40.79,40.81H325.65a40.8,40.8,0,0,0,40.8-40.8Z" transform="translate(0 0)"/><path class="cls-2" d="M321.62,405.24H50.83A50.88,50.88,0,0,1,0,354.41V198.31a50.88,50.88,0,0,1,50.83-50.83H321.62a50.88,50.88,0,0,1,50.83,50.83v156.1A50.88,50.88,0,0,1,321.62,405.24ZM50.83,159.48A38.86,38.86,0,0,0,12,198.31v156.1a38.86,38.86,0,0,0,38.83,38.83H321.62a38.86,38.86,0,0,0,38.83-38.83V198.31a38.86,38.86,0,0,0-38.83-38.83Z" transform="translate(0 0)"/><path class="cls-2" d="M320.21,379.68h-12v-7h12Zm-23.86,0H284.48v-7h11.87Zm-23.74,0H260.74v-7h11.87Zm-23.74,0H237v-7h11.87Zm-23.74,0H213.26v-7h11.87Zm-23.74,0H189.53v-7H201.4Zm-23.74,0H165.79v-7h11.87Zm-23.74,0H142v-7h11.87Zm-23.74,0H118.31v-7h11.87Zm-23.74,0H94.57v-7h11.87Zm-23.74,0H70.83v-7H82.7Zm-23.69,0H55.1a30.57,30.57,0,0,1-8.91-1.32l2-6.7a23.5,23.5,0,0,0,6.87,1H59Zm274.22-2.95-3-6.32a23.7,23.7,0,0,0,8.08-6.31l5.4,4.45a30.87,30.87,0,0,1-10.51,8.18ZM34.63,371.79A30.78,30.78,0,0,1,27,360.94l6.46-2.71a23.62,23.62,0,0,0,5.92,8.36Zm315-15.11L342.84,355a23.63,23.63,0,0,0,.72-5.8V344h7v5.14a30.27,30.27,0,0,1-.89,7.52ZM31.58,348h-7V336.13h7Zm319-15.85h-7V320.28h7Zm-319-7.89h-7V312.39h7Zm319-15.85h-7V296.54h7Zm-319-7.93h-7V288.66h7Zm319-15.85h-7V272.8h7Zm-319-7.89h-7V264.92h7Zm319-15.85h-7V249.07h7ZM31.58,253h-7V241.18h7Zm319-15.85h-7V225.33h7Zm-319-7.89h-7V217.48h7Zm319-15.85h-7V201.59h7Zm-319-7.89h-7v-5a30.41,30.41,0,0,1,1-7.59l6.78,1.74a23.56,23.56,0,0,0-.73,5.85Zm310.19-14.21a23.86,23.86,0,0,0-5.94-8.35l4.69-5.2a30.78,30.78,0,0,1,7.71,10.83ZM37,185.48,31.61,181a30.74,30.74,0,0,1,10.49-8.16l3,6.33A23.71,23.71,0,0,0,37,185.48Zm289.94-7.54a23.51,23.51,0,0,0-6.82-1H316.2v-7h3.92a30.83,30.83,0,0,1,8.85,1.3Zm-22.61-1h-11.9v-7H304.3Zm-23.74,0h-11.9v-7h11.87Zm-23.74,0H245v-7h11.87Zm-23.74,0h-11.9v-7h11.87Zm-23.74,0h-11.9v-7h11.87Zm-23.74,0H173.74v-7h11.87Zm-23.74,0H150v-7h11.87Zm-23.74,0H126.26v-7h11.87Zm-23.74,0H102.52v-7h11.87Zm-23.74,0H78.78v-7H90.65Zm-23.74,0H55.1l-.06-7H66.91Z" transform="translate(0 0)"/><path class="cls-12" d="M360.24,323.54l-66,4.38a40.28,40.28,0,0,1-43.37-40.63h0a40.81,40.81,0,0,1,40.79-40.81H348.4a40.81,40.81,0,0,1,40.81,40.81h0C389.21,309.82,382.77,323.54,360.24,323.54Z" transform="translate(0 0)"/><path class="cls-13" d="M303.5,231.92h56.74a40.81,40.81,0,0,1,40.81,40.81h0a40.81,40.81,0,0,1-40.81,40.8H303.5a40.81,40.81,0,0,1-40.81-40.8h0A40.81,40.81,0,0,1,303.5,231.92Z" transform="translate(0 0)"/><path class="cls-2" d="M364.79,323.17H308a46.81,46.81,0,1,1-1.37-93.61h58.12a46.81,46.81,0,0,1,1.37,93.61h-1.33ZM308,241.56a34.81,34.81,0,1,0-1.18,69.61h57.93a34.81,34.81,0,1,0,1.18-69.61H308Z" transform="translate(0 0)"/><path class="cls-7" d="M48.13,194A3.77,3.77,0,0,0,45,197.11v1.15l-.07,1.48c-.19,3.89-.47,7.4-.82,10.34-.69,5.89-1.65,9.53-2.71,9.53s-2-3.64-2.71-9.53c-.35-2.94-.63-6.45-.82-10.34l-.07-1.48v-1.87a10.87,10.87,0,0,1,9.2-9.91,10.7,10.7,0,0,1,1.27-.11H50.9l3.23.06c2.12,0,4.16.13,6.11.22,3.89.19,7.4.47,10.34.82,5.89.69,9.53,1.65,9.53,2.71s-3.64,2-9.53,2.71c-2.94.35-6.45.63-10.34.82-2,.1-4,.17-6.11.22L50.9,194H48.53A2.73,2.73,0,0,0,48.13,194Z" transform="translate(0 0)"/><ellipse class="cls-7" cx="103.91" cy="190.16" rx="11.04" ry="3.83"/></g></g><text class="cls-14" transform="translate(174.99 80.56) rotate(-70)">$</text></svg>