<?xml version="1.0" encoding="utf-8"?>
<!-- Generator: Adobe Illustrator 24.0.3, SVG Export Plug-In . SVG Version: 6.00 Build 0)  -->
<svg version="1.1" id="Layer_1" xmlns="http://www.w3.org/2000/svg" xmlns:xlink="http://www.w3.org/1999/xlink" x="0px" y="0px"
	 viewBox="0 0 507.7 487.4" style="enable-background:new 0 0 507.7 487.4;" xml:space="preserve">
<path d="M460.2,167h-50.4l-1.3,79.9c0,24.1-23.2,43.6-51.8,43.6l-214.2-1.3v97.9c0,22.1,21.3,40,47.5,40l205-1.1l28.8,54.7
	c5.1,8.5,19.9,10,20.9-2.2l15.6-51.3c26.2,0,47.5-18,47.5-40V207C507.7,185,486.4,167,460.2,167z"/>
<path d="M328.1,0H50.5C24.3,0,3,18,3,40v180.2c0,22.1,21.3,40,47.5,40L66,311.5c1,12.2,15.8,10.7,20.9,2.2l28.8-54.6l212.3,1.1
	c26.2,0,47.5-18,47.5-40V40C375.5,17.9,354.3,0,328.1,0z M310.9,200H67.6c-5.8,0-10.4-4.7-10.4-10.4s4.7-10.4,10.4-10.4h243.3
	c5.8,0,10.4,4.7,10.4,10.4S316.6,200,310.9,200z M321.3,128.5c0,5.8-4.7,10.4-10.4,10.4H67.6c-5.8,0-10.4-4.7-10.4-10.4v0
	c0-5.8,4.7-10.4,10.4-10.4h243.3C316.6,118.1,321.3,122.7,321.3,128.5L321.3,128.5z M321.3,64.5c0,5.8-4.7,10.4-10.4,10.4h-205
	c-5.8,0-10.4-4.7-10.4-10.4v0c0-5.8,4.7-10.4,10.4-10.4h205C316.6,54.1,321.3,58.7,321.3,64.5L321.3,64.5z"/>
</svg>
