<?xml version="1.0" encoding="utf-8"?>
<!-- Generator: Adobe Illustrator 24.1.0, SVG Export Plug-In . SVG Version: 6.00 Build 0)  -->
<svg version="1.1" id="Layer_1" focusable="false" xmlns="http://www.w3.org/2000/svg" xmlns:xlink="http://www.w3.org/1999/xlink"
	 x="0px" y="0px" viewBox="0 0 384 384.3" style="enable-background:new 0 0 384 384.3;" xml:space="preserve">
<path d="M374,220c-20.9-20.6-80.6-14.9-110.5-11.1c-29.5-18-49.2-42.9-63.1-79.4c6.7-27.6,17.3-69.6,9.3-96.1
	c-7.2-44.9-64.8-40.5-73.1-10.1c-7.5,27.6-0.7,66,12,115.1c-17.2,41-42.7,96.1-60.7,127.6c-34.3,17.7-80.6,44.9-87.5,79.2
	C-5.2,372.3,45,439.9,131,291.7c38.4-12.7,80.3-28.3,117.3-34.5c32.4,17.5,70.3,29.2,95.7,29.2C387.7,286.3,392,238,374,220z
	 M35.1,352.5c8.7-23.4,41.8-50.3,51.9-59.7C54.5,344.5,35.1,353.7,35.1,352.5z M174.3,27.4c12.6,0,11.4,54.8,3.1,69.6
	C169.9,73.3,170,27.4,174.3,27.4z M132.7,260.4c16.5-28.8,30.7-63.1,42.1-93.3c14.2,25.8,32.2,46.4,51.3,60.6
	C190.7,235,159.8,250,132.7,260.4z M357.1,251.9c0,0-8.5,10.2-63.6-13.3C353.4,234.1,363.3,247.8,357.1,251.9z"/>
</svg>
