<?xml version="1.0" encoding="utf-8"?>
<svg version="1.1" id="Layer_1" focusable="false" xmlns="http://www.w3.org/2000/svg" xmlns:xlink="http://www.w3.org/1999/xlink"
	 x="0px" y="0px" viewBox="0 0 576 512" xml:space="preserve">
<path d="M304,32H16C7.2,32,0,39.2,0,48v96c0,8.8,7.2,16,16,16h32c8.8,0,16-7.2,16-16v-32h56v304H80c-8.8,0-16,7.2-16,16v32
	c0,8.8,7.2,16,16,16h160c8.8,0,16-7.2,16-16v-32c0-8.8-7.2-16-16-16h-40V112h56v32c0,8.8,7.2,16,16,16h32c8.8,0,16-7.2,16-16V48
	C320,39.2,312.8,32,304,32z M564.8,166.4H363.2c-6.2,0-11.2,5-11.2,11.2v67.2c0,6.2,5,11.2,11.2,11.2h22.4c6.2,0,11.2-5,11.2-11.2
	v-22.4H436v212.8h-28c-6.2,0-11.2,5-11.2,11.2v22.4c0,6.2,5,11.2,11.2,11.2h112c6.2,0,11.2-5,11.2-11.2v-22.4
	c0-6.2-5-11.2-11.2-11.2h-28V222.4h39.2v22.4c0,6.2,5,11.2,11.2,11.2h22.4c6.2,0,11.2-5,11.2-11.2v-67.2
	C576,171.4,571,166.4,564.8,166.4z"/>
</svg>
