<?xml version="1.0" encoding="utf-8"?>
<!-- Generator: Adobe Illustrator 24.0.1, SVG Export Plug-In . SVG Version: 6.00 Build 0)  -->
<svg version="1.1" id="Layer_1" focusable="false" xmlns="http://www.w3.org/2000/svg" xmlns:xlink="http://www.w3.org/1999/xlink"
	 x="0px" y="0px" viewBox="0 0 512 512" style="enable-background:new 0 0 512 512;" xml:space="preserve">
<path d="M423.4,32H88.6C39.7,32,0,71.7,0,120.6v270.9C0,440.3,39.7,480,88.6,480h334.9c48.9,0,88.6-39.7,88.6-88.6V120.6
	C512,71.7,472.3,32,423.4,32z M464,382.4c0,27.3-22.3,49.6-49.6,49.6H97.6C70.3,432,48,409.7,48,382.4V129.5
	C48,102.3,70.3,80,97.5,80h307.1c32.7,0,59.4,26.7,59.4,59.4V382.4z M356.5,194.6l-53.6,53.6c-4.3,4.3-4.3,11.3,0,15.6l53.6,53.6
	c4.6,4.6,4.6,12.1,0,16.8l-22.3,22.3c-4.6,4.6-12.1,4.6-16.8,0l-53.6-53.6c-4.3-4.3-11.3-4.3-15.6,0l-53.6,53.6
	c-4.6,4.6-12.1,4.6-16.8,0l-22.3-22.3c-4.6-4.6-4.6-12.1,0-16.8l53.6-53.6c4.3-4.3,4.3-11.3,0-15.6l-53.6-53.6
	c-4.6-4.6-4.6-12.1,0-16.8l22.3-22.3c4.6-4.6,12.1-4.6,16.8,0l53.6,53.6c4.3,4.3,11.3,4.3,15.6,0l53.6-53.6c4.6-4.6,12.1-4.6,16.8,0
	l22.3,22.3C361.2,182.4,361.2,189.9,356.5,194.6L356.5,194.6z"/>
</svg>
