<svg id="e68dbd7a-f016-4106-bd43-819e1c5dde08" xmlns="http://www.w3.org/2000/svg" viewBox="0 0 912.97 567.12"><defs><style>.cls-1{fill:#e0e0e0;}.cls-2{fill:#f2f2f2;}.cls-3{fill:#3f3d56;}.cls-4{fill:#a5a5a5;}.cls-5{fill:#2f2e41;}.cls-6{fill:none;stroke:#3f3d56;stroke-miterlimit:10;stroke-width:0.49px;}</style></defs><path class="cls-1" d="M719.66,604.59h-203s-4.11-60.34,20.23-61,21.6,26.74,52.11-11,67.54-35.65,72.34-13.37-9.26,40.11,16.45,34.63S740.57,562.76,719.66,604.59Z" transform="translate(0 -39.64)"/><path class="cls-2" d="M614.76,604.6l-.69,0c1.6-39.72,9.92-65.25,16.62-79.66,7.27-15.66,14.28-22,14.35-22.06l.45.51c-.07.07-7,6.34-14.21,21.89C624.62,539.6,616.35,565,614.76,604.6Z" transform="translate(0 -39.64)"/><path class="cls-2" d="M688.21,604.68l-.66-.19a106.4,106.4,0,0,1,26.78-44.55l.46.51A105.69,105.69,0,0,0,688.21,604.68Z" transform="translate(0 -39.64)"/><path class="cls-2" d="M548.67,604.63l-.68-.09a74.67,74.67,0,0,0-6.72-43.65,60,60,0,0,0-10.6-15.47l.48-.49a61,61,0,0,1,10.74,15.66A75.38,75.38,0,0,1,548.67,604.63Z" transform="translate(0 -39.64)"/><path class="cls-3" d="M747.21,606.26H494.81l-.06-.85c-.14-2.13-3.36-52.3,12.89-70.2a17.83,17.83,0,0,1,13-6.24c10.6-.3,17.26,3.67,22.63,6.85,10.12,6,16.81,10,41.13-20.08,26.34-32.55,54.76-39.56,71.09-35.66,10.56,2.51,17.84,9.63,20,19.51,2,9.37,1.37,18.16.85,25.23-.55,7.56-1,13.53,2.12,16.24,2.59,2.26,7.77,2.47,16.29.65,17.32-3.7,41.49-.54,53.63,15.14,6.53,8.44,11.67,23.77-.9,48.91Zm-250.68-1.83H746.07c9.37-19,9.66-35.06.84-46.46-11.13-14.38-34.48-18.16-51.8-14.47-9.25,2-14.77,1.65-17.87-1.06-3.8-3.3-3.34-9.68-2.75-17.75.51-7,1.14-15.61-.82-24.71s-8.75-15.77-18.59-18.12c-15.82-3.77-43.44,3.14-69.25,35-25.31,31.28-32.93,26.76-43.49,20.5-5.43-3.22-11.61-6.88-21.63-6.6A16.07,16.07,0,0,0,509,536.45C494.39,552.53,496.18,597.65,496.53,604.43Z" transform="translate(0 -39.64)"/><path class="cls-3" d="M85,606.75l-1.26-.47c-.28-.11-28-10.72-41-34.8s-6.63-53.07-6.56-53.36l.3-1.32,1.27.48c.27.1,28,10.72,41,34.8s6.63,53.06,6.56,53.35ZM44.79,570.36c11,20.35,32.88,30.79,38.43,33.17,1-5.95,4.36-30-6.61-50.33S43.74,522.41,38.19,520C37.13,526,33.82,550,44.79,570.36Z" transform="translate(0 -39.64)"/><path class="cls-1" d="M52.63,563C76,577.07,85,605,85,605S56.11,610.07,32.78,596,.46,554.12.46,554.12,29.3,549,52.63,563Z" transform="translate(0 -39.64)"/><rect class="cls-3" y="564.61" width="912.97" height="2.4"/><rect class="cls-4" x="54.26" y="330.06" width="30.91" height="29.84" transform="translate(-119.75 8.74) rotate(-21.14)"/><path class="cls-3" d="M84.3,351.13,54,362.86,42.62,333.57,73,321.83Zm-29.4,9.68,27.32-10.56L72,323.88,44.7,334.44Z" transform="translate(0 -39.64)"/><polygon class="cls-4" points="817.04 205.8 844.66 227.41 872.29 249.02 840.04 262.18 807.8 275.33 812.42 240.57 817.04 205.8"/><rect class="cls-4" x="646.44" y="238.5" width="73.03" height="73.72" transform="translate(-53.42 238.78) rotate(-22.2)"/><ellipse class="cls-4" cx="715.68" cy="120.38" rx="46.85" ry="47.3" transform="translate(7.56 239.66) rotate(-22.2)"/><path class="cls-3" d="M784.56,177.57a7.76,7.76,0,1,1,10.14,4.32A7.79,7.79,0,0,1,784.56,177.57Zm1.2-.48a6.47,6.47,0,1,0,3.52-8.49A6.49,6.49,0,0,0,785.76,177.09Z" transform="translate(0 -39.64)"/><path class="cls-3" d="M774.19,328.89,759,321.76l7-15.29,15.24,7.13Zm-13.53-7.76,12.9,6,5.9-12.95-12.89-6Z" transform="translate(0 -39.64)"/><path class="cls-3" d="M620.5,201.76,608.1,196l5.68-12.44,12.4,5.8Zm-11-6.31L620,200.36l4.81-10.53-10.49-4.91Z" transform="translate(0 -39.64)"/><path class="cls-3" d="M746.54,165.21c-33,13.49-70.87-2.63-84.48-36s2.14-71.34,35.19-84.82,70.87,2.63,84.48,36S779.56,151.7,746.54,165.21Zm-48.8-119.6C665.35,58.82,649.91,96,663.25,128.73s50.41,48.49,82.8,35.28,47.82-50.43,34.48-83.13S730.12,32.44,697.74,45.61Z" transform="translate(0 -39.64)"/><polygon class="cls-3" points="702.03 165.99 704.23 127.2 705.53 127.28 703.32 166.07 702.03 165.99"/><polygon class="cls-3" points="731.42 205.65 731.55 204.36 814.82 213.78 814.68 215.07 731.42 205.65"/><path class="cls-3" d="M750.08,288.49l-87.36,35.65-36-88.2,87.36-35.64Zm-86.66,33.95,85-34.67-35-85.78-85,34.67Z" transform="translate(0 -39.64)"/><path class="cls-3" d="M897.37,279.13,807,316l13-97.44Zm-88.78,34.81,86.22-35.17L820.94,221Z" transform="translate(0 -39.64)"/><rect class="cls-3" x="171.51" y="363.75" width="179.13" height="2.01"/><rect class="cls-3" x="171.51" y="377.84" width="179.13" height="2.01"/><rect class="cls-3" x="171.51" y="391.93" width="179.13" height="2.01"/><rect class="cls-1" x="175.16" y="313.2" width="40.29" height="32.74"/><path class="cls-3" d="M209.57,380.53h-42V346.12h42Zm-40.29-1.67h38.61V347.8H169.28Z" transform="translate(0 -39.64)"/><rect class="cls-3" x="171.51" y="82.75" width="179.13" height="2.01"/><rect class="cls-3" x="171.51" y="96.84" width="179.13" height="2.01"/><rect class="cls-3" x="171.51" y="110.93" width="179.13" height="2.01"/><rect class="cls-1" x="175.16" y="32.2" width="40.29" height="32.74"/><path class="cls-3" d="M209.57,99.53h-42V65.12h42Zm-40.29-1.67h38.61V66.8H169.28Z" transform="translate(0 -39.64)"/><rect class="cls-3" x="369.51" y="243.75" width="179.13" height="2.01"/><rect class="cls-3" x="369.51" y="257.84" width="179.13" height="2.01"/><rect class="cls-3" x="369.51" y="271.93" width="179.13" height="2.01"/><rect class="cls-1" x="373.16" y="193.2" width="40.29" height="32.74"/><path class="cls-3" d="M407.57,260.53h-42V226.12h42Zm-40.29-1.67h38.61V227.8H367.28Z" transform="translate(0 -39.64)"/><path class="cls-5" d="M329.79,376.9c-39.24,15.2-57.65,51.29-34.9,110,25.79,66.57,60.79,73.28,100,58.08s61.62-46.07,36.48-111C404.51,364.68,369,361.7,329.79,376.9Zm56.82,145.91c-27.17,10.53-47.55.08-65.41-46-15.76-40.69-9.29-67.87,17.88-78.39s47.42-2.17,66,45.88C422.52,489.23,413.79,512.28,386.61,522.81Z" transform="translate(0 -39.64)"/><path class="cls-4" d="M286,533.79l-16.22,6.29L251.29,492.3A10.26,10.26,0,0,0,238,486.44l-3.8,1.48a10.24,10.24,0,0,0-5.86,13.27h0L246.86,549,201.1,566.69a5.85,5.85,0,0,1-7.57-3.35,5.79,5.79,0,0,1-.36-2.79l12.92-110.43a10.25,10.25,0,0,0-9-11.38l-.45-.05-3.39-.24a10.27,10.27,0,0,0-10.92,9L166.07,580.82a14,14,0,0,0,.84,6.71h0a13.91,13.91,0,0,0,18,8h0l69.54-26.94,11.7,30.21a12.29,12.29,0,0,0,15.91,7h0a12.29,12.29,0,0,0,7-15.91h0l-11.71-30.2,16.23-6.29a10.49,10.49,0,0,0,6-13.58h0a10.5,10.5,0,0,0-13.58-6Z" transform="translate(0 -39.64)"/><path class="cls-4" d="M586.43,417.42,570.2,423.7l-18.5-47.77a10.27,10.27,0,0,0-13.28-5.86l-3.8,1.47a10.26,10.26,0,0,0-5.86,13.27h0l18.51,47.78-45.76,17.72a5.84,5.84,0,0,1-7.93-6.14L506.5,333.74a10.27,10.27,0,0,0-9-11.38l-.46,0-3.38-.24a10.25,10.25,0,0,0-10.92,9L466.48,464.45a14,14,0,0,0,.83,6.71h0a13.93,13.93,0,0,0,18,7.95h0l69.54-26.94,11.71,30.2a12.29,12.29,0,0,0,15.91,7h0a12.29,12.29,0,0,0,7-15.91h0l-11.7-30.21L594,437a10.51,10.51,0,0,0,6-13.59h0a10.5,10.5,0,0,0-13.58-6Z" transform="translate(0 -39.64)"/><path class="cls-6" d="M288.33,526.46l-16.22,6.29L253.6,485a10.26,10.26,0,0,0-13.27-5.87h0l-3.8,1.48a10.25,10.25,0,0,0-5.86,13.27h0l18.5,47.77-45.76,17.73a5.85,5.85,0,0,1-7.93-6.14L208.4,442.79a10.26,10.26,0,0,0-9-11.38l-.46-.05-3.38-.24a10.27,10.27,0,0,0-10.92,9L168.38,573.5a13.79,13.79,0,0,0,.84,6.7h0a13.9,13.9,0,0,0,18,7.95l69.54-26.94,11.7,30.21a12.31,12.31,0,0,0,15.91,7h0a12.31,12.31,0,0,0,7-15.91h0l-11.71-30.21L295.92,546a10.49,10.49,0,0,0,6-13.58h0A10.5,10.5,0,0,0,288.33,526.46Z" transform="translate(0 -39.64)"/><path class="cls-6" d="M592.65,408.57l-16.22,6.29-18.51-47.78a10.27,10.27,0,0,0-13.27-5.86h0l-3.8,1.48A10.25,10.25,0,0,0,535,376h0l18.5,47.77-45.76,17.73a5.86,5.86,0,0,1-7.93-6.14L512.72,324.9a10.25,10.25,0,0,0-9-11.38l-.46,0-3.38-.24a10.26,10.26,0,0,0-10.92,9L472.7,455.6a13.82,13.82,0,0,0,.84,6.71h0a13.9,13.9,0,0,0,18,7.95h0l69.54-26.94,11.7,30.21a12.29,12.29,0,0,0,15.91,7h0a12.3,12.3,0,0,0,7-15.91h0L584,434.44l16.23-6.29a10.49,10.49,0,0,0,6-13.58h0a10.5,10.5,0,0,0-13.58-6Z" transform="translate(0 -39.64)"/><path class="cls-6" d="M336.79,368.4c-39.23,15.2-57.65,51.29-34.9,110,25.79,66.57,60.79,73.28,100,58.07s61.62-46.06,36.48-110.95C411.51,356.18,376,353.2,336.79,368.4Zm56.82,145.91c-27.17,10.53-47.55.08-65.41-46-15.76-40.68-9.29-67.86,17.88-78.39s47.42-2.16,66,45.89c17.41,44.94,8.68,68-18.5,78.53Z" transform="translate(0 -39.64)"/></svg>