<?xml version="1.0" encoding="utf-8"?>
<!-- Generator: Adobe Illustrator 24.1.0, SVG Export Plug-In . SVG Version: 6.00 Build 0)  -->
<svg version="1.1"
	 id="f6ed740f-4c53-497f-bfef-ebd7a0ab3453" xmlns:cc="http://creativecommons.org/ns#" xmlns:dc="http://purl.org/dc/elements/1.1/" xmlns:inkscape="http://www.inkscape.org/namespaces/inkscape" xmlns:rdf="http://www.w3.org/1999/02/22-rdf-syntax-ns#" xmlns:sodipodi="http://sodipodi.sourceforge.net/DTD/sodipodi-0.dtd" xmlns:svg="http://www.w3.org/2000/svg"
	 xmlns="http://www.w3.org/2000/svg" xmlns:xlink="http://www.w3.org/1999/xlink" x="0px" y="0px" viewBox="0 0 163.3 100"
	 style="enable-background:new 0 0 163.3 100;" xml:space="preserve">
<g>
	<path class="main_cloud" d="M102.9,40.1c-2.2-10.5-11.7-18.4-23.2-18.4c-9.2,0-17.1,5-21,12.3c-9.5,0.9-16.9,8.7-16.9,18.1c0,10,8.5,18.3,19,18.3h41.1
		c8.7,0,15.8-6.8,15.8-15.2C117.7,47.2,111.2,40.6,102.9,40.1z M84.7,49.1v11.6H74.6V49.1H63.9l15.8-15.2l15.8,15.2H84.7z"/>
	<path class="arrow" d="M92,96.9v-4.3l2,2l0.5-0.5l-2.8-2.8l-2.8,2.8l0.5,0.5l2-2v4.3H92z"/>
	<path class="arrow" d="M47.2,93.2v-4.3l2,2l0.5-0.5l-2.8-2.8l-2.8,2.8l0.5,0.5l2-2v4.3H47.2z"/>
	<path class="arrow" d="M104.1,86v-4.3l2,2l0.5-0.5l-2.8-2.8l-2.8,2.8l0.5,0.5l2-2V86H104.1z"/>
	<path class="arrow" d="M132.4,98.9v-4.3l2,2l0.5-0.5l-2.8-2.8l-2.8,2.8l0.5,0.5l2-2v4.3H132.4
			z"/>
	<path class="arrow" d="M124.9,85.5v-4.3l2,2l0.5-0.5l-2.8-2.8l-2.8,2.8l0.5,0.5l2-2v4.3H124.9z
			"/>
	<path class="arrow" d="M74.9,87.3V83l2,2l0.5-0.5l-2.8-2.8l-2.8,2.8l0.5,0.5l2-2v4.3H74.9z"/>
	<path class="cloud" d="M14.5,57.4c-4.4,0-8,2.7-8,5.9l0,0v0.1C2.7,64,0,66.7,0,69.8
			c0,3.6,3.7,6.6,8.2,6.6h0.1c0.1,2,2.1,3.6,4.5,3.6c0.6,0,1.1-0.1,1.7-0.3c1.2,0.7,2.6,1,4.1,1c1.9,0,3.8-0.7,5.3-1.8
			c0.6,0.2,1.3,0.3,2,0.3c3.1,0,5.7-1.8,5.7-4l0,0c0-0.5-0.1-1-0.4-1.5c1.6-1.1,2.6-2.8,2.6-4.5c0-2.7-2.2-5.1-5.5-5.8
			c-0.7-2-2.8-3.3-5.1-3.4c-0.5,0-1.1,0.1-1.6,0.2C20,58.5,17.4,57.4,14.5,57.4L14.5,57.4z"/>
	<path class="cloud" d="M138.9,47.4c-3.7,0-6.7,2.7-6.7,6.1c0,0.4,0,0.7,0.1,1.1
			c-2,1.1-3.3,3.2-3.3,5.6c0,3.5,2.6,6.3,5.9,6.3c1.8,0,3.5-0.9,4.6-2.4c0.2,0,0.5,0.1,0.7,0.1c0.6,3.6,3.8,6.2,7.6,6.2
			c2.9,0,5.6-1.6,6.9-4c0.9,0.9,2.1,1.5,3.4,1.5c2.8,0,5.2-2.7,5.2-6c0-2.6-1.4-4.8-3.5-5.7c0.3-0.5,0.4-1.1,0.4-1.6
			c0-3.1-4.4-5.5-9.8-5.5l0,0c-2.2,0-4.3,0.4-6,1.1C143.3,48.5,141.2,47.4,138.9,47.4L138.9,47.4z"/>
	<path class="cloud" d="M112.8,6.1c-4.4,0-7.9,2.2-7.9,5c0,0.3,0,0.6,0.1,0.9
			c-3.9,1-6.4,3.4-6.4,6.1c0,3.6,4.4,6.6,9.9,6.6l0,0c2.4,0,4.7-0.6,6.5-1.6c1.2,0.7,2.5,1,4,1c3.9,0,7-2.6,7-5.8
			c0-2.8-2.4-5.2-5.7-5.7c0.2-0.5,0.3-0.9,0.3-1.4C120.7,8.4,117.2,6.1,112.8,6.1z"/>
	<path class="cloud" d="M15.1,7.7c-3.7,0-6.7,2.7-6.7,6.1c0,0.4,0,0.7,0.1,1.1
			c-2,1.1-3.3,3.2-3.3,5.6c0,3.5,2.6,6.3,5.9,6.3c1.8,0,3.5-0.9,4.6-2.4c0.2,0,0.5,0.1,0.7,0.1c0.6,3.6,3.8,6.2,7.6,6.2
			c2.9,0,5.6-1.6,6.9-4c0.9,0.9,2.1,1.5,3.4,1.5c2.8,0,5.2-2.7,5.2-6c0-2.6-1.4-4.8-3.5-5.7c0.3-0.5,0.4-1.1,0.4-1.6
			c0-3.1-4.4-5.5-9.8-5.5l0,0c-2.2,0-4.3,0.4-6,1.1C19.5,8.7,17.4,7.7,15.1,7.7z"/>
	</g>
		</svg>

