<?xml version="1.0" encoding="utf-8"?>
<!-- Generator: Adobe Illustrator 25.2.3, SVG Export Plug-In . SVG Version: 6.00 Build 0)  -->
<svg version="1.1" id="Layer_1" xmlns="http://www.w3.org/2000/svg" xmlns:xlink="http://www.w3.org/1999/xlink" x="0px" y="0px"
	 viewBox="0 0 188 188" style="enable-background:new 0 0 188 188;" xml:space="preserve">
<style type="text/css">
	.st0{fill:url(#SVGID_1_);}
	.st1{fill:url(#SVGID_2_);}
	.st2{fill:url(#SVGID_3_);}
	.st3{fill:url(#SVGID_4_);}
	.st4{fill:url(#SVGID_5_);}
	.st5{fill:url(#SVGID_6_);}
	.st6{fill:url(#SVGID_7_);}
	.st7{fill:#04D5FB;}
</style>
<g>
	<g>
		<g>
			
				<linearGradient id="SVGID_1_" gradientUnits="userSpaceOnUse" x1="60.4297" y1="-5.4298" x2="127.4798" y2="61.6202" gradientTransform="matrix(1 0 0 -1 0 188)">
				<stop  offset="0" style="stop-color:#FFFF7C"/>
				<stop  offset="1" style="stop-color:#FF22B3"/>
			</linearGradient>
			<path class="st0" d="M34.8,167h118.4c2.7-2.2,5.4-4.6,7.8-7.1H26.9C29.4,162.4,32,164.8,34.8,167z"/>
			
				<linearGradient id="SVGID_2_" gradientUnits="userSpaceOnUse" x1="66.8251" y1="-9.925" x2="121.0749" y2="44.325" gradientTransform="matrix(1 0 0 -1 0 188)">
				<stop  offset="0" style="stop-color:#FFFF7C"/>
				<stop  offset="1" style="stop-color:#FF22B3"/>
			</linearGradient>
			<path class="st1" d="M136.4,177.9c4.1-2.1,8.1-4.5,11.8-7.1H39.7c3.8,2.7,7.7,5,11.8,7.1H136.4z"/>
			
				<linearGradient id="SVGID_3_" gradientUnits="userSpaceOnUse" x1="55.05" y1="0.45" x2="132.9499" y2="78.35" gradientTransform="matrix(1 0 0 -1 0 188)">
				<stop  offset="0" style="stop-color:#FFFF7C"/>
				<stop  offset="1" style="stop-color:#FF22B3"/>
			</linearGradient>
			<path class="st2" d="M22.4,154.9h143.2c1.9-2.3,3.8-4.7,5.5-7.1H16.9C18.6,150.2,20.4,152.6,22.4,154.9z"/>
			
				<linearGradient id="SVGID_4_" gradientUnits="userSpaceOnUse" x1="75.45" y1="-10.95" x2="112.5902" y2="26.1902" gradientTransform="matrix(1 0 0 -1 0 188)">
				<stop  offset="0" style="stop-color:#FFFF7C"/>
				<stop  offset="1" style="stop-color:#FF22B3"/>
			</linearGradient>
			<path class="st3" d="M56.9,180.4c11.4,4.9,23.9,7.6,37.1,7.6s25.7-2.7,37.1-7.6H56.9z"/>
			
				<linearGradient id="SVGID_5_" gradientUnits="userSpaceOnUse" x1="49.5" y1="10.5" x2="136.8499" y2="97.85" gradientTransform="matrix(1 0 0 -1 0 188)">
				<stop  offset="0" style="stop-color:#FFFF7C"/>
				<stop  offset="1" style="stop-color:#FF22B3"/>
			</linearGradient>
			<path class="st4" d="M12.2,140.2h163.7c1.3-2.4,2.6-4.8,3.7-7.3L7.4,130.5C8.8,133.9,10.4,137.1,12.2,140.2z"/>
			
				<linearGradient id="SVGID_6_" gradientUnits="userSpaceOnUse" x1="44.8" y1="24.8" x2="143.2" y2="123.2" gradientTransform="matrix(1 0 0 -1 0 188)">
				<stop  offset="0" style="stop-color:#FFFF7C"/>
				<stop  offset="1" style="stop-color:#FF22B3"/>
			</linearGradient>
			<path class="st5" d="M1.1,108.5c0.8,4.9,1.9,9.7,3.4,14.4h179c1.5-4.6,2.6-9.4,3.4-14.4H1.1z"/>
			
				<linearGradient id="SVGID_7_" gradientUnits="userSpaceOnUse" x1="35.8938" y1="52.6063" x2="152.1062" y2="168.8188" gradientTransform="matrix(1 0 0 -1 0 188)">
				<stop  offset="0" style="stop-color:#FFFF7C"/>
				<stop  offset="1" style="stop-color:#FF22B3"/>
			</linearGradient>
			<path class="st6" d="M187.8,99.7c0.1-1.9,0.2-3.8,0.2-5.7c0-51.9-42.1-94-94-94S0,42.1,0,94c0,1.9,0.1,3.8,0.2,5.7H187.8z"/>
		</g>
	</g>
</g>
<g>
	<path class="st7" d="M122.7,88.4l-87.5,55.2l62.7-51.2l7.7-6.9l-14.3-4.9l27-4.3l8.2,5.6L122.7,88.4z M133.3,44.6
		c1.3-0.2,2.1-0.2,2.2-0.2c0.1,0,0.8,0,1.9,0.1c1.1,0,1.6,0.5,1.6,1.2c0,0.2-0.1,0.6-0.2,1c0-0.1,0-0.1,0-0.2c0-0.3-0.1-0.5-0.4-0.6
		c1.1,0.2,1.6,0.7,1.6,1.4c0,0.3-0.1,0.6-0.2,1v-0.1c0-0.6-0.4-0.9-1.2-0.9c0.1,0,0.8-0.1,2.1-0.2c1.3-0.1,3.3-0.4,6-0.8
		c2.4-0.3,3.8-0.5,4.1-0.5h1.3v1.3c0,0.8-0.6,1.2-1.8,1.2c0.5,0,0.7-0.3,0.7-1c0-0.6-0.1-1-0.4-1c1.4,0,2.1,0.5,2.1,1.4
		c0,0.7-3.5,2.1-10.4,4.3c-7,2.1-16.5,4.6-28.7,7.5c-12.2,2.9-18.4,4.3-18.7,4.3h1.2c0-0.9,0.9-0.6,2.7,0.7
		c2.2,1.7,6.4,4.3,12.7,7.8c6.3,3.5,10.3,6,12.1,7.5c1.8,1.4,4.1,2.7,6.8,3.8c-0.1,0,0.4-0.2,1.5-0.7c1.3-0.6,2.5-0.9,3.6-0.9
		c0,1.1-0.4,1.9-1.1,2.4c0.1-0.1,0.1-0.2,0.1-0.5c0-0.7-0.4-1-1.2-1c-0.1,0,0,0,0,0c0.5-0.1,0.9-0.2,1.2-0.2c0.9,0,1.3,0.4,1.3,1.1
		v0.4c0,0.6-0.4,1.1-1.2,1.6c-0.8,0.5-1.2,0.7-1.2,0.5c0-0.2,0.2-0.2,0.8,0.2c1,0.7,1.5,1.6,1.5,2.7c-1.1,0-2.1-0.2-3-0.5
		c-0.4-0.2-0.5-0.3-0.5-0.3h1.2c0-1,0.2-1.4,0.7-1.2c0.4,0.2,0.7,0.6,0.7,1v0.1c0,0.8-0.5,1.1-1.4,1.1c-0.2,0-0.6-0.1-0.9-0.2
		c-0.4-0.1-0.8-0.2-1.4-0.3h0c-0.5,0-2.7,1.5-6.5,4.4c-4.3,3.2-8.6,6.1-13,8.7c-4.3,2.6-8.9,5.8-13.7,9.6
		c-4.8,3.8-9.9,7.4-15.4,10.8c-5.5,3.4-9.4,5.8-11.9,7.3c-0.9,0.5-1.6,0.8-2,0.8c-0.9,0-1.3-0.4-1.3-1.1c0-0.6,1.5-2.3,4.6-5.1
		c1.5-1.4,2.3-2.1,2.3-2.2c0,0.6,0.3,0.9,1,0.9c-0.4,0-2.3,0.9-5.5,2.7c-6.6,3.6-10.3,5.5-11,5.5c-0.9,0-1.3-0.4-1.3-1.1
		c0-0.6,1.9-2.2,5.8-4.7c3.8-2.5,6.2-4.2,7.2-5.1c1-0.9,4.1-3.7,9.4-8.3c5.3-4.6,9.6-8.5,12.8-11.5s6.7-6.2,10.6-9.6s5.7-5,5.5-4.9
		c0,0.8-1.8,0.5-5.5-0.8c-4.4-1.6-7.9-3.4-10.6-5.3c-2.7-1.9-5.3-3.8-8-5.4c-2.7-1.7-5.4-3.2-8.1-4.5c-2.7-1.3-4.2-2.3-4.4-2.8
		c-0.1-0.2-0.1-0.4-0.1-0.5c0-0.7,0.4-1.1,1.2-1.3c-0.5,0.1-0.8,0.4-0.8,0.9c0,0.2,0.1,0.4,0.3,0.6c-0.4-0.4-0.5-0.7-0.5-1
		c0-0.3,0.3-0.8,0.9-1.5c0.6-0.7,1.4-1.1,2.5-1.1c-0.2,0-0.3,0.3-0.3,1c0,0.3-0.2,0.3-0.7,0c-0.4-0.3-1.1-0.8-1.9-1.5
		c-0.8-0.7-1.3-1.3-1.3-1.7c0-0.5,0.2-0.9,0.6-1.1c-0.2,0.2-0.3,0.4-0.3,0.6c0,0.2,0.1,0.4,0.3,0.6c-0.4-0.2-0.6-0.5-0.6-1
		c0-0.8,0.5-1.1,1.5-1.1c-0.4,0-0.5-0.1-0.3-0.4c0.1-0.3,0.6-0.5,1.3-0.8c0.8-0.3,2.8-0.8,6.2-1.5s5.9-1.4,7.4-2
		c1.5-0.6,3.8-1.4,6.9-2.2c3.1-0.9,5.2-1.3,6.4-1.3h3.3c1.1,0,4.8-0.7,11.1-2.2s10.6-2.5,12.8-3S132,44.8,133.3,44.6z"/>
</g>
</svg>
