<?xml version="1.0" encoding="utf-8"?>
<!-- Generator: Adobe Illustrator 25.2.3, SVG Export Plug-In . SVG Version: 6.00 Build 0)  -->
<svg version="1.1" id="Layer_1" xmlns="http://www.w3.org/2000/svg" xmlns:xlink="http://www.w3.org/1999/xlink" x="0px" y="0px"
	 viewBox="0 0 188 188" style="enable-background:new 0 0 188 188;" xml:space="preserve">
<style type="text/css">
	.st0{opacity:0.4;fill:#9B9B9B;enable-background:new    ;}
	.st1{fill:#7C7C7C;}
	.st2{opacity:0.4;}
</style>
<g>
	<path class="st0" d="M175.5,176V54.5c-5.3,3.7-10,8.2-13.9,13.4c-6.3,8.7-10.1,18.8-14.8,28.4c-8,16.2-20,31.6-37,37.9
		c-7.3,2.5-14.9,3.7-22.6,3.6c-28.5,0-55.9-11.1-76.4-30.9c-6.1,22.9-4.4,47.2,4.7,69.1L175.5,176L175.5,176z"/>
	<path class="st1" d="M166,0H22C9.8,0,0,9.8,0,22v144c0,12.2,9.8,22,22,22h144c12.2,0,22-9.8,22-22V22C188,9.8,178.2,0,166,0z
		 M175.5,161.3c0,7.8-6.3,14.2-14.2,14.2H27.7c-7.8,0-14.2-6.3-14.2-14.2V27.7c0-7.8,6.3-14.2,14.2-14.2c12.6,0,25.2,0,37.8,0
		c32,0,64,0,95.9,0c0.9,0,6,0.1,10,4.1c2.6,2.6,4.1,6.1,4.1,10V161.3z"/>
</g>
<g>
	<path class="st1" d="M126,63.4c-4.5-2.4-9-4.5-13.6-6.1c-4.6-1.6-9-2.4-13-2.4c-5,0-8.9,1-11.8,3c-2.9,2-4.3,5-4.3,9.1
		c0,2.8,1.1,5.2,3.3,7.4c2.2,2.2,5,4.1,8.4,5.8c3.5,1.7,7,3.2,10.8,4.6c3.4,1.3,6.8,2.8,10.1,4.5c3.3,1.8,6.3,3.9,9,6.5
		c2.7,2.6,4.8,5.8,6.4,9.7c1.6,3.9,2.4,8.6,2.4,14.3c0,6-1.5,11.5-4.6,16.6c-3.1,5.1-7.6,9.2-13.5,12.4c-6,3.1-13.3,4.7-22,4.7
		c-4.5,0-9-0.5-13.6-1.4c-4.6-0.9-9.2-2.3-13.6-4.1c-4.5-1.9-8.8-4.2-12.9-7.1l10.2-18c2.8,2,5.8,3.8,9,5.3c3.2,1.5,6.5,2.7,9.8,3.6
		c3.3,0.9,6.3,1.3,9.1,1.3c2.8,0,5.6-0.4,8.4-1.2c2.8-0.8,5.2-2.2,7-4.1c1.9-1.9,2.8-4.6,2.8-8c0-2.3-0.8-4.5-2.3-6.4
		c-1.5-1.9-3.6-3.7-6.2-5.3c-2.6-1.6-5.4-3-8.5-4.1c-3.6-1.4-7.3-3-11.2-4.8c-3.8-1.8-7.4-4-10.8-6.6c-3.3-2.6-6.1-5.8-8.1-9.7
		c-2.1-3.9-3.1-8.6-3.1-14.3c0-6.8,1.5-12.7,4.5-17.7c3-5,7.3-9,12.8-11.9c5.5-2.9,11.9-4.5,19.1-4.9c9.5,0,17.1,1.1,23,3.3
		s11.2,4.9,15.9,8L126,63.4z"/>
</g>
<g class="st2">
	<path class="st1" d="M126,66.3c-4.5-2.4-9-4.5-13.6-6.1c-4.6-1.6-9-2.4-13-2.4c-5,0-8.9,1-11.8,3c-2.9,2-4.3,5-4.3,9.1
		c0,2.8,1.1,5.2,3.3,7.4c2.2,2.2,5,4.1,8.4,5.8c3.5,1.7,7,3.2,10.8,4.6c3.4,1.3,6.8,2.8,10.1,4.5c3.3,1.8,6.3,3.9,9,6.5
		c2.7,2.6,4.8,5.8,6.4,9.7c1.6,3.9,2.4,8.6,2.4,14.3c0,6-1.5,11.5-4.6,16.6c-3.1,5.1-7.6,9.2-13.5,12.4c-6,3.1-13.3,4.7-22,4.7
		c-4.5,0-9-0.5-13.6-1.4c-4.6-0.9-9.2-2.3-13.6-4.1c-4.5-1.9-8.8-4.2-12.9-7.1l10.2-18c2.8,2,5.8,3.8,9,5.3c3.2,1.5,6.5,2.7,9.8,3.6
		c3.3,0.9,6.3,1.3,9.1,1.3c2.8,0,5.6-0.4,8.4-1.2c2.8-0.8,5.2-2.2,7-4.1c1.9-1.9,2.8-4.6,2.8-8c0-2.3-0.8-4.5-2.3-6.4
		c-1.5-1.9-3.6-3.7-6.2-5.3c-2.6-1.6-5.4-3-8.5-4.1c-3.6-1.4-7.3-3-11.2-4.8c-3.8-1.8-7.4-4-10.8-6.6c-3.3-2.6-6.1-5.8-8.1-9.7
		c-2.1-3.9-3.1-8.6-3.1-14.3c0-6.8,1.5-12.7,4.5-17.7c3-5,7.3-9,12.8-11.9c5.5-2.9,11.9-4.5,19.1-4.9c9.5,0,17.1,1.1,23,3.3
		s11.2,4.9,15.9,8L126,66.3z"/>
</g>
</svg>
