<?xml version="1.0" encoding="UTF-8" standalone="no"?>
<!-- Generator: Adobe Illustrator 25.2.3, SVG Export Plug-In . SVG Version: 6.00 Build 0)  -->

<svg
   xmlns:dc="http://purl.org/dc/elements/1.1/"
   xmlns:cc="http://creativecommons.org/ns#"
   xmlns:rdf="http://www.w3.org/1999/02/22-rdf-syntax-ns#"
   xmlns:svg="http://www.w3.org/2000/svg"
   xmlns="http://www.w3.org/2000/svg"
   xmlns:sodipodi="http://sodipodi.sourceforge.net/DTD/sodipodi-0.dtd"
   xmlns:inkscape="http://www.inkscape.org/namespaces/inkscape"
   version="1.1"
   id="Layer_1"
   x="0px"
   y="0px"
   viewBox="0 0 188 188"
   style="enable-background:new 0 0 188 188;"
   xml:space="preserve"
   sodipodi:docname="logo-icon-cyberpunk.svg"
   inkscape:version="0.92.5 (2060ec1f9f, 2020-04-08)"><metadata
   id="metadata39"><rdf:RDF><cc:Work
       rdf:about=""><dc:format>image/svg+xml</dc:format><dc:type
         rdf:resource="http://purl.org/dc/dcmitype/StillImage" /></cc:Work></rdf:RDF></metadata><defs
   id="defs37" /><sodipodi:namedview
   pagecolor="#ffffff"
   bordercolor="#666666"
   borderopacity="1"
   objecttolerance="10"
   gridtolerance="10"
   guidetolerance="10"
   inkscape:pageopacity="0"
   inkscape:pageshadow="2"
   inkscape:window-width="1920"
   inkscape:window-height="1031"
   id="namedview35"
   showgrid="false"
   inkscape:snap-text-baseline="true"
   inkscape:zoom="2.5106383"
   inkscape:cx="80.421274"
   inkscape:cy="105.89906"
   inkscape:window-x="0"
   inkscape:window-y="25"
   inkscape:window-maximized="1"
   inkscape:current-layer="Layer_1" />
<style
   type="text/css"
   id="style2">
	.st0{fill:#00FF00;}
	.st1{fill:#00FFFF;}
</style>

<g
   id="g32"
   transform="translate(0,-8)"
   style="fill:#00ffff;fill-opacity:1">
	<path
   class="st1"
   d="m 3.3,141.6 h 3 v 22.7 h -3 c 0,0 0,-22.7 0,-22.7 z"
   id="path12"
   inkscape:connector-curvature="0"
   style="fill:#00ffff;fill-opacity:1" />
	<path
   class="st1"
   d="M 32.5,165 15,147.2 l 0.9,0.2 0.1,16.9 h -3 v -23.4 0 l 17.3,17.9 -0.7,-0.2 -0.1,-17 h 3 z"
   id="path14"
   inkscape:connector-curvature="0"
   style="fill:#00ffff;fill-opacity:1" />
	<path
   class="st1"
   d="m 39.2,164.3 v -22.7 h 6.2 c 2.3,0 4.2,0.3 5.8,1 1.6,0.7 2.8,1.6 3.8,2.7 1,1.1 1.7,2.4 2.1,3.8 0.4,1.4 0.7,2.7 0.7,4.1 0,1.7 -0.3,3.3 -0.9,4.6 -0.6,1.4 -1.4,2.5 -2.5,3.5 -1.1,1 -2.2,1.7 -3.6,2.2 -1.4,0.5 -2.8,0.8 -4.3,0.8 z m 3,-2.9 h 3.7 c 1.2,0 2.4,-0.2 3.4,-0.6 1.1,-0.4 2,-0.9 2.8,-1.6 0.8,-0.7 1.4,-1.6 1.8,-2.6 0.4,-1 0.7,-2.2 0.7,-3.6 0,-1.4 -0.2,-2.6 -0.7,-3.7 -0.5,-1.1 -1.1,-1.9 -1.9,-2.7 -0.8,-0.7 -1.7,-1.3 -2.7,-1.6 -1,-0.4 -2.1,-0.5 -3.1,-0.5 h -4 z"
   id="path16"
   inkscape:connector-curvature="0"
   style="fill:#00ffff;fill-opacity:1" />
	<path
   class="st1"
   d="m 65.6,156.3 c 0,1 0.2,1.9 0.7,2.8 0.5,0.8 1.2,1.4 2,1.9 0.8,0.5 1.7,0.7 2.8,0.7 1.1,0 2,-0.2 2.9,-0.7 0.8,-0.5 1.5,-1.1 2,-1.9 0.5,-0.8 0.7,-1.7 0.7,-2.8 v -14.7 h 3 v 14.8 c 0,1.7 -0.4,3.1 -1.1,4.3 -0.8,1.2 -1.8,2.2 -3.1,2.9 -1.3,0.7 -2.7,1 -4.3,1 -1.6,0 -3,-0.3 -4.3,-1 -1.3,-0.7 -2.3,-1.6 -3.1,-2.9 -0.8,-1.2 -1.1,-2.7 -1.1,-4.3 v -14.8 h 3 z"
   id="path18"
   inkscape:connector-curvature="0"
   style="fill:#00ffff;fill-opacity:1" />
	<path
   class="st1"
   d="m 97.6,145.6 c -0.8,-0.4 -1.6,-0.7 -2.5,-1 -0.9,-0.3 -1.8,-0.4 -2.7,-0.4 -1.2,0 -2.2,0.3 -2.9,0.8 -0.7,0.6 -1.1,1.3 -1.1,2.3 0,0.7 0.2,1.3 0.7,1.8 0.5,0.5 1.1,0.9 1.8,1.3 0.7,0.4 1.5,0.7 2.4,1 0.7,0.3 1.4,0.5 2.1,0.9 0.7,0.4 1.3,0.8 1.9,1.3 0.6,0.5 1,1.1 1.3,1.9 0.3,0.7 0.5,1.6 0.5,2.7 0,1.2 -0.3,2.3 -0.9,3.3 -0.6,1 -1.5,1.8 -2.6,2.3 -1.1,0.6 -2.4,0.8 -4,0.8 -1,0 -1.9,-0.1 -2.8,-0.3 -0.9,-0.2 -1.8,-0.5 -2.5,-0.9 -0.8,-0.4 -1.5,-0.8 -2.1,-1.2 l 1.4,-2.4 c 0.5,0.4 1.1,0.7 1.7,1 0.6,0.3 1.3,0.6 2,0.8 0.7,0.2 1.4,0.3 2.1,0.3 0.7,0 1.4,-0.1 2.1,-0.4 0.7,-0.3 1.3,-0.6 1.7,-1.2 0.4,-0.6 0.7,-1.3 0.7,-2.2 0,-0.8 -0.2,-1.4 -0.6,-1.9 -0.4,-0.5 -0.9,-1 -1.6,-1.3 -0.7,-0.4 -1.4,-0.7 -2.2,-1 -0.7,-0.3 -1.5,-0.5 -2.2,-0.9 -0.7,-0.3 -1.4,-0.7 -2,-1.2 -0.6,-0.5 -1.1,-1.1 -1.5,-1.7 -0.4,-0.6 -0.6,-1.5 -0.6,-2.5 0,-1.2 0.3,-2.2 0.9,-3.1 0.6,-0.9 1.4,-1.6 2.4,-2.1 1,-0.5 2.2,-0.8 3.5,-0.8 1.5,0 2.8,0.2 3.9,0.5 1.1,0.4 2.1,0.8 3,1.3 z"
   id="path20"
   inkscape:connector-curvature="0"
   style="fill:#00ffff;fill-opacity:1" />
	<path
   class="st1"
   d="m 102.2,141.6 h 15.1 v 2.9 h -6.1 v 19.8 h -3 v -19.8 h -6 z"
   id="path22"
   inkscape:connector-curvature="0"
   style="fill:#00ffff;fill-opacity:1" />
	<path
   class="st1"
   d="m 128.2,141.6 c 1.2,0 2.2,0.2 3.2,0.5 1,0.3 1.8,0.8 2.5,1.4 0.7,0.6 1.3,1.3 1.7,2.2 0.4,0.9 0.6,1.9 0.6,3 0,0.9 -0.1,1.8 -0.4,2.6 -0.3,0.9 -0.7,1.6 -1.3,2.3 -0.6,0.7 -1.4,1.3 -2.4,1.7 -1,0.4 -2.2,0.6 -3.6,0.6 h -3.4 v 8.4 h -3 v -22.7 z m 0.3,11.4 c 0.9,0 1.6,-0.1 2.2,-0.4 0.6,-0.3 1.1,-0.6 1.4,-1.1 0.3,-0.5 0.6,-0.9 0.7,-1.4 0.1,-0.5 0.2,-1 0.2,-1.4 0,-0.4 -0.1,-0.9 -0.2,-1.4 -0.2,-0.5 -0.4,-0.9 -0.8,-1.4 -0.4,-0.5 -0.8,-0.8 -1.4,-1.1 -0.6,-0.3 -1.2,-0.4 -2,-0.4 h -3.5 v 8.5 z m 3.8,1.7 5.9,9.6 h -3.5 l -6.1,-9.5 z"
   id="path24"
   inkscape:connector-curvature="0"
   style="fill:#00ffff;fill-opacity:1" />
	<path
   class="st1"
   d="m 142.9,141.6 h 3 v 22.7 h -3 z"
   id="path26"
   inkscape:connector-curvature="0"
   style="fill:#00ffff;fill-opacity:1" />
	<path
   class="st1"
   d="m 152.5,141.6 h 14.8 v 2.9 h -11.7 v 6.9 H 166 v 3 h -10.5 v 7 h 12.2 v 2.9 h -15.2 z"
   id="path28"
   inkscape:connector-curvature="0"
   style="fill:#00ffff;fill-opacity:1" />
	<path
   class="st1"
   d="m 184.7,145.6 c -0.8,-0.4 -1.6,-0.7 -2.5,-1 -0.9,-0.3 -1.8,-0.4 -2.7,-0.4 -1.2,0 -2.2,0.3 -2.9,0.8 -0.7,0.5 -1.1,1.3 -1.1,2.3 0,0.7 0.2,1.3 0.7,1.8 0.5,0.5 1.1,0.9 1.8,1.3 0.7,0.4 1.5,0.7 2.4,1 0.7,0.3 1.4,0.5 2.1,0.9 0.7,0.4 1.3,0.8 1.9,1.3 0.6,0.5 1,1.1 1.3,1.9 0.3,0.7 0.5,1.6 0.5,2.7 0,1.2 -0.3,2.3 -0.9,3.3 -0.6,1 -1.5,1.8 -2.6,2.3 -1.1,0.6 -2.4,0.8 -4,0.8 -1,0 -1.9,-0.1 -2.8,-0.3 -0.9,-0.2 -1.8,-0.5 -2.5,-0.9 -0.8,-0.4 -1.5,-0.8 -2.1,-1.2 l 1.4,-2.4 c 0.5,0.4 1.1,0.7 1.7,1 0.6,0.3 1.3,0.6 2,0.8 0.7,0.2 1.4,0.3 2.1,0.3 0.7,0 1.4,-0.1 2.1,-0.4 0.7,-0.3 1.3,-0.6 1.7,-1.2 0.4,-0.6 0.7,-1.3 0.7,-2.2 0,-0.8 -0.2,-1.4 -0.6,-1.9 -0.4,-0.5 -0.9,-1 -1.6,-1.3 -0.7,-0.4 -1.4,-0.7 -2.2,-1 -0.7,-0.3 -1.5,-0.5 -2.2,-0.9 -0.7,-0.3 -1.4,-0.7 -2,-1.2 -0.6,-0.5 -1.1,-1.1 -1.5,-1.7 -0.4,-0.7 -0.6,-1.5 -0.6,-2.5 0,-1.2 0.3,-2.2 0.9,-3.1 0.6,-0.9 1.4,-1.6 2.4,-2.1 1,-0.5 2.2,-0.8 3.5,-0.8 1.5,0 2.8,0.2 3.9,0.5 1.1,0.4 2.1,0.8 3,1.3 z"
   id="path30"
   inkscape:connector-curvature="0"
   style="fill:#00ffff;fill-opacity:1" />
</g>
<g
   aria-label="FC."
   style="font-style:normal;font-variant:normal;font-weight:normal;font-stretch:normal;font-size:96.24835205px;line-height:1.25;font-family:'Blade Runner Movie Font';-inkscape-font-specification:'Blade Runner Movie Font, Normal';font-variant-ligatures:normal;font-variant-caps:normal;font-variant-numeric:normal;font-feature-settings:normal;text-align:start;letter-spacing:0px;word-spacing:0px;writing-mode:lr-tb;text-anchor:start;fill:#00ff00;fill-opacity:1;stroke:none;stroke-width:2.40620875"
   id="text848"><path
     d="M 88.947074,42.746184 84.327153,58.915907 H 21.861973 L 32.160546,42.746184 Z M 82.979676,65.17205 77.686017,82.785499 H 46.790296 L 39.57167,109.0613 H 14.258353 L 26.481894,65.17205 Z"
     style="fill:#00ff00;fill-opacity:1;stroke-width:2.40620875"
     id="path850"
     inkscape:connector-curvature="0" /><path
     d="m 155.16578,42.746184 -4.71617,16.169723 H 92.796852 q 1.828718,-6.159894 6.737384,-10.876064 5.486154,-5.293659 11.357304,-5.293659 z M 141.49852,91.351602 136.4936,109.2538 h -30.51072 q -15.880982,0 -20.212158,-10.106082 -1.347477,-3.079947 -0.866235,-8.566103 0.09625,-1.058732 0.384993,-3.849934 l 5.678653,-21.463383 23.869587,-0.09625 -6.92988,21.270886 q 0.28875,1.251228 0.57749,2.598705 0.86624,1.732471 3.56119,2.309961 z"
     style="fill:#00ff00;fill-opacity:1;stroke-width:2.40620875"
     id="path852"
     inkscape:connector-curvature="0" /><path
     d="m 155.06947,109.15755 4.04243,-14.052262 h 14.62975 l -3.94619,14.052262 z"
     style="fill:#00ff00;fill-opacity:1;stroke-width:2.40620875"
     id="path854"
     inkscape:connector-curvature="0" /></g></svg>