<?xml version="1.0" encoding="utf-8"?>
<!-- Generator: Adobe Illustrator 25.2.3, SVG Export Plug-In . SVG Version: 6.00 Build 0)  -->
<svg version="1.1" id="Layer_1" xmlns="http://www.w3.org/2000/svg" xmlns:xlink="http://www.w3.org/1999/xlink" x="0px" y="0px"
	 viewBox="0 0 188 188" style="enable-background:new 0 0 188 188;" xml:space="preserve">
<g>
	<path d="M22.8,57.1c1.1,0,2.1,0.4,2.9,1.2s1.2,1.8,1.2,2.9s-0.4,2.1-1.2,2.9s-1.8,1.2-2.9,1.2h-4.1v1h3c0.9,0,1.7,0.3,2.2,0.8
		s0.8,1.3,0.8,2.2s-0.3,1.7-0.8,2.2s-1.3,0.8-2.2,0.8h-3v4.9c0,1.1-0.4,2.1-1.2,2.9c-0.8,0.8-1.7,1.2-2.9,1.2
		c-1.1,0-2.1-0.4-2.9-1.2c-0.8-0.8-1.2-1.7-1.2-2.9v-16c0-1.1,0.4-2.1,1.2-2.9s1.7-1.2,2.9-1.2H22.8z"/>
	<path d="M39,81.2c-3.4,0-6.2-1.2-8.6-3.6c-2.4-2.4-3.6-5.2-3.6-8.6c0-3.4,1.2-6.2,3.6-8.6s5.2-3.6,8.6-3.6c3.4,0,6.2,1.2,8.6,3.6
		c2.4,2.4,3.6,5.2,3.6,8.6c0,3.4-1.2,6.2-3.6,8.6C45.3,80,42.4,81.2,39,81.2z M41.9,71.9c0.8-0.8,1.2-1.7,1.2-2.9s-0.4-2.1-1.2-2.9
		S40.2,65,39,65c-1.1,0-2.1,0.4-2.9,1.2S35,67.9,35,69s0.4,2.1,1.2,2.9s1.7,1.2,2.9,1.2C40.2,73.1,41.1,72.7,41.9,71.9z"/>
	<path d="M61.2,73.9v3.2c0,1.1-0.4,2.1-1.2,2.9c-0.8,0.8-1.7,1.2-2.9,1.2c-1.1,0-2.1-0.4-2.9-1.2c-0.8-0.8-1.2-1.7-1.2-2.9v-16
		c0-1.1,0.4-2.1,1.2-2.9s1.7-1.2,2.9-1.2h6.1c2.2,0,4.2,0.8,5.7,2.4s2.4,3.5,2.4,5.7c0,2.2-0.8,4.2-2.4,5.7
		c-0.2,0.2-0.4,0.3-0.5,0.5l2.5,3.3c0.7,0.9,0.9,1.9,0.8,3c-0.2,1.1-0.7,2-1.6,2.7c-0.9,0.7-1.9,0.9-3,0.8c-1.1-0.2-2-0.7-2.7-1.6
		L61.2,73.9z M62,66.8c0.4,0,0.8-0.2,1.1-0.5c0.3-0.3,0.5-0.7,0.5-1.1s-0.2-0.8-0.5-1.1c-0.3-0.3-0.7-0.5-1.1-0.5h-0.8v3.2H62z"/>
	<path d="M95.2,56.9c1.9,0,3.2,0.8,3.7,2.4l4,16.5c0.4,1.1,0.3,2.1-0.1,3.1c-0.5,1-1.2,1.7-2.3,2.1c-1.1,0.4-2.1,0.4-3.1-0.1
		c-1-0.5-1.7-1.2-2.1-2.3l-1.1-6.7l-2.4,7.1c-0.8,1.6-2,2.4-3.7,2.4c-1.7,0-2.9-0.8-3.7-2.4L82,71.8l-1.1,6.7
		c-0.4,1.1-1.1,1.8-2.1,2.3c-1,0.5-2.1,0.5-3.1,0.1c-1.1-0.4-1.8-1.1-2.3-2.1c-0.5-1-0.5-2.1-0.1-3.1l4-16.5
		c0.5-1.6,1.8-2.4,3.7-2.4c1.9,0,3.2,0.8,3.7,2.4l3.4,10.1l3.4-10.1C92.1,57.6,93.3,56.9,95.2,56.9z"/>
	<path d="M113,66.2h3c0.8,0,1.4,0.3,1.9,0.8s0.7,1.2,0.7,2s-0.2,1.5-0.7,2s-1.1,0.8-1.9,0.8h-3v1h4.1c1.1,0,2.1,0.4,2.9,1.2
		s1.2,1.8,1.2,2.9s-0.4,2.1-1.2,2.9s-1.8,1.2-2.9,1.2H109c-1.1,0-2.1-0.4-2.9-1.2s-1.2-1.7-1.2-2.9V61.1c0-1.1,0.4-2.1,1.2-2.9
		s1.8-1.2,2.9-1.2h8.1c1.1,0,2.1,0.4,2.9,1.2s1.2,1.8,1.2,2.9s-0.4,2.1-1.2,2.9s-1.8,1.2-2.9,1.2H113V66.2z"/>
	<path d="M131.1,73.9v3.2c0,1.1-0.4,2.1-1.2,2.9c-0.8,0.8-1.8,1.2-2.9,1.2c-1.1,0-2.1-0.4-2.9-1.2c-0.8-0.8-1.2-1.7-1.2-2.9v-16
		c0-1.1,0.4-2.1,1.2-2.9s1.8-1.2,2.9-1.2h6.1c2.2,0,4.2,0.8,5.7,2.4s2.4,3.5,2.4,5.7c0,2.2-0.8,4.2-2.4,5.7
		c-0.2,0.2-0.4,0.3-0.5,0.5l2.5,3.3c0.7,0.9,0.9,1.9,0.8,3c-0.2,1.1-0.7,2-1.6,2.7c-0.9,0.7-1.9,0.9-3,0.8c-1.1-0.2-2-0.7-2.7-1.6
		L131.1,73.9z M131.9,66.8c0.4,0,0.8-0.2,1.1-0.5c0.3-0.3,0.5-0.7,0.5-1.1s-0.2-0.8-0.5-1.1c-0.3-0.3-0.7-0.5-1.1-0.5h-0.8v3.2
		H131.9z"/>
	<path d="M147.3,81c-1.1,0-2.1-0.4-2.9-1.2s-1.2-1.7-1.2-2.9v-16c0-1.1,0.4-2.1,1.2-2.9c0.8-0.8,1.8-1.2,2.9-1.2
		c1.1,0,2.1,0.4,2.9,1.2c0.8,0.8,1.2,1.8,1.2,2.9v12h4.1c1.1,0,2.1,0.4,2.9,1.2s1.2,1.8,1.2,2.9s-0.4,2.1-1.2,2.9s-1.8,1.2-2.9,1.2
		H147.3z"/>
	<path d="M170.3,70.7v6.4c0,1.1-0.4,2.1-1.2,2.9c-0.8,0.8-1.7,1.2-2.9,1.2s-2.1-0.4-2.9-1.2c-0.8-0.8-1.2-1.7-1.2-2.9v-6.5l-5.9-6.9
		c-0.8-0.8-1.2-1.8-1.2-2.9c0-1.1,0.4-2.1,1.2-2.9c0.8-0.8,1.7-1.2,2.9-1.2c1.1,0,2.1,0.4,2.9,1.2l4.2,5.2l4.2-5.2
		c0.8-0.8,1.7-1.2,2.9-1.2c1.1,0,2.1,0.4,2.9,1.2c0.8,0.8,1.2,1.7,1.2,2.9c0,1.1-0.4,2.1-1.2,2.9L170.3,70.7z"/>
	<path d="M37.2,121.8c0.2-0.2,0.4-0.5,0.6-0.7c0.8-0.8,1.7-1.2,2.9-1.2c1.1,0,2.1,0.4,2.9,1.2s1.2,1.8,1.2,2.9c0,0.3,0,0.6-0.1,0.9
		c-0.1,0.8-0.7,1.7-1.6,2.7c-2.4,2.4-5.3,3.6-8.6,3.6c-3.4,0-6.2-1.2-8.6-3.6c-2.4-2.4-3.6-5.2-3.6-8.6s1.2-6.2,3.6-8.6
		c2.4-2.4,5.3-3.6,8.6-3.6c3.4,0,6.2,1.2,8.6,3.6c1,1,1.5,1.9,1.6,2.7c0.1,0.3,0.1,0.6,0.1,0.9c0,1.1-0.4,2.1-1.2,2.9
		s-1.8,1.2-2.9,1.2c-1.1,0-2.1-0.4-2.9-1.2c-0.2-0.2-0.4-0.4-0.6-0.7c-0.8-0.8-1.7-1.2-2.9-1.2c-1.1,0-2.1,0.4-2.9,1.2
		s-1.2,1.7-1.2,2.9s0.4,2.1,1.2,2.9s1.7,1.2,2.9,1.2C35.4,123,36.4,122.6,37.2,121.8z"/>
	<path d="M54.8,122.8v4.3c0,1.1-0.4,2.1-1.2,2.9c-0.8,0.8-1.7,1.2-2.9,1.2c-1.1,0-2.1-0.4-2.9-1.2c-0.8-0.8-1.2-1.8-1.2-2.9v-16.2
		c0-1.1,0.4-2.1,1.2-2.9s1.7-1.2,2.9-1.2c1.1,0,2.1,0.4,2.9,1.2s1.2,1.8,1.2,2.9v4.3h5.1v-4.3c0-1.1,0.4-2.1,1.2-2.9
		s1.7-1.2,2.9-1.2s2.1,0.4,2.9,1.2s1.2,1.8,1.2,2.9v16.2c0,1.1-0.4,2.1-1.2,2.9c-0.8,0.8-1.8,1.2-2.9,1.2s-2.1-0.4-2.9-1.2
		c-0.8-0.8-1.2-1.8-1.2-2.9v-4.3H54.8z"/>
	<path d="M82.6,122.3c0.4-0.5,0.6-1,0.6-1.8v-9.7c0-1.1,0.4-2.1,1.2-2.9c0.8-0.8,1.7-1.2,2.9-1.2c1.1,0,2.1,0.4,2.9,1.2
		c0.8,0.8,1.2,1.8,1.2,2.9V121c0,2.8-1,5.2-3,7.2s-4.5,3-7.7,3s-5.7-1-7.7-3c-2-2-3-4.4-3-7.2v-10.2c0-1.1,0.4-2.1,1.2-2.9
		c0.8-0.8,1.8-1.2,2.9-1.2s2.1,0.4,2.9,1.2c0.8,0.8,1.2,1.8,1.2,2.9v9.7c0,0.7,0.2,1.3,0.6,1.8c0.4,0.5,1,0.7,1.9,0.7
		C81.6,123,82.2,122.8,82.6,122.3z"/>
	<path d="M108.2,121.8c0.2-0.2,0.4-0.5,0.6-0.7c0.8-0.8,1.7-1.2,2.9-1.2c1.1,0,2.1,0.4,2.9,1.2s1.2,1.8,1.2,2.9c0,0.3,0,0.6-0.1,0.9
		c-0.1,0.8-0.7,1.7-1.6,2.7c-2.4,2.4-5.3,3.6-8.6,3.6c-3.4,0-6.2-1.2-8.6-3.6s-3.6-5.2-3.6-8.6s1.2-6.2,3.6-8.6s5.3-3.6,8.6-3.6
		c3.4,0,6.2,1.2,8.6,3.6c1,1,1.5,1.9,1.6,2.7c0.1,0.3,0.1,0.6,0.1,0.9c0,1.1-0.4,2.1-1.2,2.9s-1.8,1.2-2.9,1.2
		c-1.1,0-2.1-0.4-2.9-1.2c-0.2-0.2-0.4-0.4-0.6-0.7c-0.8-0.8-1.7-1.2-2.9-1.2c-1.1,0-2.1,0.4-2.9,1.2c-0.8,0.8-1.2,1.7-1.2,2.9
		s0.4,2.1,1.2,2.9c0.8,0.8,1.7,1.2,2.9,1.2C106.5,123,107.4,122.6,108.2,121.8z"/>
	<path d="M125.9,123.1v4c0,1.1-0.4,2.1-1.2,2.9c-0.8,0.8-1.8,1.2-2.9,1.2c-1.1,0-2.1-0.4-2.9-1.2c-0.8-0.8-1.2-1.8-1.2-2.9v-16.2
		c0-1.1,0.4-2.1,1.2-2.9s1.8-1.2,2.9-1.2c1.1,0,2.1,0.4,2.9,1.2s1.2,1.8,1.2,2.9v2.7l3.9-5.2c0.7-0.9,1.5-1.4,2.7-1.6
		c1.1-0.2,2.1,0.1,3,0.8c0.9,0.7,1.4,1.6,1.6,2.7c0.2,1.1-0.1,2.1-0.8,3l-3.8,5l4.8,6.4c0.7,0.9,0.9,1.9,0.8,3
		c-0.2,1.1-0.7,2-1.6,2.7c-0.9,0.7-1.9,0.9-3,0.8c-1.1-0.2-2-0.7-2.7-1.6L125.9,123.1z"/>
	<path d="M142.1,114.3c-1.2-0.3-2.1-1-2.4-2.2c-0.4-1.2-0.3-2.3,0.3-3.3c0.6-1,1.4-1.6,2.5-1.9s2.1-0.2,3.1,0.4
		c1,0.6,1.6,1.4,1.9,2.5c0.3,1.1,0.2,2.1-0.4,3.1l-2.2,3.8c-0.3,0.4-0.6,0.7-1.1,0.8c-0.5,0.1-0.9,0.1-1.4-0.2
		c-0.4-0.2-0.7-0.6-0.8-1.1s-0.1-0.9,0.2-1.4L142.1,114.3z"/>
	<path d="M150.9,129.6c-1.3-1-1.9-2.1-1.9-3.2c0-1.1,0.4-2.1,1.2-2.9s1.8-1.2,2.9-1.2c1,0,1.8,0.3,2.3,0.8c0.5,0.5,1.1,0.8,1.8,0.9
		c0.7,0,1.1-0.1,1.2-0.5c0.1-0.4-0.6-0.9-2.2-1.5s-3.1-1.4-4.6-2.4c-1.4-1-2.2-2.6-2.2-4.8s0.8-4.2,2.4-5.7c1.6-1.6,3.4-2.4,5.5-2.4
		c2.1,0,3.9,0.5,5.5,1.4c1.6,0.9,2.4,2,2.4,3.1c0,1.1-0.4,2.1-1.2,2.9s-1.8,1.2-2.9,1.2c-1,0-1.7-0.2-2.1-0.7
		c-0.4-0.5-0.8-0.7-1.4-0.8c-0.6,0-0.9,0.1-1,0.5c-0.1,0.4,0.5,0.8,1.8,1.4c1.3,0.5,2.8,1.3,4.6,2.3c1.7,1,2.6,2.7,2.6,5
		c0,2.2-0.8,4.2-2.4,5.7c-1.6,1.6-3.6,2.4-6.2,2.4C154.3,131.1,152.2,130.6,150.9,129.6z"/>
</g>
</svg>
