<?xml version="1.0" encoding="utf-8"?>
<!-- Generator: Adobe Illustrator 24.2.3, SVG Export Plug-In . SVG Version: 6.00 Build 0)  -->
<svg version="1.1" id="Layer_1" xmlns="http://www.w3.org/2000/svg" xmlns:xlink="http://www.w3.org/1999/xlink" x="0px" y="0px"
	 viewBox="0 0 188 188" style="enable-background:new 0 0 188 188;" xml:space="preserve">
<style type="text/css">
	.st0{fill:#00FF00;}
	.st1{fill:#00FFFF;}
</style>
<g>
	<path class="st0" d="M131.7,27.8H35.5l15.3-24h87.5L131.7,27.8z M83.4,103.4H50.3l17.9-65.9h32.6L83.4,103.4z"/>
	<path class="st0" d="M141.1,82.4h22l-5.9,21.1H135L141.1,82.4z"/>
</g>
<g>
	<path class="st1" d="M3.3,141.6h3v22.7h-3V141.6z"/>
	<path class="st1" d="M32.5,165L15,147.2l0.9,0.2l0.1,16.9h-3v-23.4H13l17.3,17.9l-0.7-0.2l-0.1-17h3V165H32.5z"/>
	<path class="st1" d="M39.2,164.3v-22.7h6.2c2.3,0,4.2,0.3,5.8,1c1.6,0.7,2.8,1.6,3.8,2.7s1.7,2.4,2.1,3.8s0.7,2.7,0.7,4.1
		c0,1.7-0.3,3.3-0.9,4.6c-0.6,1.4-1.4,2.5-2.5,3.5s-2.2,1.7-3.6,2.2s-2.8,0.8-4.3,0.8H39.2z M42.2,161.4h3.7c1.2,0,2.4-0.2,3.4-0.6
		c1.1-0.4,2-0.9,2.8-1.6c0.8-0.7,1.4-1.6,1.8-2.6c0.4-1,0.7-2.2,0.7-3.6c0-1.4-0.2-2.6-0.7-3.7c-0.5-1.1-1.1-1.9-1.9-2.7
		c-0.8-0.7-1.7-1.3-2.7-1.6c-1-0.4-2.1-0.5-3.1-0.5h-4V161.4z"/>
	<path class="st1" d="M65.6,156.3c0,1,0.2,1.9,0.7,2.8c0.5,0.8,1.2,1.4,2,1.9c0.8,0.5,1.7,0.7,2.8,0.7c1.1,0,2-0.2,2.9-0.7
		c0.8-0.5,1.5-1.1,2-1.9c0.5-0.8,0.7-1.7,0.7-2.8v-14.7h3v14.8c0,1.7-0.4,3.1-1.1,4.3c-0.8,1.2-1.8,2.2-3.1,2.9
		c-1.3,0.7-2.7,1-4.3,1c-1.6,0-3-0.3-4.3-1c-1.3-0.7-2.3-1.6-3.1-2.9c-0.8-1.2-1.1-2.7-1.1-4.3v-14.8h3V156.3z"/>
	<path class="st1" d="M97.6,145.6c-0.8-0.4-1.6-0.7-2.5-1c-0.9-0.3-1.8-0.4-2.7-0.4c-1.2,0-2.2,0.3-2.9,0.8
		c-0.7,0.6-1.1,1.3-1.1,2.3c0,0.7,0.2,1.3,0.7,1.8c0.5,0.5,1.1,0.9,1.8,1.3c0.7,0.4,1.5,0.7,2.4,1c0.7,0.3,1.4,0.5,2.1,0.9
		s1.3,0.8,1.9,1.3c0.6,0.5,1,1.1,1.3,1.9c0.3,0.7,0.5,1.6,0.5,2.7c0,1.2-0.3,2.3-0.9,3.3c-0.6,1-1.5,1.8-2.6,2.3
		c-1.1,0.6-2.4,0.8-4,0.8c-1,0-1.9-0.1-2.8-0.3c-0.9-0.2-1.8-0.5-2.5-0.9c-0.8-0.4-1.5-0.8-2.1-1.2l1.4-2.4c0.5,0.4,1.1,0.7,1.7,1
		c0.6,0.3,1.3,0.6,2,0.8s1.4,0.3,2.1,0.3c0.7,0,1.4-0.1,2.1-0.4c0.7-0.3,1.3-0.6,1.7-1.2s0.7-1.3,0.7-2.2c0-0.8-0.2-1.4-0.6-1.9
		c-0.4-0.5-0.9-1-1.6-1.3c-0.7-0.4-1.4-0.7-2.2-1c-0.7-0.3-1.5-0.5-2.2-0.9c-0.7-0.3-1.4-0.7-2-1.2c-0.6-0.5-1.1-1.1-1.5-1.7
		s-0.6-1.5-0.6-2.5c0-1.2,0.3-2.2,0.9-3.1c0.6-0.9,1.4-1.6,2.4-2.1c1-0.5,2.2-0.8,3.5-0.8c1.5,0,2.8,0.2,3.9,0.5
		c1.1,0.4,2.1,0.8,3,1.3L97.6,145.6z"/>
	<path class="st1" d="M102.2,141.6h15.1v2.9h-6.1v19.8h-3v-19.8h-6V141.6z"/>
	<path class="st1" d="M128.2,141.6c1.2,0,2.2,0.2,3.2,0.5c1,0.3,1.8,0.8,2.5,1.4c0.7,0.6,1.3,1.3,1.7,2.2c0.4,0.9,0.6,1.9,0.6,3
		c0,0.9-0.1,1.8-0.4,2.6c-0.3,0.9-0.7,1.6-1.3,2.3s-1.4,1.3-2.4,1.7c-1,0.4-2.2,0.6-3.6,0.6h-3.4v8.4h-3v-22.7H128.2z M128.5,153
		c0.9,0,1.6-0.1,2.2-0.4c0.6-0.3,1.1-0.6,1.4-1.1s0.6-0.9,0.7-1.4c0.1-0.5,0.2-1,0.2-1.4s-0.1-0.9-0.2-1.4c-0.2-0.5-0.4-0.9-0.8-1.4
		s-0.8-0.8-1.4-1.1c-0.6-0.3-1.2-0.4-2-0.4h-3.5v8.5H128.5z M132.3,154.7l5.9,9.6h-3.5l-6.1-9.5L132.3,154.7z"/>
	<path class="st1" d="M142.9,141.6h3v22.7h-3V141.6z"/>
	<path class="st1" d="M152.5,141.6h14.8v2.9h-11.7v6.9H166v3h-10.5v7h12.2v2.9h-15.2V141.6z"/>
	<path class="st1" d="M184.7,145.6c-0.8-0.4-1.6-0.7-2.5-1c-0.9-0.3-1.8-0.4-2.7-0.4c-1.2,0-2.2,0.3-2.9,0.8s-1.1,1.3-1.1,2.3
		c0,0.7,0.2,1.3,0.7,1.8c0.5,0.5,1.1,0.9,1.8,1.3s1.5,0.7,2.4,1c0.7,0.3,1.4,0.5,2.1,0.9s1.3,0.8,1.9,1.3c0.6,0.5,1,1.1,1.3,1.9
		c0.3,0.7,0.5,1.6,0.5,2.7c0,1.2-0.3,2.3-0.9,3.3c-0.6,1-1.5,1.8-2.6,2.3c-1.1,0.6-2.4,0.8-4,0.8c-1,0-1.9-0.1-2.8-0.3
		c-0.9-0.2-1.8-0.5-2.5-0.9c-0.8-0.4-1.5-0.8-2.1-1.2l1.4-2.4c0.5,0.4,1.1,0.7,1.7,1s1.3,0.6,2,0.8c0.7,0.2,1.4,0.3,2.1,0.3
		c0.7,0,1.4-0.1,2.1-0.4c0.7-0.3,1.3-0.6,1.7-1.2s0.7-1.3,0.7-2.2c0-0.8-0.2-1.4-0.6-1.9c-0.4-0.5-0.9-1-1.6-1.3
		c-0.7-0.4-1.4-0.7-2.2-1c-0.7-0.3-1.5-0.5-2.2-0.9c-0.7-0.3-1.4-0.7-2-1.2c-0.6-0.5-1.1-1.1-1.5-1.7c-0.4-0.7-0.6-1.5-0.6-2.5
		c0-1.2,0.3-2.2,0.9-3.1c0.6-0.9,1.4-1.6,2.4-2.1c1-0.5,2.2-0.8,3.5-0.8c1.5,0,2.8,0.2,3.9,0.5c1.1,0.4,2.1,0.8,3,1.3L184.7,145.6z"
		/>
</g>
</svg>
