<?xml version="1.0" encoding="utf-8"?>
<!-- Generator: Adobe Illustrator 24.2.3, SVG Export Plug-In . SVG Version: 6.00 Build 0)  -->
<svg version="1.1" id="Layer_1" xmlns="http://www.w3.org/2000/svg" xmlns:xlink="http://www.w3.org/1999/xlink" x="0px" y="0px"
	 viewBox="0 0 188 188" style="enable-background:new 0 0 188 188;filter: drop-shadow(0 0 4px #c00);" xml:space="preserve">
<style type="text/css">
	.st0{fill:url(#SVGID_1_);}
	.st1{fill:url(#SVGID_2_);}
	.st2{fill:url(#SVGID_3_);}
	.st3{fill:url(#SVGID_4_);}
	.st4{fill:url(#SVGID_5_);}
	.st5{fill:url(#SVGID_6_);}
	.st6{fill:url(#SVGID_7_);}
	.st7{fill:#04D5FB;}
</style>
<g>
	<g>
		<g>
			<linearGradient id="SVGID_1_" gradientUnits="userSpaceOnUse" x1="60.47" y1="193.3828" x2="127.53" y2="126.3229">
				<stop  offset="0" style="stop-color:#FFFF7C"/>
				<stop  offset="1" style="stop-color:#FF22B3"/>
			</linearGradient>
			<path class="st0" d="M34.8,167h118.4c2.7-2.2,5.4-4.6,7.8-7.1H26.9C29.4,162.4,32,164.8,34.8,167z"/>
			<linearGradient id="SVGID_2_" gradientUnits="userSpaceOnUse" x1="66.8672" y1="197.8636" x2="121.1328" y2="143.5979">
				<stop  offset="0" style="stop-color:#FFFF7C"/>
				<stop  offset="1" style="stop-color:#FF22B3"/>
			</linearGradient>
			<path class="st1" d="M136.4,177.9c4.1-2.1,8.1-4.5,11.8-7.1H39.7c3.8,2.7,7.7,5,11.8,7.1H136.4z"/>
			<linearGradient id="SVGID_3_" gradientUnits="userSpaceOnUse" x1="55.0336" y1="187.504" x2="132.9664" y2="109.5711">
				<stop  offset="0" style="stop-color:#FFFF7C"/>
				<stop  offset="1" style="stop-color:#FF22B3"/>
			</linearGradient>
			<path class="st2" d="M22.4,154.9h143.2c1.9-2.3,3.8-4.7,5.5-7.1H16.9C18.6,150.2,20.4,152.6,22.4,154.9z"/>
			<linearGradient id="SVGID_4_" gradientUnits="userSpaceOnUse" x1="75.4299" y1="198.9339" x2="112.5701" y2="161.7937">
				<stop  offset="0" style="stop-color:#FFFF7C"/>
				<stop  offset="1" style="stop-color:#FF22B3"/>
			</linearGradient>
			<path class="st3" d="M56.9,180.4c11.4,4.9,23.9,7.6,37.1,7.6s25.7-2.7,37.1-7.6H56.9z"/>
			<linearGradient id="SVGID_5_" gradientUnits="userSpaceOnUse" x1="49.456" y1="177.5248" x2="136.7676" y2="90.2131">
				<stop  offset="0" style="stop-color:#FFFF7C"/>
				<stop  offset="1" style="stop-color:#FF22B3"/>
			</linearGradient>
			<path class="st4" d="M12.2,140.2h163.7c1.3-2.4,2.6-4.8,3.7-7.3L7.4,130.5C8.8,133.9,10.4,137.1,12.2,140.2z"/>
			<linearGradient id="SVGID_6_" gradientUnits="userSpaceOnUse" x1="44.8208" y1="163.1285" x2="143.1792" y2="64.7701">
				<stop  offset="0" style="stop-color:#FFFF7C"/>
				<stop  offset="1" style="stop-color:#FF22B3"/>
			</linearGradient>
			<path class="st5" d="M1.1,108.5c0.8,4.9,1.9,9.7,3.4,14.4h179c1.5-4.6,2.6-9.4,3.4-14.4H1.1z"/>
			<linearGradient id="SVGID_7_" gradientUnits="userSpaceOnUse" x1="35.8798" y1="135.4246" x2="152.1202" y2="19.1842">
				<stop  offset="0" style="stop-color:#FFFF7C"/>
				<stop  offset="1" style="stop-color:#FF22B3"/>
			</linearGradient>
			<path class="st6" d="M187.8,99.7c0.1-1.9,0.2-3.8,0.2-5.7c0-51.9-42.1-94-94-94S0,42.1,0,94c0,1.9,0.1,3.8,0.2,5.7H187.8z"/>
		</g>
	</g>
</g>
<g>
	<path class="st7" d="M99,19.1c3,0,5.1,2.5,6.4,7.5c-0.5,1.8-0.8,3.4-0.8,4.8c4.3,1.7,6.4,4.2,6.4,7.5v0.4c-0.2,1.3-0.4,2.2-0.4,2.7
		l19.5-1.4v0.7l-6.5,1v0.4h0.4l6.5-0.7v0.7c-0.3,0-1.4,0.3-3.1,1v0.7c5,0,13.5-0.6,25.6-1.7v1h3v0.3c0,1-4.9,2.8-14.7,5.5
		c-2.5,1.2-4.3,1.8-5.2,1.8v0.4h0.9c0.5,0,3.4-0.2,8.6-0.7v0.7l-5.6,1v0.3h0.4l5.2-0.7v0.7c-3.7,2.4-16,6.8-36.8,13.1
		c-4.1,0.5-6.1,1.6-6.1,3.1c-9.5,32.8-16.7,54.4-21.7,64.6c-2.6,4.9-6.6,13.7-12.2,26.4h-0.9c0-0.5,0.1-1,0.4-1.4v-0.4h-0.4
		l-0.4,1.8h-0.8l-0.4-2.4V153c-0.3,0-0.4,0.1-0.4,0.4c-2.2-0.2-3.6-0.5-4.3-0.7c-4.8,8.9-8,14.3-9.6,16.1v-0.7
		c1.2-2.9,1.8-4.5,1.8-4.8V163h-0.4c-1.5,3.2-2.2,4.9-2.2,5.2h-0.8v-3.8c6.1-28.8,12.2-52.2,18.6-70.1c2.1-7.9,4.1-15.1,6.1-21.6
		c-0.3,0-0.4-0.1-0.4-0.4l-2.1,0.4h-10c-1.2,0-7.7,1-19.5,3.1h-3.4c-1.5-1.4-2.7-2.1-3.5-2.1V73l0.4-0.7L34,69.6
		c-1.5,0-2.2-1-2.2-3.1h0.4c0.9,0,1.3-0.2,1.3-0.7l-0.4-2c0-0.7,1.3-1.5,3.9-2.4c0-1.1,1.4-1.8,4.3-2c0-0.4,1.3-0.7,4-1
		c0-0.6-0.4-1.4-1.3-2.4c0-0.2,0.7-0.7,2.1-1.4l-0.4-0.7c0.3-1.3,1.8-2.3,4.4-3.1c0-0.7,4.5-1.7,13.4-2.8c12.6-2.3,19.3-3.7,20-4.1
		c0-7.1,1.4-10.9,4.3-11.3c2.4-8.2,4.2-12.4,5.2-12.7c1.2,0.2,2.2,0.4,3,0.4C95.9,19.5,97,19.1,99,19.1z"/>
</g>
</svg>
