<?xml version="1.0" encoding="UTF-8" standalone="no"?>
<!-- Generator: Adobe Illustrator 25.2.3, SVG Export Plug-In . SVG Version: 6.00 Build 0)  -->

<svg
   xmlns:dc="http://purl.org/dc/elements/1.1/"
   xmlns:cc="http://creativecommons.org/ns#"
   xmlns:rdf="http://www.w3.org/1999/02/22-rdf-syntax-ns#"
   xmlns:svg="http://www.w3.org/2000/svg"
   xmlns="http://www.w3.org/2000/svg"
   xmlns:sodipodi="http://sodipodi.sourceforge.net/DTD/sodipodi-0.dtd"
   xmlns:inkscape="http://www.inkscape.org/namespaces/inkscape"
   version="1.1"
   id="Layer_1"
   viewBox="0 0 188 188"
   style="enable-background:new 0 0 188 188;"
   xml:space="preserve">
<style
   type="text/css"
   id="style2">
	.st0{fill:url(#SVGID_1_);}
	.st1{fill:url(#SVGID_2_);}
	.st2{fill:url(#SVGID_3_);}
	.st3{fill:url(#SVGID_4_);}
	.st4{fill:url(#SVGID_5_);}
	.st5{fill:url(#SVGID_6_);}
	.st6{fill:url(#SVGID_7_);}
	.st7{fill:#04D5FB;}
</style>
<g
   id="g57">
	<g
   id="g55">
		<g
   id="g53">
			
				<linearGradient
   id="SVGID_1_"
   gradientUnits="userSpaceOnUse"
   x1="60.429699"
   y1="-5.4298"
   x2="127.4798"
   y2="61.620201"
   gradientTransform="matrix(1,0,0,-1,0,188)">
				<stop
   offset="0"
   style="stop-color:#FFFF7C"
   id="stop4" />
				<stop
   offset="1"
   style="stop-color:#FF22B3"
   id="stop6" />
			</linearGradient>
			<path
   class="st0"
   d="m 34.8,167 h 118.4 c 2.7,-2.2 5.4,-4.6 7.8,-7.1 H 26.9 c 2.5,2.5 5.1,4.9 7.9,7.1 z"
   id="path9"
   inkscape:connector-curvature="0"
   style="fill:url(#SVGID_1_)" />
			
				<linearGradient
   id="SVGID_2_"
   gradientUnits="userSpaceOnUse"
   x1="66.825104"
   y1="-9.9250002"
   x2="121.0749"
   y2="44.325001"
   gradientTransform="matrix(1,0,0,-1,0,188)">
				<stop
   offset="0"
   style="stop-color:#FFFF7C"
   id="stop11" />
				<stop
   offset="1"
   style="stop-color:#FF22B3"
   id="stop13" />
			</linearGradient>
			<path
   class="st1"
   d="m 136.4,177.9 c 4.1,-2.1 8.1,-4.5 11.8,-7.1 H 39.7 c 3.8,2.7 7.7,5 11.8,7.1 z"
   id="path16"
   inkscape:connector-curvature="0"
   style="fill:url(#SVGID_2_)" />
			
				<linearGradient
   id="SVGID_3_"
   gradientUnits="userSpaceOnUse"
   x1="55.049999"
   y1="0.44999999"
   x2="132.94991"
   y2="78.349998"
   gradientTransform="matrix(1,0,0,-1,0,188)">
				<stop
   offset="0"
   style="stop-color:#FFFF7C"
   id="stop18" />
				<stop
   offset="1"
   style="stop-color:#FF22B3"
   id="stop20" />
			</linearGradient>
			<path
   class="st2"
   d="m 22.4,154.9 h 143.2 c 1.9,-2.3 3.8,-4.7 5.5,-7.1 H 16.9 c 1.7,2.4 3.5,4.8 5.5,7.1 z"
   id="path23"
   inkscape:connector-curvature="0"
   style="fill:url(#SVGID_3_)" />
			
				<linearGradient
   id="SVGID_4_"
   gradientUnits="userSpaceOnUse"
   x1="75.449997"
   y1="-10.95"
   x2="112.5902"
   y2="26.190201"
   gradientTransform="matrix(1,0,0,-1,0,188)">
				<stop
   offset="0"
   style="stop-color:#FFFF7C"
   id="stop25" />
				<stop
   offset="1"
   style="stop-color:#FF22B3"
   id="stop27" />
			</linearGradient>
			<path
   class="st3"
   d="m 56.9,180.4 c 11.4,4.9 23.9,7.6 37.1,7.6 13.2,0 25.7,-2.7 37.1,-7.6 z"
   id="path30"
   inkscape:connector-curvature="0"
   style="fill:url(#SVGID_4_)" />
			
				<linearGradient
   id="SVGID_5_"
   gradientUnits="userSpaceOnUse"
   x1="49.5"
   y1="10.5"
   x2="136.8499"
   y2="97.849998"
   gradientTransform="matrix(1,0,0,-1,0,188)">
				<stop
   offset="0"
   style="stop-color:#FFFF7C"
   id="stop32" />
				<stop
   offset="1"
   style="stop-color:#FF22B3"
   id="stop34" />
			</linearGradient>
			<path
   class="st4"
   d="m 12.2,140.2 h 163.7 c 1.3,-2.4 2.6,-4.8 3.7,-7.3 L 7.4,130.5 c 1.4,3.4 3,6.6 4.8,9.7 z"
   id="path37"
   inkscape:connector-curvature="0"
   style="fill:url(#SVGID_5_)" />
			
				<linearGradient
   id="SVGID_6_"
   gradientUnits="userSpaceOnUse"
   x1="44.799999"
   y1="24.799999"
   x2="143.2"
   y2="123.2"
   gradientTransform="matrix(1,0,0,-1,0,188)">
				<stop
   offset="0"
   style="stop-color:#FFFF7C"
   id="stop39" />
				<stop
   offset="1"
   style="stop-color:#FF22B3"
   id="stop41" />
			</linearGradient>
			<path
   class="st5"
   d="m 1.1,108.5 c 0.8,4.9 1.9,9.7 3.4,14.4 h 179 c 1.5,-4.6 2.6,-9.4 3.4,-14.4 z"
   id="path44"
   inkscape:connector-curvature="0"
   style="fill:url(#SVGID_6_)" />
			
				<linearGradient
   id="SVGID_7_"
   gradientUnits="userSpaceOnUse"
   x1="35.893799"
   y1="52.6063"
   x2="152.1062"
   y2="168.8188"
   gradientTransform="matrix(1,0,0,-1,0,188)">
				<stop
   offset="0"
   style="stop-color:#FFFF7C"
   id="stop46" />
				<stop
   offset="1"
   style="stop-color:#FF22B3"
   id="stop48" />
			</linearGradient>
			<path
   class="st6"
   d="M 187.8,99.7 C 187.9,97.8 188,95.9 188,94 188,42.1 145.9,0 94,0 42.1,0 0,42.1 0,94 c 0,1.9 0.1,3.8 0.2,5.7 z"
   id="path51"
   inkscape:connector-curvature="0"
   style="fill:url(#SVGID_7_)" />
		</g>
	</g>
</g>

<g
   aria-label="FC"
   style="font-style:normal;font-variant:normal;font-weight:normal;font-stretch:normal;font-size:86.86679077px;line-height:1.25;font-family:'outrun future';-inkscape-font-specification:'outrun future, Normal';font-variant-ligatures:normal;font-variant-caps:normal;font-variant-numeric:normal;font-feature-settings:normal;text-align:start;letter-spacing:0px;word-spacing:0px;writing-mode:lr-tb;text-anchor:start;fill:#04d5fb;fill-opacity:1;stroke:none;stroke-width:2.17166972"
   id="text877"
   transform="translate(-6.861345,-6.5281405)"><path
     d="m 109.28081,57.688561 v 0.5514 l -2.58734,0.296908 v 0.296908 h 2.29043 v 0.551401 q -1.61179,1.230047 -15.990616,5.429174 -5.47159,2.587341 -16.838924,5.726083 L 70.725186,82.544 l 0.5514,-0.296908 h 8.016516 q 6.319898,0 17.98414,-0.848308 v 0.5514 q -0.721062,0 -2.290433,0.296908 V 82.544 h 2.290433 v 0.551401 q -1.823863,1.145216 -15.990615,5.429174 v 0.296908 h 1.145216 v 0.551401 h -0.593816 v 0.296908 h 0.890724 V 89.9667 q -1.187632,1.314878 -13.44569,8.271007 -8.5255,2.078353 -8.567915,2.841833 -7.295454,15.35438 -13.997091,24.00713 -2.544925,2.4601 -13.99709,18.28105 h -0.296908 l -0.848309,-0.5514 q 0,0.25449 -0.296907,0.25449 l -0.551401,-1.99352 q 4.283958,-17.3055 10.264533,-31.98123 13.742598,-31.048095 13.99709,-32.871958 -0.636231,0 -1.145216,-1.993525 l -1.102801,0.593816 q -1.314879,-0.551401 -1.442125,-1.145217 0.296908,-0.508985 0.296908,-1.145216 -0.890724,0 -0.890724,-0.848309 1.654202,-7.422699 7.465115,-7.422699 3.690142,-1.187632 3.690142,-2.587341 h 1.145217 l 1.145216,0.848308 q 0.593816,-1.145216 1.442124,-1.145216 l 1.993525,0.296908 q 1.187632,0 3.43565,-1.696617 h 0.848308 q 0.551401,0.08483 0.551401,0.5514 8.652747,-1.654201 36.859007,-2.841833 z"
     style="fill:#04d5fb;fill-opacity:1;stroke-width:2.17166972"
     id="path879"
     inkscape:connector-curvature="0" /><path
     d="m 159.5855,58.324792 q 4.19913,0 9.6283,3.520481 l -0.33932,0.508985 v 0.254492 q 1.39971,0.127247 1.39971,0.763478 -0.33932,0.46657 -0.33932,0.763478 0.50898,0 1.06038,0.763477 l -0.72106,0.975555 0.72106,0.254493 q -0.93314,6.277483 -12.80946,19.426264 -0.89072,0 -2.50251,1.017971 h -0.72106 q -0.72106,0 -0.72106,-0.763478 h -0.33932 l -1.44213,1.01797 q 0,-0.890724 -2.84183,-1.272463 l -0.33933,-0.508985 -0.72106,0.254493 h -2.84183 q 0,-0.424154 -2.50251,-1.230048 l -2.12077,-3.817388 q 0.67864,0 1.06038,-2.50251 0.72107,0 2.84184,-2.799418 h -0.33933 q -6.27748,2.799418 -11.07042,6.065406 -1.9087,0 -16.7541,13.106366 -12.25805,15.863369 -13.86984,26.000659 v 0.76347 q 0.72106,0.0848 0.72106,0.50899 -0.72106,0.0848 -0.72106,0.50898 1.06039,0 2.12077,4.02947 0,0.25449 0.72106,0.25449 1.61179,0 12.80946,-4.28396 8.5255,-1.78144 17.13583,-5.30192 h 0.33933 l -1.06039,0.97555 h 0.33932 l 1.06039,-0.46657 h 0.38174 q 0,0.89073 -1.78145,2.757 l 1.39971,-0.50898 v 0.25449 l -1.06039,1.27246 h 0.38174 l 1.39971,-0.76347 h 0.38174 q -3.43565,8.35584 -26.04307,17.13583 -4.45362,1.52695 -11.02801,1.52695 -10.94318,0 -15.311969,-10.85834 -0.721062,-2.12078 -0.721062,-5.55643 v -1.99352 q 0,-19.34143 32.405381,-45.426921 16.88134,-10.985595 32.4478,-15.099891 6.5744,-1.526956 10.30695,-1.526956 z"
     style="fill:#04d5fb;fill-opacity:1;stroke-width:2.17166972"
     id="path881"
     inkscape:connector-curvature="0" /></g></svg>