<?xml version="1.0" encoding="utf-8"?>
<!-- Generator: Adobe Illustrator 24.2.3, SVG Export Plug-In . SVG Version: 6.00 Build 0)  -->
<svg version="1.1" id="Layer_1" xmlns="http://www.w3.org/2000/svg" xmlns:xlink="http://www.w3.org/1999/xlink" x="0px" y="0px"
	 viewBox="0 0 188 188" style="enable-background:new 0 0 188 188;" xml:space="preserve">
<g>
	<path d="M23.9,116.2L14,127.1c-2.2-1.7-4.3-3.3-6.5-5c-2.2-1.7-4.4-3.3-6.5-5c3.2-2.8,4.9-5.9,4.9-9.1l0.2-18.5H2.2V86
		c4-5.8,9.1-13.3,15.3-22.5l2.3,0.4c-0.7,3.2-1.3,5.9-1.8,8c-0.5,2.1-0.8,4.7-1,7.8h7.8v9.6h-8l-0.1,19c0,2.2,0.2,3.5,0.6,3.8
		C17.8,112.3,20,113.7,23.9,116.2z"/>
	<path d="M27.2,88.9l6.7-8.5l10,4.7c-0.4,1.2-0.7,2.4-1.2,3.6c-0.4,1.2-0.6,2.3-0.6,3.6l-0.6,18.1c0,0.1,0,0.3,0,0.4
		c0,1.4,0.4,2.6,1.3,3.5c0.9,0.9,1.9,1.6,3.1,2.1L37,127.1l-9.4-7.6c1.7-2,2.6-4.1,2.6-6.1l0.3-20.2C30.4,91.7,29.4,90.3,27.2,88.9z
		 M28.5,80l3.6-17.6l13.2,5.3L28.5,80z"/>
	<path d="M48.2,70.9l0.5-2.1c5.9-2.1,12.3-5,19.1-8.6l2.8,1.7c-4.2,2.5-6.3,7.3-6.4,14.3l0,9.2l7.4-5.9c2.3,1,4.3,2.8,6.2,5.5
		c3.9,5.6,6.2,11.5,6.8,17.8c0.1,0.7,0.1,1.7,0.1,2.9c0,1.2-0.3,2.2-1,3L69,127.8l-19.1-9.5c0.7-1.6,1.4-3.3,2.1-5.1
		c0.7-1.8,1-3.8,1-5.9l-0.4-30.9C52.6,74.2,51.2,72.4,48.2,70.9z M64.2,90.6L64,109.9c0.3,1.5,1.3,2.6,3,3.4c1.8,0.8,3,1.2,3.6,1.2
		c0.6,0,1,0,1.3-0.1c2.6-0.7,3.8-2.3,3.8-5c0-0.7-0.1-1.4-0.2-2.1c-1-5-2.5-8.8-4.4-11.3C69.2,93.5,66.9,91.7,64.2,90.6z"/>
	<path d="M109.7,116.9c-5.1,5.6-8.4,9.3-9.9,10.9c-2.2-1.7-4.4-3.3-6.6-5c-2.2-1.7-4.4-3.3-6.5-5c2-1.8,3.3-3.4,4-4.9
		c0.6-1.5,0.9-2.9,1-4.2l0.2-26.9c0-1.9-0.1-4.2-0.2-6.9c-0.2-2.7-0.8-4.9-2-6.8l14.7-8c-0.8,3.6-1.3,7.3-1.4,11.1
		c-0.1,3.8-0.2,7.7-0.2,11.7l-0.2,26.1c0,2.2,0.2,3.5,0.6,3.8C103.6,113.1,105.8,114.5,109.7,116.9z"/>
	<path d="M112.2,94.7l17.4-14.1l19.7,9.2c-2.3,2-3.5,4.3-3.5,6.8l-0.2,14.7c0,1,0.5,2.2,1.6,3.4c1.1,1.3,2.1,2.3,3,3.1l-9,9.3
		l-6.9-7.1c-1.7,1.3-3.3,2.6-5,3.7s-3.2,2.3-4.5,3.5c-4.4-1.7-8.6-4.2-12.5-7.7c1.1-1.4,1.7-3.4,1.9-6.1L114,99.9c0-0.1,0-0.2,0-0.4
		C114,97.8,113.4,96.2,112.2,94.7z M127.5,91.3c-1.7,2.6-2.6,4.9-2.6,6.9v10.9c0,2.2,0.4,3.8,1.2,4.8c0.7,1,1.3,1.9,1.9,2.6
		c0.6,0.8,1.5,1.3,2.8,1.7l3.6-2.6V95L127.5,91.3z"/>
	<path d="M169.2,86.9L175,81c6,4.1,10,8.3,12.1,12.5l-7.1,9.5c-0.8-2.3-1.9-4.4-3.3-6.2c-1.4-1.8-3.7-3.6-6.9-5.5l-1.5,2l-0.8,15.2
		c-0.1,1.5,0.9,3.1,2.9,4.8c2,1.7,3.6,2.7,4.8,3.2l-7.4,10.5L154,116.4c1.7-2,2.5-4,2.6-6.1l-0.1-17.1c-0.1-1.4-1.2-2.8-3.3-4.3
		l6.7-8.5L169.2,86.9z"/>
</g>
</svg>
