<?xml version="1.0" encoding="utf-8"?>
<!-- Generator: Adobe Illustrator 24.3.0, SVG Export Plug-In . SVG Version: 6.00 Build 0)  -->
<svg version="1.1" id="Layer_1" xmlns="http://www.w3.org/2000/svg" xmlns:xlink="http://www.w3.org/1999/xlink" x="0px" y="0px"
	 viewBox="0 0 188 188" style="enable-background:new 0 0 188 188;" xml:space="preserve">
<style type="text/css">
	.st0{opacity:0.4;fill:#9B9B9B;enable-background:new    ;}
	.st1{fill:#7C7C7C;}
	.st2{opacity:0.4;fill:#7C7C7C;enable-background:new    ;}
</style>
<g>
	<path class="st0" d="M175.5,176V54.5c-5.3,3.7-10,8.2-13.9,13.4c-6.3,8.7-10.1,18.8-14.8,28.4c-8,16.2-20,31.6-37,37.9
		c-7.3,2.5-14.9,3.7-22.6,3.6c-28.5,0-55.9-11.1-76.4-30.9c-6.1,22.9-4.4,47.2,4.7,69.1L175.5,176L175.5,176z"/>
	<path class="st1" d="M166,0H22C9.8,0,0,9.8,0,22v144c0,12.2,9.8,22,22,22h144c12.2,0,22-9.8,22-22V22C188,9.8,178.2,0,166,0z
		 M175.5,161.3c0,7.8-6.3,14.2-14.2,14.2H27.7c-7.8,0-14.2-6.3-14.2-14.2V27.7c0-7.8,6.3-14.2,14.2-14.2c12.6,0,25.2,0,37.8,0
		c32,0,64,0,95.9,0c0.9,0,6,0.1,10,4.1c2.6,2.6,4.1,6.1,4.1,10V161.3z"/>
</g>
<g>
	<g>
		<g>
			<polygon class="st1" points="49,68.6 142.8,83.3 148.1,67.1 54.3,52.4 			"/>
			
				<rect x="88.7" y="28.6" transform="matrix(0.1547 -0.988 0.988 0.1547 10.1088 163.9464)" class="st2" width="24.4" height="94.9"/>
		</g>
		<path class="st1" d="M116.2,88.5l8.7-27.6l11.8-37.5L92.5,31l-5.7,18.1l-8.7,27.6l-10.8,34.6c-3.4,11-4.9,19.3-4.3,24.9
			c0.4,5.3,2.7,10.3,6.5,14.1c3.8,3.8,10.3,7.2,19.8,10.1c8.9,2.7,18,4.4,27.3,5.1l6-28.9c-5.5,0-10.3,1.6-13.1,0.7
			c-3.1-1-5-2.7-5.6-5.1c-0.4-1.5,0.1-4.5,1.4-8.7l10.9-34.9L116.2,88.5z"/>
	</g>
</g>
</svg>
