<?xml version="1.0" encoding="utf-8"?>
<!-- Generator: Adobe Illustrator 25.2.3, SVG Export Plug-In . SVG Version: 6.00 Build 0)  -->
<svg version="1.1" id="Layer_1" xmlns="http://www.w3.org/2000/svg" xmlns:xlink="http://www.w3.org/1999/xlink" x="0px" y="0px"
	 viewBox="0 0 188 188" style="enable-background:new 0 0 188 188;" xml:space="preserve">
<g>
	<path d="M20.9,45.8c-1.3-0.8-2.9-1.3-4.6-1.5c-0.3,0.5-0.8,1.1-1.4,2c0.3,0.7,0.6,1.6,0.8,2.7h4.3v6.6H16c0,1.6,0,3.3-0.1,5
		c-0.1,1.7-0.1,3.3-0.1,4.7c-0.1,3.3-2.5,10.8-7.2,22.4c-0.6-0.6-1.4-1.1-2.2-1.3c1.2-4.3,1.9-8.9,2.2-13.9c0.2-5,0.4-9.1,0.4-12.4
		s0-6.2-0.1-8.8c0-1.4-0.7-2.7-2.1-3.8c1.5-1.6,2.9-3.2,4.1-4.7c1.3-1.6,2.6-3.1,4.1-4.8c1.6,0.2,3.4,0.5,5.2,0.8
		c1.8,0.4,3.7,0.7,5.4,1.1c-0.8,1-1.6,2-2.4,2.9C22.4,43.9,21.7,44.8,20.9,45.8z"/>
	<path d="M22.2,56.3c4.1-2.7,7.5-5.2,10.2-7.4c1.3,0.6,2.7,1.6,4.1,3.1c3,3.2,4.7,6.5,5.3,9.9c0.1,0.4,0.1,0.8,0.1,1.2
		c0,1.2-0.3,2.1-1,2.8L32.1,77l-11.2-5.5c1.2-2.5,1.8-4.6,1.8-6.4l-0.1-6.1C22.5,57.7,22.4,56.8,22.2,56.3z M29.2,55.4l-0.1,11.2
		c0.2,0.9,0.8,1.5,1.8,2c1.1,0.5,1.7,0.7,2.1,0.7s0.6,0,0.7-0.1c1.5-0.4,2.3-1.3,2.3-2.9c0-0.4,0-0.8-0.1-1.2
		c-0.6-2.9-1.5-5.1-2.6-6.6S30.8,56,29.2,55.4z"/>
	<path d="M53.1,52.8l3.4-3.5c3.5,2.4,5.9,4.9,7.1,7.4l-4.2,5.6c-0.5-1.4-1.1-2.6-1.9-3.7c-0.8-1.1-2.2-2.1-4.1-3.2l-0.9,1.2l-0.5,9
		c-0.1,0.9,0.5,1.9,1.7,2.8c1.2,1,2.1,1.6,2.8,1.9l-4.4,6.2l-8.1-6.3c1-1.2,1.5-2.4,1.5-3.6l-0.1-10.1c-0.1-0.8-0.7-1.7-1.9-2.5l4-5
		L53.1,52.8z"/>
	<path d="M74.8,52.9L78,49l6.7,5l4-5l8.4,6.1l-0.8,3.1l-0.3,8.5c0,0.1,0,0.2,0,0.2c0,0.8,0.3,1.5,0.8,2c0.5,0.5,1.1,1,1.8,1.2
		l-5.3,6.4c-1.3-1-2.3-1.9-3-2.7c-0.7-0.8-1-2.4-1-4.9c0-0.2,0-0.4,0-0.6l0.2-9.7c0-0.7-0.9-1.8-2.8-3.4l-1.1,1.9l-0.4,9.5
		c0,0.1,0,0.1,0,0.2c0,0.9,0.3,1.6,0.8,2.1c0.5,0.6,1.1,1,1.8,1.2l-5.3,6.4l-5.6-4.5c1-1.2,1.5-2.4,1.6-3.6l0.2-9.7
		c0-0.8-1-2-3.1-3.7L74,56.9l-0.2,9.7c0,0.9,0.2,1.7,0.8,2.2c0.5,0.6,1.1,1,1.8,1.3l-5.3,6.4l-5.5-4.5c1-1.2,1.5-2.4,1.5-3.6
		l0.2-11.9c0-0.8-0.6-1.7-1.9-2.5l4-5L74.8,52.9L74.8,52.9z"/>
	<path d="M113.2,76.6l-12.6-5c0.5-2.6,0.7-5.4,0.7-8.2c0-2.8-0.3-5.8-0.8-8.9l9.1-5.3V49l0.1,0h0l10.2,7.3l-10.6,11.2
		c0.7,0.9,1.5,1.3,2.4,1.4c0.9,0.1,1.6,0.1,2.2,0.1c0.6,0,1.2,0,2-0.1c0.8-0.1,1.7-0.1,2.9-0.1c-0.9,1.3-1.8,2.6-2.8,3.9
		C115,74,114.1,75.3,113.2,76.6z M108.8,56.1c-1,0-1.5,1.4-1.5,4.2c0,1.6,0.3,3.2,0.8,4.7c0,0.2,0,0.3,0.1,0.4l4.2-4.5
		c0.3-0.3,0.4-0.6,0.4-0.9s-0.2-0.7-0.5-1.2c-0.3-0.5-0.6-0.9-0.9-1.2C110.4,56.6,109.5,56.1,108.8,56.1z"/>
	<path d="M130.8,52.8l3.4-3.5c3.5,2.4,5.9,4.9,7.1,7.4l-4.2,5.6c-0.5-1.4-1.1-2.6-1.9-3.7c-0.8-1.1-2.2-2.1-4.1-3.2l-0.9,1.2l-0.5,9
		c-0.1,0.9,0.5,1.9,1.7,2.8c1.2,1,2.1,1.6,2.8,1.9l-4.4,6.2l-8.1-6.3c1-1.2,1.5-2.4,1.5-3.6l-0.1-10.1c-0.1-0.8-0.7-1.7-1.9-2.5l4-5
		L130.8,52.8z"/>
	<path d="M155.8,70.6c-3,3.3-5,5.5-5.8,6.4c-1.3-1-2.6-2-3.9-3c-1.3-1-2.6-2-3.8-3c1.2-1,2-2,2.3-2.9c0.4-0.9,0.6-1.7,0.6-2.5
		l0.1-15.9c0-1.1,0-2.5-0.1-4.1c-0.1-1.6-0.5-2.9-1.2-4l8.7-4.7c-0.5,2.1-0.7,4.3-0.8,6.5c-0.1,2.3-0.1,4.6-0.1,6.9l-0.1,15.4
		c0,1.3,0.1,2.1,0.4,2.2C152.2,68.3,153.5,69.1,155.8,70.6z"/>
	<path d="M168.5,76.5l-2.9-1.3l-6.3-1.9c1.1-1.3,1.6-2.9,1.6-4.8l0.2-11.9c0-0.9-0.6-1.7-1.9-2.5l4-5l6.3,4.2
		c-0.2,0.7-0.5,1.2-0.8,1.5c-0.3,0.3-0.5,0.8-0.6,1.5l-1.2,12.3c-0.1,0.5,0.3,1.4,1.1,2.5c0.8,1.1,1.7,1.7,2.9,1.8
		c1.8-4.2,2.8-9.6,2.9-16.4c0-0.8-0.6-1.7-1.9-2.5l4-5l5.9,4.2c-0.2,0.7-0.4,1.2-0.6,1.4c-0.2,0.2-0.5,1.3-1,3.3
		c-0.4,2-1.4,4.6-2.8,8.1c-1.4,3.4-3,6.6-4.8,9.6c-1.7,3-3.5,5.6-5.3,7.8c-1.8,2.2-3.4,3.7-4.8,4.4l-5.1-4.2
		C162.4,81.8,166.1,79.4,168.5,76.5z"/>
	<path d="M49.2,132.4l-8.9,8.8c-5.6-3.7-8.4-8-8.4-13c0-2.4,0.8-4.8,2.4-7.2c1.6-2.4,4.1-4.9,7.6-7.8c1.5,1,3.1,1.9,4.7,2.9
		c1.6,0.9,3.2,1.9,4.7,2.8l-5.3,4.6c-1.1-0.6-1.9-1.2-2.5-1.7c-0.6-0.5-1.3-0.9-2-1.2c-0.7-0.3-1.2-0.5-1.5-0.5s-0.6,0.2-1,0.5
		c-1.1,1.1-1.6,2.3-1.6,3.7c0,2.4,1.4,5,4.3,7.8c0.7,0.7,1.4,1,2.1,1c1.2,0,2.2-0.8,3.2-2.4c0.4,0.3,0.7,0.5,1.1,0.8
		S48.8,132.2,49.2,132.4z"/>
	<path d="M57.9,135.1c-3,3.3-5,5.5-5.8,6.4c-1.3-1-2.6-2-3.9-3c-1.3-1-2.6-2-3.8-3c1.2-1,2-2,2.3-2.9c0.4-0.9,0.6-1.7,0.6-2.5
		l0.1-15.9c0-1.1,0-2.5-0.1-4.1s-0.5-2.9-1.2-4l8.7-4.7c-0.5,2.1-0.7,4.3-0.8,6.5s-0.1,4.6-0.1,6.9v2.4l5.1-3.9
		c4.9,4.6,7.3,9.9,7.3,15.8c0,6.6-2.5,13.7-7.6,21.6l-3.9-1.2c3.9-4.3,5.9-9.3,5.9-14.8c0-5.9-2.3-10.8-6.8-14.8l-0.1,10.4
		c0,1.3,0.1,2.1,0.4,2.2C54.3,132.9,55.6,133.7,57.9,135.1z"/>
	<path d="M80.9,118.6l4-5l5.9,2.8c-0.2,0.7-0.4,1.4-0.7,2.1c-0.3,0.7-0.4,1.4-0.4,2.1l-0.4,10.7c0,0.1,0,0.1,0,0.2
		c0,0.9,0.3,1.6,0.8,2.1c0.5,0.6,1.1,1,1.8,1.2l-5.3,6.4l-5.7-5l-6.8,5l-5.5-4.5c1-1.2,1.5-2.4,1.5-3.6l0.2-11.9
		c0-0.8-0.6-1.7-1.9-2.5l4-5l5.9,2.8c-0.2,0.7-0.4,1.4-0.7,2.1c-0.3,0.7-0.4,1.4-0.4,2.1l-0.3,10.7c0,0.8,0.3,1.7,0.9,2.7
		c0.2,0.3,0.5,0.4,0.8,0.4c0.9,0,2.2-0.8,4.1-2.4l0.2-10.8C82.8,120.2,82.2,119.4,80.9,118.6z"/>
	<path d="M111.1,132.4l-8.9,8.8c-5.6-3.7-8.4-8-8.4-13c0-2.4,0.8-4.8,2.4-7.2c1.6-2.4,4.1-4.9,7.6-7.8c1.5,1,3.1,1.9,4.7,2.9
		c1.6,0.9,3.2,1.9,4.7,2.8l-5.3,4.6c-1.1-0.6-1.9-1.2-2.5-1.7c-0.6-0.5-1.3-0.9-2-1.2c-0.7-0.3-1.2-0.5-1.5-0.5s-0.6,0.2-1,0.5
		c-1.1,1.1-1.6,2.3-1.6,3.7c0,2.4,1.4,5,4.3,7.8c0.7,0.7,1.4,1,2.1,1c1.2,0,2.2-0.8,3.2-2.4c0.4,0.3,0.7,0.5,1.1,0.8
		C110.3,131.9,110.7,132.2,111.1,132.4z"/>
	<path d="M119.5,135.1c-3,3.3-5,5.5-5.8,6.4c-3-2.3-5.6-4.3-7.7-5.9c1.9-1.7,2.9-3.5,2.9-5.4l0.1-7.2h-2.5l2.5-4.7l0-3.9
		c0-1.1,0-2.5-0.1-4.1c-0.1-1.6-0.5-2.9-1.2-4l8.7-4.7c-0.4,1.8-0.7,3.9-0.8,6.1l4.2-4.2l5.1,6.5l-6.2,7.4h5.2l-3,5.7h-5.5l-0.1,7.4
		c0,1.3,0.1,2.1,0.3,2.4C115.9,133.2,117.1,134,119.5,135.1z M115.4,110.9c0,0.7,0,1.4,0,2v4.4h1.3l2.9-3.4
		c-0.4-2.3-1.3-3.7-2.7-4.2L115.4,110.9z"/>
	<path d="M124.2,116.5c1.6-2.8,2.4-5.4,2.4-7.7c0-1.2-0.2-2.5-0.7-3.9l6.5-4.2c-0.3,3.2-1.1,6.2-2.4,8.8c-1.3,2.6-2.8,5-4.5,7.2
		L124.2,116.5z"/>
	<path d="M133.5,136.2l4.6-4.8c-1.6-2.2-2.8-4.7-3.5-7.5c2.1-3.5,5.2-6.9,9.3-10.4c3.2,0.9,7,1.7,11.1,2.5l0.6-0.2l-4.9,5.1
		l4.3,10.8c-3.3,2.4-6.3,5.5-9,9.3C142.7,139.1,138.5,137.5,133.5,136.2z M147.4,134.4c1.8,0,2.7-0.6,2.7-1.9c0-1.1-1.3-3.4-3.8-6.9
		l-6.3,6.5C142.7,133.7,145.2,134.4,147.4,134.4z M143.3,126.1l5.1-5.3c-3-0.8-5.1-1.2-6.1-1.2c-1,0-1.6,0.1-1.7,0.3
		c-0.1,0.2-0.2,0.4-0.2,0.6C140.4,121.5,141.4,123.3,143.3,126.1z"/>
</g>
</svg>
