<svg
   xmlns:dc="http://purl.org/dc/elements/1.1/"
   xmlns:cc="http://creativecommons.org/ns#"
   xmlns:rdf="http://www.w3.org/1999/02/22-rdf-syntax-ns#"
   xmlns:svg="http://www.w3.org/2000/svg"
   xmlns="http://www.w3.org/2000/svg"
   xmlns:sodipodi="http://sodipodi.sourceforge.net/DTD/sodipodi-0.dtd"
   xmlns:inkscape="http://www.inkscape.org/namespaces/inkscape"
   viewBox="0 0 52.916666 52.916666"
   version="1.1"
   id="svg8"
   inkscape:export-xdpi="192"
   inkscape:export-ydpi="192">
  <defs
     id="defs2">
    <inkscape:path-effect
       effect="bspline"
       id="path-effect4793"
       is_visible="true"
       weight="33.333333"
       steps="2"
       helper_size="0"
       apply_no_weight="true"
       apply_with_weight="true"
       only_selected="false" />
    <inkscape:path-effect
       effect="bspline"
       id="path-effect4788"
       is_visible="true"
       weight="33.333333"
       steps="2"
       helper_size="0"
       apply_no_weight="true"
       apply_with_weight="true"
       only_selected="false" />
  </defs>
  <sodipodi:namedview
     id="base"
     pagecolor="#ffffff"
     bordercolor="#666666"
     borderopacity="1.0"
     inkscape:pageopacity="0.0"
     inkscape:pageshadow="2"
     inkscape:zoom="2.8284271"
     inkscape:cx="39.254776"
     inkscape:cy="100.04386"
     inkscape:document-units="mm"
     inkscape:current-layer="layer1"
     showgrid="false"
     units="px"
     inkscape:window-width="1920"
     inkscape:window-height="1031"
     inkscape:window-x="0"
     inkscape:window-y="25"
     inkscape:window-maximized="1" />
  <metadata
     id="metadata5">
    <rdf:RDF>
      <cc:Work
         rdf:about="">
        <dc:format>image/svg+xml</dc:format>
        <dc:type
           rdf:resource="http://purl.org/dc/dcmitype/StillImage" />
        <dc:title></dc:title>
      </cc:Work>
    </rdf:RDF>
  </metadata>
  <g
     inkscape:label="Layer 1"
     inkscape:groupmode="layer"
     id="layer1"
     transform="translate(0,-244.08334)"
     style="display:inline">
    <rect
       style="opacity:1;fill:#dbb94d;fill-opacity:1;stroke:#dbb94d;stroke-width:0;stroke-linecap:round;stroke-miterlimit:4;stroke-dasharray:none;stroke-opacity:1"
       id="rect4795"
       width="52.916664"
       height="52.916653"
       x="4.4408921e-16"
       y="244.08334" />
    <g
       id="g4774"
       style="opacity:1;stroke:#b84d1f;stroke-opacity:1">
      <path
         inkscape:connector-curvature="0"
         id="path3738"
         d="m 0.06939571,246.36038 3.61525609,0.16223"
         style="fill:none;stroke:#b84d1f;stroke-width:0.13684437;stroke-linecap:round;stroke-linejoin:miter;stroke-miterlimit:4;stroke-dasharray:none;stroke-opacity:1" />
      <path
         inkscape:connector-curvature="0"
         id="path3738-3"
         d="m 3.7788483,247.71179 5.2748559,-0.0206"
         style="display:inline;fill:none;stroke:#b84d1f;stroke-width:0.17513552;stroke-linecap:round;stroke-linejoin:miter;stroke-miterlimit:4;stroke-dasharray:none;stroke-opacity:1" />
      <path
         inkscape:connector-curvature="0"
         id="path4562"
         d="m 33.021151,248.16986 c 0,0 5.296947,0.5145 6.641647,0.0702"
         style="fill:none;fill-opacity:1;stroke:#b84d1f;stroke-width:0.16500001;stroke-linecap:round;stroke-linejoin:miter;stroke-miterlimit:4;stroke-dasharray:none;stroke-opacity:1" />
      <path
         inkscape:connector-curvature="0"
         id="path4562-6"
         d="m 45.295679,253.62817 c 0,0 5.230018,0.14923 6.519399,-0.36833"
         style="display:inline;fill:none;fill-opacity:1;stroke:#b84d1f;stroke-width:0.16102175;stroke-linecap:round;stroke-linejoin:miter;stroke-miterlimit:4;stroke-dasharray:none;stroke-opacity:1" />
      <path
         inkscape:connector-curvature="0"
         id="path4579"
         d="m 51.356302,256.34282 1.473284,-0.0946"
         style="fill:none;stroke:#b84d1f;stroke-width:0.16951294;stroke-linecap:round;stroke-linejoin:miter;stroke-miterlimit:4;stroke-dasharray:none;stroke-opacity:1" />
      <path
         inkscape:connector-curvature="0"
         id="path4562-7"
         d="m 47.150369,278.69231 c 0,0 4.563354,0.11706 5.700912,-0.24169"
         style="display:inline;fill:none;fill-opacity:1;stroke:#b84d1f;stroke-width:0.12579951;stroke-linecap:round;stroke-linejoin:miter;stroke-miterlimit:4;stroke-dasharray:none;stroke-opacity:1" />
      <path
         inkscape:connector-curvature="0"
         id="path4605"
         d="m 9.8061197,293.26277 c 0,0 1.6040363,-0.87644 3.4065103,-0.89297 1.802474,-0.0165 3.059245,0.0661 3.059245,0.0661"
         style="fill:none;stroke:#b84d1f;stroke-width:0.16500001;stroke-linecap:round;stroke-linejoin:miter;stroke-miterlimit:4;stroke-dasharray:none;stroke-opacity:1" />
      <path
         inkscape:connector-curvature="0"
         id="path3738-3-5"
         d="m 7.3952019,264.48027 5.2748561,-0.0206"
         style="display:inline;fill:none;stroke:#b84d1f;stroke-width:0.17513552;stroke-linecap:round;stroke-linejoin:miter;stroke-miterlimit:4;stroke-dasharray:none;stroke-opacity:1" />
      <path
         inkscape:connector-curvature="0"
         id="path3738-3-5-3"
         d="m 22.502833,273.03761 5.270604,-0.21276"
         style="display:inline;fill:none;stroke:#b84d1f;stroke-width:0.17513552;stroke-linecap:round;stroke-linejoin:miter;stroke-miterlimit:4;stroke-dasharray:none;stroke-opacity:1" />
      <path
         inkscape:connector-curvature="0"
         id="path3738-3-5-5"
         d="m 2.9823105,271.44761 3.9572535,-0.0259"
         style="display:inline;fill:none;stroke:#b84d1f;stroke-width:0.17;stroke-linecap:round;stroke-linejoin:miter;stroke-miterlimit:4;stroke-dasharray:none;stroke-opacity:1" />
      <path
         inkscape:connector-curvature="0"
         id="path3738-3-5-6"
         d="m 0.08637374,270.17422 3.99016266,-0.0258"
         style="display:inline;fill:none;stroke:#b84d1f;stroke-width:0.17032172;stroke-linecap:round;stroke-linejoin:miter;stroke-miterlimit:4;stroke-dasharray:none;stroke-opacity:1" />
      <path
         inkscape:connector-curvature="0"
         id="path3738-3-5-6-2"
         d="m 0.06492486,269.35321 0.82563534,-0.0705"
         style="display:inline;fill:none;stroke:#b84d1f;stroke-width:0.12803277;stroke-linecap:round;stroke-linejoin:miter;stroke-miterlimit:4;stroke-dasharray:none;stroke-opacity:1" />
      <path
         inkscape:connector-curvature="0"
         id="path4562-7-9"
         d="m 34.803351,291.74331 c 0,0 7.223535,0.10583 9.024226,-0.21849"
         style="display:inline;fill:none;fill-opacity:1;stroke:#b84d1f;stroke-width:0.15048602;stroke-linecap:round;stroke-linejoin:miter;stroke-miterlimit:4;stroke-dasharray:none;stroke-opacity:1" />
      <path
         inkscape:connector-curvature="0"
         id="path4562-7-9-1"
         d="m 36.601394,288.19474 c 0,0 -4.890043,-0.0968 -6.106505,0.19607"
         style="display:inline;fill:none;fill-opacity:1;stroke:#b84d1f;stroke-width:0.11766537;stroke-linecap:round;stroke-linejoin:miter;stroke-miterlimit:4;stroke-dasharray:none;stroke-opacity:1" />
      <path
         inkscape:connector-curvature="0"
         id="path4562-7-9-1-2"
         d="m 37.361472,289.865 c 0,0 -1.19151,-0.0968 -1.487914,0.19607"
         style="display:inline;fill:none;fill-opacity:1;stroke:#b84d1f;stroke-width:0.1;stroke-linecap:round;stroke-linejoin:miter;stroke-miterlimit:4;stroke-dasharray:none;stroke-opacity:1" />
      <path
         inkscape:connector-curvature="0"
         id="path4605-7"
         d="m 4.4207334,295.83959 c 0,0 0.6787025,-0.10834 1.4413684,-0.11039 0.7626659,-0.002 1.2944334,0.008 1.2944334,0.008"
         style="display:inline;fill:none;stroke:#b84d1f;stroke-width:0.138;stroke-linecap:round;stroke-linejoin:miter;stroke-miterlimit:4;stroke-dasharray:none;stroke-opacity:1" />
      <path
         inkscape:connector-curvature="0"
         id="path4562-7-0"
         d="m 45.679703,280.40544 c 0,0 1.964245,0.0712 2.453895,-0.14702"
         style="display:inline;fill:none;fill-opacity:1;stroke:#b84d1f;stroke-width:0.06437258;stroke-linecap:round;stroke-linejoin:miter;stroke-miterlimit:4;stroke-dasharray:none;stroke-opacity:1" />
    </g>
    <path
       transform="translate(0,244.08334)"
       style="display:inline;fill:#820000;fill-opacity:1;stroke:#000000;stroke-width:0;stroke-linecap:butt;stroke-linejoin:miter;stroke-miterlimit:4;stroke-dasharray:none;stroke-opacity:1"
       d="m 25.883861,14.132958 c 0.818719,0.402575 1.051219,1.400773 0.735445,1.787101 -0.315774,0.386328 -0.789133,0.396377 -2.790385,0.490698 -2.001252,0.09432 -2.4545,0.122964 -3.557225,0.171417 -1.102724,0.04845 -1.62109,0.04403 -2.381308,0.224879 -0.760218,0.180848 -1.724438,0.547057 -2.347184,0.909514 -0.622746,0.362458 -0.903287,0.720927 -1.063216,1.311769 -0.159928,0.590842 -0.198873,1.412581 -0.130667,2.087028 0.06821,0.674446 0.243542,1.200456 0.419039,1.510441 0.175497,0.309985 0.350839,0.4035 0.658684,0.500911 0.307845,0.09741 0.748524,0.198806 1.270718,0.245555 0.522194,0.04675 1.126599,0.03895 1.802674,0.04869 0.676075,0.0097 1.424762,0.03704 2.056093,0.07017 0.631331,0.03313 1.146,0.07212 1.513331,0.1721 0.367332,0.09998 0.587906,0.261104 0.817963,0.515179 0.230057,0.254075 0.469886,0.601414 0.517593,0.922244 0.04771,0.32083 -0.09681,0.615392 -0.264594,0.817393 -0.167785,0.202 -0.358566,0.311018 -0.813258,0.367615 -0.454691,0.0566 -1.178483,0.06051 -1.778808,0.0761 -0.600325,0.01559 -1.079563,0.04286 -1.789218,0.06626 -0.709655,0.0234 -1.648451,0.04288 -2.301383,0.03314 -0.652931,-0.0097 -1.019209,-0.0487 -1.299876,0.0097 -0.280666,0.05839 -0.475427,0.214194 -0.551563,0.413166 -0.07614,0.198972 -0.03333,0.440269 -0.02258,1.763788 0.01074,1.323519 -0.01064,3.724761 -0.120444,5.022907 -0.109801,1.298146 -0.308215,1.49105 -0.548172,1.604185 -0.239957,0.113135 -0.520697,0.146163 -0.7607,0.091 -0.240003,-0.05516 -0.438235,-0.198328 -0.614682,-0.372023 -0.176447,-0.173696 -0.330751,-0.377596 -0.42721,-0.614682 -0.09646,-0.237086 -0.135052,-0.507237 -0.173612,-1.011308 -0.03856,-0.504072 -0.07718,-1.243308 -0.104729,-2.204984 -0.02755,-0.961675 -0.0441,-2.147188 -0.08544,-3.955055 -0.04134,-1.807867 -0.107491,-4.238962 -0.07991,-5.91187 0.02758,-1.672909 0.148858,-2.588023 0.584294,-3.513912 0.435436,-0.925889 1.185329,-1.863256 2.084012,-2.462637 0.898682,-0.599381 1.967716,-0.866639 3.296899,-1.051033 1.329183,-0.184393 2.952115,-0.290146 4.474635,-0.378363 1.522519,-0.08822 2.956066,-0.159645 3.774785,0.242931 z"
       id="path4786"
       inkscape:connector-curvature="0"
       inkscape:path-effect="#path-effect4788"
       inkscape:original-d="m 26.498411,13.658967 c 0.204479,0.876494 0.436979,1.874692 0.612643,2.630276 -0.807527,0.01689 -1.280887,0.02693 -2.813002,0.05972 -2.470399,0.155868 -2.923647,0.184511 -4.536985,0.286714 -0.592093,-0.0053 -1.110459,-0.0097 -1.666085,-0.01421 -0.964867,0.36629 -1.929087,0.732499 -2.894028,1.099146 -0.280461,0.35844 -0.561001,0.716909 -0.841899,1.07576 -0.03874,0.822817 -0.07769,1.644556 -0.11693,2.467232 0.175719,0.526099 0.351056,1.052109 0.526186,1.57856 0.175714,0.09331 0.351057,0.186824 0.526187,0.280633 0.440462,0.10102 0.881141,0.202415 1.321314,0.304019 0.60414,-0.0081 1.208546,-0.01586 1.812422,-0.02339 0.748287,0.02701 1.496974,0.0543 2.245064,0.08185 0.514583,0.0387 1.029252,0.07769 1.543481,0.116931 0.220631,0.160706 0.441205,0.321829 0.661411,0.48314 0.239993,0.346928 0.479822,0.694267 0.719336,1.041797 -0.144296,0.294392 -0.288809,0.588955 -0.433611,0.883829 -0.190927,0.108988 -0.381708,0.218006 -0.572958,0.327405 -0.718086,0.0036 -1.441878,0.0075 -2.163213,0.01169 -0.479327,0.02703 -0.958565,0.0543 -1.438244,0.08185 -0.939623,0.01923 -1.878418,0.03871 -2.818023,0.05847 -0.366223,-0.03925 -0.7325,-0.07822 -1.099146,-0.116931 -0.194744,0.155742 -0.389504,0.31155 -0.584652,0.46772 0.0432,0.241753 0.08601,0.48305 0.128623,0.724969 -0.02116,2.405174 -0.04255,4.806416 -0.06422,7.21002 -0.198195,0.192683 -0.39661,0.385586 -0.595312,0.578776 -0.281235,0.03285 -0.561975,0.06588 -0.84336,0.09922 -0.198378,-0.143729 -0.39661,-0.286895 -0.595312,-0.429948 -0.154113,-0.204263 -0.308416,-0.408164 -0.463021,-0.611849 -0.03831,-0.270306 -0.07691,-0.540456 -0.115755,-0.810286 -0.03829,-0.738285 -0.07691,-1.477521 -0.115755,-2.215885 -0.01627,-1.184977 -0.03281,-2.37049 -0.04961,-3.555339 -0.07689,-2.430589 -0.132027,-4.861983 -0.198437,-7.292578 0.121519,-0.915185 0.242799,-1.830299 0.363802,-2.745052 0.749676,-0.937029 1.49957,-1.874396 2.248958,-2.811198 1.047249,-0.264766 2.116931,-0.529431 3.175,-0.79375 1.600328,-0.104527 3.22326,-0.21028 4.834493,-0.315024 1.43381,-0.07169 2.867356,-0.143123 4.300638,-0.214287 z"
       sodipodi:nodetypes="ccccccccccccccccccccccccccccccccccccsc" />
    <path
       style="fill:#820000;fill-opacity:1;stroke:#dbb94d;stroke-width:0;stroke-linecap:butt;stroke-linejoin:miter;stroke-miterlimit:4;stroke-dasharray:none;stroke-opacity:1"
       d="m 42.208015,260.6097 c 0.315581,0.39563 0.241167,0.64919 -0.132665,0.66853 -0.373833,0.0193 -1.045478,-0.19536 -1.835152,-0.29461 -0.789674,-0.0992 -1.696201,-0.0827 -2.509352,-0.0703 -0.81315,0.0124 -1.532272,0.0207 -2.173148,0.0634 -0.640876,0.0427 -1.202911,0.11986 -1.776322,0.21496 -0.573412,0.0951 -1.157395,0.20805 -1.653594,0.39546 -0.496199,0.18742 -0.903886,0.44911 -1.284414,0.85578 -0.380528,0.40668 -0.733036,0.95747 -0.961889,1.50332 -0.228853,0.54586 -0.333525,1.08575 -0.391782,2.08653 -0.05826,1.00079 -0.06997,2.46047 -0.03882,3.32721 0.03115,0.86674 0.105192,1.13953 0.305108,1.49707 0.199916,0.35754 0.528966,0.80411 0.998091,1.27006 0.469126,0.46595 1.079779,0.95334 1.721398,1.35967 0.64162,0.40634 1.314135,0.73157 2.273182,1.06503 0.959047,0.33346 2.204999,0.67527 3.409338,0.94534 1.204339,0.27007 2.367572,0.46854 3.197054,0.68626 0.829482,0.21771 1.325667,0.45478 1.628738,0.7027 0.303072,0.24793 0.41334,0.50706 0.369325,0.78127 -0.04401,0.27422 -0.242352,0.56346 -0.537403,0.77171 -0.295051,0.20825 -0.686003,0.3349 -1.409935,0.37214 -0.723932,0.0372 -1.778652,-0.0151 -3.228588,-0.20665 -1.449936,-0.19157 -3.293312,-0.52222 -4.55033,-0.87467 -1.257018,-0.35245 -1.919945,-0.72262 -2.580291,-1.13988 -0.660346,-0.41726 -1.314171,-0.87938 -1.858716,-1.51451 -0.544545,-0.63512 -0.97949,-1.4429 -1.386422,-2.47539 -0.406933,-1.03248 -0.785829,-2.28957 -0.979179,-3.42868 -0.193351,-1.13911 -0.201088,-2.14485 -0.0861,-2.97579 0.114987,-0.83094 0.35276,-1.47971 0.570997,-2.01359 0.218237,-0.53387 0.417166,-0.95345 0.629539,-1.36566 0.212372,-0.4122 0.438612,-0.81787 0.711354,-1.21916 0.272742,-0.4013 0.592603,-0.79917 1.143166,-1.26484 0.550563,-0.46567 1.343778,-1.00757 2.029019,-1.4065 0.685241,-0.39893 1.255819,-0.65338 1.922106,-0.85987 0.666287,-0.2065 1.422854,-0.36249 2.256719,-0.3391 0.833865,0.0234 1.746292,0.22616 2.506222,0.49118 0.759931,0.26501 1.368101,0.59248 2.02486,1.02521 0.656759,0.43272 1.362309,0.97078 1.67789,1.36641 z"
       id="path4791"
       inkscape:connector-curvature="0"
       inkscape:path-effect="#path-effect4793"
       inkscape:original-d="m 42.597916,260.75209 c -0.07415,0.25329 -0.148563,0.50685 -0.223242,0.76068 -0.673055,-0.21551 -1.3447,-0.43022 -2.017448,-0.64493 -0.906706,0.0163 -1.813234,0.0328 -2.720247,0.0496 -0.719286,0.008 -1.438408,0.0163 -2.158008,0.0248 -0.562184,0.0769 -1.124215,0.15407 -1.686719,0.23151 -0.584329,0.11279 -1.168312,0.22573 -1.752864,0.339 -0.407848,0.2617 -0.815534,0.52339 -1.223698,0.78548 -0.35278,0.55137 -0.705292,1.10216 -1.058334,1.65364 -0.104523,0.54023 -0.209198,1.08012 -0.314192,1.62058 -0.01146,1.46107 -0.02318,2.92075 -0.03516,4.38153 0.07433,0.27262 0.148375,0.54541 0.222168,0.81851 0.327884,0.44047 0.655073,0.88841 0.982215,1.33301 0.611042,0.48723 1.221695,0.97462 1.832147,1.46232 0.672711,0.32494 1.345229,0.65017 2.017448,0.97566 1.245806,0.34143 2.491758,0.68324 3.737239,1.02526 1.163162,0.19814 2.326394,0.39661 3.489193,0.59531 0.496268,0.23671 0.992452,0.47378 1.488281,0.71107 0.110482,0.25874 0.22075,0.51787 0.330729,0.77721 -0.19827,0.28927 -0.39661,0.57851 -0.595312,0.86816 -0.391509,0.12665 -0.78246,0.2533 -1.174089,0.38034 -1.056169,-0.0527 -2.11089,-0.10499 -3.166731,-0.15709 -1.84399,-0.33108 -3.687366,-0.66173 -5.531446,-0.99219 -0.669836,-0.37444 -1.332765,-0.74461 -1.999659,-1.11659 -0.653757,-0.46253 -1.307585,-0.92465 -1.961838,-1.38663 -0.434734,-0.80814 -0.869677,-1.61592 -1.304912,-2.42348 -0.37863,-1.25734 -0.757527,-2.51442 -1.136685,-3.77123 -0.0075,-1.02132 -0.01532,-2.02706 -0.02339,-3.04019 0.237914,-0.6487 0.475687,-1.29747 0.713134,-1.9458 0.198996,-0.41942 0.397923,-0.839 0.596488,-1.2581 0.226158,-0.40531 0.452395,-0.81098 0.678196,-1.21607 0.319627,-0.39752 0.639484,-0.7954 0.958828,-1.19269 0.779233,-0.53776 1.574927,-1.07603 2.361994,-1.61364 0.584692,-0.25742 1.15398,-0.51476 1.730571,-0.77174 0.755996,-0.15609 1.512564,-0.31208 2.26845,-0.46773 0.911952,0.20234 1.824379,0.4051 2.736172,0.60804 0.608172,0.32707 1.21634,0.65455 1.824115,0.98222 0.7058,0.53779 1.411349,1.07586 2.116606,1.61417 z"
       sodipodi:nodetypes="cccccccccccccccccccccccccccccccccccccc" />
  </g>
</svg>
