<?xml version="1.0" encoding="utf-8"?>
<!-- Generator: Adobe Illustrator 24.2.3, SVG Export Plug-In . SVG Version: 6.00 Build 0)  -->
<svg version="1.1" id="Layer_1" xmlns="http://www.w3.org/2000/svg" xmlns:xlink="http://www.w3.org/1999/xlink" x="0px" y="0px"
	 viewBox="0 0 188 188" style="enable-background:new 0 0 188 188;" xml:space="preserve">
<g>
	<path d="M27.5,75.1c1.8,0,3.4,0.6,4.6,1.9c1.3,1.3,1.9,2.8,1.9,4.6s-0.6,3.4-1.9,4.6c-1.3,1.3-2.8,1.9-4.6,1.9h-3.3v19.3
		c0,1.8-0.6,3.4-1.9,4.6c-1.3,1.3-2.8,1.9-4.6,1.9s-3.4-0.6-4.6-1.9c-1.3-1.3-1.9-2.8-1.9-4.6V88.2H7.9c-1.8,0-3.4-0.6-4.6-1.9
		c-1.3-1.3-1.9-2.8-1.9-4.6s0.6-3.4,1.9-4.6c1.3-1.3,2.8-1.9,4.6-1.9H27.5z"/>
	<path d="M43.5,114.1c-1.8,0-3.4-0.6-4.6-1.9c-1.3-1.3-1.9-2.8-1.9-4.6V81.3c0-1.8,0.6-3.4,1.9-4.6c1.3-1.3,2.8-1.9,4.6-1.9
		c1.8,0,3.4,0.6,4.6,1.9c1.3,1.3,1.9,2.8,1.9,4.6v26.2c0,1.8-0.6,3.4-1.9,4.6C46.9,113.4,45.3,114.1,43.5,114.1z"/>
	<path d="M78.3,90.8c3,3,4.5,6.3,4.5,9.9s-1.3,6.7-3.8,9.3c-2.6,2.6-5.6,3.8-9.3,3.8h-9.8c-1.8,0-3.4-0.6-4.6-1.9
		c-1.3-1.3-1.9-2.8-1.9-4.6V81.7c0-1.8,0.6-3.4,1.9-4.6c1.3-1.3,2.8-1.9,4.6-1.9H69c2.9,0,5.4,1,7.5,3.1c2,2,3.1,4.5,3.1,7.5
		C79.6,87.5,79.1,89.2,78.3,90.8z M67.4,89.5c0.5,0,1-0.2,1.4-0.6c0.4-0.4,0.6-0.9,0.6-1.4c0-0.5-0.2-1-0.6-1.4
		c-0.4-0.4-0.9-0.6-1.4-0.6h-1v3.9H67.4z M66.4,98v5.2h1.3c0.7,0,1.3-0.3,1.8-0.8c0.5-0.5,0.8-1.1,0.8-1.8s-0.3-1.3-0.8-1.8
		c-0.5-0.5-1.1-0.8-1.8-0.8H66.4z"/>
	<path d="M92.2,113.7c-1.8,0-3.4-0.6-4.6-1.9c-1.3-1.3-1.9-2.8-1.9-4.6V81.3c0-1.8,0.6-3.4,1.9-4.6c1.3-1.3,2.8-1.9,4.6-1.9
		c1.8,0,3.4,0.6,4.6,1.9c1.3,1.3,1.9,2.8,1.9,4.6v19.3h6.5c1.8,0,3.4,0.6,4.6,1.9c1.3,1.3,1.9,2.8,1.9,4.6c0,1.8-0.6,3.4-1.9,4.6
		c-1.3,1.3-2.8,1.9-4.6,1.9H92.2z"/>
	<path d="M127.9,107.5l-1.2,3c-0.8,1.6-2.1,2.7-3.8,3.2s-3.4,0.4-5-0.4c-1.6-0.9-2.7-2.1-3.2-3.9s-0.4-3.4,0.4-5l13.3-26.1
		c1.1-2.4,3-3.5,5.9-3.5c2.9,0,4.8,1.2,5.9,3.5l13.2,26.1c0.9,1.6,1,3.2,0.5,5c-0.5,1.7-1.6,3-3.2,3.9c-1.6,0.8-3.2,1-5,0.4
		s-3-1.6-3.8-3.2l-1.2-3H127.9z M136.4,97.7l-2.2-5.3l-2.2,5.3H136.4z"/>
	<path d="M170,102.3v5.2c0,1.8-0.6,3.4-1.9,4.6c-1.3,1.3-2.8,1.9-4.6,1.9s-3.4-0.6-4.6-1.9c-1.3-1.3-1.9-2.8-1.9-4.6V81.7
		c0-1.8,0.6-3.4,1.9-4.6c1.3-1.3,2.8-1.9,4.6-1.9h9.8c3.6,0,6.7,1.3,9.3,3.8c2.6,2.6,3.8,5.6,3.8,9.3c0,3.6-1.3,6.7-3.8,9.3
		c-0.3,0.3-0.6,0.5-0.9,0.8l4,5.3c1.1,1.4,1.5,3.1,1.3,4.8c-0.3,1.8-1.1,3.2-2.5,4.3c-1.5,1.1-3.1,1.5-4.9,1.2
		c-1.8-0.2-3.2-1.1-4.3-2.5L170,102.3z M171.3,90.8c0.7,0,1.3-0.3,1.8-0.8s0.8-1.1,0.8-1.8s-0.3-1.3-0.8-1.8s-1.1-0.8-1.8-0.8H170
		v5.2H171.3z"/>
</g>
</svg>
