<?xml version="1.0" encoding="utf-8"?>
<!-- Generator: Adobe Illustrator 24.1.3, SVG Export Plug-In . SVG Version: 6.00 Build 0)  -->
<svg version="1.1"
	 id="svg8" xmlns:cc="http://creativecommons.org/ns#" xmlns:dc="http://purl.org/dc/elements/1.1/" xmlns:inkscape="http://www.inkscape.org/namespaces/inkscape" xmlns:rdf="http://www.w3.org/1999/02/22-rdf-syntax-ns#" xmlns:sodipodi="http://sodipodi.sourceforge.net/DTD/sodipodi-0.dtd" xmlns:svg="http://www.w3.org/2000/svg"
	 xmlns="http://www.w3.org/2000/svg" xmlns:xlink="http://www.w3.org/1999/xlink" x="0px" y="0px" viewBox="0 0 381 237.9"
	 style="enable-background:new 0 0 381 237.9;" xml:space="preserve">
<style type="text/css">
	.st0{fill:#f0deb1;}
	.st1{fill:none;}
	.st2{fill:none;stroke:#FAEDD7;stroke-width:3.5935;stroke-miterlimit:10;}
</style>
<sodipodi:namedview  bordercolor="#666666" borderopacity="1.0" id="base" inkscape:current-layer="g2204" inkscape:cx="251.31651" inkscape:cy="373.30546" inkscape:document-units="mm" inkscape:pageopacity="0.0" inkscape:pageshadow="2" inkscape:window-height="1029" inkscape:window-maximized="1" inkscape:window-width="1920" inkscape:window-x="0" inkscape:window-y="25" inkscape:zoom="1" pagecolor="#ffffff" showgrid="true" units="px">
	<inkscape:grid  enabled="false" id="grid1881" type="xygrid"></inkscape:grid>
</sodipodi:namedview>
<path id="path4633" inkscape:connector-curvature="0" sodipodi:nodetypes="ccccccccccc" class="st0" d="M-14.9,263.3
	c20.2-11.7,45.5-17.6,65.8-29c14.9-8.6,38.2-22,42.6-38.5c6.6-17,11-36.4,26.1-48.2c18.5-17,49-27.3,63.6-48.5
	c15.8-19.7,12.6-48,30.9-65.8c9.3-8.8,28-27.4,35.9-34.8l-81.8-6.7C106.7-3.5,45.1-4.8-16.4,0c0.5,38.9,1.3,84.4,2.4,124.3
	c0.7,24.5,1.5,48.8,2.4,72.9C-12.8,219.2-13.9,241.3-14.9,263.3z"/>
<g id="layer1" inkscape:groupmode="layer" inkscape:label="Layer 1">
	<path class="auth_col_pink" d="M177.3-87.9l0.1,188.6l-26.7-14.4v-187L177.3-87.9z"/>
	<path class="auth_col_purple" d="M43.2,172.4L43.3,361l-26.7-14.4v-187L43.2,172.4z"/>
</g>
<path class="st1" d="M101,75.4C93.4,81.9,90.8,93,83,99.3c-6.7,5.4-15.9,6.3-24.5,6.9"/>
<path class="st2" d="M115.7,90.7"/>
</svg>
