<?xml version="1.0" encoding="utf-8"?>
<!-- Generator: Adobe Illustrator 24.0.3, SVG Export Plug-In . SVG Version: 6.00 Build 0)  -->
<svg version="1.1" id="bc52c4b0-5495-47d6-8fbf-e718e11a33f1"
	 xmlns="http://www.w3.org/2000/svg" xmlns:xlink="http://www.w3.org/1999/xlink" x="0px" y="0px" viewBox="0 0 1100 815.8"
	 style="enable-background:new 0 0 1100 815.8;" xml:space="preserve">
<style type="text/css">
	.st0{fill:none;stroke:#3F3D56;stroke-width:1.6439;stroke-miterlimit:10;}
	.st1{fill:#3F3D56;}
	.st2{fill:#E6E8EC;}
	.st3{fill:#F0F0F0;}
	.st4{fill:#58D69D;}
	.st5{opacity:0.1;enable-background:new    ;}
	.st6{fill:none;stroke:#3F3D56;stroke-width:0.63;stroke-miterlimit:10;}
	.st7{fill:url(#SVGID_1_);}
	.st8{fill:#FAFAFA;}
	.st9{fill:#E0E0E0;}
	.st10{fill:url(#SVGID_2_);}
	.st11{fill:#FFFFFF;}
</style>
<title>mobile login</title>
<g>
	<path class="st0" d="M563,440.2"/>
	<path class="st0" d="M563,514.3"/>
	<rect x="562.2" y="514.3" class="st1" width="1.6" height="42.4"/>
	<path class="st1" d="M831.8,808.7H601.4c-21.7,0-39.2-17.6-39.3-39.3V631.7h1.6v137.7c0,20.8,16.9,37.6,37.6,37.6h230.3
		c20.8,0,37.6-16.9,37.6-37.6V629.8h1.6v139.6C871,791.1,853.4,808.7,831.8,808.7z"/>
	<rect x="869.4" y="514.5" class="st1" width="1.6" height="41.4"/>
	<path class="st0" d="M870.2,514.5"/>
	<path class="st0" d="M870.2,440.4"/>
	<path class="st1" d="M871,440.4h-1.6v-40.3h2.6c0.9,0,1.6-0.7,1.6-1.6v-70.8c0-0.9-0.7-1.6-1.6-1.6h-2.6v-104
		c0-20.8-16.9-37.6-37.6-37.6H601.4c-20.8,0-37.6,16.9-37.6,37.6v218.1h-1.6V222c0-21.7,17.6-39.2,39.3-39.3h230.3
		c21.7,0,39.3,17.6,39.3,39.3v102.4h0.9c1.8,0,3.3,1.5,3.3,3.3v70.8c0,1.8-1.5,3.3-3.3,3.3h-0.9L871,440.4L871,440.4z"/>
	<path class="st2" d="M689.6,203.2h38.7c1.2,0,2.1,0.9,2.1,2.1v4.5c0,1.2-0.9,2.1-2.1,2.1h-38.7c-1.2,0-2.1-0.9-2.1-2.1v-4.5
		C687.5,204.2,688.5,203.2,689.6,203.2z"/>
	<circle class="st2" cx="741.9" cy="207.6" r="4.9"/>
	<path class="st2" d="M851.8,229.6v543c0,13.5-10.9,24.4-24.4,24.4H606.9c-13.5,0-24.4-10.9-24.4-24.3c0,0,0,0,0-0.1v-543
		c0-13.5,10.9-24.4,24.4-24.4l0,0h33v4.2c0,11.1,9,20.1,20.1,20.1h112.1c11.1,0,20.1-9,20.1-20.1v-4.2h35.2
		C840.9,205.2,851.8,216.1,851.8,229.6L851.8,229.6z"/>
	<polygon class="st3" points="183.1,583.6 259.5,463.4 88.4,354.6 0,493.5 141.5,583.6 	"/>
	<path class="st1" d="M291.4,621H102.1v-38.1h189.3V621z M104.5,618.6h184.4v-33.2H104.5V618.6z"/>
	<path class="st3" d="M491.7,197.6v-93.4h46.7V58.7H309.8v228.6h195.4v-22.4c0-17.5,14.2-31.7,31.7-31.7l0,0h1.5v-35.6L491.7,197.6
		L491.7,197.6z"/>
	<rect x="632.5" y="712.5" class="st4" width="152.4" height="32"/>
	<circle class="st5" cx="116.2" cy="195.1" r="33.2"/>
	<circle class="st4" cx="111.3" cy="198.8" r="33.2"/>
	<rect x="582.5" y="281" class="st1" width="46.7" height="17.2"/>
	<path class="st1" d="M794.7,737.1H639.8v-34.4h154.9V737.1z M642.3,734.6h150v-29.5h-150V734.6z"/>
	<rect x="506.5" y="117.7" class="st3" width="63.9" height="63.9"/>
	<path class="st1" d="M780.6,164.4c-8.1,0-14.7-6.6-14.7-14.7c0-8.1,6.6-14.7,14.7-14.7c8.1,0,14.7,6.6,14.7,14.7
		C795.3,157.8,788.7,164.4,780.6,164.4z M780.6,137.4c-6.8,0-12.3,5.5-12.3,12.3s5.5,12.3,12.3,12.3s12.3-5.5,12.3-12.3
		S787.4,137.4,780.6,137.4z"/>
	<path class="st1" d="M456.1,369.7h-32v-32h32V369.7z M426.6,367.2h27v-27h-27V367.2z"/>
	<path class="st1" d="M942.8,608.1h-32v-32h32V608.1z M913.3,605.7h27v-27h-27V605.7z"/>
	<circle class="st4" cx="420.4" cy="605.7" r="12.3"/>
	<circle class="st4" cx="25.8" cy="683" r="8"/>
	<rect x="110.8" y="685.8" class="st1" width="3.5" height="130"/>
	<circle class="st1" cx="112.6" cy="685.8" r="18.4"/>
	<path class="st1" d="M112.6,765.9c0,0-2.6-56.5-56.5-49.9"/>
	<circle class="st4" cx="771.3" cy="647.3" r="13.9"/>
	<circle class="st6" cx="777" cy="641.6" r="13.9"/>
	<rect x="628.2" y="352.9" class="st4" width="20.2" height="20.2"/>
	<rect x="631.3" y="349.1" class="st6" width="20.2" height="20.2"/>
	<g>
		<path class="st4" d="M826.4,205.2c13.5,0,24.4,10.9,24.4,24.4l0,0v73.9c0.3,0,0.7,0,1,0v-98.3H826.4z"/>
		<path class="st4" d="M850.8,229.6c0-13.5-10.9-24.4-24.4-24.4h-35.2v4.2c0,11.1-9,20.1-20.1,20.1h-14.6
			c10.7,42.2,48.8,73.5,94.3,74V229.6L850.8,229.6z"/>
	</g>
	
		<linearGradient id="SVGID_1_" gradientUnits="userSpaceOnUse" x1="986.0815" y1="1231.0311" x2="986.0815" y2="1124.1736" gradientTransform="matrix(0.9853 0.1711 -0.1711 0.9853 -6.7908 -801.8012)">
		<stop  offset="1.000000e-02" style="stop-color:#808080;stop-opacity:0.25"/>
		<stop  offset="0.54" style="stop-color:#808080;stop-opacity:0.12"/>
		<stop  offset="1" style="stop-color:#808080;stop-opacity:0.1"/>
	</linearGradient>
	<path class="st7" d="M824.6,483.5l-95.4-16.6c-9.4-1.6-18.3,4.7-19.9,14.2L699,540.4c-0.8,4.4,2.2,8.7,6.6,9.4l0,0l60.6,10.5
		c0.8,7.3,4.2,17.8,16.2,24.3v-21.5l27.6,4.8c4.4,0.7,8.6-2.2,9.4-6.7l0,0l11.9-68.4C832,488.5,829.1,484.3,824.6,483.5L824.6,483.5
		z"/>
	<path class="st8" d="M822.7,485.2l-92.6-16.1c-9.1-1.6-17.8,4.5-19.3,13.6l-9.9,57c-0.7,4.3,2.1,8.3,6.4,9.1l58.8,10.2
		c0.8,7,4.1,17.1,15.8,23.4v-20.7l26.8,4.6c4.3,0.7,8.3-2.1,9.1-6.4l0,0l11.4-65.7C829.8,490,827,486,822.7,485.2z"/>
	
		<rect x="768.7" y="470.3" transform="matrix(0.1711 -0.9853 0.9853 0.1711 152.3967 1170.3909)" class="st9" width="6.1" height="48.6"/>
	
		<rect x="781.5" y="499.2" transform="matrix(0.1711 -0.9853 0.9853 0.1711 149.5104 1194.2926)" class="st9" width="6.1" height="18.2"/>
	
		<rect x="770.5" y="499.8" transform="matrix(0.1711 -0.9853 0.9853 0.1711 131.1147 1191.3538)" class="st9" width="6.1" height="35.9"/>
	
		<rect x="764.3" y="506" transform="matrix(0.1711 -0.9853 0.9853 0.1711 115.8177 1193.7916)" class="st9" width="6.1" height="44.1"/>
	
		<rect x="772.4" y="529.2" transform="matrix(0.1711 -0.9853 0.9853 0.1711 109.9312 1212.2869)" class="st9" width="6.1" height="23.2"/>
	
		<linearGradient id="SVGID_2_" gradientUnits="userSpaceOnUse" x1="912.8735" y1="1195.3927" x2="912.8735" y2="1088.6425" gradientTransform="matrix(0.9853 0.1711 -0.1711 0.9853 -6.7908 -801.8012)">
		<stop  offset="1.000000e-02" style="stop-color:#808080;stop-opacity:0.25"/>
		<stop  offset="0.54" style="stop-color:#808080;stop-opacity:0.12"/>
		<stop  offset="1" style="stop-color:#808080;stop-opacity:0.1"/>
	</linearGradient>
	<path class="st10" d="M654.5,417.9l103.8,18c4.4,0.8,7.3,5,6.5,9.4l-11.9,68.3c-0.8,4.4-4.9,7.4-9.3,6.7l-60.2-10.5
		c-3.2,6.6-9.9,15.4-23.3,17.4l7.2-20.2l-27.4-4.8c-4.4-0.8-7.3-5-6.5-9.4l11.9-68.3C645.9,420.1,650.1,417.2,654.5,417.9z"/>
	<path class="st11" d="M655.3,420.2l101.3,17.6c4.3,0.7,7.1,4.8,6.4,9.1l-11.4,65.7c-0.7,4.3-4.8,7.1-9.1,6.4l0,0l-58.8-10.2
		c-3.1,6.4-9.6,14.8-22.7,16.7l7-19.5l-26.8-4.6c-4.3-0.7-7.1-4.8-6.4-9.1l11.4-65.7C647,422.3,651,419.5,655.3,420.2L655.3,420.2z"
		/>
	
		<rect x="700.2" y="420.3" transform="matrix(0.1711 -0.9853 0.9853 0.1711 144.8693 1061.4514)" class="st4" width="6.1" height="48.6"/>
	
		<rect x="683.6" y="444" transform="matrix(0.1711 -0.9853 0.9853 0.1711 122.7422 1052.139)" class="st4" width="6.1" height="18.2"/>
	
		<rect x="690.7" y="447.8" transform="matrix(0.1711 -0.9853 0.9853 0.1711 116.242 1069.5966)" class="st4" width="6.1" height="35.9"/>
	
		<rect x="693.1" y="455.4" transform="matrix(0.1711 -0.9853 0.9853 0.1711 106.6334 1081.6818)" class="st4" width="6.1" height="44.1"/>
	
		<rect x="681.1" y="475.3" transform="matrix(0.1711 -0.9853 0.9853 0.1711 87.4466 1077.6625)" class="st4" width="6.1" height="23.2"/>
</g>
</svg>
