<?xml version="1.0" encoding="utf-8"?>
<!-- Generator: Adobe Illustrator 24.0.3, SVG Export Plug-In . SVG Version: 6.00 Build 0)  -->
<svg version="1.1" id="bc263456-463a-4a26-ab4e-25ee29596588"
	 xmlns="http://www.w3.org/2000/svg" xmlns:xlink="http://www.w3.org/1999/xlink" x="0px" y="0px" viewBox="0 0 1028.5 954.2"
	 style="enable-background:new 0 0 1028.5 954.2;" xml:space="preserve">
<style type="text/css">
	.st0{opacity:0.5;fill:#DEE3F3;enable-background:new    ;}
	.st1{opacity:0.45;}
	.st2{fill:#D9D9DB;}
	.st3{opacity:0.1;enable-background:new    ;}
	.st4{opacity:0.5;fill:#D9D9DB;enable-background:new    ;}
	.st5{opacity:0.3;enable-background:new    ;}
	.st6{fill:none;stroke:#FC6681;stroke-width:2;stroke-miterlimit:10;}
	.st7{fill:#FC6681;}
	.st8{fill:none;stroke:#FFD037;stroke-width:2;stroke-miterlimit:10;}
	.st9{fill:#FFD037;}
	.st10{fill:#A8A8A8;}
	.st11{opacity:0.2;enable-background:new    ;}
	.st12{fill:url(#SVGID_1_);}
	.st13{fill:#FFFFFF;}
	.st14{fill:#EEEEEE;}
	.st15{fill:#FF5252;}
	.st16{fill:#FFFF00;}
	.st17{fill:#69F0AE;}
	.st18{opacity:0.3;fill:#848484;enable-background:new    ;}
	.st19{opacity:0.86;fill:#898989;enable-background:new    ;}
	.st20{font-family:'WorkSans-SemiBold';}
	.st21{font-size:77.0846px;}
	.st22{letter-spacing:-1;}
</style>
<title>empty</title>
<ellipse class="st0" cx="543" cy="911.2" rx="256" ry="43"/>
<g class="st1">
	<path class="st2" d="M450.8,563.8c0,0.5,0,1,0.1,1.4C450.8,564.7,450.8,564.2,450.8,563.8z"/>
	<path class="st2" d="M579.7,532.9l0.1,0.4L579.7,532.9z"/>
	<path class="st2" d="M579.4,531.6c0,0.1,0.1,0.3,0.1,0.4C579.5,531.9,579.5,531.7,579.4,531.6z"/>
	<path class="st2" d="M579.5,566.2c0,0.2-0.1,0.4-0.2,0.7C579.4,566.7,579.5,566.4,579.5,566.2z"/>
	<path class="st2" d="M579.7,565.1c0,0.2-0.1,0.5-0.1,0.7C579.7,565.6,579.7,565.4,579.7,565.1z"/>
	<path class="st2" d="M456.7,573.6c-0.9-0.5-1.6-1-2.4-1.7C455.1,572.6,455.9,573.1,456.7,573.6z"/>
	<path class="st2" d="M454.3,571.8c-0.3-0.3-0.7-0.6-1-1C453.6,571.2,453.9,571.5,454.3,571.8z"/>
	<path class="st2" d="M644.5,783.2c-0.1-0.4-0.3-0.9-0.5-1.3C644.2,782.4,644.4,782.8,644.5,783.2z"/>
	<path class="st2" d="M639,776.6c0.4,0.2,0.9,0.5,1.3,0.8C639.9,777,639.4,776.8,639,776.6z"/>
	<path class="st2" d="M641.5,778.3c0.7,0.6,1.3,1.4,1.8,2.1C642.8,779.7,642.2,779,641.5,778.3z"/>
	<path class="st2" d="M640.3,777.4c0.4,0.3,0.7,0.5,1,0.8C641,777.9,640.7,777.6,640.3,777.4z"/>
	<path class="st2" d="M643.9,781.7c-0.2-0.4-0.3-0.7-0.5-1C643.6,781,643.8,781.4,643.9,781.7z"/>
	<path class="st2" d="M644.8,784.6c-0.1-0.4-0.1-0.7-0.2-1.1C644.7,783.9,644.8,784.2,644.8,784.6z"/>
	<path class="st2" d="M978.5,723.9h-63.6c3-2.1,4.8-5.5,4.8-9.1v-29.2c0-6.1-5-11.1-11.1-11.1h-73.3c4.6-1.5,7.7-5.7,7.7-10.5v-29.3
		c0-3.6-1.8-7-4.8-9.1h70.3c6.1,0,11.1-4.9,11.1-11l0,0v-29.3c0-6.1-5-11.1-11.1-11.1c0,0,0,0,0,0h-78.3c4.6-1.5,7.7-5.7,7.7-10.5
		v-29.2c0-3.6-1.8-7-4.8-9.1h75.3c6.1,0,11.1-5,11.1-11.1c0,0,0,0,0,0l0,0v-29.2c0-6.1-5-11.1-11.1-11.1h-39.4
		c4.6-1.5,7.7-5.7,7.7-10.5v-29.2c0-6.1-5-11.1-11.1-11.1H758.8c-6.1,0-11.1,5-11.1,11.1l0,0c0-6.1-5-11.1-11.1-11.1l0,0h-107
		c-4.3,0-8.2,2.5-10,6.4c0.1,0.7,0.2,1.4,0.2,2.2V461c0,1.6-0.3,3.2-1,4.7c0.5,2.5,1.9,4.8,3.8,6.4h27.5c2.6,0,5,0.9,7,2.5h12
		c-4.6,1.5-7.7,5.7-7.7,10.5c0-0.7-0.1-1.4-0.2-2.1c0,0,0,0.1,0,0.1v29.2c0,0.9-0.1,1.9-0.4,2.8c0.2,0.2,0.3,0.4,0.5,0.6
		c0.1-0.5,0.1-0.9,0.1-1.4c0,0.6,0.1,1.3,0.2,1.9c0.1,0.4,0.2,0.7,0.2,1.1c0.7,2.5,2.2,4.6,4.3,6.1h-9.5l0.2-0.2
		c-0.9,0-1.8-0.1-2.7-0.1c-0.3,0-0.6-0.1-0.9-0.2c-1,0.3-2.1,0.5-3.2,0.5l-65.6,2c-3,2.1-4.8,5.5-4.8,9.1v29.2
		c0,4.8,3.1,9.1,7.7,10.5l62.7,0.5c1.1,0,2.2,0.2,3.2,0.5c0.7,0.1,1.4,0.2,2.1,0.4h0.2c-0.6-0.3-1.2-0.6-1.9-0.8h15.4
		c-4.6,1.5-7.7,5.7-7.7,10.5c0-0.6-0.1-1.3-0.2-1.9c-0.1,0.1-0.1,0.2-0.2,0.3c0.1,0.7,0.2,1.4,0.2,2.1v29.2c0,1.4,0.2,1,0.2-0.5
		c0,3.6,1.8,7,4.8,9.1l39.1,1.3c1.3,0,2.7,0.2,3.9,0.7h9.4c-1.7,1.2-3,2.8-3.8,4.7c1,1.7,1.6,3.7,1.6,5.7v29.2c0,1.5-0.3,3-0.9,4.4
		c1.4,2.3,3.6,4,6.1,4.9h-10.3c-1.8,1.2-3.9,1.8-6,1.8h-38.8c-3.2,2-5.1,5.5-5.1,9.3c0-3.9-1.5,34.6-1.5,34.6c0,3.5,60.3,5,60.3,5
		c1.5,0,3,0.3,4.5,0.9c0.6-0.1,1.3-0.2,1.9-0.2h-0.1h9.5c-3,2.1-4.8,5.5-4.8,9.1c0-0.5,0-1.1-0.1-1.6c0,0.1-0.1,0.2-0.2,0.4
		c0.2,0.8,0.3,1.6,0.3,2.5v28c0,6.1,5,11.1,11.1,11.1h-17c-1.6,0.8-3.3,1.2-5.1,1.2h-69.5c-3.7,1.9-6,5.7-6,9.8v29.2
		c0,6.1,5,11,11.1,11H763c6.1,0,11-4.9,11.1-11l0,0c0,6.1,5,11,11.1,11H892c6.1,0,11-4.9,11.1-11l0,0v-29.3c0-6.1-5-11.1-11.1-11.1
		l0,0h86.5c6.1,0,11.1-5,11.1-11.1l0,0l0,0V735C989.5,728.9,984.6,723.9,978.5,723.9L978.5,723.9L978.5,723.9z M713.6,525.4
		c-3,2.1-4.8,5.5-4.8,9.1c0-3.6-1.8-7-4.8-9.1H713.6z M701.2,574.3c4.6-1.5,7.7-5.7,7.7-10.5c0,4.8,3.1,9.1,7.7,10.5H701.2z
		 M740,474.1c4.6-1.5,7.7-5.7,7.7-10.5c0,4.8,3.1,9.1,7.7,10.5H740z M774,786.4c0-6.1-5-11.1-11.1-11.1h22.2
		C779,775.3,774,780.3,774,786.4L774,786.4z M785.7,723.9c3-2.1,4.8-5.5,4.8-9.1c0,3.6,1.8,7,4.8,9.1H785.7z M790.5,685.7
		c0-4.8-3.1-9.1-7.7-10.5h15.4C793.6,676.6,790.5,680.8,790.5,685.7z M785.8,623.7c3-2.1,4.8-5.5,4.8-9.1c0,3.6,1.8,7,4.8,9.1H785.8
		z M790.5,585.3c0-4.8-3.1-9.1-7.7-10.5h15.4C793.6,576.3,790.5,580.5,790.5,585.3L790.5,585.3z M785.8,523.4c3-2.1,4.8-5.5,4.8-9.1
		c0,3.6,1.8,7,4.8,9.1H785.8z M790.5,485.1c0-4.8-3.1-9.1-7.7-10.5h15.4C793.6,476,790.5,480.3,790.5,485.1L790.5,485.1z
		 M865.2,725.9c-3,2.1-4.8,5.5-4.8,9.1c0-3.6-1.8-7-4.8-9.1H865.2z M849.4,775.3c6.1,0,11.1-5,11.1-11.1l0,0c0,6.1,5,11.1,11.1,11.1
		l0,0H849.4z"/>
	<path class="st2" d="M661.5,714.8"/>
	<path class="st2" d="M645,786.4c0-0.5,0-0.9-0.1-1.4C644.9,785.4,645,785.9,645,786.4z"/>
	<path class="st2" d="M579.8,563.8c0,0.3,0,0.7-0.1,1C579.8,564.4,579.8,564.1,579.8,563.8z"/>
	<path class="st2" d="M450.9,565.4c0.1,0.4,0.2,0.9,0.3,1.3C451.1,566.3,451,565.8,450.9,565.4z"/>
	<path class="st2" d="M327,630.7c-0.2-0.2-0.3-0.4-0.5-0.6c-0.2-0.3-0.3-0.6-0.3-0.9c0,0.8,0,1.5,0,2.3c0.3,1.1,0.5,2.2,0.5,3.3
		c0-1.1,0.2-2.2,0.5-3.2c-0.1-0.3-0.2-0.5-0.2-0.8C326.9,630.8,327,630.7,327,630.7z"/>
	<path class="st2" d="M478.5,423.2H371.6c-6.1,0-11.1,5-11.1,11.1l0,0c0-6.1-5-11.1-11.1-11.1c0,0,0,0,0,0H242.6
		c-6.1,0-11.1,5-11.1,11.1l0,0l0,0v29.2c0,4.8,3.1,9.1,7.7,10.5h-82.9c-6.1,0-11.1,5-11.1,11.1l0,0v29.2c0,3.6,1.8,7,4.8,9.1H74.7
		c-6.1,0-11.1,4.9-11.1,11.1c0,0,0,0,0,0l0,0v29.2c0,6.1,5,11.1,11.1,11.1c0,0,0,0,0,0h78.3c-4.6,1.5-7.7,5.7-7.7,10.5v29.3
		c0,3.6,1.8,7,4.8,9.1H79.7c-6.1,0-11.1,5-11.1,11.1l0,0l0,0V664c0,6.1,5,11.1,11.1,11.1c0,0,0,0,0,0h73.3
		c-4.6,1.5-7.7,5.7-7.7,10.5v29.2c0,6.1,5,11.1,11.1,11.1H220c-3,2.1-4.8,5.5-4.8,9.1v29.2c0,6.1,5,11.1,11.1,11.1l0,0h-86.4
		c-6.1,0-11.1,5-11.1,11.1l0,0v29.2c0,6.1,5,11,11.1,11h106.9c6.1,0,11.1-4.9,11.1-11l0,0c0,6.1,4.9,11,11,11h107
		c6.1,0,11-4.9,11-11l0,0v-29.3c0-4.1-2.3-7.9-6-9.8h-23c-1.8,0-3.5-0.4-5.1-1.2h-19.5c6.1,0,11.1-5,11.1-11.1l0,0l0,0
		c0,4.8,2.5-28,2.5-28c0-6.1,5-11,11.1-11l0,0l40.8-1.2c1.2-0.8,2.2-1.8,2.9-3c-0.6-1.4-0.9-2.8-0.9-4.3v-29.3
		c0-2.2,0.6-4.3,1.8-6.1c-0.9-2.1-2.3-3.8-4.2-5h-58c-2.1,0-4.2-0.6-6-1.8H319c4.6-1.5,7.7-5.7,7.7-10.5l-0.4-29
		c0-1.3-0.1-2.5-0.1-3.5c-0.7-2.4-2.2-4.4-4.2-5.8h9.5l-0.2,0.2c5.4-0.3,67.1-3.9,72.1-8c-0.1-0.8-0.2-1.5-0.1-2.3
		c-0.1-0.6-0.1-1.1-0.1-1.7v-29.2c0-0.4,0-0.7,0.1-1.1c-0.7-4.1-3.6-7.5-7.6-8.7h13.5c1.6-0.8,3.3-1.3,5.1-1.3h30.6
		c3.7-1.9,6-5.7,6-9.8v-29.2c0-3.6-1.8-7-4.8-9.1l-31.8-2c-5.4,0-9-2-6.1,0h-9.5c3-2.1,4.7-5.4,4.8-9c-0.1-0.7-0.2-1.3-0.2-2v-29.4
		c-0.7-4-3.6-7.3-7.5-8.5h11.6c2-1.6,4.4-2.5,7-2.5h71.3c2.6-2.1,4.1-5.2,4.1-8.6v-29.2C489.7,428.2,484.7,423.2,478.5,423.2
		C478.6,423.2,478.6,423.2,478.5,423.2L478.5,423.2z M197.4,525.4c-3,2.1-4.8,5.5-4.8,9.1c0-3.6-1.8-7-4.8-9.1H197.4z M192.6,563.8
		c0,4.8,3.1,9.1,7.7,10.5h-15.4C189.5,572.8,192.7,568.6,192.6,563.8z M202.4,625.7c-3,2.1-4.8,5.5-4.8,9.1c0-3.6-1.8-7-4.8-9.1
		H202.4z M190,674.5c4.6-1.5,7.7-5.7,7.7-10.5c0,4.8,3.1,9.1,7.7,10.5H190z M326.5,525.4c-3,2.1-4.8,5.5-4.8,9.1
		c0-3.6-1.8-7-4.8-9.1H326.5z M257.8,786.4c0-6.1-5-11.1-11.1-11.1h22.1C262.8,775.3,257.8,780.3,257.8,786.4z M269.6,723.9
		c3-2.1,4.8-5.5,4.8-9.1c0,3.6,1.8,7,4.8,9.1H269.6z M274.3,685.7c0-4.8-3.1-9.1-7.7-10.5H282C277.4,676.6,274.3,680.8,274.3,685.7z
		 M269.5,623.7c3-2.1,4.8-5.5,4.8-9.1c0,3.6,1.8,7,4.8,9.1H269.5z M274.3,585.3c0-4.8-3.1-9.1-7.7-10.5H282
		C277.4,576.3,274.3,580.5,274.3,585.3L274.3,585.3z M269.5,523.4c3-2.1,4.8-5.5,4.8-9.1c0,3.6,1.8,7,4.8,9.1H269.5z M274.3,485.1
		c0-4.8-3.1-9.1-7.7-10.5H282C277.4,476,274.3,480.3,274.3,485.1L274.3,485.1z M314,574.3c4.6-1.5,7.7-5.7,7.7-10.5
		c0,4.8,3.1,9.1,7.7,10.5H314z M352.8,474.1c4.6-1.5,7.7-5.7,7.7-10.5c0,4.8,3.1,9.1,7.7,10.5H352.8z"/>
	<path class="st2" d="M454.4,526.3l0.2-0.1L454.4,526.3z"/>
	<path class="st2" d="M453.7,527.1l-0.2,0.2L453.7,527.1z"/>
	<path class="st2" d="M452.7,528.2c0,0,0.1-0.1,0.1-0.1C452.8,528.2,452.8,528.2,452.7,528.2z"/>
	<path class="st2" d="M451.2,567c0.1,0.4,0.3,0.8,0.5,1.3C451.5,567.8,451.4,567.4,451.2,567z"/>
	<path class="st2" d="M452.4,569.6c0.2,0.4,0.5,0.8,0.8,1.1C452.9,570.4,452.7,570,452.4,569.6z"/>
	<path class="st2" d="M451.8,568.3c0.2,0.4,0.4,0.8,0.6,1.2C452.2,569.2,452,568.8,451.8,568.3z"/>
	<path class="st2" d="M451.1,532c0-0.1,0.1-0.3,0.1-0.4C451.1,531.7,451.1,531.9,451.1,532z"/>
	<path class="st2" d="M451.4,530.8l0.1-0.3L451.4,530.8z"/>
	<path class="st2" d="M450.8,533.2l0.1-0.4L450.8,533.2z"/>
	<path class="st2" d="M452,529.4L452,529.4z"/>
	<path class="st3" d="M241.6,423.2H353c4.9,0,8.8,4,8.8,8.8v33.7c0,4.9-4,8.8-8.8,8.8H241.6c-4.9,0-8.8-4-8.8-8.8v-33.7
		C232.8,427.2,236.7,423.2,241.6,423.2z"/>
	<path class="st3" d="M627.5,423.2h111.4c4.9,0,8.8,4,8.8,8.8v33.7c0,4.9-4,8.8-8.8,8.8H627.5c-4.9,0-8.8-4-8.8-8.8v-33.7
		C618.7,427.2,622.6,423.2,627.5,423.2z"/>
	<path class="st3" d="M799.2,473.3h111.4c4.9,0,8.8,4,8.8,8.8v33.7c0,4.9-4,8.8-8.8,8.8H799.2c-4.9,0-8.8-4-8.8-8.8v-33.7
		C790.3,477.3,794.3,473.3,799.2,473.3z"/>
	<path class="st3" d="M588.7,523.5H700c4.9,0,8.8,4,8.8,8.8V566c0,4.9-4,8.8-8.8,8.8H588.7c-4.9,0-8.8-4-8.8-8.8v-33.7
		C579.8,527.4,583.8,523.5,588.7,523.5z"/>
	<path class="st3" d="M799.2,574.8h111.4c4.9,0,8.8,4,8.8,8.8v33.7c0,4.9-4,8.8-8.8,8.8H799.2c-4.9,0-8.8-4-8.8-8.8v-33.7
		C790.3,578.8,794.3,574.8,799.2,574.8z"/>
	<path class="st3" d="M799.2,675.1h111.4c4.9,0,8.8,4,8.8,8.8v33.7c0,4.9-4,8.8-8.8,8.8H799.2c-4.9,0-8.8-4-8.8-8.8v-33.7
		C790.3,679,794.3,675.1,799.2,675.1z"/>
	<path class="st3" d="M852.4,725.2H739.5c-3.6,0-6.7,2.4-7.7,5.8c0,0.5,0,0.9-0.1,1.3c-0.1,0.3-0.1,0.5-0.2,0.8c0,0,0,0.1,0,0.1
		v35.2c0,4.5,3.6,8.1,8.1,8.1c0,0,0,0,0,0h112.9c4.5,0,8.1-3.6,8.1-8.1v-35.2C860.5,728.8,856.9,725.2,852.4,725.2
		C852.4,725.2,852.4,725.2,852.4,725.2L852.4,725.2z"/>
	<path class="st3" d="M653.8,775.3h111.4c4.9,0,8.8,4,8.8,8.8v33.7c0,4.9-4,8.8-8.8,8.8H653.8c-4.9,0-8.8-4-8.8-8.8v-33.7
		C645,779.3,648.9,775.3,653.8,775.3z"/>
	<path class="st3" d="M282.9,473.3h111.4c4.9,0,8.8,4,8.8,8.8v33.7c0,4.9-4,8.8-8.8,8.8H282.9c-4.9,0-8.8-4-8.8-8.8v-33.7
		C274.1,477.3,278.1,473.3,282.9,473.3z"/>
	<path class="st3" d="M202.8,523.5h111.4c4.9,0,8.8,4,8.8,8.8V566c0,4.9-4,8.8-8.8,8.8H202.8c-4.9,0-8.8-4-8.8-8.8v-33.7
		C193.9,527.4,197.9,523.5,202.8,523.5z"/>
	<path class="st3" d="M153.9,574.8h111.4c4.9,0,8.8,4,8.8,8.8v33.7c0,4.9-4,8.8-8.8,8.8H153.9c-4.9,0-8.8-4-8.8-8.8v-33.7
		C145.1,578.8,149,574.8,153.9,574.8z"/>
	<path class="st3" d="M206.5,624.9h111.4c4.9,0,8.8,4,8.8,8.8v33.7c0,4.9-4,8.8-8.8,8.8H206.5c-4.9,0-8.8-4-8.8-8.8v-33.7
		C197.7,628.9,201.6,624.9,206.5,624.9z"/>
	<path class="st3" d="M153.9,675.1h111.4c4.9,0,8.8,4,8.8,8.8v33.7c0,4.9-4,8.8-8.8,8.8H153.9c-4.9,0-8.8-4-8.8-8.8v-33.7
		C145.1,679,149,675.1,153.9,675.1z"/>
	<path class="st2" d="M95.5,725.2h111.4c4.9,0,8.8,4,8.8,8.8v33.7c0,4.9-4,8.8-8.8,8.8H95.5c-4.9,0-8.8-4-8.8-8.8v-33.7
		C86.7,729.2,90.6,725.2,95.5,725.2z"/>
	<path class="st2" d="M849,624.9h111.4c4.9,0,8.8,4,8.8,8.8v33.7c0,4.9-4,8.8-8.8,8.8H849c-4.9,0-8.8-4-8.8-8.8v-33.7
		C840.2,628.8,844.1,624.9,849,624.9z"/>
	<path class="st2" d="M843.6,523.6h111.4c4.9,0,8.8,4,8.8,8.8v33.7c0,4.9-4,8.8-8.8,8.8H843.6c-4.9,0-8.8-4-8.8-8.8v-33.7
		C834.7,527.6,838.7,523.6,843.6,523.6z"/>
	<path class="st2" d="M908.3,774.5h111.4c4.9,0,8.8,4,8.8,8.8V817c0,4.9-4,8.8-8.8,8.8H908.3c-4.9,0-8.8-4-8.8-8.8v-33.7
		C899.5,778.5,903.4,774.5,908.3,774.5z"/>
	<path class="st2" d="M8.8,775.4h111.4c4.9,0,8.8,4,8.8,8.8v33.7c0,4.9-4,8.8-8.8,8.8H8.8c-4.9,0-8.8-4-8.8-8.8v-33.7
		C0,779.4,4,775.4,8.8,775.4z"/>
	<path class="st2" d="M26.2,674.2h111.4c4.9,0,8.8,4,8.8,8.8v33.7c0,4.9-4,8.8-8.8,8.8H26.2c-4.9,0-8.8-4-8.8-8.8V683
		C17.3,678.1,21.3,674.2,26.2,674.2z"/>
	<path class="st2" d="M26.2,574.7h111.4c4.9,0,8.8,4,8.8,8.8v33.7c0,4.9-4,8.8-8.8,8.8H26.2c-4.9,0-8.8-4-8.8-8.8v-33.7
		C17.3,578.7,21.3,574.7,26.2,574.7z"/>
	<path class="st2" d="M30.7,473.5h111.4c4.9,0,8.8,4,8.8,8.8V516c0,4.9-4,8.8-8.8,8.8H30.7c-4.9,0-8.8-4-8.8-8.8v-33.7
		C21.9,477.4,25.8,473.5,30.7,473.5z"/>
	<path class="st3" d="M30.7,473.5h111.4c4.9,0,8.8,4,8.8,8.8V516c0,4.9-4,8.8-8.8,8.8H30.7c-4.9,0-8.8-4-8.8-8.8v-33.7
		C21.9,477.4,25.8,473.5,30.7,473.5z"/>
	<path class="st2" d="M112.8,423.3h111.4c4.9,0,8.8,4,8.8,8.8v33.7c0,4.9-4,8.8-8.8,8.8H112.8c-4.9,0-8.8-4-8.8-8.8v-33.7
		C104,427.2,108,423.3,112.8,423.3z"/>
	<path class="st3" d="M225.3,725.2h111.4c4.9,0,8.8,4,8.8,8.8v33.7c0,4.9-4,8.8-8.8,8.8H225.3c-4.9,0-8.8-4-8.8-8.8V734
		C216.5,729.1,220.4,725.2,225.3,725.2z"/>
	<path class="st3" d="M137.6,775.3H249c4.9,0,8.8,4,8.8,8.8v33.7c0,4.9-4,8.8-8.8,8.8H137.6c-4.9,0-8.8-4-8.8-8.8v-33.7
		C128.8,779.3,132.7,775.3,137.6,775.3z"/>
</g>
<circle class="st4" cx="883" cy="257.2" r="28.9"/>
<path class="st0" d="M178.2,245.8h-6.9c2.7,0.1,4.9-1.9,5-4.6c0.1-2.7-1.9-4.9-4.6-5c-0.1,0-0.3,0-0.4,0h-55.7
	c-2.7,0.1-4.7,2.4-4.6,5c0.1,2.5,2.1,4.5,4.6,4.6h6.9c-2.7-0.1-4.9,1.9-5,4.6c-0.1,2.7,1.9,4.9,4.6,5c0.1,0,0.3,0,0.4,0h-9.6
	c-2.7,0.1-4.7,2.4-4.6,5c0.1,2.5,2.1,4.5,4.6,4.6h55.7c2.7-0.1,4.7-2.4,4.6-5c-0.1-2.5-2.1-4.5-4.6-4.6h9.6c2.7-0.1,4.7-2.4,4.6-5
	C182.7,247.9,180.7,245.9,178.2,245.8L178.2,245.8z"/>
<path class="st0" d="M879.4,253.7h-5.2c2-0.1,3.6-1.8,3.5-3.9c-0.1-1.9-1.6-3.4-3.5-3.5h-42.4c-2-0.1-3.8,1.4-3.9,3.5
	s1.4,3.8,3.5,3.9c0.1,0,0.3,0,0.4,0h5.2c-2-0.1-3.8,1.4-3.9,3.5s1.4,3.8,3.5,3.9c0.1,0,0.3,0,0.4,0h-7.3c-2,0.1-3.6,1.8-3.5,3.9
	c0.1,1.9,1.6,3.4,3.5,3.5H872c2,0.1,3.8-1.4,3.9-3.5s-1.4-3.8-3.5-3.9c-0.1,0-0.3,0-0.4,0h7.3c2,0.1,3.8-1.4,3.9-3.5
	s-1.4-3.8-3.5-3.9C879.6,253.7,879.5,253.7,879.4,253.7L879.4,253.7z"/>
<path class="st0" d="M396.2,259h-6.9c2.7,0,4.8-2.2,4.8-4.8s-2.2-4.8-4.8-4.8h-55.7c-2.7,0-4.8,2.2-4.8,4.8s2.2,4.8,4.8,4.8h6.9
	c-2.7,0.1-4.7,2.4-4.6,5c0.1,2.5,2.1,4.5,4.6,4.6h-9.6c-2.7,0.1-4.7,2.4-4.6,5c0.1,2.5,2.1,4.5,4.6,4.6h55.7c2.7-0.1,4.7-2.4,4.6-5
	c-0.1-2.5-2.1-4.5-4.6-4.6h9.6c2.7-0.1,4.7-2.4,4.6-5C400.7,261.1,398.7,259.2,396.2,259L396.2,259z"/>
<path class="st2" d="M421.6,469.5h206.1c7.2,0,13,5.8,13,13v81.7c0,7.2-5.8,13-13,13H421.6c-7.2,0-13-5.8-13-13v-81.7
	C408.7,475.3,414.5,469.5,421.6,469.5z"/>
<rect x="427.2" y="560.6" class="st3" width="195" height="2"/>
<rect x="427.2" y="486.3" class="st5" width="195" height="74"/>
<circle class="st3" cx="472.6" cy="524.8" r="26.9"/>
<circle class="st3" cx="576.8" cy="524.8" r="26.9"/>
<rect x="504.5" y="577.1" class="st2" width="40.3" height="23.5"/>
<rect x="440.6" y="593.9" class="st2" width="168.1" height="134.5"/>
<rect x="437.2" y="755.3" class="st2" width="174.8" height="16.8"/>
<polygon class="st2" points="465.8,812.5 465.8,832.6 465.8,862.9 465.8,879.7 465.8,889.8 496.1,889.8 496.1,879.7 496.1,862.9 
	496.1,832.6 496.1,812.5 496.1,788.9 465.8,788.9 "/>
<polygon class="st2" points="556.6,788.9 556.6,812.5 556.6,832.6 556.6,862.9 556.6,879.7 556.6,889.8 586.9,889.8 586.9,879.7 
	586.9,862.9 586.9,832.6 586.9,812.5 586.9,788.9 "/>
<path class="st2" d="M417.7,624.2v31.1c-8.3,1.5-16,5.2-22.4,10.8c-5.9,5.4-10.4,12.1-13.3,19.5c-3.9,9.4-5.8,19.9-6.5,29.8
	c-1,13.4-0.3,26.8,1.9,40h-33.6c-1.4-18.6-1-34.5,0.9-48.2c2.1-15.4,5.9-28,10.8-38.2c9.8-20.4,23.6-31.5,35.8-37.5
	C405.6,624.2,417.7,624.2,417.7,624.2z"/>
<rect x="465.8" y="788.9" class="st5" width="30.3" height="23.5"/>
<rect x="465.8" y="832.6" class="st5" width="30.3" height="30.3"/>
<rect x="465.8" y="879.7" class="st5" width="30.3" height="10.1"/>
<rect x="556.6" y="788.9" class="st5" width="30.3" height="23.5"/>
<rect x="556.6" y="832.6" class="st5" width="30.3" height="30.3"/>
<rect x="556.6" y="879.7" class="st5" width="30.3" height="10.1"/>
<path class="st5" d="M417.7,624.2v31.1c-8.3,1.5-16,5.2-22.4,10.8l-4.2-34.7C405.6,624.2,417.7,624.2,417.7,624.2z"/>
<path class="st5" d="M382,685.5c-3.9,9.4-5.8,19.9-6.5,29.8l-30.9-8.3c2.1-15.4,5.9-28,10.8-38.2L382,685.5z"/>
<path class="st2" d="M627.9,659.7l1.1-31.1c8.4-1.2,16.2-4.6,22.7-10c6-5.2,10.8-11.7,14-19c4.2-9.3,6.5-19.7,7.6-29.5
	c1.4-13.3,1.3-26.7-0.5-40l33.6,1.2c0.8,18.6-0.2,34.5-2.6,48.2c-2.6,15.4-6.9,27.8-12.1,37.8c-10.5,20.1-24.7,30.7-37.1,36.3
	C640,660.1,627.9,659.7,627.9,659.7z"/>
<path class="st5" d="M630.2,661.1V630c8.3-1.5,16-5.2,22.3-10.8l4.2,34.7C642.3,661.1,630.2,661.1,630.2,661.1z"/>
<path class="st5" d="M665.8,599.7c3.9-9.4,5.8-19.9,6.5-29.8l30.9,8.3c-2.1,15.4-5.9,28-10.8,38.2L665.8,599.7z"/>
<rect x="504.5" y="577.1" class="st3" width="40.3" height="2.8"/>
<path class="st3" d="M611.7,617.9v56.3c-2-2.2-3.1-5-3.1-8v-40.3C608.6,622.9,609.7,620,611.7,617.9z"/>
<path class="st3" d="M441.2,621.6v42.2c-0.2,2.7-1.3,5.2-3.1,7.1v-56.4C439.9,616.4,441,618.9,441.2,621.6z"/>
<rect x="449" y="728.4" class="st3" width="151.3" height="2"/>
<rect x="445.7" y="772.1" class="st3" width="74" height="1.5"/>
<rect x="526.4" y="772.1" class="st3" width="74" height="1.5"/>
<rect x="453.9" y="369.9" class="st2" width="11.6" height="99.6"/>
<rect x="586.7" y="369.9" class="st2" width="11.6" height="99.6"/>
<circle class="st3" cx="459.3" cy="370.7" r="13.1"/>
<circle class="st2" cx="459.3" cy="369.9" r="13.1"/>
<circle class="st3" cx="592.8" cy="370.7" r="13.1"/>
<circle class="st2" cx="592.8" cy="369.9" r="13.1"/>
<path class="st6" d="M99,661.5c0,0,38.4,75.4,7.1,116.6s2.8,153.6,2.8,153.6"/>
<path class="st7" d="M110.4,638.1c0,14.5-10.7,26.3-10.7,26.3s-10.7-11.8-10.7-26.3s10.7-26.3,10.7-26.3S110.4,623.5,110.4,638.1z"
	/>
<path class="st8" d="M118.9,661.5c0,0-38.4,75.4-7.1,116.6S109,931.7,109,931.7"/>
<path class="st9" d="M107.6,638.1c0,14.5,10.7,26.3,10.7,26.3s10.7-11.8,10.7-26.3s-10.7-26.3-10.7-26.3S107.6,623.5,107.6,638.1z"
	/>
<path class="st6" d="M134.6,661.5c0,0,38.4,75.4,7.1,116.6s2.8,153.6,2.8,153.6"/>
<path class="st7" d="M146,638.1c0,14.5-10.7,26.3-10.7,26.3s-10.7-11.8-10.7-26.3s10.7-26.3,10.7-26.3S146,623.5,146,638.1z"/>
<path class="st7" d="M140,698.4C129.9,708.9,114,710,114,710s0.5-15.9,10.6-26.4s25.9-11.6,25.9-11.6S150.1,688,140,698.4z"/>
<path class="st7" d="M141,750.4C130.9,760.9,115,762,115,762s0.5-15.9,10.6-26.4s25.9-11.6,25.9-11.6S151.1,740,141,750.4z"/>
<path class="st7" d="M86.3,779.1c9.5,11,9.2,26.9,9.2,26.9S79.8,804,70.2,793s-9.2-26.9-9.2-26.9S76.8,768.1,86.3,779.1z"/>
<path class="st7" d="M95.2,668.2c12.1,8,16,23.4,16,23.4s-15.7,2.4-27.8-5.6s-16-23.4-16-23.4S83.1,660.1,95.2,668.2z"/>
<path class="st8" d="M154.5,661.5c0,0-38.4,75.4-7.1,116.6s-2.8,153.6-2.8,153.6"/>
<path class="st9" d="M143.1,638.1c0,14.5,10.7,26.3,10.7,26.3s10.7-11.8,10.7-26.3s-10.7-26.3-10.7-26.3S143.1,623.5,143.1,638.1z"
	/>
<path class="st9" d="M146.2,699.6c-10.2,10.3-10.9,26.2-10.9,26.2s15.9-0.9,26.1-11.3s10.9-26.2,10.9-26.2S156.4,689.2,146.2,699.6z
	"/>
<path class="st9" d="M166.2,771.6c-10.2,10.3-10.9,26.2-10.9,26.2s15.9-0.9,26.1-11.3s10.9-26.2,10.9-26.2S176.4,761.2,166.2,771.6z
	"/>
<path class="st8" d="M133.1,832.2c0,0,23.1-36.4,55.6-37.2"/>
<path class="st6" d="M118.8,733.7c0,0-23.1-36.4-55.6-37.2"/>
<path class="st8" d="M115.8,785.7c0,0,23.1-36.4,55.6-37.2"/>
<circle class="st9" cx="187.6" cy="794.7" r="6"/>
<circle class="st7" cx="63.8" cy="696.7" r="6"/>
<path class="st6" d="M132.8,797.7c0,0-23.1-36.4-55.6-37.2"/>
<circle class="st7" cx="77.8" cy="760.7" r="6"/>
<circle class="st9" cx="171.8" cy="748.7" r="6"/>
<path class="st10" d="M260.5,888c0,0-55.7-11.1-70.6-26s-81.7-40.9-89.1-22.3S0.6,921.4,63.7,932.5s148.5,14.8,167.1,7.4
	S260.5,888,260.5,888z"/>
<path class="st11" d="M63.7,925.7c63.1,11.1,148.5,14.8,167.1,7.4c14.1-5.7,24-32.8,27.9-45.5l1.9,0.4c0,0-11.1,44.6-29.7,52
	s-104,3.7-167.1-7.4c-18.2-3.2-23.4-10.8-21.5-20.3C43.8,918.4,50.2,923.2,63.7,925.7z"/>
<path class="st7" d="M945,792.9c0,0,13.3,17.4-6.2,43.8s-35.6,48.6-29.1,65c0,0,29.4-48.9,53.4-49.6S971.3,822.3,945,792.9z"/>
<path class="st3" d="M945,792.9c1.2,1.7,2.1,3.5,2.7,5.5c23.4,27.5,35.8,53.1,13.4,53.7c-20.9,0.6-46,38-52,47.5
	c0.2,0.7,0.4,1.5,0.7,2.2c0,0,29.4-48.9,53.4-49.6S971.3,822.3,945,792.9z"/>
<path class="st9" d="M969.8,815.1c0,6.2-0.7,11.1-1.5,11.1s-1.5-5-1.5-11.1s0.9-3.2,1.7-3.2S969.8,809,969.8,815.1z"/>
<path class="st9" d="M978.3,822.4c-5.4,2.9-10.1,4.7-10.5,4s3.6-3.7,9-6.7s3.3-0.8,3.7,0S983.7,819.5,978.3,822.4z"/>
<path class="st7" d="M874.5,792.9c0,0-13.3,17.5,6.2,43.8s35.6,48.6,29.1,65c0,0-29.4-48.9-53.4-49.6S848.1,822.3,874.5,792.9z"/>
<path class="st3" d="M874.5,792.9c-1.2,1.7-2.1,3.5-2.7,5.5c-23.4,27.5-35.8,53.1-13.4,53.7c20.9,0.6,46,38,52,47.5
	c-0.2,0.7-0.4,1.5-0.7,2.2c0,0-29.4-48.9-53.4-49.6S848.1,822.3,874.5,792.9z"/>
<path class="st9" d="M849.7,815.1c0,6.2,0.7,11.1,1.5,11.1s1.5-5,1.5-11.1s-0.9-3.2-1.7-3.2S849.7,809,849.7,815.1z"/>
<path class="st9" d="M841.2,822.4c5.4,2.9,10.1,4.7,10.5,4s-3.6-3.7-9-6.7s-3.3-0.8-3.7,0S835.8,819.5,841.2,822.4z"/>
<path class="st10" d="M853.9,899.4c0,0,37.3-1.2,48.6-9.2s57.4-17.6,60.2-4.7s56.1,63.9,14,64.2s-97.9-6.6-109.1-13.4
	S853.9,899.4,853.9,899.4z"/>
<path class="st11" d="M977.4,945.3c-42.1,0.3-97.9-6.6-109.1-13.4c-8.5-5.2-12-23.9-13.1-32.5h-1.2c0,0,2.4,30.1,13.6,36.9
	s67,13.7,109.1,13.4c12.2-0.1,16.4-4.4,16.1-10.8C991.1,942.8,986.4,945.2,977.4,945.3z"/>
<linearGradient id="SVGID_1_" gradientUnits="userSpaceOnUse" x1="507.015" y1="424.77" x2="507.015" y2="95.87" gradientTransform="matrix(1 0 0 1 0.84 -95.87)">
	<stop  offset="0" style="stop-color:#808080;stop-opacity:0.25"/>
	<stop  offset="0.54" style="stop-color:#808080;stop-opacity:0.12"/>
	<stop  offset="1" style="stop-color:#808080;stop-opacity:0.1"/>
</linearGradient>
<polygon class="st12" points="266.5,0 266.5,16.6 266.5,328.9 749.3,328.9 749.3,16.6 749.3,0 "/>
<rect x="273.6" y="14.9" class="st13" width="470.5" height="308"/>
<rect x="273.6" y="0.3" class="st14" width="470.5" height="22.7"/>
<circle class="st15" cx="291.5" cy="11.3" r="5.5"/>
<circle class="st16" cx="306.6" cy="11.3" r="5.5"/>
<circle class="st17" cx="321.7" cy="11.3" r="5.5"/>
<rect x="291.6" y="59.2" class="st18" width="175.3" height="7.3"/>
<rect x="291.6" y="73.8" class="st18" width="175.3" height="7.3"/>
<rect x="291.6" y="88.4" class="st18" width="175.3" height="7.3"/>
<rect x="352.1" y="103.1" class="st18" width="114.9" height="7.3"/>
<rect x="291.6" y="117.7" class="st18" width="92.3" height="7.3"/>
<rect x="341.5" y="132.3" class="st18" width="71.1" height="7.3"/>
<text transform="matrix(0.9034 -0.4289 0.4289 0.9034 437.2111 253.0296)" class="st19 st20 st21">em</text>
<text transform="matrix(0.9034 -0.4289 0.4289 0.9034 543.5403 202.5476)" class="st19 st20 st21">p</text>
<text transform="matrix(0.9034 -0.4289 0.4289 0.9034 586.9237 181.9505)" class="st19 st20 st21">t</text>
<text transform="matrix(0.9034 -0.4289 0.4289 0.9034 616.8012 167.7655)" class="st19 st20 st21 st22">y</text>
<path class="st0" d="M972.8,112.9h-6.9c2.7,0.1,4.9-1.9,5-4.6c0.1-2.7-1.9-4.9-4.6-5c-0.1,0-0.3,0-0.4,0h-55.7
	c-2.7-0.1-4.9,1.9-5,4.6c-0.1,2.7,1.9,4.9,4.6,5c0.1,0,0.3,0,0.4,0h6.9c-2.7,0-4.8,2.2-4.8,4.8c0,2.7,2.2,4.8,4.8,4.8h-9.6
	c-2.7,0.1-4.7,2.4-4.6,5c0.1,2.5,2.1,4.5,4.6,4.6h55.7c2.7-0.1,4.7-2.4,4.6-5c-0.1-2.5-2.1-4.5-4.6-4.6h9.6c2.7,0,4.8-2.2,4.8-4.8
	C977.6,115,975.5,112.9,972.8,112.9L972.8,112.9z"/>
</svg>
