<?xml version="1.0" encoding="utf-8"?>
<!-- Generator: Adobe Illustrator 24.0.3, SVG Export Plug-In . SVG Version: 6.00 Build 0)  -->
<svg version="1.1" id="Layer_1" xmlns="http://www.w3.org/2000/svg" xmlns:xlink="http://www.w3.org/1999/xlink" x="0px" y="0px"
	 viewBox="0 0 1920 1080" style="enable-background:new 0 0 1920 1080;" xml:space="preserve">
<style type="text/css">
	.st0{opacity:0.4;fill:#FFFFFF;enable-background:new    ;}
	.st1{fill:#F2F2F2;}
	.st2{fill:none;stroke:#3F3D56;stroke-width:1.0379;stroke-miterlimit:10;}
	.st3{fill:none;stroke:#3F3D56;stroke-width:0.7908;stroke-miterlimit:10;}
	.st4{fill:#58D69D;}
	.st5{fill:none;stroke:#3F3D56;stroke-miterlimit:10;}
	.st6{fill:#3F3D56;}
	.st7{fill:#2F2E41;}
	.st8{fill:#F97682;}
	.st9{fill:none;stroke:#3F3D56;stroke-width:0.85;stroke-miterlimit:10;}
	.st10{fill:#E6E8EC;}
	.st11{opacity:0.2;enable-background:new    ;}
</style>
<rect x="185" y="511.7" class="st0" width="18" height="38"/>
<g id="Cloud3">
	<path class="st1" d="M1258.5,224c2.4-45.2,39.7-80.7,85-80.7c2.6,0,5.1,0.1,7.7,0.4c31.4-54,100.7-72.4,154.7-41
		c16.9,9.9,31,23.9,40.9,40.9c2.1-0.2,4.3-0.3,6.5-0.3c45.3,0,82.7,35.5,85,80.7"/>
	<path class="st2" d="M1276.3,217.5c2.4-45.2,39.7-80.7,85-80.7c2.6,0,5.1,0.1,7.7,0.4c31.4-54,100.7-72.4,154.7-41
		c16.9,9.9,31,23.9,40.9,40.9c2.1-0.2,4.3-0.3,6.5-0.3c45.3,0,82.7,35.5,85,80.7"/>
</g>
<g id="Cloud4">
	<path class="st1" d="M778.4,957.9c1.8-34.5,30.2-61.5,64.8-61.5c1.9,0,3.9,0.1,5.8,0.3c24-41.2,76.7-55.1,117.9-31.2
		c12.9,7.5,23.6,18.2,31.2,31.1c1.6-0.1,3.3-0.2,5-0.2c34.5,0,63,27,64.8,61.5"/>
	<path class="st3" d="M791.9,952.9c1.8-34.5,30.2-61.5,64.8-61.5c1.9,0,3.9,0.1,5.8,0.3c24-41.2,76.7-55.1,117.9-31.2
		c12.9,7.5,23.6,18.2,31.2,31.1c1.6-0.1,3.3-0.2,5-0.2c34.5,0,63,27,64.8,61.5"/>
</g>
<g id="Square4">
	<rect x="199.7" y="1004" class="st4" width="32" height="32"/>
	<rect x="204.7" y="998" class="st5" width="32" height="32"/>
</g>
<g id="Square3">
	<rect x="231.7" y="176" class="st4" width="32" height="32"/>
	<rect x="236.7" y="170" class="st5" width="32" height="32"/>
</g>
<g id="Square5">
	<rect x="1184.2" y="975.2" class="st4" width="32" height="32"/>
	<rect x="1189.2" y="969.2" class="st5" width="32" height="32"/>
</g>
<g id="Circle2">
	<circle class="st4" cx="500.2" cy="671.7" r="22"/>
	<circle class="st5" cx="509.2" cy="662.7" r="22"/>
</g>
<g id="Square1">
	<rect x="1798.2" y="195.2" class="st4" width="32" height="32"/>
	<rect x="1803.2" y="189.2" class="st5" width="32" height="32"/>
</g>
<g id="Cloud1_1_">
	<path class="st1" d="M121.4,552.6c2.3-43.6,38.3-77.8,81.9-77.8c2.5,0,5,0.1,7.4,0.3c30.3-52.1,97-69.7,149-39.5
		c16.3,9.5,29.9,23.1,39.4,39.4c2.1-0.2,4.1-0.3,6.2-0.3c43.7,0,79.7,34.2,81.9,77.8"/>
	<path class="st5" d="M138.5,546.3c2.3-43.6,38.3-77.8,81.9-77.8c2.5,0,5,0.1,7.4,0.3c30.3-52.1,97-69.7,149-39.5
		c16.3,9.5,29.9,23.1,39.4,39.4c2.1-0.2,4.1-0.3,6.2-0.3c43.7,0,79.7,34.2,81.9,77.8"/>
</g>
<g>
	
		<rect x="714.5" y="578.1" transform="matrix(0.9991 -4.191423e-02 4.191423e-02 0.9991 -24.6188 32.8644)" class="st1" width="113.9" height="50.9"/>
	<path class="st6" d="M1105.4,676.7l-10.8-10.6l10.6-10.8l10.8,10.6L1105.4,676.7z M1096.2,666.1l9.1,9l9-9.1l-9.1-9L1096.2,666.1z"
		/>
	<path class="st6" d="M964,637.1l-15.1,0.6l-0.6-15.1l15.1-0.6L964,637.1z M950,636.5l12.8-0.5l-0.5-12.8l-12.8,0.5L950,636.5z"/>
	<path class="st6" d="M1243.3,596.2l-15.1,0.6l-0.6-15.1l15.1-0.6L1243.3,596.2z M1229.4,595.6l12.8-0.5l-0.5-12.8l-12.8,0.5
		L1229.4,595.6z"/>
	
		<rect x="743.5" y="594.2" transform="matrix(0.9991 -4.191423e-02 4.191423e-02 0.9991 -24.2527 32.8357)" class="st6" width="54.9" height="1.2"/>
	
		<rect x="743.9" y="603" transform="matrix(0.9991 -4.191423e-02 4.191423e-02 0.9991 -24.6211 32.8603)" class="st6" width="54.9" height="1.2"/>
	
		<rect x="744.3" y="611.7" transform="matrix(0.9991 -4.191423e-02 4.191423e-02 0.9991 -24.9854 32.8846)" class="st6" width="54.9" height="1.2"/>
	
		<rect x="1047.5" y="497.9" transform="matrix(0.9991 -4.191423e-02 4.191423e-02 0.9991 -19.9492 45.4928)" class="st6" width="54.9" height="1.2"/>
	
		<rect x="1047.8" y="506.6" transform="matrix(0.9991 -4.191423e-02 4.191423e-02 0.9991 -20.3137 45.5129)" class="st6" width="54.9" height="1.2"/>
	
		<rect x="1048.2" y="515.4" transform="matrix(0.9991 -4.191423e-02 4.191423e-02 0.9991 -20.6821 45.5375)" class="st6" width="54.9" height="1.2"/>
	<path class="st7" d="M792.7,563.1c8.6-21.7,22.3-36.3,40.7-43.4c13.7-5.3,29.7-6.4,47.7-3.3c13.2,2.3,26,6.7,37.9,12.9
		c63.3,33.3,101.5,32,122.4,25c22.9-7.6,30.8-23.5,30.8-23.7l1.1,0.5c-0.1,0.2-8.1,16.5-31.5,24.3c-13.5,4.5-29.4,5.3-47.4,2.5
		c-22.3-3.5-47.9-12.8-76-27.6c-11.8-6.2-24.4-10.5-37.6-12.8c-29.4-5-68.5-1.2-87.2,46L792.7,563.1z"/>
	<path class="st6" d="M845.1,626.5L715,632l-2.8-66.5l130.1-5.5L845.1,626.5z M716.1,630.8l127.8-5.4l-2.7-64.2l-127.8,5.4
		L716.1,630.8z"/>
	
		<rect x="876.5" y="527.5" transform="matrix(0.9991 -4.191423e-02 4.191423e-02 0.9991 -22.3557 39.6099)" class="st1" width="113.9" height="50.9"/>
	
		<rect x="905.6" y="543.6" transform="matrix(0.9991 -4.191423e-02 4.191423e-02 0.9991 -21.9894 39.5855)" class="st6" width="54.9" height="1.2"/>
	
		<rect x="906" y="552.3" transform="matrix(0.9991 -4.191423e-02 4.191423e-02 0.9991 -22.3536 39.6098)" class="st6" width="54.9" height="1.2"/>
	
		<rect x="904.5" y="559.4" transform="matrix(0.9991 -4.191423e-02 4.191423e-02 0.9991 -22.6526 39.5532)" class="st6" width="54.9" height="1.2"/>
	<path class="st6" d="M1007.2,575.9l-130.1,5.5l-2.8-66.5l130.1-5.5L1007.2,575.9z M878.2,580.2l127.8-5.4l-2.7-64.2L875.5,516
		L878.2,580.2z"/>
	
		<rect x="1169.1" y="495.4" transform="matrix(0.9991 -4.191423e-02 4.191423e-02 0.9991 -20.7532 51.8456)" class="st1" width="113.9" height="50.9"/>
	
		<rect x="1198.2" y="511.4" transform="matrix(0.9991 -4.191423e-02 4.191423e-02 0.9991 -20.3827 51.8209)" class="st6" width="54.9" height="1.2"/>
	
		<rect x="1198.6" y="520.2" transform="matrix(0.9991 -4.191423e-02 4.191423e-02 0.9991 -20.7511 51.8455)" class="st6" width="54.9" height="1.2"/>
	
		<rect x="1199" y="528.9" transform="matrix(0.9991 -4.191423e-02 4.191423e-02 0.9991 -21.1153 51.8698)" class="st6" width="54.9" height="1.2"/>
	<path class="st6" d="M1299.8,543.8l-130.1,5.5l-2.8-66.5l130.1-5.5L1299.8,543.8z M1170.8,548l127.8-5.4l-2.7-64.2l-127.8,5.4
		L1170.8,548z"/>
</g>
<polyline class="st1" points="838.9,255.8 1004.6,290.6 1026,188.4 837.4,148.8 822.4,220.4 "/>
<polygon points="831.4,246.4 997.9,281.4 1019.7,177.7 829.5,137.7 814.3,210.1 815.8,210.4 830.7,139.5 1017.8,178.9 996.7,279.5 
	831.7,244.9 "/>
<polygon points="763.5,232.5 808.4,242 808.7,240.5 769.6,232.2 813.3,218.6 812.9,217.2 "/>
<rect x="916.1" y="119.7" transform="matrix(0.2056 -0.9786 0.9786 0.2056 537.9479 1051.8552)" width="1.5" height="149.7"/>
<rect x="912.9" y="134.8" transform="matrix(0.2056 -0.9786 0.9786 0.2056 520.6677 1060.6954)" width="1.5" height="149.7"/>
<rect x="909.8" y="149.8" transform="matrix(0.2056 -0.9786 0.9786 0.2056 503.4994 1069.4778)" width="1.5" height="149.7"/>
<circle class="st8" cx="766.6" cy="232.1" r="6.3"/>
<g>
	
		<rect x="1511.7" y="888.4" transform="matrix(0.9991 -4.191423e-02 4.191423e-02 0.9991 -36.9239 66.5504)" class="st1" width="113.9" height="50.9"/>
	<path class="st6" d="M1902.5,987l-10.8-10.6l10.6-10.8l10.8,10.6L1902.5,987z M1893.4,976.3l9.1,9l9-9.1l-9.1-9L1893.4,976.3z"/>
	<path class="st6" d="M1761.2,947.4l-15.1,0.6l-0.6-15.1l15.1-0.6L1761.2,947.4z M1747.2,946.8l12.8-0.5l-0.5-12.8l-12.8,0.5
		L1747.2,946.8z"/>
	<path class="st6" d="M2040.5,906.4l-15.1,0.6l-0.6-15.1l15.1-0.6L2040.5,906.4z M2026.5,905.8l12.8-0.5l-0.5-12.8L2026,893
		L2026.5,905.8z"/>
	
		<rect x="1540.7" y="904.5" transform="matrix(0.9991 -4.191423e-02 4.191423e-02 0.9991 -36.5578 66.5218)" class="st6" width="54.9" height="1.2"/>
	
		<rect x="1541.1" y="913.2" transform="matrix(0.9991 -4.191423e-02 4.191423e-02 0.9991 -36.9221 66.5461)" class="st6" width="54.9" height="1.2"/>
	
		<rect x="1541.5" y="922" transform="matrix(0.9991 -4.191423e-02 4.191423e-02 0.9991 -37.2905 66.5707)" class="st6" width="54.9" height="1.2"/>
	
		<rect x="1844.7" y="808.2" transform="matrix(0.9991 -4.191423e-02 4.191423e-02 0.9991 -32.2543 79.1788)" class="st6" width="54.9" height="1.2"/>
	
		<rect x="1845" y="816.9" transform="matrix(0.9991 -4.191423e-02 4.191423e-02 0.9991 -32.6188 79.199)" class="st6" width="54.9" height="1.2"/>
	
		<rect x="1845.4" y="825.7" transform="matrix(0.9991 -4.191423e-02 4.191423e-02 0.9991 -32.9872 79.2236)" class="st6" width="54.9" height="1.2"/>
	<path class="st7" d="M1589.9,873.3c8.6-21.7,22.3-36.3,40.7-43.4c13.7-5.3,29.7-6.4,47.7-3.3c13.2,2.3,26,6.7,37.9,12.9
		c63.3,33.3,101.5,32,122.4,25c22.9-7.6,30.8-23.5,30.8-23.7l1.1,0.5c-0.1,0.2-8.1,16.5-31.5,24.3c-13.5,4.5-29.4,5.3-47.4,2.5
		c-22.3-3.5-47.9-12.8-76-27.6c-11.8-6.2-24.4-10.5-37.6-12.8c-29.4-5-68.5-1.2-87.2,46L1589.9,873.3z"/>
	<path class="st6" d="M1642.3,936.8l-130.1,5.5l-2.8-66.5l130.1-5.5L1642.3,936.8z M1513.3,941l127.8-5.4l-2.7-64.2l-127.8,5.4
		L1513.3,941z"/>
	
		<rect x="1673.7" y="837.8" transform="matrix(0.9991 -4.191423e-02 4.191423e-02 0.9991 -34.6609 73.296)" class="st1" width="113.9" height="50.9"/>
	
		<rect x="1702.8" y="853.8" transform="matrix(0.9991 -4.191423e-02 4.191423e-02 0.9991 -34.2904 73.2713)" class="st6" width="54.9" height="1.2"/>
	
		<rect x="1703.2" y="862.6" transform="matrix(0.9991 -4.191423e-02 4.191423e-02 0.9991 -34.6588 73.2958)" class="st6" width="54.9" height="1.2"/>
	
		<rect x="1701.7" y="869.7" transform="matrix(0.9991 -4.191423e-02 4.191423e-02 0.9991 -34.9578 73.2393)" class="st6" width="54.9" height="1.2"/>
	<path class="st6" d="M1804.4,886.2l-130.1,5.5l-2.8-66.5l130.1-5.5L1804.4,886.2z M1675.4,890.4l127.8-5.4l-2.7-64.2l-127.8,5.4
		L1675.4,890.4z"/>
	
		<rect x="1966.3" y="805.6" transform="matrix(0.9991 -4.191423e-02 4.191423e-02 0.9991 -33.0541 85.5314)" class="st1" width="113.9" height="50.9"/>
	
		<rect x="1995.4" y="821.7" transform="matrix(0.9991 -4.191423e-02 4.191423e-02 0.9991 -32.6878 85.507)" class="st6" width="54.9" height="1.2"/>
	
		<rect x="1995.8" y="830.4" transform="matrix(0.9991 -4.191423e-02 4.191423e-02 0.9991 -33.052 85.5313)" class="st6" width="54.9" height="1.2"/>
	
		<rect x="1996.2" y="839.2" transform="matrix(0.9991 -4.191423e-02 4.191423e-02 0.9991 -33.4205 85.5559)" class="st6" width="54.9" height="1.2"/>
	<path class="st6" d="M2097,854l-130.1,5.5l-2.8-66.5l130.1-5.5L2097,854z M1968,858.3l127.8-5.4l-2.7-64.2l-127.8,5.4L1968,858.3z"
		/>
</g>
<path class="st9" d="M1493.5,479.4"/>
<path class="st9" d="M1487.2,517.2"/>
<rect x="1474.6" y="527.5" transform="matrix(0.1646 -0.9864 0.9864 0.1646 720.257 1906.3018)" class="st6" width="21.9" height="0.9"/>
<path class="st6" d="M1599.2,690.2l-117.5-19.6c-11.1-1.9-18.5-12.3-16.7-23.4l11.7-70.2l0.8,0.1l-11.7,70.2
	c-1.8,10.6,5.4,20.6,16,22.4l117.5,19.6c10.6,1.8,20.6-5.4,22.4-16l11.9-71.2l0.8,0.1l-11.9,71.2
	C1620.8,684.6,1610.3,692,1599.2,690.2z"/>
<rect x="1631.5" y="553.5" transform="matrix(0.1646 -0.9864 0.9864 0.1646 825.4865 2082.5413)" class="st6" width="21.4" height="0.9"/>
<path class="st9" d="M1643.9,543.4"/>
<path class="st9" d="M1650.2,505.6"/>
<path class="st6" d="M1650.6,505.7l-0.8-0.1l3.4-20.6l1.3,0.2c0.5,0.1,0.9-0.2,1-0.7l6-36.1c0.1-0.5-0.2-0.9-0.7-1l-1.3-0.2l8.9-53
	c1.8-10.6-5.4-20.6-16-22.4l-117.5-19.6c-10.6-1.8-20.6,5.4-22.4,16l-18.6,111.3l-0.8-0.1l18.6-111.3c1.9-11.1,12.3-18.5,23.4-16.7
	l117.5,19.6c11.1,1.9,18.5,12.3,16.7,23.4l-8.7,52.2l0.5,0.1c0.9,0.2,1.6,1,1.4,2l-6,36.1c-0.2,0.9-1,1.6-2,1.4l-0.5-0.1
	L1650.6,505.7z"/>
<path class="st10" d="M1578.3,369.3l19.7,3.3c0.6,0.1,1,0.7,0.9,1.2l-0.4,2.3c-0.1,0.6-0.7,1-1.2,0.9l-19.7-3.3
	c-0.6-0.1-1-0.7-0.9-1.2l0.4-2.3C1577.1,369.6,1577.7,369.2,1578.3,369.3z"/>
<circle class="st10" cx="1604.5" cy="376" r="2.6"/>
<path class="st10" d="M1658.7,396.5l-46.2,277c-1.1,6.9-7.6,11.5-14.5,10.4l-112.4-18.8c-6.9-1.1-11.5-7.6-10.4-14.5l0,0l46.2-277
	c1.1-6.9,7.6-11.5,14.5-10.4l0,0l16.8,2.8l-0.4,2.2c-0.9,5.7,2.9,11,8.5,12l57.2,9.5c5.7,0.9,11-2.9,12-8.5l0.4-2.2l17.9,3
	C1655.2,383.2,1659.9,389.7,1658.7,396.5L1658.7,396.5z"/>
<rect x="1524.9" y="580.3" transform="matrix(0.1646 -0.9864 0.9864 0.1646 673.0002 2053.761)" class="st11" width="48" height="98.6"/>
<path class="st6" d="M1651.2,545.1l-170.9-28.5l6.5-38.7l170.9,28.5L1651.2,545.1z M1481.5,515.7l168.9,28.2l6.1-36.7L1487.6,479
	L1481.5,515.7z"/>
<rect x="1496.5" y="494.5" transform="matrix(0.1646 -0.9864 0.9864 0.1646 760.9278 1906.8461)" class="st8" width="19.4" height="19.4"/>
<path class="st6" d="M1512,512.5l-20.1-3.4l3.4-20.1l20.1,3.4L1512,512.5z M1493.1,508.3l18.1,3l3-18.1l-18.1-3L1493.1,508.3z"/>
<rect x="1590.6" y="464.3" transform="matrix(0.1646 -0.9864 0.9864 0.1646 826.5051 1995.1521)" class="st6" width="1" height="90.7"/>
<rect x="1589.4" y="471.4" transform="matrix(0.1646 -0.9864 0.9864 0.1646 818.5314 1999.8497)" class="st6" width="1" height="90.7"/>
<rect x="1588.2" y="478.4" transform="matrix(0.1646 -0.9864 0.9864 0.1646 810.5574 2004.5471)" class="st6" width="1" height="90.7"/>
<path class="st6" d="M1641.3,604.5L1470.4,576l6.5-38.7l170.9,28.5L1641.3,604.5z M1471.6,575.1l168.9,28.2l6.1-36.7l-168.9-28.2
	L1471.6,575.1z"/>
<rect x="1611.2" y="574.7" transform="matrix(0.1646 -0.9864 0.9864 0.1646 777.6577 2087.0383)" class="st8" width="19.4" height="19.4"/>
<path class="st6" d="M1632.8,593.7l-20.1-3.4l3.4-20.1l20.1,3.4L1632.8,593.7z M1613.8,589.5l18.1,3l3-18.1l-18.1-3L1613.8,589.5z"
	/>
<rect x="1538.4" y="516.7" transform="matrix(0.1646 -0.9864 0.9864 0.1646 731.2073 1987.4658)" class="st6" width="1" height="90.7"/>
<rect x="1537.2" y="523.7" transform="matrix(0.1646 -0.9864 0.9864 0.1646 723.3445 1992.0972)" class="st6" width="1" height="90.7"/>
<rect x="1536.1" y="530.7" transform="matrix(0.1646 -0.9864 0.9864 0.1646 715.437 1996.9058)" class="st6" width="1" height="90.7"/>
<rect x="1581.8" y="385.5" transform="matrix(0.1646 -0.9864 0.9864 0.1646 896.8714 1920.6486)" class="st6" width="1" height="90.7"/>
<rect x="1580.6" y="392.5" transform="matrix(0.1646 -0.9864 0.9864 0.1646 889.0087 1925.2799)" class="st6" width="1" height="90.7"/>
<rect x="1579.5" y="399.5" transform="matrix(0.1646 -0.9864 0.9864 0.1646 881.101 1930.0884)" class="st6" width="1" height="90.7"/>
</svg>
